<?xml version="1.0" encoding="UTF-8"?>
<svg id="Capa_2" data-name="Capa 2" xmlns="http://www.w3.org/2000/svg" viewBox="0 0 76 76">
  <defs>
    <style>
      .cls-1 {
        fill: none;
      }
    </style>
  </defs>
  <g id="Capa_1-2" data-name="Capa 1">
    <g>
      <rect class="cls-1" width="76" height="76"/>
      <path d="M36.21,76c-4.24,0-8.5-.75-12.81-2.24-4.3-1.49-7.84-3.45-10.62-5.88-.21-2.43.24-4.48,1.35-6.14,1.11-1.67,2.71-2.64,4.79-2.91,2.08,1.94,4.6,3.49,7.55,4.63,2.95,1.14,5.85,1.72,8.69,1.72,4.51,0,8.05-.88,10.62-2.65,2.57-1.77,3.92-4.22,4.06-7.34,0-4.09-1.46-7.01-4.37-8.74-1.6-.97-3.09-1.73-4.48-2.29-2.29-.83-4.51-1.63-6.66-2.39-5.69-1.94-10.27-4.13-13.74-6.56-4.58-3.26-6.87-8.05-6.87-14.37s2.25-11.35,6.77-15.1C24.93,1.91,30.94,0,38.5,0c4.02,0,8.05.66,12.08,1.98,4.03,1.32,7.29,3.05,9.79,5.21.14,2.5-.31,4.51-1.35,6.04-1.04,1.53-2.6,2.43-4.68,2.71-4.58-3.4-9.65-5.1-15.2-5.1-3.61,0-6.45.8-8.54,2.39-2.08,1.6-3.12,3.78-3.12,6.56,0,2.98,1.04,5.21,3.12,6.66,2.22,1.39,5.9,2.95,11.04,4.68l6.25,2.08c1.73.56,3.64,1.49,5.73,2.81,2.29,1.25,4.06,2.6,5.31,4.06,3.19,3.61,4.79,8.22,4.79,13.85,0,6.8-2.46,12.18-7.39,16.14-4.93,3.96-11.63,5.93-20.09,5.93Z"/>
    </g>
  </g>
</svg>