<svg width="73" height="73" viewBox="0 0 73 73" fill="none" xmlns="http://www.w3.org/2000/svg">
<path d="M72.2744 36.2745L72.2366 36.356L72.1231 36.44L71.9345 36.5292L71.6714 36.6258L71.3346 36.7325L70.9252 36.8516L70.4447 36.9855L69.2771 37.3062L68.5938 37.4972L67.8472 37.7113L67.0397 37.9501L66.1741 38.2154L65.2532 38.5086L64.2801 38.8309L63.2578 39.1835L62.1898 39.5673L61.0796 39.9831L59.9307 40.4314L58.7467 40.9126L57.5315 41.4268L56.2889 41.974L55.0227 42.5538L53.737 43.1658L52.4356 43.8093L51.1224 44.4834L49.8015 45.1869L48.4768 45.9186L47.1521 46.6769L45.8312 47.4601L44.5178 48.2663L43.2157 49.0934L41.9283 49.9392L40.6592 50.8011L39.4115 51.6766L38.1884 52.563L36.993 53.4575L35.8281 54.3569L34.6964 55.2583L33.6002 56.1584L32.542 57.0539L31.5237 57.9415L30.5473 58.8178L29.6143 59.6794L28.7263 60.5228L27.8845 61.3445L27.0898 62.141L26.343 62.9089L25.6446 63.6449L24.9949 64.3455L24.394 65.0076L23.8419 65.6278L23.338 66.2031L22.8818 66.7306L22.1094 67.6306L21.7909 67.998L21.5158 68.3069L21.2826 68.5553L21.0895 68.7412L20.9347 68.8626L20.8162 68.918L20.7318 68.9061L20.6792 68.8256L20.6561 68.6757L20.6599 68.4556L20.6883 68.1649L20.7384 67.8033L20.8078 67.3711L20.8936 66.8684L20.9932 66.2958L21.1038 65.6541L21.2228 64.9444L21.3473 64.1679L21.4749 63.3261L21.6028 62.421L21.7286 61.4544L21.8498 60.4285L21.9641 59.3459L22.0691 58.2091L22.1628 57.021L22.2432 55.7847L22.3084 54.5033L22.3566 53.1802L22.3865 51.8189L22.3965 50.4231L22.3855 48.9965L22.3524 47.543L22.2965 46.0666L22.2171 44.5713L22.1137 43.0612L21.9862 41.5406L21.8345 40.0134L21.6588 38.4841L21.4594 36.9566L21.237 35.4353L20.9923 33.9242L20.7263 32.4274L20.4401 30.9488L20.1351 29.4925L19.8129 28.0622L19.4751 26.6616L19.1236 25.2943L18.7605 23.9638L18.3879 22.6732L18.0081 21.4258L17.6236 20.2244L17.2369 19.0718L16.8507 17.9705L16.4677 16.9229L16.0906 15.931L15.7225 14.9967L15.3661 14.1218L15.0244 13.3077L14.7004 12.5554L14.397 11.866L14.1172 11.2403L13.6399 10.1811L13.4481 9.74788L13.2911 9.37865L13.1717 9.07291L13.0923 8.82992L13.0555 8.64874L13.0634 8.52819L13.1182 8.46688L13.2219 8.46323L13.3763 8.51546L13.5831 8.62159L13.8438 8.7795L14.1595 8.98687L14.5313 9.24126L14.9602 9.54009L15.4466 9.88064L15.991 10.2601L16.5936 10.6756L17.2543 11.124L17.9728 11.6024L18.7485 12.1077L19.5807 12.6366L20.4684 13.186L21.4103 13.7529L22.4049 14.3339L23.4506 14.926L24.5454 15.5262L25.6871 16.1312L26.8734 16.7383L28.1017 17.3445L29.3693 17.9471L30.6733 18.5433L32.0104 19.1306L33.3775 19.7067L34.7712 20.2692L36.1878 20.8161L37.6237 21.3453L39.0752 21.8552L40.5382 22.344L42.0088 22.8105L43.4831 23.2533L44.9569 23.6715L46.4262 24.0642L47.8867 24.4309L49.3344 24.7711L50.7652 25.0846L52.175 25.3714L53.5597 25.6318L54.9155 25.866L56.2383 26.0748L57.5245 26.2589L58.7704 26.4193L59.9724 26.5571L61.1271 26.6738L62.2312 26.7708L63.2818 26.8497L64.2758 26.9124L65.2106 26.9608L66.0837 26.997L66.8927 27.0232L67.6356 27.0416L68.3105 27.0546L68.9158 27.0647L69.4502 27.0743L69.9124 27.0861L70.3017 27.1025L70.6173 27.1263L70.8589 27.1599L71.0264 27.2061L71.1199 27.2672L71.1398 27.3459L71.0867 27.4447L70.9616 27.5659L70.7655 27.7117L70.4998 27.8845L70.166 28.0864L69.766 28.3192L69.3019 28.5849L68.7758 28.8851L68.1901 29.2213L67.5475 29.595L66.8507 30.0073L66.1027 30.4591L65.3065 30.9514L64.4652 31.4846L63.5824 32.0593L62.6613 32.6755L61.7054 33.3333L60.7184 34.0324L59.7038 34.7723L58.6654 35.5524L57.6068 36.3718L56.5317 37.2292L55.4438 38.1235L54.3468 39.0529L53.2443 40.0159L52.1398 41.0104L51.037 42.0342L49.9391 43.085L48.8495 44.1603L47.7715 45.2574L46.708 46.3734L45.6621 47.5054L44.6365 48.6501L43.6339 49.8043L42.6567 50.9647L41.7072 52.1277L40.7875 53.2899L39.8996 54.4474L39.045 55.5968L38.2254 56.7341L37.4419 57.8558L36.6957 58.958L35.9877 60.0369L35.3183 61.0889L34.6882 62.1103L34.0974 63.0974L33.546 64.0466L33.0337 64.9545L32.56 65.8178L32.1245 66.633L31.7261 67.3973L31.3639 68.1074L31.0367 68.7607L30.7431 69.3545L30.4815 69.8862L30.2502 70.3537L30.0474 70.7548L29.871 71.0877L29.7191 71.3508L29.5893 71.5426L29.4793 71.6619L29.3868 71.708L29.3093 71.6799L29.2443 71.5774L29.1892 71.4002L29.1415 71.1485L29.0986 70.8225L29.0579 70.4228L29.0169 69.9503L28.9238 68.7914L28.8669 68.1079L28.7999 67.3574L28.7206 66.5418L28.6268 65.6635L28.5167 64.7249L28.3882 63.7288L28.2396 62.6778L28.0694 61.5751L27.876 60.4239L27.6583 59.2276L27.4151 57.9896L27.1455 56.7135L26.8489 55.4032L26.5246 54.0623L26.1723 52.695L25.792 51.3051L25.3837 49.8966L24.9478 48.4737L24.4846 47.0403L23.995 45.6007L23.4798 44.1588L22.9402 42.7188L22.3774 41.2845L21.793 39.8599L21.1886 38.4489L20.5662 37.0552L19.9277 35.6824L19.2754 34.3341L18.6117 33.0137L17.939 31.7244L17.2599 30.4693L16.5774 29.2513L15.8942 28.0731L15.2132 26.9372L14.5376 25.8461L13.8705 24.8017L13.2151 23.8061L12.5744 22.8609L11.9519 21.9676L11.3507 21.1274L10.7741 20.3413L10.2254 19.6101L9.70757 18.9343L9.2239 18.3142L8.77742 17.75L8.3711 17.2413L8.00784 16.7879L7.6904 16.3892L7.42143 16.0442L7.20343 15.752L7.03877 15.5113L6.92964 15.3207L6.87804 15.1787L6.88581 15.0832L6.95458 15.0326L7.08578 15.0245L7.28062 15.0569L7.54009 15.1272L7.86495 15.233L8.25572 15.3718L8.7127 15.5408L9.82523 15.9586L10.4801 16.2017L11.2 16.4637L11.9838 16.7419L12.8304 17.0332L13.7385 17.3349L14.7063 17.6441L15.7319 17.958L16.8133 18.2739L17.9481 18.5892L19.1338 18.9012L20.3676 19.2076L21.6466 19.506L22.9678 19.7941L24.3277 20.0699L25.7231 20.3315L27.1502 20.5771L28.6054 20.805L30.0849 21.0138L31.5847 21.2024L33.1008 21.3695L34.6291 21.5144L36.1655 21.6363L37.7058 21.7348L39.2458 21.8096L40.7813 21.8606L42.3081 21.888L43.8221 21.892L45.319 21.8732L46.7949 21.8324L48.2457 21.7704L49.6676 21.6883L51.0567 21.5875L52.4094 21.4693L53.7221 21.3355L54.9915 21.1878L56.2143 21.0282L57.3874 20.8586L58.5081 20.6814L59.5736 20.4989L60.5814 20.3134L61.5294 20.1275L62.4154 19.9438L63.2377 19.765L63.9947 19.5937L64.6851 19.4326L65.8619 19.1525L66.347 19.039L66.7626 18.9467L67.1086 18.8785L67.3853 18.8369L67.5929 18.8246L67.7323 18.844L67.8042 18.8976L67.8098 18.9875L67.7504 19.1161L67.6276 19.2852L67.4431 19.4969L67.1989 19.7527L66.8972 20.0543L66.5403 20.403L65.671 21.2464L65.164 21.7428L64.6127 22.2898L64.0201 22.8878L63.3893 23.5369L62.7235 24.237L62.026 24.9878L61.3002 25.7887L60.5494 26.639L59.777 27.5376L58.9864 28.4833L58.1811 29.4746L57.3643 30.5099L56.5394 31.5872L55.7098 32.7044L54.8785 33.8593L54.0487 35.0492L53.2234 36.2716L52.4056 37.5234L51.598 38.8018L50.8032 40.1034L50.0239 41.425L49.2624 42.7631L48.5207 44.1141L47.801 45.4742L47.1051 46.8398L46.4346 48.2069L45.791 49.5717L45.1754 50.9302L44.589 52.2784L44.0326 53.6123L43.5068 54.9279L43.012 56.2212L42.5484 57.4884L42.116 58.7255L41.7147 59.9288L41.3439 61.0944L41.003 62.2189L40.6914 63.2986L40.4078 64.3302L40.1513 65.3104L39.9204 66.2363L39.7137 67.1048L39.5294 67.9132L39.3657 68.6591L39.2207 69.3401L38.9785 70.499L38.8769 70.9733L38.785 71.3757L38.7006 71.7049L38.6212 71.9599L38.5441 72.14L38.467 72.245L38.3872 72.2744L38.3022 72.2285L38.2095 72.1076L38.1065 71.9122L37.9909 71.6432L37.8603 71.3016L37.7122 70.8889L37.5446 70.4065L37.3553 69.8562L37.1422 69.2401L36.9036 68.5604L36.6377 67.8195L36.343 67.0201L36.0179 66.1649L35.6612 65.2569L35.272 64.2992L34.8492 63.2952L34.3922 62.2482L33.9005 61.1617L33.3739 60.0393L32.8122 58.8848L32.2155 57.7019L31.5842 56.4944L30.9189 55.2663L30.2204 54.0213L29.4895 52.7634L28.7276 51.4964L27.936 50.2243L27.1163 48.9507L26.2703 47.6795L25.4 46.4143L24.5076 45.1587L23.5955 43.9161L22.6661 42.6901L21.7221 41.4837L20.7663 40.3002L19.8018 39.1424L18.8316 38.0131L17.8588 36.9149L16.8867 35.8503L15.9188 34.8215L14.9584 33.8304L14.0091 32.879L13.0743 31.9689L12.1576 31.1013L11.2626 30.2776L10.3928 29.4986L9.55171 28.7652L8.74283 28.0777L7.96958 27.4364L7.2353 26.8415L6.54327 26.2927L5.89665 25.7897L5.29849 25.3319L4.7517 24.9184L3.82318 24.2205L3.44651 23.9335L3.13131 23.6857L2.87966 23.4755L2.69342 23.3011L2.57425 23.1603L2.5236 23.0511L2.54266 22.9713L2.63241 22.9185L2.79359 22.8902L3.02669 22.884L3.33194 22.8972L3.70935 22.9272L4.15864 22.9715L4.6793 23.0273L5.27058 23.0919L5.93144 23.1627L6.66064 23.237L7.45666 23.3123L8.31776 23.3861L9.24197 23.4558L10.2271 23.5191L11.2707 23.5737L12.3702 23.6174L13.5227 23.6483L14.7253 23.6642L15.9747 23.6636L17.2676 23.6447L18.6006 23.6061L19.9699 23.5466L21.3718 23.4649L22.8025 23.3602L24.258 23.2318L25.7342 23.0791L27.2272 22.9017L28.7326 22.6996L30.2464 22.4727L31.7644 22.2214L33.2824 21.9462L34.7963 21.6476L36.3019 21.3266L37.7951 20.9843L39.2721 20.6218L40.7287 20.2408L42.1614 19.8427L43.5662 19.4293L44.9398 19.0027L46.2786 18.565L47.5793 18.1183L48.839 17.6652L50.0545 17.2081L51.2233 16.7496L52.3427 16.2925L53.4104 15.8396L54.4243 15.3937L55.3825 14.9579L56.2833 14.535L57.1254 14.1281L57.9074 13.7402L58.6284 13.3744L59.2877 13.0336L59.8849 12.7207L60.4197 12.4388L60.892 12.1907L61.3022 11.9791L61.6507 11.8067L61.9382 11.6761L62.1656 11.5898L62.3342 11.5501L62.4451 11.5592L62.5001 11.6191L62.5008 11.7316L62.4491 11.8985L62.3472 12.1211L62.1974 12.4008L62.0019 12.7387L61.7635 13.1355L61.4846 13.592L61.1682 14.1086L60.817 14.6854L60.4339 15.3223L60.0221 16.0192L59.5845 16.7753L59.1242 17.59L58.6443 18.4623L58.1478 19.3908L57.638 20.3742L57.1178 21.4107L56.5903 22.4983L56.0583 23.635L55.5249 24.8183L54.9927 26.0456L54.4646 27.3143L53.943 28.6213L53.4304 29.9636L52.9292 31.3378L52.4415 32.7405L51.9694 34.1682L51.5148 35.6171L51.0792 37.0834L50.6642 38.5632L50.2712 40.0526L49.9013 41.5474L49.5553 43.0437L49.2341 44.5372L48.9381 46.0238L48.6677 47.4993L48.423 48.9598L48.2038 50.4009L48.01 51.8187L47.8409 53.2092L47.696 54.5685L47.5743 55.8929L47.4749 57.1784L47.3963 58.4217L47.3373 59.6193L47.2962 60.7679L47.2713 61.8644L47.2607 62.9058L47.2625 63.8895L47.2744 64.8128L47.2942 65.6735L47.3197 66.4693L47.3483 67.1985L47.3776 67.8594L47.405 68.4506L47.4279 68.9708L47.4437 69.4192L47.4498 69.795L47.4435 70.098L47.4222 70.3278L47.3833 70.4846L47.3242 70.5688L47.2426 70.5808L47.1359 70.5216L47.0019 70.3923L46.8383 70.194L46.643 69.9283L46.4142 69.5971L46.1498 69.2022L45.5081 68.2304L45.128 67.6583L44.7066 67.0323L44.2431 66.3553L43.7366 65.6303L43.1866 64.8604L42.5928 64.0489L41.9549 63.199L41.2731 62.3143L40.5476 61.3982L39.7789 60.4543L38.9678 59.4861L38.1153 58.4974L37.2224 57.4916L36.2907 56.4725L35.3217 55.4435L34.3172 54.4084L33.2793 53.3704L32.2101 52.3331L31.1122 51.2998L29.988 50.2738L28.8403 49.258L27.6722 48.2557L26.4865 47.2696L25.2866 46.3024L24.0758 45.3567L22.8576 44.4349L21.6354 43.5391L20.413 42.6715L19.1941 41.8338L17.9823 41.0277L16.7816 40.2547L15.5957 39.5158L14.4284 38.8121L13.2836 38.1445L12.1652 37.5135L11.0768 36.9194L10.0221 36.3624L9.00481 35.8425L8.02846 35.3593L7.09649 34.9124L6.21221 34.5011L5.37882 34.1245L4.59937 33.7815L3.87675 33.471L3.21366 33.1915L2.61264 32.9414L2.07604 32.7189L1.60598 32.5224L1.20438 32.3496L0.872933 32.1985L0.613109 32.067L0.426134 31.9526L0.312991 31.853L0.274414 31.7657L0.310887 31.6883L0.422644 31.6183L0.609657 31.5529L0.871644 31.4898L1.20807 31.4264L1.61814 31.3601L2.10083 31.2884L3.27863 31.1194L3.97046 31.0174L4.72832 30.9008L5.55 30.7675L6.43309 30.6155L7.37494 30.4431L8.37274 30.2486L9.4235 30.0303L10.524 29.787L11.6711 29.5173L12.8611 29.2205L14.0905 28.8955L15.3557 28.5417L16.6527 28.1587L17.9778 27.7463L19.327 27.3043L20.6963 26.8331L22.0817 26.3329L23.4791 25.8043L24.8844 25.2482L26.2937 24.6655L27.7029 24.0574L29.108 23.4253L30.5053 22.7708L31.8908 22.0957L33.2608 21.402L34.6118 20.6917L35.9402 19.9672L37.2427 19.2309L38.516 18.4854L39.7571 17.7335L40.9632 16.9779L42.1314 16.2216L43.2594 15.4677L44.3448 14.7194L45.3854 13.9797L46.3795 13.252L47.3253 12.5395L48.2214 11.8456L49.0665 11.1735L49.8597 10.5266L50.6002 9.90823L51.2875 9.32154L51.9212 8.76976L52.5014 8.25601L53.0282 7.78334L53.9234 6.97287L54.2931 6.6406L54.6123 6.36042L54.8822 6.13476L55.1042 5.96583L55.2798 5.85571L55.4109 5.80626L55.4994 5.81916L55.5474 5.89588L55.5571 6.03766L55.5308 6.24553L55.471 6.52028L55.3802 6.86247L55.2612 7.27244L55.1165 7.75024L54.7614 8.90845L54.5566 9.58778L54.3375 10.3328L54.1067 11.1423L53.8672 12.015L53.6216 12.9492L53.3728 13.943L53.1234 14.9943L52.8759 16.1009L52.6329 17.2602L52.3967 18.4695L52.1695 19.7258L51.9536 21.0261L51.7509 22.3671L51.5633 23.7454L51.3924 25.1573L51.2398 26.5993L51.1068 28.0675L50.9946 29.5579L50.9042 31.0666L50.8363 32.5894L50.7915 34.1223L50.7702 35.6611L50.7726 37.2015L50.7987 38.7394L50.8483 40.2706L50.9208 41.7909L51.0157 43.2962L51.1323 44.7824L51.2694 46.2456L51.4258 47.6817L51.6002 49.0872L51.7911 50.4581L51.9966 51.7911L52.215 53.0827L52.4441 54.3297L52.6819 55.529L52.9261 56.6778L53.1741 57.7733L53.4237 58.8131L53.672 59.7949L53.9165 60.7167L54.1545 61.5767L54.3831 62.3732L54.5996 63.1049L54.8011 63.7707L55.1479 64.9015L55.2876 65.3655L55.4011 65.7617L55.4857 66.0901L55.5389 66.3512L55.5581 66.5455L55.5408 66.6739L55.4847 66.7375L55.3877 66.7376L55.2477 66.6757L55.0628 66.5534L54.8312 66.3728L54.5514 66.1358L54.2219 65.8448L53.8418 65.5022L53.4098 65.1107L52.9252 64.6728L52.3876 64.1915L51.7965 63.6698L51.1518 63.1106L50.4537 62.5172L49.7024 61.8928L48.8985 61.2405L48.043 60.5637L47.1366 59.8657L46.1809 59.1499L45.1772 58.4195L44.1273 57.6778L43.0331 56.928L41.8967 56.1734L40.7205 55.417L39.5071 54.662L38.2592 53.9111L36.9796 53.1673L35.6716 52.4332L34.3384 51.7114L32.9832 51.0043L31.6097 50.3142L30.2215 49.6431L28.8223 48.9931L27.416 48.3657L26.0065 47.7627L24.5977 47.1853L23.1937 46.6347L21.7984 46.1119L20.416 45.6175L19.0505 45.1522L17.7059 44.7163L16.3862 44.3099L15.0953 43.9329L13.8371 43.585L12.6154 43.2658L11.4338 42.9745L10.296 42.7103L9.20535 42.4722L8.16512 42.2589L7.17847 42.069L6.24837 41.9008L5.37759 41.7529L4.56871 41.6231L3.82413 41.5097L3.146 41.4104L1.99669 41.2454L1.5287 41.175L1.13355 41.1095L0.812226 41.0463L0.565474 40.983L0.393775 40.9169L0.297358 40.8455L0.276196 40.7663L0.330008 40.6768L0.458257 40.5744L0.660158 40.4567L0.934676 40.3213L1.28053 40.166L1.69622 39.9886L2.18 39.7869L2.7299 39.5589L3.34376 39.303L4.01918 39.0173L4.75361 38.7002L5.54429 38.3505L6.38829 37.967L7.28254 37.5485L8.22383 37.0942L9.2088 36.6036L10.234 36.0761L11.2958 35.5116L12.3907 34.9099L13.5148 34.2714L14.6644 33.5964L15.8358 32.8855L17.0251 32.1396L18.2284 31.3597L19.4419 30.547L20.6619 29.7031L21.8845 28.8296L23.1061 27.9284L24.3232 27.0015L25.532 26.0512L26.7293 25.08L27.9116 24.0903L29.0758 23.085L30.2189 22.067L31.338 21.0392L32.4303 20.0048L33.4933 18.9671L34.5246 17.9294L35.522 16.8952L36.4836 15.868L37.4075 14.8513L38.2922 13.8487L39.1364 12.8638L39.9389 11.9003L40.6988 10.9618L41.4155 10.0518L42.0884 9.17388L42.7173 8.33155L43.3022 7.52822L43.8432 6.7672L44.3409 6.05172L44.7958 5.38489L45.2087 4.76968L45.5806 4.20891L45.9128 3.70527L46.2066 3.26125L46.4636 2.87916L46.6855 2.56113L46.8741 2.30907L47.0315 2.12471L47.1598 2.00951L47.2612 1.96475L47.338 1.99144L47.3928 2.09035L47.4279 2.26203L47.4459 2.50676L47.4495 2.82458L47.4412 3.21526L47.4237 3.67834L47.3997 4.21308L47.3717 4.81852L47.3424 5.49344L47.3142 6.23636L47.2897 7.04559L47.2712 7.91919L47.2612 8.85499L47.2618 9.85062L47.2751 10.9035L47.3032 12.0108L47.3478 13.1697L47.4107 14.3768L47.4934 15.629L47.5973 16.9228L47.7236 18.2545L47.8734 19.6205L48.0474 21.0169L48.2464 22.4398L48.4707 23.8852L48.7207 25.349L48.9963 26.8272L49.2975 28.3156L49.6238 29.81L49.9747 31.3062L50.3494 32.8003L50.747 34.2881L51.1663 35.7655L51.6059 37.2285L52.0642 38.6734L52.5397 40.0963L53.0303 41.4935L53.534 42.8614L54.0486 44.1968L54.5717 45.4962L55.1009 46.7567L55.6335 47.9753L56.1669 49.1493L56.6982 50.2762L57.2245 51.3536L57.7428 52.3794L58.2501 53.3517L58.7434 54.2689L59.2196 55.1296L59.6755 55.9324L60.1082 56.6765L60.5144 57.3612L60.8912 57.9859L61.2355 58.5504L61.5446 59.0547L61.8154 59.4991L62.0453 59.8839L62.2317 60.2098L62.372 60.4778L62.4638 60.6889L62.5049 60.8446L62.4933 60.9463L62.4271 60.9956L62.3046 60.9946L62.1241 60.9452L61.8845 60.8497L61.5847 60.7105L61.2237 60.5299L60.8009 60.3106L59.7683 59.7669L59.1585 59.4481L58.4865 59.102L57.753 58.7314L56.9587 58.3394L56.1046 57.929L55.192 57.5033L54.2223 57.0651L53.1972 56.6176L52.1188 56.1636L50.9892 55.706L49.8107 55.2476L48.5859 54.7911L47.3176 54.339L46.0089 53.894L44.6627 53.4584L43.2825 53.0343L41.8717 52.6239L40.4339 52.2291L38.9728 51.8517L37.4922 51.4933L35.9961 51.1552L34.4885 50.8387L32.9735 50.5448L31.4551 50.2744L29.9376 50.028L28.4252 49.8062L26.9219 49.6091L25.4321 49.4368L23.9597 49.289L22.509 49.1655L21.0838 49.0656L19.6882 48.9885L18.326 48.9333L17.0009 48.8988L15.7166 48.8838L14.4764 48.8867L13.2838 48.9058L12.1419 48.9394L11.0535 48.9855L10.0216 49.0421L9.04872 49.1069L8.13719 49.1776L7.28919 49.2519L6.50665 49.3272L5.79125 49.4011L5.14447 49.4708L4.5675 49.5339L4.06132 49.5875L3.62664 49.6291L3.26392 49.6559L2.97336 49.6654L2.75494 49.6549L2.60836 49.6218L2.53307 49.5636L2.5283 49.478L2.59301 49.3626L2.72597 49.2152L2.92567 49.0336L3.19042 48.8159L3.51832 48.5603L3.90724 48.265L4.85877 47.5499L5.41625 47.1274L6.02452 46.6605L6.68064 46.1482L7.38153 45.59L8.12402 44.9857L8.9048 44.335L9.72052 43.6381L10.5677 42.8953L11.443 42.1072L12.3427 41.2744L13.2633 40.3981L14.2014 39.4794L15.1533 38.5198L16.1154 37.5209L17.0845 36.4846L18.0569 35.413L19.0295 34.3083L19.9988 33.173L20.9618 32.0097L21.9154 30.8213L22.8566 29.6106L23.7827 28.381L24.6911 27.1355L25.5791 25.8777L26.4446 24.6109L27.2854 23.3389L28.0996 22.0653L28.8852 20.7939L29.641 19.5285L30.3653 18.2729L31.0572 17.031L31.7156 15.8068L32.3398 14.604L32.9294 13.4266L33.484 12.2783L34.0035 11.163L34.4881 10.0842L34.9381 9.04566L35.354 8.05079L35.7365 7.10299L36.0866 6.20549L36.4054 5.3614L36.6942 4.57366L36.9544 3.84503L37.1876 3.1781L37.5804 2.03867L37.7439 1.57032L37.8882 1.17196L38.0156 0.845085L38.1285 0.590986L38.2291 0.410692L38.3201 0.304991L38.4038 0.274414L38.4828 0.319244L38.5597 0.439505L38.6371 0.634965L38.7173 0.905141L38.8031 1.24929L38.8967 1.66643L39.0007 2.15532L39.2488 3.34221L39.3974 4.03656L39.5652 4.79537L39.7539 5.61627L39.9655 6.49668L40.2014 7.43384L40.4634 8.42481L40.7525 9.46648L41.0701 10.5556L41.4169 11.6887L41.7939 12.8623L42.2016 14.0728L42.6403 15.3163L43.1102 16.5891L43.6114 17.8874L44.1435 19.207L44.7061 20.5441L45.2985 21.8947L45.9198 23.2548L46.569 24.6204L47.2448 25.9875L47.9457 27.3523L48.6701 28.7109L49.4159 30.0595L50.1813 31.3945L50.9639 32.7123L51.7615 34.0095L52.5714 35.2827L53.391 36.5288L54.2174 37.7448L55.0477 38.9278L55.879 40.0752L56.7079 41.1845L57.5314 42.2534L58.3461 43.2798L59.1488 44.262L59.9359 45.1982L60.7042 46.0871L61.4501 46.9274L62.1705 47.7182L62.8618 48.4587L63.5207 49.1484L64.144 49.7871L64.7284 50.3747L65.271 50.9114L65.7685 51.3975L66.6174 52.2208L66.9632 52.5599L67.2534 52.852L67.4856 53.0987L67.6577 53.3016L67.7677 53.4623L67.814 53.5828L67.795 53.6652L67.7094 53.7116L67.5562 53.7243L67.3345 53.7058L67.0437 53.6586L66.6836 53.5853L66.2538 53.4885L65.7547 53.3709L65.1865 53.2353L64.55 53.0845L63.8459 52.9211L63.0755 52.7481L62.2401 52.568L61.3413 52.3836L60.381 52.1976L59.3612 52.0126L58.2842 51.8309L57.1527 51.6551L55.9692 51.4874L54.7366 51.33L53.4581 51.185L52.137 51.0542L50.7766 50.9395L49.3805 50.8424L47.9524 50.7643L46.4962 50.7065L45.0157 50.6701L43.515 50.6559L41.9981 50.6646L40.4692 50.6968L38.9324 50.7526L37.392 50.8323L35.8521 50.9356L34.317 51.0622L32.7908 51.2117L31.2777 51.3833L29.7818 51.576L28.3069 51.7889L26.8571 52.0205L25.4362 52.2695L24.0478 52.5341L22.6954 52.8126L21.3826 53.103L20.1125 53.4032L18.8883 53.7109L17.7127 54.0238L16.5886 54.3394L15.5184 54.6551L14.5044 54.9683L13.5486 55.2762L12.653 55.576L11.819 55.8649L11.0481 56.14L10.3415 56.3984L9.69987 56.6373L8.61425 57.0448L8.17077 57.2079L7.79345 57.3402L7.48196 57.439L7.23573 57.5018L7.05394 57.5261L6.93556 57.5096L6.87933 57.45L6.88379 57.3452L6.94726 57.1934L7.06788 56.9927L7.24358 56.7417L7.47215 56.4388L7.7512 56.083L8.0782 55.6731L8.45046 55.2085L8.86519 54.6886L9.31949 54.1129L9.81037 53.4815L10.3347 52.7944L10.8894 52.052L11.4713 51.2548L12.0771 50.4037L12.7036 49.4997L13.3475 48.5441L14.0056 47.5384L14.6747 46.4844L15.3516 45.3839L16.0332 44.2393L16.7166 43.0527L17.3986 41.8269L18.0766 40.5646L18.7477 39.2687L19.4093 37.9424L20.0589 36.5888L20.6943 35.2115L21.3132 33.814L21.9137 32.3999L22.4938 30.973L23.052 29.5372L23.5868 28.0965L24.0968 26.6547L24.5811 25.216L25.0388 23.7845L25.4692 22.3642L25.8718 20.9592L26.2463 19.5735L26.5929 18.2112L26.9115 16.8763L27.2026 15.5726L27.4668 14.304L27.7047 13.0742L27.9174 11.8868L28.1059 10.7452L28.2716 9.6528L28.4159 8.61276L28.5405 7.62807L28.6472 6.70156L28.7378 5.83585L28.8144 5.03337L28.8792 4.29632L28.9344 3.62669L28.9823 3.02625L29.0254 2.49652L29.0662 2.03877L29.1071 1.65405L29.1508 1.34313L29.1998 1.10656L29.2566 0.944606L29.324 0.85729L29.4043 0.844383L29.5002 0.905401L29.614 1.03961L29.7481 1.24603L29.9049 1.52344L30.0865 1.87038L30.2949 2.28517L30.5322 2.76591L30.8002 3.31048L31.1006 3.91656L31.4348 4.58165L31.8043 5.30305L32.2101 6.07791L32.6534 6.90322L33.1348 7.77582L33.6551 8.69244L34.2145 9.64967L34.8133 10.644L35.4515 11.6719L36.1288 12.7297L36.8446 13.8137L37.5985 14.9201L38.3894 16.0453L39.2163 17.1854L40.0778 18.3367L40.9723 19.4955L41.8983 20.6581L42.8536 21.8209L43.8361 22.9803L44.8436 24.1329L45.8736 25.2753L46.9233 26.4042L47.99 27.5166L49.0706 28.6095L50.1621 29.68L51.2613 30.7256L52.3648 31.7436L53.4691 32.7318L54.5708 33.6881L55.6662 34.6105L56.7518 35.4974L57.8238 36.3472L58.8786 37.1586L59.9125 37.9306L60.9218 38.6623L61.9027 39.353L62.8518 40.0023L63.7654 40.6101L64.6401 41.1763L65.4724 41.7012L66.259 42.1851L66.9969 42.6288L67.6829 43.0332L68.3141 43.3991L68.8878 43.7279L69.4015 44.0209L69.8528 44.2798L70.2394 44.5061L70.5594 44.7019L70.8111 44.869L70.9929 45.0097L71.1034 45.1261L71.1417 45.2206L71.1068 45.2955L70.9983 45.3534L70.8157 45.3968L70.559 45.4282L70.2283 45.4503L69.8242 45.4656L69.3472 45.4767L68.1787 45.4967L67.4898 45.5106L66.7333 45.5304L65.911 45.5584L65.0252 45.5969L64.0781 45.6481L63.0723 45.714L62.0106 45.7964L60.8959 45.8973L59.7313 46.0181L58.5201 46.1605L57.2657 46.3256L55.9717 46.5146L54.6419 46.7285L53.2799 46.9681L51.8898 47.2338L50.4754 47.526L49.0408 47.845L47.5902 48.1906L46.1275 48.5626L44.657 48.9606L43.1828 49.3839L41.7089 49.8316L40.2394 50.3027L38.7785 50.796L37.3299 51.3099L35.8976 51.8429L34.4854 52.3931L33.0968 52.9585L31.7355 53.5371L30.4049 54.1265L29.1081 54.7242L27.8483 55.3277L26.6283 55.9343L25.4508 56.5412L24.3185 57.1455L23.2336 57.7443L22.1982 58.3344L21.2142 58.9128L20.2832 59.4763L19.4067 60.0219L18.5859 60.5462L17.8218 61.0462L17.1151 61.5188L16.4662 61.9608L15.8754 62.3691L15.3428 62.7409L14.8682 63.0732L14.451 63.3632L14.0907 63.6082L13.7863 63.8057L13.5367 63.9532L13.3407 64.0486L13.1967 64.0896L13.1031 64.0743L13.058 64.0011L13.0594 63.8683L13.1051 63.6746L13.1929 63.4189L13.3201 63.1003L13.4844 62.718L13.683 62.2718L14.1721 61.1864L14.457 60.5476L14.7648 59.8454L15.0926 59.0805L15.4375 58.2538L15.7966 57.3667L16.1668 56.4206L16.5453 55.4172L16.9292 54.3584L17.3157 53.2465L17.7022 52.0837L18.0859 50.8727L18.4644 49.6163L18.8353 48.3173L19.1962 46.979L19.5451 45.6047L19.8798 44.1977L20.1987 42.7618L20.4999 41.3007L20.7821 39.8181L21.0439 38.318L21.2841 36.8045L21.5019 35.2816L21.6965 33.7534L21.8674 32.2242L22.0142 30.698L22.1367 29.1792L22.2352 27.6718L22.3098 26.18L22.361 24.708L22.3895 23.2596L22.3961 21.839L22.382 20.4499L22.3482 19.0961L22.2964 17.7812L22.228 16.5087L22.1447 15.2819L22.0486 14.1041L21.9415 12.9781L21.8256 11.9068L21.7033 10.8928L21.5769 9.93856L21.4488 9.04616L21.3216 8.21758L21.198 7.45456L21.0805 6.75858L20.8749 5.57247L20.7922 5.08408L20.7266 4.66623L20.6806 4.31915L20.6571 4.04286L20.6585 3.83708L20.6874 3.70135L20.7463 3.63491L20.8375 3.63679L20.9633 3.70579L21.1257 3.84048L21.3268 4.0392L21.5684 4.30011L21.8522 4.62116L22.1797 5.00009L22.9709 5.92178L23.4367 6.45922L23.9504 7.04394L24.5125 7.67293L25.1233 8.34307L25.7829 9.05117L26.4911 9.79393L27.2478 10.568L28.0522 11.3699L28.9035 12.1963L29.8007 13.0437L30.7427 13.9085L31.7278 14.7874L32.7543 15.6769L33.8205 16.5737L34.9241 17.4743L36.0628 18.3755L37.2341 19.2742L38.4354 20.1672L39.6637 21.0516L40.916 21.9246L42.1892 22.7834L43.4798 23.6256L44.7845 24.4486L46.0997 25.2503L47.4217 26.0285L48.7467 26.7815L50.071 27.5076L51.3906 28.2053L52.7017 28.8732L54.0002 29.5104L55.2823 30.1159L56.544 30.6891L57.7814 31.2295L58.9905 31.737L60.1676 32.2115L61.309 32.6531L62.4109 33.0624L63.4698 33.4398L64.4823 33.7861L65.4451 34.1024L66.355 34.3898L67.209 34.6496L68.0042 34.8832L68.7382 35.0925L69.4083 35.279L70.5483 35.592L71.0144 35.7227L71.4091 35.8391L71.731 35.9435L71.979 36.0385L72.1524 36.1264L72.2504 36.2097L72.2728 36.291L72.2196 36.3728L72.0908 36.4577L71.887 36.5481L71.6087 36.6467L71.257 36.7557L70.8331 36.8776L70.3383 37.0147L69.7744 37.1693L69.1431 37.3433L68.4468 37.5389L67.6876 37.7579L66.868 38.002L65.9909 38.2728L65.0591 38.5718L64.0757 38.9002L63.0439 39.2591L61.967 39.6494L60.8486 40.0718L59.6922 40.5268L58.5016 41.0147L57.2805 41.5356L56.0328 42.0894L54.7623 42.6759L53.4731 43.2944L52.1689 43.9442L50.8539 44.6243L49.5319 45.3337L48.2069 46.071L46.8826 46.8345L45.5629 47.6225L44.2516 48.4332L42.9522 49.2642L41.6683 50.1135L40.4032 50.9784L39.1603 51.8564L37.9426 52.7446L36.7532 53.6403L35.5949 54.5404L34.4701 55.4418L33.3815 56.3412L32.3313 57.2354L31.3214 58.121L30.3537 58.9946L29.4298 59.8528L28.5511 60.692L27.7188 61.5088L26.9338 62.2998L26.1968 63.0615L25.5083 63.7906L24.8686 64.4836L24.2776 65.1374L23.7353 65.7487L23.2412 66.3145L22.7947 66.8319L22.0409 67.7101L21.7314 68.0657L21.465 68.3625L21.2401 68.5983L21.055 68.7712L20.9077 68.8793L20.7963 68.9211L20.7186 68.8953L20.6722 68.8007L20.6547 68.6365L20.6638 68.4021L20.6968 68.097L20.7511 67.721L20.824 67.2744L20.9129 66.7574L21.0149 66.1707L21.1274 65.515L21.2478 64.7916L21.3732 64.0017L21.501 63.1469L21.6287 62.229L21.7538 61.2501L21.8737 60.2125L21.9863 59.1186L22.0892 57.9712L22.1803 56.773L22.2577 55.5272L22.3196 54.2371L22.3643 52.9059L22.3902 51.5373L22.396 50.1349L22.3805 48.7025L22.3429 47.244L22.2822 45.7634L22.198 44.2648L22.0897 42.7522L21.9573 41.2299L21.8007 39.702L21.6201 38.1727L21.416 36.6462L21.1889 35.1266L20.9398 33.618L20.6696 32.1246L20.3794 30.6503L20.0708 29.1989L19.7453 27.7744L19.4045 26.3803L19.0505 25.0202L18.6853 23.6976L18.3111 22.4156L17.9301 21.1773L17.545 19.9856L17.1581 18.8433L16.7723 17.7527L16.3903 16.7163L16.0148 15.736L15.6488 14.8137L15.2952 13.951L14.9569 13.1494L14.6368 12.4099L14.338 11.7334L14.0633 11.1207L13.8158 10.572L13.5981 10.0877L13.4132 9.6675L13.2637 9.31125L13.1522 9.01835L13.0813 8.78804L13.0534 8.61931L13.0707 8.51095L13.1353 8.46152L13.2492 8.4694L13.4141 8.53277L13.6318 8.64963L13.9036 8.8178L14.2306 9.03495L14.614 9.29861L15.0546 9.60616L15.5528 9.95487L16.1091 10.3419L16.7235 10.7643L17.396 11.2191L18.1262 11.7032L18.9135 12.2136L19.7571 12.7469L20.6559 13.3002L21.6087 13.8702L22.6138 14.4537L23.6697 15.0477L24.7742 15.6491L25.9252 16.2548L27.1202 16.8619L28.3568 17.4676L29.632 18.0691L30.943 18.6637L32.2866 19.249L33.6594 19.8225L35.058 20.3819L36.4788 20.9254L37.9182 21.4508L39.3723 21.9565L40.8372 22.4409L42.3089 22.9026L43.7835 23.3405L45.2567 23.7536L46.7245 24.1411L48.1828 24.5024L49.6274 24.8371L51.0542 25.1452L52.4592 25.4266L53.8383 25.6816L55.1877 25.9106L56.5034 26.1143L57.7816 26.2934L59.0189 26.4492L60.2115 26.5826L61.3562 26.6951L62.4497 26.7882L63.4889 26.8637L64.4711 26.9233L65.3936 26.9691L66.2537 27.0031L67.0495 27.0275L67.7787 27.0446L68.4395 27.0568L69.0305 27.0666L69.5502 27.0765L69.9976 27.089L70.3719 27.1067L70.6725 27.1323L70.899 27.1682L71.0514 27.2172L71.1299 27.2817L71.1349 27.3644L71.0671 27.4675L70.9274 27.5935L70.717 27.7447L70.4372 27.9232L70.0898 28.1312L69.6766 28.3706L68.6612 28.9506L68.0638 29.2944L67.4099 29.6758L66.7024 30.096L65.9443 30.5561L65.1387 31.0566L64.2887 31.5983L63.3978 32.1814L62.4693 32.8061L61.5068 33.4723L60.5139 34.1798L59.4941 34.928L58.4513 35.7161L57.389 36.5433L56.311 37.4084L55.221 38.31L54.1225 39.2464L53.0194 40.2159L51.915 41.2166L50.8129 42.2461L49.7164 43.3021L48.6289 44.3821L47.5536 45.4833L46.4935 46.6028L45.4515 47.7376L44.4304 48.8845L43.4327 50.0403L42.461 51.2015L41.5174 52.3646L40.6041 53.5261L39.7228 54.6823L38.8752 55.8295L38.0628 56.964L37.2869 58.082L36.5484 59.1797L35.8482 60.2535L35.1868 61.2996L34.5647 62.3142L33.9819 63.2939L33.4385 64.235L32.9341 65.1341L32.4683 65.9878L32.0403 66.7929L31.6494 67.5464L31.2945 68.2452L30.9742 68.8865L30.6873 69.4679L30.432 69.9867L30.2066 70.4408L30.0094 70.8282L29.8382 71.147L29.6909 71.3956L29.5653 71.5728L29.4591 71.6773L29.3699 71.7083L29.2951 71.6651L29.2324 71.5474L29.179 71.355L29.1325 71.0881L29.0902 70.7471L29.0497 70.3325L29.0083 69.8453L28.9129 68.6577L28.8541 67.9604L28.7848 67.1965L28.7027 66.368L28.6058 65.4772L28.4921 64.5266L28.3596 63.519L28.2068 62.4573L28.0319 61.3445L27.8337 60.1838L27.6109 58.9787L27.3624 57.7326L27.0873 56.4493L26.7851 55.1324L26.4551 53.7859L26.0971 52.4136L25.7111 51.0196L25.2972 49.6078L24.8556 48.1824L24.387 46.7475L23.8921 45.3071L23.3719 43.8653L22.8274 42.426L22.2601 40.9934L21.6714 39.5713L21.0632 38.1635L20.4374 36.7738L19.7959 35.4057L19.1411 34.0628L18.4753 32.7485L17.8011 31.4659L17.1211 30.2181L16.4382 29.008L15.7552 27.8382L15.0751 26.7113L14.401 25.6295L13.736 24.5949L13.0833 23.6095L12.4461 22.6747L11.8276 21.7921L11.2312 20.9628L10.66 20.1879L10.1173 19.4679L9.60619 18.8035L9.12985 18.1948L8.69131 17.6419L7.93938 16.7023L7.6316 16.3146L7.37281 15.9804L7.1655 15.6988L7.01197 15.4685L6.9144 15.2879L6.87475 15.1555L6.89482 15.0694L6.9762 15.0276L7.12027 15.0279L7.3282 15.0682L7.60093 15.146L7.93918 15.2587L8.34342 15.4039L8.8139 15.5787L9.35061 15.7805L9.95331 16.0064L10.6215 16.2536L11.3545 16.5192L12.1512 16.8002L13.0104 17.0939L13.9308 17.3973L14.9105 17.7077L15.9477 18.0223L17.0402 18.3383L18.1855 18.6531L19.3813 18.9642L20.6245 19.2691L21.9124 19.5655L23.2417 19.8513L24.6092 20.1244L26.0113 20.3829L27.4444 20.625L28.9049 20.8491L30.3888 21.0539L31.8923 21.2382L33.4112 21.4009L34.9415 21.5411L36.479 21.6583L38.0196 21.752L39.5591 21.8219L41.0932 21.8681L42.6177 21.8907L44.1285 21.89L45.6214 21.8667L47.0925 21.8214L48.5378 21.7552L49.9533 21.6692L51.3353 21.5648L52.6801 21.4433L53.9843 21.3065L55.2444 21.1562L56.4573 20.9944L57.62 20.8231L58.7297 20.6446L59.7836 20.4613L60.7794 20.2755L61.7149 20.0899L62.5881 19.9069L63.3972 19.7294L64.1408 19.5599L64.8175 19.4014L65.9664 19.1278L66.4373 19.0184L66.8387 18.9308L67.1706 18.8678L67.4331 18.832L67.6268 18.8259L67.7524 18.8521L67.8107 18.9129L67.8029 19.0105L67.7305 19.1472L67.595 19.3248L67.3982 19.5453L67.1421 19.8104L66.8289 20.1215L66.4611 20.4799L66.041 20.8869L65.5715 21.3434L65.0552 21.85L64.4953 22.4074L63.8946 23.0158L63.2564 23.6753L62.5839 24.3858L61.8804 25.1469L61.1492 25.9579L60.3937 26.8182L59.6173 27.7265L58.8235 28.6816L58.0155 29.682L57.1969 30.726L56.3707 31.8116L55.5405 32.9367L54.7092 34.0989L53.8801 35.2957L53.0561 36.5242L52.2402 37.7818L51.435 39.0651L50.6432 40.3711L49.8673 41.6963L49.1096 43.0373L48.3723 44.3905L47.6573 45.752L46.9664 47.1182L46.3013 48.4852L45.6633 49.849L45.0536 51.2057L44.4733 52.5513L43.923 53.8818L43.4035 55.1932L42.915 56.4816L42.4578 57.7429L42.0318 58.9735L41.6367 60.1694L41.272 61.3269L40.9372 62.4425L40.6314 63.5127L40.3535 64.5341L40.1023 65.5035L39.8764 66.4179L39.6744 67.2744L39.4944 68.0703L39.3347 68.8031L39.1933 69.4706L38.9569 70.6013L38.8574 71.0612L38.7673 71.4487L38.6841 71.7628L38.6054 72.0027L38.5285 72.1675L38.451 72.2571L38.3704 72.2712L38.284 72.2099L38.1894 72.0738L38.0841 71.8633L37.9656 71.5794L37.8316 71.2233L37.6797 70.7962L37.5078 70.2998L37.3139 69.736L37.0958 69.1068L36.8518 68.4144L36.5801 67.6614L36.2793 66.8504L35.9478 65.9841L35.5846 65.0658L35.1886 64.0984L34.7589 63.0853L34.2949 62.03L33.7961 60.9359L33.2623 59.8066L32.6935 58.6461L32.0897 57.4578L31.4515 56.2459L30.7793 55.014L30.0741 53.766L29.3368 52.506L28.5687 51.2376L27.7713 49.9649L26.9461 48.6915L26.095 47.4212L25.22 46.1576L24.3234 44.9044L23.4075 43.665L22.4749 42.4427L21.5283 41.2407L20.5705 40.0622L19.6046 38.91L18.6335 37.7868L17.6606 36.6953L16.6891 35.6378L15.7225 34.6165L14.7641 33.6334L13.8174 32.6903L12.886 31.7887L11.9735 30.93L11.0833 30.1153L10.2191 29.3455L9.38424 28.6214L8.58234 27.9433L7.81676 27.3115L7.09082 26.726L6.40779 26.1866L5.7708 25.6928L5.18287 25.2441L4.64689 24.8396L4.1656 24.4782L3.74159 24.1588L3.37726 23.8799L3.07484 23.6399L2.83637 23.4372L2.66366 23.2697L2.55834 23.1356L2.52179 23.0326L2.55518 22.9585L2.65943 22.9108L2.83522 22.8872L3.08301 22.8852L3.40296 22.902L3.79504 22.9352L4.25892 22.982L4.79403 23.0398L5.39957 23.1059L6.07446 23.1776L6.8174 23.2524L7.62683 23.3276L8.50095 23.4007L9.43775 23.4693L10.435 23.531L11.4902 23.5836L12.6007 23.6248L13.7637 23.6528L14.9761 23.6655L16.2346 23.6613L17.536 23.6385L18.8766 23.5957L20.2529 23.5318L21.661 23.4455L23.0971 23.336L24.5571 23.2027L26.0371 23.0449L27.5329 22.8625L29.0404 22.6554L30.5554 22.4235L32.0737 22.1673L33.5912 21.8872L35.1037 21.584L36.6072 21.2586L38.0974 20.912L39.5705 20.5457L41.0226 20.161L42.4499 19.7596L43.8486 19.3434L45.2154 18.9144L46.5467 18.4746L47.8393 18.0265L49.0902 17.5723L50.2964 17.1147L51.4553 16.6563L52.5644 16.1998L53.6213 15.7481L54.624 15.304L55.5707 14.8706L56.4597 14.4507L57.2895 14.0475L58.0592 13.6638L58.7677 13.3028L59.4144 12.9675L59.9989 12.6607L60.5209 12.3854L60.9806 12.1445L61.3782 11.9407L61.7142 11.7766L61.9893 11.6549L62.2047 11.5779L62.3614 11.548L62.4608 11.5672L62.5045 11.6377L62.4944 11.7611L62.4324 11.9392L62.3205 12.1734L62.1612 12.4649L61.9568 12.8147L61.7099 13.2237L61.0994 14.2212L60.7414 14.8102L60.3523 15.4594L59.935 16.1684L59.4925 16.9365L59.0279 17.763L58.5444 18.6469L58.045 19.5867L57.5328 20.5811L57.0109 21.6281L56.4822 22.7259L55.9497 23.8723L55.4163 25.0648L54.8848 26.3008L54.3577 27.5775L53.8378 28.892L53.3273 30.241L52.8287 31.6213L52.3441 33.0294L51.8754 34.4617L51.4244 35.9144L50.993 37.3838L50.5824 38.8659L50.194 40.3567L49.8289 41.8522L49.4879 43.3482L49.1718 44.8406L48.881 46.3253L48.6158 47.7981L48.3762 49.255L48.1623 50.6917L47.9735 52.1043L47.8095 53.4888L47.6694 54.8412L47.5523 56.158L47.4572 57.4352L47.3828 58.6695L47.3275 59.8573L47.2899 60.9956L47.268 62.0811L47.2601 63.111L47.2641 64.0825L47.2779 64.9933L47.2991 65.8409L47.3254 66.6233L47.3543 67.3387L47.3834 67.9855L47.4101 68.5623L47.4318 69.0679L47.4459 69.5016L47.4496 69.8626L47.4405 70.1507L47.4158 70.3657L47.373 70.5076L47.3095 70.5771L47.223 70.5745L47.1109 70.5009L46.971 70.3574L46.8012 70.1453L46.5992 69.8661L46.3633 69.5218L46.0915 69.1142L45.434 68.1184L45.0455 67.5351L44.6156 66.8985L44.1434 66.2115L43.6281 65.4771L43.0692 64.6984L42.4664 63.8788L41.8196 63.0216L41.1288 62.1302L40.3945 61.2081L39.6171 60.259L38.7975 59.2863L37.9367 58.2938L37.0358 57.285L36.0963 56.2636L35.1199 55.2331L34.1085 54.1971L33.064 53.159L31.9888 52.1222L30.8852 51.0902L29.756 50.0659L28.604 49.0527L27.432 48.0534L26.2432 47.071L25.0408 46.1079L23.8282 45.1669L22.6089 44.2502L21.3864 43.3601L20.1644 42.4984L18.9466 41.6671L17.7367 40.8676L16.5387 40.1014L15.3563 39.3696L14.1933 38.6732L13.0536 38.013L11.9409 37.3895L10.8591 36.8029L9.81175 36.2535L8.80252 35.7411L7.83494 35.2653L6.91241 34.8257L6.03824 34.4216L5.2156 34.0519L4.44749 33.7157L3.73678 33.4116L3.08614 33.1382L1.97484 32.6769L1.51857 32.4853L1.13113 32.3171L0.814162 32.1702L0.569084 32.0423L0.397075 31.9312L0.299067 31.8343L0.275744 31.7493L0.327542 31.6736L0.454635 31.6047L0.65695 31.54L0.93415 31.477L1.28565 31.4132L1.7106 31.346L2.20793 31.2729L2.77628 31.1916L3.41408 31.0997L4.11953 30.9949L4.89057 30.8751L5.72497 30.7381L6.62024 30.5822L7.57372 30.4054L8.58256 30.2061L9.64372 29.9828L10.754 29.7342L11.9101 29.4591L13.1084 29.1566L14.3454 28.8257L15.6174 28.4661L16.9205 28.0771L18.2508 27.6586L19.6044 27.2107L20.9773 26.7335L22.3654 26.2275L23.7648 25.6932L25.1712 25.1316L26.5808 24.5436L27.9895 23.9305L29.3934 23.2937L30.7885 22.6349L32.1712 21.9559L33.5376 21.2586L34.8843 20.5452L36.2077 19.8181L37.5045 19.0797L38.7715 18.3327L40.0057 17.5798L41.2043 16.8238L42.3645 16.0678L43.484 15.3148L44.5604 14.5679L45.5917 13.8304L46.5761 13.1055L47.5119 12.3966L48.3977 11.7068L49.2323 11.0396L50.0148 10.3983L50.7445 9.78606L51.4209 9.20623L52.0438 8.66194L52.6131 8.15631L53.129 7.69237L54.0028 6.90109L54.3622 6.57923L54.6713 6.30997L54.9312 6.09568L55.1436 5.93857L55.3101 5.84066L55.4323 5.80378L55.5124 5.82957L55.5524 5.91944L55.5545 6.07461L55.5212 6.29604L55.4549 6.58449L55.3582 6.94047L55.2337 7.36425L55.0842 7.85586L54.9123 8.41508L54.721 9.04144L54.5131 9.73423L54.2913 10.4925L54.0585 11.315L53.8176 12.2003L53.5711 13.1468L53.322 14.1525L53.0728 15.2153L52.826 16.3328L52.5842 17.5025L52.3496 18.7216L52.1246 19.9872L51.9112 21.296L51.7114 22.6449L51.5271 24.0303L51.3598 25.4487L51.2111 26.8963L51.0823 28.3694L50.9744 29.8638L50.8885 31.3757L50.8253 32.901L50.7852 34.4354L50.7688 35.9748L50.776 37.5151L50.8069 39.052L50.8612 40.5813L50.9383 42.0989L51.0378 43.6006L51.1586 45.0824L51.2997 46.5404L51.4599 47.9706L51.6378 49.3693L51.8318 50.7328L52.0401 52.0576L52.2608 53.3404L52.4919 54.5779L52.7312 55.7672L52.9763 56.9053L53.2249 57.9897L53.4744 59.0179L53.7222 59.9876L53.9656 60.8969L54.2019 61.7441L54.4283 62.5275L54.642 63.2459L54.8401 63.8982L55.1784 65.0015L55.3129 65.4517L55.4208 65.834L55.4992 66.1487L55.5457 66.3961L55.5576 66.577L55.5326 66.6921L55.4684 66.7427L55.3628 66.73L55.2137 66.6556L55.0194 66.5213L54.7781 66.329L54.4883 66.0808L54.1487 65.7791L53.758 65.4264L53.3154 65.0252L52.8201 64.5782L52.2716 64.0885L51.6695 63.5588L51.0139 62.9925L50.3049 62.3925L49.5429 61.7621L48.7284 61.1045L47.8624 60.4232L46.946 59.7213L45.9803 59.0022L44.9671 58.2692L43.9079 57.5256L42.8049 56.7746L41.6603 56.0194L40.4763 55.263L39.2556 54.5086L38.001 53.7589L36.7154 53.0169L35.402 52.2851L34.064 51.5661L32.7048 50.8623L31.3281 50.1759L29.9373 49.509L28.5364 48.8634L27.1291 48.2409L25.7194 47.643L24.3112 47.071L22.9087 46.5259L21.5157 46.0089L20.1364 45.5204L18.7748 45.061L17.4349 44.6311L16.1208 44.2307L14.8362 43.8597L13.5852 43.5177L12.3714 43.2042L11.1984 42.9185L10.0699 42.6598L8.98928 42.4268L7.95972 42.2184L6.98436 42.033L6.06612 41.8691L5.20774 41.725L4.41177 41.5988L3.68055 41.4884L3.01621 41.3917L2.42064 41.3065L1.89552 41.2305L1.44227 41.1614L1.06209 41.0965L0.755903 41.0335L0.524406 40.9698L0.36803 40.9029L0.286951 40.8301L0.28109 40.749L0.350115 40.657L0.493436 40.5517L0.710219 40.4306L0.999378 40.2914L1.35959 40.1317L1.7893 39.9495L2.28671 39.7426L2.84982 39.5091L3.47641 39.2473L4.16407 38.9553L4.91018 38.6317L5.71196 38.2752L6.56645 37.8846L7.47055 37.4589L8.42101 36.9973L9.41445 36.4991L10.4474 35.9641L11.5163 35.392L12.6174 34.7829L13.747 34.1369L14.9014 33.4545L16.0767 32.7364L17.2691 31.9834L18.4748 31.1967L19.69 30.3776L20.9108 29.5275L22.1335 28.6482L23.3545 27.7416L24.5701 26.8098L25.7769 25.855L26.9714 24.8798L28.1503 23.8867L29.3105 22.8786L30.4489 21.8583L31.5627 20.8289L32.6493 19.7936L33.706 18.7556L34.7305 17.7184L35.7208 16.6853L36.6749 15.6599L37.5909 14.6458L38.4675 13.6465L39.3033 12.6657L40.0972 11.707L40.8483 10.774L41.5561 9.87026L42.22 8.99932L42.84 8.16466L43.4159 7.36968L43.9481 6.61768L44.437 5.91186L44.8833 5.25531L45.2877 4.65096L45.6515 4.10162L45.9757 3.60992L46.2619 3.17833L46.5116 2.80912L46.7265 2.50438L46.9086 2.26598L47.0599 2.09559L47.1825 1.99465L47.2787 1.96436L47.3509 2.0057L47.4014 2.11941L47.4328 2.30595L47.4477 2.56557L47.4487 2.89825L47.4383 3.30373L47.4193 3.78147L47.3658 4.9504L47.3364 5.63929L47.3088 6.39586L47.2853 7.21836L47.2684 8.10481L47.2604 9.053L47.2634 10.0605L47.2796 11.1247L47.3109 12.2428L47.3591 13.4117L47.4259 14.6283L47.5128 15.8893L47.6212 17.1911L47.7522 18.5301L47.9068 19.9026L48.0859 21.3047L48.29 22.7325L48.5195 24.182L48.7748 25.6491L49.0556 27.1297L49.3619 28.6196L49.6933 30.1147L50.0491 31.6109L50.4286 33.104L50.8307 34.5899L51.2542 36.0647L51.6978 37.5244L52.1597 38.9651L52.6384 40.383L53.1319 41.7746L53.638 43.1362L54.1545 44.4645L54.6791 45.7562L55.2092 47.0084L55.7422 48.2182L56.2754 49.3827L56.8059 50.4997L57.3308 51.5668L57.8471 52.5818L58.3518 53.5431L58.8419 54.4489L59.3142 55.2978L59.7657 56.0888L60.1931 56.8208L60.5936 57.4933L60.964 58.1058L61.3014 58.658L61.6029 59.1501L61.8656 59.5822L62.0869 59.955L62.2641 60.269L62.3947 60.5254L62.4763 60.7251L62.5069 60.8696L62.4843 60.9605L62.4068 60.9994L62.2725 60.9884L62.0802 60.9295L61.8284 60.8248L61.5161 60.6769L61.1426 60.4883L60.7071 60.2615L59.6492 59.7044L59.0266 59.3798L58.3421 59.0284L57.5961 58.6532L56.7895 58.2572L55.9234 57.8435L54.999 57.4149L54.0179 56.9746L52.9818 56.5256L51.8928 56.0706L50.753 55.6126L49.5649 55.1544L48.331 54.6986L47.0543 54.2478L45.7376 53.8045L44.3843 53.371L42.9975 52.9495L41.5809 52.5422L40.1381 52.1508L38.6727 51.7771L37.1886 51.4227L35.6898 51.0889L34.1804 50.777L32.6643 50.4878L31.1458 50.2222L29.629 49.9809L28.1181 49.7641L26.6173 49.572L25.1307 49.4047L23.6624 49.2619L22.2165 49.1432L20.797 49.048L19.4079 48.9755L18.053 48.9246L16.7359 48.8942L15.4603 48.883L14.2296 48.8893L13.047 48.9116L11.9157 48.9479L10.8387 48.9963L9.81861 49.0547L8.85802 49.1209L7.95926 49.1926L7.12444 49.2672L6.35545 49.3425L5.65392 49.4157L4.45864 49.5456L3.96697 49.597L3.54691 49.6358L3.19888 49.6593L2.92303 49.6649L2.71928 49.65L2.58726 49.612L2.52641 49.5485L2.53588 49.457L2.6146 49.3352L2.76128 49.181L2.97438 48.9922L3.25215 48.7669L3.59265 48.5034L3.99373 48.1999L4.45303 47.855L4.96805 47.4674L5.53611 47.036L6.15437 46.5598L6.81986 46.0382L7.52949 45.4707L8.28004 44.8569L9.06822 44.1968L9.89064 43.4905L10.7438 42.7384L11.6244 41.9411L12.5286 41.0995L13.4531 40.2144L14.3942 39.2873L15.3485 38.3195L16.3124 37.3128L17.2824 36.2692L18.2551 35.1906L19.2273 34.0795L20.1956 32.9382L21.1569 31.7696L22.1082 30.5764L23.0466 29.3616L23.9693 28.1285L24.8737 26.8802L25.7573 25.6203L26.618 24.3522L27.4535 23.0795L28.2619 21.8061L29.0416 20.5356L29.7911 19.2718L30.5089 18.0187L31.194 16.7801L31.8455 15.5599L32.4627 14.362L33.0452 13.1902L33.5927 12.0484L34.105 10.9402L34.5825 9.86932L35.0255 8.83938L35.4345 7.85382L35.8104 6.91601L36.154 6.02914L36.4666 5.1963L36.7495 4.42038L37.004 3.70411L37.232 3.05004L37.6154 1.93768L37.7748 1.48346L37.9154 1.09954L38.0397 0.787393L38.1499 0.54825L38.2484 0.383094L38.3376 0.292658L38.4202 0.277425L38.4986 0.337624L38.5754 0.473228L38.6531 0.683955L38.7343 0.969265L38.8214 1.32837L38.917 1.76023L39.0233 2.26356L39.1428 2.83684L39.2777 3.47829L39.43 4.18595L39.6018 4.95761L39.7951 5.79084L40.0115 6.68304L40.2526 7.63141L40.52 8.63297L40.8149 9.68456L41.1383 10.7829L41.4912 11.9246L41.8744 13.106L42.2884 14.3235L42.7335 15.5733L43.2098 16.8516L43.7173 18.1545L44.2556 19.4781L44.8243 20.8183L45.4227 22.1711L46.0498 23.5326L46.7046 24.8989L47.3856 26.2658L48.0914 27.6297L48.8203 28.9865L49.5703 30.3327L50.3394 31.6644L51.1253 32.9783L51.9255 34.2709L52.7376 35.5388L53.5588 36.779L54.3863 37.9885L55.2171 39.1645L56.0481 40.3043L56.8762 41.4055L57.6982 42.4659L58.5107 43.4835L59.3104 44.4565L60.094 45.3831L60.858 46.2622L61.599 47.0925L62.3137 47.8731L62.9987 48.6033L63.6506 49.2826L64.2663 49.9109L64.8424 50.4881L65.376 51.0145L65.8641 51.4904L66.6922 52.2937L67.0269 52.6231L67.3055 52.9059L67.5256 53.1435L67.6852 53.3377L67.7824 53.49L67.8155 53.6026L67.783 53.6775L67.6837 53.7168L67.5166 53.723L67.2809 53.6985L66.976 53.6457L66.6017 53.5674L66.1578 53.4661L65.6445 53.3447L65.0624 53.2058L64.412 53.0521L63.6943 52.8866L62.9106 52.7119L62.0621 52.5307L61.1506 52.3458L60.178 52.1598L59.1464 51.9752L58.0581 51.7946L56.9157 51.6202L55.722 51.4544L54.4798 51.2994L53.1924 51.1572L51.863 51.0295L50.495 50.9182L49.0921 50.8249L47.658 50.7508L46.1965 50.6973L44.7116 50.6654L43.2072 50.6558L41.6875 50.6693L40.1567 50.7062L38.6188 50.7669L37.0782 50.8514L35.5389 50.9595L34.0053 51.0908L32.4815 51.2449L30.9715 51.4208L29.4795 51.6178L28.0095 51.8346L26.5653 52.0699L25.1506 52.3222L23.7693 52.5898L22.4247 52.8709L21.1204 53.1634L19.8594 53.4653L18.6448 53.7743L17.4795 54.088L16.3662 54.4038L15.3072 54.7192L14.3049 55.0315L13.3613 55.338L12.4781 55.6358L11.6568 55.9221L10.899 56.1941L10.2055 56.4487L9.57723 56.6833L9.01481 56.8948L8.51855 57.0804L8.08856 57.2375L7.72468 57.3631L7.42654 57.4548L7.19351 57.51L7.02472 57.5261L6.91911 57.501L6.87537 57.4324L6.89199 57.3182L6.96726 57.1565L7.09926 56.9457L7.28592 56.6842L7.52498 56.3707L7.814 56.0039L8.15044 55.583L8.53158 55.1071L8.95461 54.5759L9.41661 53.9889L9.91455 53.3461L10.4453 52.6477L11.0058 51.894L11.5928 51.0858L12.2031 50.2238L12.8334 49.3092L13.4804 48.3433L14.1411 47.3276L14.812 46.2639L15.4901 45.1543L16.1724 44.0009L16.8557 42.8062L17.5371 41.5727L18.2139 40.3033L18.8833 39.0009L19.5426 37.6688L20.1896 36.3101L20.8218 34.9284L21.4371 33.5272L22.0336 32.1102L22.6094 30.6812L23.1629 29.2441L23.6927 27.8028L24.1976 26.3613L24.6765 24.9238L25.1287 23.4942L25.5534 22.0766L25.9503 20.6752L26.3192 19.294L26.66 17.937L26.973 16.6081L27.2586 15.3113L27.5173 14.0503L27.75 12.8288L27.9577 11.6504L28.1414 10.5186L28.3027 9.43663L28.4429 8.40762L28.5637 7.43456L28.6669 6.52023L28.7545 5.6672L28.8285 4.87787L28.8911 4.1544L28.9447 3.49874L28.9914 2.91258L29.0338 2.39741L29.0744 1.95446L29.1157 1.58472L29.1602 1.28891L29.2106 1.06752L29.2694 0.920773L29.3392 0.848639L29.4225 0.850836L29.5218 0.926828L29.6396 1.07583L29.7782 1.29681L29.9398 1.58851L30.1267 1.94942L30.3409 2.3778L30.8587 3.42901L31.1659 4.04732L31.5072 4.7241L31.8839 5.45663L32.2973 6.24202L32.7483 7.07722L33.2376 7.95906L33.7658 8.88422L34.3333 9.8493L34.9401 10.8508L35.5863 11.8851L36.2714 12.9485L36.9951 14.0374L37.7566 15.1479L38.555 16.2764L39.389 17.4191L40.2573 18.5723L41.1584 19.7321L42.0905 20.8951L43.0515 22.0574L44.0394 23.2157L45.0517 24.3665L46.0859 25.5064L47.1393 26.6322L48.209 27.7409L49.2922 28.8295L50.3855 29.8951L51.4858 30.9352L52.5897 31.9473L53.6938 32.9292L54.7945 33.8788L55.8882 34.7941L56.9714 35.6735L58.0402 36.5156L59.091 37.3191L60.1202 38.0829L61.124 38.8063L62.0987 39.4886L63.0409 40.1295L63.9468 40.7288L64.8131 41.2865L65.6364 41.803L66.4134 42.2787L67.1409 42.7144L67.816 43.1108L68.4357 43.469L68.9974 43.7904L69.4986 44.0764L69.9368 44.3284L70.3101 44.5484L70.6163 44.7382L70.8539 44.8998L71.0212 45.0353L71.1171 45.1471L71.1406 45.2374L71.0907 45.3086L70.9671 45.3634L70.7694 45.4041L70.4976 45.4334L70.152 45.4538L69.7329 45.4681L69.2412 45.4787L68.0439 45.4992L67.3411 45.5141L66.571 45.5354L65.7357 45.5654L64.8372 45.6063L63.8779 45.6603L62.8605 45.7293L61.7878 45.8154L60.6626 45.9202L59.4883 46.0453L58.268 46.1922L57.0052 46.3621L55.7037 46.5562L54.367 46.7752L52.9989 47.02L51.6035 47.2911L50.1847 47.5888L48.7465 47.9132L47.2931 48.2642L45.8285 48.6416L44.3569 49.0448L42.8824 49.4731L41.4091 49.9257L39.9411 50.4014L38.4823 50.899L37.0367 51.417L35.6082 51.9536L34.2005 52.5071L32.8173 53.0754L31.4619 53.6563L30.1379 54.2476L28.8484 54.8467L27.5964 55.4511L26.3849 56.058L25.2165 56.6646L24.0936 57.268L23.0186 57.8653L21.9935 58.4532L21.0202 59.0289L20.1002 59.589L19.235 60.1305L18.4257 60.6501L17.6732 61.1448L16.9782 61.6114L16.3411 62.0468L15.7622 62.4479L14.7786 63.1358L14.373 63.4168L14.0242 63.6524L13.731 63.8399L13.4925 63.977L13.3072 64.0614L13.1736 64.0911L13.0901 64.0641L13.0546 63.9789L13.0652 63.8338L13.1197 63.6276L13.2157 63.3591L13.3507 63.0276L13.5221 62.6323L13.7274 62.173L13.9637 61.6493L14.2281 61.0615L14.5179 60.4097L14.83 59.6947L15.1616 58.9171L15.5096 58.078L15.8712 57.1787L16.2433 56.2208L16.6231 55.2059L17.0078 54.1362L17.3945 53.0137L17.7807 51.8409L18.1635 50.6204L18.5407 49.355L18.9097 48.0478L19.2683 46.7019L19.6144 45.3206L19.9461 43.9075L20.2615 42.4662L20.559 41.0003L20.8371 39.5138L21.0946 38.0107L21.3304 36.4949L21.5435 34.9706L21.7333 33.4419L21.8992 31.9129L22.0411 30.3879L22.1587 28.8711L22.2523 27.3666L22.3221 25.8785L22.3686 24.4109L22.3926 22.9679L22.3949 21.5534L22.3766 20.1712L22.3391 18.825L22.2838 17.5185L22.2122 16.255L22.1261 15.038L22.0276 13.8704L21.9185 12.7554L21.8012 11.6956L21.6778 10.6936L21.5508 9.75172L21.4227 8.87216L21.2961 8.05681L21.1735 7.30733L21.0576 6.62516L20.8568 5.46729L20.7774 4.99324L20.7155 4.58979L20.6739 4.25714L20.6553 3.99524L20.6621 3.80378L20.6969 3.68223L20.7622 3.62979L20.8602 3.64545L20.9933 3.72795L21.1635 3.87582L21.3727 4.08737L21.6227 4.36069L21.9153 4.69372L22.2519 5.08415L22.6337 5.52954L23.0619 6.02727L23.5374 6.57457L24.0609 7.16855L24.6329 7.80618L25.2536 8.48432L25.9232 9.19975L26.6413 9.94916L27.4078 10.7292L28.2218 11.5364L29.0826 12.3673L29.989 13.2185L30.9399 14.0865L31.9335 14.9678L32.9683 15.8591L34.0423 16.7569L35.1532 17.6579L36.2988 18.5588L37.4765 19.4566L38.6835 20.3481L39.9169 21.2305L41.1737 22.1008L42.4507 22.9564L43.7445 23.7948L45.0517 24.6137L46.3685 25.4107L47.6914 26.184L49.0166 26.9317L50.3403 27.6521L51.6585 28.3438L52.9673 29.0055L54.2628 29.6363L55.5411 30.2352L56.7981 30.8018L58.03 31.3356L59.233 31.8363L60.4031 32.3041L61.5367 32.7391L62.6302 33.1418L63.6799 33.5128L64.6826 33.853L65.6348 34.1633L66.5336 34.4449L67.3758 34.6992L68.1588 34.9278L68.8799 35.1322L69.5367 35.3144L70.649 35.6199L71.1006 35.7475L71.4806 35.8612L71.7875 35.9636L72.0204 36.0569L72.1784 36.1436L72.2611 36.2263L72.2681 36.3075L72.1995 36.3898L72.0554 36.4756L71.8363 36.5675L71.543 36.6679L71.1765 36.7794L70.738 36.9042L70.229 37.0447L69.6512 37.2031L69.0065 37.3813L68.2972 37.5815L67.5254 37.8055L66.694 38.0549L65.8055 38.3314L64.8629 38.6363L63.8694 38.9708L62.8281 39.336L61.7425 39.7328L60.6161 40.1618L59.4524 40.6235L58.2553 41.1181L57.0284 41.6457L55.7757 42.2063L54.5011 42.7993L53.2085 43.4242L51.9019 44.0803L50.5851 44.7665L49.2622 45.4817L47.9369 46.2244L46.6133 46.9931L45.2951 47.7859L43.9858 48.6008L42.6893 49.4358L41.4089 50.2884L40.1481 51.1562L38.9101 52.0365L37.698 52.9266L36.5147 53.8234L35.363 54.724L34.2454 55.6253L33.1645 56.5239L32.1222 57.4166L31.1208 58.3L30.1619 59.1708L29.2471 60.0253L28.3778 60.8603L27.555 61.6721L26.7797 62.4575L26.0526 63.2128L25.374 63.9348L24.7442 64.6201L24.1633 65.2654L23.6308 65.8677L23.1465 66.4239L22.7095 66.931L22.3192 67.3863L21.9743 67.7871L21.6737 68.131L21.4159 68.4155L21.1992 68.6387L21.022 68.7985L20.8822 68.8932L20.7778 68.9214L20.7066 68.8816L20.6663 68.7729L20.6545 68.5945L20.6687 68.3457L20.7062 68.0261L20.7645 67.6358L20.8409 67.1748L20.9327 66.6436L21.0371 66.0427L21.1514 65.3731L21.273 64.636L21.3991 63.8328L21.5271 62.965L21.6545 62.0345L21.7787 61.0435L21.8973 59.9942L22.0081 58.8892L22.1088 57.7312L22.1973 56.5231L22.2717 55.268L22.3302 53.9692L22.3711 52.6301L22.393 51.2543L22.3946 49.8454L22.3747 48.4074L22.3324 46.9441L22.267 45.4595L22.1779 43.9577L22.0647 42.4428L21.9273 40.919L21.7658 39.3905L21.5804 37.8614L21.3716 36.336L21.14 34.8183L20.8864 33.3125L20.612 31.8226L20.318 30.3527L20.0058 28.9065L19.677 27.4879L19.3335 26.1004L18.977 24.7477L18.6097 23.4331L18.2339 22.1597L17.8519 20.9307L17.4662 19.7489L17.0794 18.6169L16.6941 17.5372L16.3132 16.512L15.9394 15.5434L15.5757 14.6331L15.2249 13.7828L14.8901 12.9937L14.5741 12.267L14.28 11.6034L14.0106 11.0037L13.7689 10.4681L13.5577 9.99688L13.3798 9.58977L13.2378 9.24648L13.1344 8.9664L13.0721 8.74872L13.0532 8.59239L13.0799 8.49615L13.1544 8.45853L13.2786 8.47787L13.4542 8.5523L13.6827 8.67979L13.9657 8.85813L14.3041 9.08496L14.6991 9.35777L15.6614 10.0307L16.2295 10.4252L16.8558 10.8544L17.54 11.3155L18.2819 11.8052L19.0808 12.3204L19.9357 12.8581L20.8456 13.415L21.8092 13.988L22.8248 14.574L23.8907 15.1697L25.0049 15.7722L26.1651 16.3784L27.3688 16.9855L28.6135 17.5906L29.8963 18.1908L31.2141 18.7838L32.5639 19.3668L33.9422 19.9376L35.3457 20.494L36.7706 21.0339L38.2133 21.5554L39.6699 22.0569L41.1365 22.5368L42.6092 22.9938L44.0838 23.4267L45.5562 23.8346L47.0224 24.2168L48.4782 24.5727L49.9195 24.902L51.3422 25.2047L52.7423 25.4807L54.1157 25.7303L55.4585 25.9541L56.7669 26.1527L58.0371 26.327L59.2655 26.4781L60.4486 26.6071L61.5831 26.7156L62.6658 26.805L63.6937 26.8771L64.6639 26.9337L65.5739 26.9769L66.4211 27.0087L67.2034 27.0315L67.9188 27.0474L68.5656 27.0589L69.1421 27.0685L69.6472 27.0787L70.0798 27.0921L70.4391 27.1112L70.7246 27.1387L70.9361 27.1771L71.0734 27.229L71.1369 27.297L71.127 27.3836L71.0444 27.4912L70.8902 27.6222L70.6656 27.7788L70.3719 27.9631L70.011 28.1774L69.5846 28.4234L68.5443 29.0176L67.9351 29.369L67.2701 29.7582L66.552 30.1865L65.784 30.6547L64.969 31.1636L64.1105 31.7137L63.2116 32.3053L62.2759 32.9384L61.3069 33.6131L60.3082 34.3289L59.2835 35.0853L58.2364 35.8815L57.1706 36.7165L56.0899 37.5891L54.9978 38.4979L53.8981 39.4413L52.7944 40.4173L51.6902 41.424L50.589 42.4591L49.4941 43.5202L48.4088 44.6047L47.3364 45.7099L46.2797 46.8328L45.2417 47.9703L44.2252 49.1193L43.2326 50.2765L42.2665 51.4383L41.3289 52.6014L40.4219 53.7621L39.5473 54.9168L38.7068 56.0617L37.9018 57.1931L37.1334 58.3073L36.4027 59.4005L35.7103 60.4689L35.0569 61.5089L34.4428 62.5167L33.868 63.4888L33.3326 64.4216L32.8361 65.3117L32.3781 66.1558L31.9578 66.9507L31.5743 67.6932L31.2265 68.3805L30.9131 69.0099L30.3837 70.0845L30.1643 70.5252L29.9725 70.8987L29.8063 71.2034L29.6636 71.4376L29.5422 71.6L29.4397 71.6896L29.3536 71.7055L29.2815 71.6472L29.2208 71.5143L29.1691 71.3067L29.1236 71.0246L29.0819 70.6686L29.0414 70.2391L28.9995 69.7372L28.9538 69.1641L28.9017 68.5212L28.8409 67.8102L28.7692 67.0329L28.6842 66.1915L28.5841 65.2883L28.4667 64.326L28.3302 63.3071L28.173 62.2347L27.9935 61.1119L27.7904 59.9419L27.5624 58.7281L27.3085 57.4742L27.028 56.1837L26.7201 54.8604L26.3845 53.5083L26.0208 52.1313L25.6291 50.7333L25.2095 49.3185L24.7624 47.8908L24.2883 46.4544L23.7882 45.0134L23.2629 43.5718L22.7137 42.1336L22.1419 40.7028L21.5491 39.2833L20.9371 37.8789L20.3079 36.4932L19.6635 35.13L19.0063 33.7927L18.3386 32.4846L17.663 31.2089L16.9822 29.9685L16.299 28.7664L15.6163 27.6051L14.9372 26.4872L14.2647 25.4149L13.6019 24.3902L12.9521 23.4149L12.3185 22.4907L11.7043 21.6189L11.1127 20.8006L10.5471 20.0368L10.0105 19.3281L9.50626 18.675L9.03737 18.0777L8.60689 17.5361L7.87284 16.6189L7.57484 16.2422L7.32634 15.9189L7.12979 15.6478L6.98749 15.4277L6.90156 15.2571L6.87394 15.1343L6.90638 15.0573L7.00042 15.0243L7.15741 15.033L7.37846 15.0811L7.66449 15.1662L8.01615 15.2858L8.43387 15.4372L8.91785 15.6177L9.46803 15.8247L10.0841 16.0551L10.7656 16.3063L11.5116 16.5752L12.3212 16.8591L13.193 17.155L14.1256 17.4601L15.1172 17.7715L16.1658 18.0866L17.2692 18.4026L18.4251 18.7168L19.6307 19.0268L20.8833 19.3302L22.1799 19.6247L23.5173 19.908L24.892 20.1783L26.3008 20.4336L27.7398 20.6721L29.2053 20.8924L30.6936 21.0932L32.2005 21.2731L33.7221 21.4313L35.2542 21.5669L36.7927 21.6793L38.3334 21.7682L39.8721 21.8333L41.4046 21.8746L42.9266 21.8924L44.4341 21.8871L45.923 21.8592L47.3891 21.8096L48.8286 21.7393L50.2376 21.6494L51.6123 21.5413L52.9491 21.4166L54.2446 21.2769L55.4954 21.1241L56.6983 20.9602L57.8504 20.7872L58.9489 20.6076L59.9912 20.4235L60.9749 20.2376L61.8979 20.0523L62.7582 19.8702L63.554 19.6941L64.2841 19.5267L64.947 19.3706L66.0679 19.1039L66.5247 18.9987L66.9119 18.9159L67.2296 18.8582L67.4782 18.8283L67.6579 18.8286L67.7697 18.8616L67.8144 18.9297L67.7934 19.0351L67.7079 19.18L67.5598 19.3662L67.3507 19.5956L67.0829 19.8699L66.7584 20.1906L66.3797 20.5589L65.9493 20.9759L65.47 21.4425L64.9446 21.9594L64.3761 22.5272L63.7675 23.146L63.1221 23.8159L62.443 24.5367L61.7336 25.308L60.9972 26.1292L60.2372 26.9993L59.457 27.9172L58.66 28.8817L57.8496 29.8912L57.0291 30.9438L56.2019 32.0376L55.3711 33.1705L54.5401 34.3399L53.7118 35.5434L52.8892 36.7781L52.0752 38.0412L51.2725 39.3294L50.4838 40.6396L49.7114 41.9683L48.9577 43.3121L48.2248 44.6672L47.5146 46.03L46.8288 47.3967L46.1691 48.7634L45.5368 50.1261L44.933 51.4808L44.3587 52.8237L43.8147 54.1506L43.3015 55.4576L42.8194 56.7408L42.3685 57.9962L41.9488 59.22L41.56 60.4084L41.2014 61.5577L40.8726 62.6643L40.5725 63.7248L40.3002 64.7359L40.0543 65.6943L39.8334 66.5971L39.636 67.4415L39.4603 68.2248L39.3045 68.9445L39.1666 69.5983L39.0444 70.1844L38.9358 70.7008L38.8384 71.146L38.7499 71.5187L38.6678 71.8177L38.5896 72.0423L38.5129 72.1919L38.435 72.2661L38.3534 72.2648L38.2655 72.1883L38.1689 72.0369L38.0611 71.8114L37.9397 71.5127L37.8022 71.142L37.6464 70.7007L37.2715 69.6131L37.0482 68.9708L36.7987 68.2659L36.5212 67.5008L36.2143 66.6783L35.8765 65.8012L35.5067 64.8726L35.1039 63.8957L34.6672 62.8737L34.1962 61.8101L33.6902 60.7086L33.1493 59.5727L32.5733 58.4062L31.9625 57.2128L31.3173 55.9964L30.6383 54.761L29.9265 53.5103L29.1828 52.2482L28.4086 50.9786L27.6054 49.7054L26.7747 48.4324L25.9186 47.1632L25.0391 45.9014L24.1383 44.6507L23.2188 43.4145L22.2831 42.1961L21.334 40.9987L20.3743 39.8253L19.4071 38.6788L18.4354 37.5618L17.4625 36.4771L16.4918 35.4268L15.5265 34.4131L14.5702 33.438L13.6264 32.5032L12.6985 31.6103L11.7902 30.7604L10.9051 29.9549L10.0465 29.1943L9.21814 28.4795L8.42336 27.8109L7.66558 27.1885L6.94812 26.6124L6.27422 26.0823L5.64698 25.5978L5.0694 25.1582L4.54434 24.7625L4.07451 24.4098L3.66247 24.0987L3.31058 23.8279L3.02102 23.5957L2.7958 23.4003L2.6367 23.2398L2.54528 23.1122L2.52289 23.0152L2.57064 22.9467L2.68941 22.9041L2.87984 22.8851L3.14232 22.8871L3.47698 22.9075L3.88371 22.9437L4.36215 22.993L5.53144 23.1201L6.22031 23.1927L6.97692 23.2677L7.79968 23.3427L8.68674 23.4151L9.63604 23.4825L10.6453 23.5425L11.712 23.593L12.8334 23.6317L14.0067 23.6567L15.2288 23.6661L16.4963 23.6582L17.806 23.6315L19.1542 23.5845L20.5372 23.516L21.9514 23.4251L23.3926 23.3108L24.8571 23.1725L26.3406 23.0098L27.8391 22.8223L29.3485 22.6101L30.8645 22.3733L32.383 22.1121L33.8998 21.8273L35.4108 21.5195L36.9119 21.1897L38.3989 20.839L39.8681 20.4688L41.3154 20.0805L42.7372 19.676L44.1297 19.257L45.4895 18.8256L46.8132 18.384L48.0976 17.9344L49.3396 17.4793L50.5364 17.0213L51.6854 16.5631L52.784 16.1073L53.83 15.6569L54.8214 15.2148L55.7565 14.7839L56.6335 14.3672L57.4512 13.9676L58.2085 13.5884L58.9045 13.2324L59.5385 12.9026L60.1103 12.602L60.6196 12.3335L61.0666 12.0999L61.4516 11.904L61.7751 11.7483L62.038 11.6355L62.2413 11.5679L62.3862 11.5478L62.4742 11.5774L62.5068 11.6585L62.4859 11.7929L62.4136 11.9823L62.2919 12.2281L62.1231 12.5314L61.9099 12.8932L61.6546 13.3143L61.0291 14.3363L60.6646 14.9376L60.2695 15.599L59.8468 16.32L59.3995 17.1002L58.9309 17.9384L58.4439 18.8338L57.9416 19.7849L57.4272 20.7901L56.9036 21.8477L56.374 22.9555L55.8411 24.1115L55.3078 25.3131L54.777 26.5576L54.2512 27.8423L53.733 29.164L53.2248 30.5197L52.7288 31.906L52.2472 33.3193L51.782 34.756L51.3349 36.2125L50.9076 37.6848L50.5014 39.169L50.1177 40.6611L49.7574 42.157L49.4215 43.6526L49.1105 45.1438L48.8249 46.6264L48.5649 48.0963L48.3306 49.5493L48.1218 50.9815L47.9381 52.3887L47.779 53.7669L47.6437 55.1124L47.5312 56.4214L47.4404 57.6902L47.37 58.9153L47.3185 60.0933L47.2842 61.221L47.2654 62.2954L47.2601 63.3136L47.2662 64.273L47.2816 65.1711L47.3041 66.0056L47.3311 66.7745L47.3603 67.4761L47.415 68.6711L47.4354 69.1621L47.4475 69.581L47.4489 69.9272L47.4368 70.2004L47.4086 70.4005L47.3618 70.5277L47.2938 70.5824L47.2023 70.5653L47.0847 70.4773L46.9389 70.3197L46.7627 70.0938L46.554 69.8012L46.3109 69.4438L46.0316 69.0236L45.7145 68.5429L45.3582 68.004L44.9613 67.4097L44.5229 66.7626L44.042 66.0656L43.5178 65.322L42.95 64.5347L42.3382 63.7071L41.6824 62.8427L40.9828 61.9447L40.2396 61.0169L39.4536 60.0626L38.6255 59.0857L37.7564 58.0895L36.8475 57.0779L35.9004 56.0543L34.9167 55.0224L33.8983 53.9857L32.8474 52.9476L31.7662 51.9115L30.6572 50.8808L29.5232 49.8586L28.3668 48.848L27.1911 47.8519L25.9993 46.8732L24.7945 45.9144L23.5803 44.9782L22.36 44.0667L21.1373 43.1822L19.9159 42.3266L18.6994 41.5016L17.4917 40.7088L16.2965 39.9495L15.1177 39.2248L13.9592 38.5358L12.8247 37.883L11.718 37.267L10.6429 36.688L9.60299 36.1462L8.60196 35.6412L7.64328 35.1729L6.73034 34.7406L5.86641 34.3435L5.05464 33.9808L4.298 33.6512L3.5993 33.3535L2.96121 33.0861L1.87641 32.6359L1.43402 32.4492L1.06081 32.2855L0.758374 32.1427L0.528092 32.0184L0.371086 31.9104L0.288243 31.8161L0.280194 31.7332L0.347319 31.6591L0.489748 31.5912L0.70735 31.5271L0.999739 31.4642L1.36628 31.3999L1.80607 31.3317L2.31797 31.2571L2.9006 31.1738L3.55234 31.0795L4.27132 30.9718L5.05546 30.8486L5.90246 30.708L6.80981 30.5479L7.7748 30.3666L8.79455 30.1626L9.86598 29.9343L10.9859 29.6804L12.1508 29.3998L13.3573 29.0915L14.6018 28.7548L15.8804 28.3892L17.1893 27.9943L18.5247 27.5698L19.8826 27.1159L21.2589 26.6328L22.6497 26.121L24.0508 25.581L25.4582 25.0139L26.8679 24.4207L28.276 23.8027L29.6784 23.1613L31.0713 22.4982L32.4509 21.8153L33.8136 21.1145L35.1558 20.3982L36.4741 19.6685L37.765 18.9282L39.0256 18.1797L40.2528 17.4259L41.4438 16.6697L42.5959 15.9141L43.7068 15.162L44.7742 14.4168L45.7961 13.6816L46.7707 12.9597L47.6964 12.2544L48.5718 11.569L49.3959 10.9068L50.1677 10.2711L50.8866 9.66524L51.5521 9.09238L52.164 8.55572L52.7225 8.05834L53.2276 7.60325L53.6799 7.19334L54.0802 6.83139L54.4292 6.52004L54.7281 6.26179L54.9783 6.05898L55.1812 5.91377L55.3385 5.82815L55.452 5.8039L55.5237 5.84264L55.5558 5.94572L55.5505 6.11431L55.5103 6.34933L55.4376 6.65151L55.335 7.02128L55.2052 7.45888L55.0509 7.96429L54.8749 8.53723L54.6799 9.17718L54.4689 9.88339L54.2447 10.6548L54.01 11.4903L53.7677 12.3882L53.5205 13.3469L53.2712 14.3644L53.0222 15.4386L52.7763 16.5669L52.5357 17.7469L52.3029 18.9757L52.0801 20.2503L51.8694 21.5676L51.6726 22.9242L51.4916 24.3167L51.328 25.7413L51.1832 27.1944L51.0586 28.6721L50.9551 30.1705L50.8738 31.6854L50.8152 33.2129L50.78 34.7487L50.7683 36.2886L50.7804 37.8285L50.8161 39.3642L50.8751 40.8915L50.9568 42.4061L51.0607 43.9042L51.1857 45.3814L51.3308 46.8341L51.4948 48.2582L51.6761 49.65L51.8731 51.0059L52.0841 52.3224L52.3071 53.5962L52.5401 54.8242L52.7807 56.0032L53.0268 57.1306L53.2758 58.2037L53.5251 59.2202L53.7722 60.1778L54.0144 61.0746L54.2489 61.9089L54.4729 62.6791L54.6837 63.3841L54.8783 64.0228L55.0539 64.5946L55.2078 65.0987L55.3371 65.5351L55.4392 65.9036L55.5114 66.2045L55.551 66.4383L55.5556 66.6057L55.5228 66.7076L55.4503 66.7452L55.336 66.7198L55.1779 66.633L54.9741 66.4868L54.7231 66.2829L54.4232 66.0237L54.0733 65.7114L53.2188 64.9377L52.7127 64.4818L52.1533 63.9837L51.5404 63.4464L50.8739 62.8729L50.154 62.2664L49.3812 61.6302L48.5562 60.9676L47.6798 60.2818L46.7532 59.5761L45.7778 58.8539L44.755 58.1185L43.6868 57.3731L42.5751 56.621L41.4222 55.8653L40.2306 55.1091L39.0028 54.3554L37.7416 53.6071L36.4501 52.8669L35.1314 52.1375L33.7888 51.4214L32.4257 50.721L31.0458 50.0384L29.6527 49.3757L28.2501 48.7347L26.842 48.1171L25.4323 47.5244L24.025 46.9577L22.624 46.4183L21.2335 45.907L19.8575 45.4245L18.5 44.9711L17.1651 44.5472L15.8566 44.1528L14.5786 43.7877L13.3348 43.4515L12.129 43.1438L10.9649 42.8637L9.84585 42.6103L8.77534 42.3824L7.75657 42.1788L6.79261 41.9979L5.88635 41.8382L5.04048 41.6979L4.25752 41.5751L3.53976 41.4676L2.88928 41.3735L2.30793 41.2904L1.79733 41.216L1.35888 41.1479L0.993698 41.0836L0.702678 41.0207L0.486454 40.9565L0.345408 40.8886L0.279664 40.8144L0.289091 40.7312L0.373304 40.6367L0.531664 40.5284L0.763282 40.4038L1.06703 40.2606L1.44153 40.0965L1.88518 39.9094L2.97237 39.4582L3.6116 39.1903L4.31138 38.892L5.06906 38.5618L5.88182 38.1984L6.74667 37.8008L7.66048 37.3678L8.61997 36.8988L9.62175 36.3932L10.6623 35.8506L11.738 35.271L12.8452 34.6543L13.9802 34.0008L15.1392 33.3111L16.3183 32.5858L17.5137 31.8259L18.7217 31.0325L19.9383 30.2069L21.1598 29.3507L22.3825 28.4657L23.6027 27.5538L24.8168 26.6171L26.0213 25.658L27.2129 24.6789L28.3882 23.6825L29.5442 22.6717L30.6778 21.6493L31.7863 20.6184L32.867 19.5823L33.9173 18.5442L34.9351 17.5075L35.9181 16.4757L36.8646 15.4524L37.7727 14.441L38.6411 13.4452L39.4684 12.4686L40.2537 11.5148L40.996 10.5874L41.6949 9.6901L42.3499 8.82627L42.9608 7.99942L43.5278 7.21293L44.0512 6.47008L44.5313 5.77405L44.969 5.12789L45.3651 4.53453L45.7207 3.99672L46.037 3.51707L46.3157 3.098L46.5581 2.74176L46.7662 2.45039L46.9419 2.22571L47.0871 2.06936L47.2042 1.98272L47.2953 1.96695L47.3628 2.02297L47.4093 2.15148L47.4371 2.3529L47.449 2.62741L47.4474 2.97495L47.4351 3.39519L47.4146 3.88756L47.3598 5.08514L47.3306 5.78795L47.3036 6.5581L47.2813 7.39379L47.266 8.293L47.26 9.25348L47.2656 10.2728L47.2847 11.3482L47.3192 12.4768L47.3711 13.6558L47.4419 14.8817L47.5331 16.1512L47.646 17.4609L47.7817 18.807L47.9413 20.1859L48.1254 21.5936L48.3347 23.0261L48.5694 24.4795L48.8299 25.9497L49.1159 27.4325L49.4274 28.9238L49.7638 30.4195L50.1245 31.9153L50.5087 33.4073L50.9153 34.8914L51.343 36.3634L51.7904 37.8195L52.2559 39.2559L52.7378 40.6687L53.234 42.0544L53.7424 43.4095L54.2608 44.7306L54.7867 46.0146L55.3176 47.2583L55.8509 48.4591L56.3837 49.6142L56.9133 50.7212L57.4367 51.7778L57.9509 52.782L58.4529 53.7321L58.9396 54.6264L59.408 55.4636L59.8548 56.2427L60.277 56.9627L60.6716 57.6229L61.0355 58.2231L61.6597 59.243L61.9142 59.663L62.1266 60.0237L62.2945 60.3259L62.4153 60.5706L62.4868 60.759L62.5067 60.8924L62.4731 60.9726L62.3841 61.0012L62.2381 60.9802L62.0337 60.9118L61.7697 60.7981L61.445 60.6417L61.0589 60.4451L60.6108 60.2108L60.1003 59.9417L59.5274 59.6406L58.8922 59.3103L58.1951 58.9538L57.4367 58.5741L56.6179 58.1743L55.7398 57.7573L54.8037 57.3261L53.8113 56.8838L52.7643 56.4333L51.6647 55.9775L50.5148 55.5192L49.3172 55.0612L48.0744 54.6062L46.7892 54.1568L45.4649 53.7153L44.1044 53.2841L42.7113 52.8654L41.2891 52.4611L39.8413 52.0732L38.3718 51.7033L36.8844 51.353L35.3831 51.0236L33.872 50.7162L32.3551 50.4318L30.8366 50.1711L29.3207 49.9347L27.8115 49.7229L26.3132 49.5359L24.83 49.3737L23.3659 49.2358L21.9251 49.122L20.5115 49.0315L19.1291 48.9634L17.7816 48.9168L16.4726 48.8904L15.2059 48.8829L13.9847 48.8926L12.8124 48.9179L11.6919 48.9568L10.6262 49.0074L9.61805 49.0676L8.66988 49.1351L7.78398 49.2076L6.96242 49.2826L6.20704 49.3576L5.51943 49.4301L4.35272 49.557L3.87559 49.606L3.47018 49.6419L3.13685 49.662L2.8757 49.6636L2.68658 49.6442L2.56912 49.6012L2.52267 49.5322L2.54634 49.4347L2.63901 49.3065L2.79935 49.1454L3.02577 48.9494L3.31648 48.7164L3.6695 48.4449L4.08263 48.1331L4.55349 47.7795L5.07954 47.3831L5.65806 46.9427L6.28618 46.4573L6.96092 45.9264L7.67914 45.3494L8.43763 44.7262L9.23306 44.0567L10.062 43.3411L10.9211 42.5797L11.8067 41.7733L12.7154 40.9227L13.6436 40.0289L14.5876 39.0934L15.5441 38.1176L16.5095 37.1032L17.4804 36.0523L18.4533 34.9669L19.4249 33.8494L20.392 32.7023L21.3516 31.5285L22.3004 30.3306L23.2359 29.1119L24.155 27.8753L25.0554 26.6244L25.9346 25.3625L26.7902 24.0932L27.6204 22.8201L28.4231 21.5469L29.1968 20.2775L29.9399 19.0156L30.6511 17.7651L31.3295 16.53L31.974 15.314L32.5842 14.1211L33.1596 12.9551L33.6999 11.8198L34.2051 10.7189L34.6755 9.65611L35.1116 8.63493L35.5138 7.65884L35.883 6.73114L36.2202 5.85504L36.5266 5.03356L36.8035 4.26957L37.0526 3.56577L37.2753 2.92467L37.4736 2.34856L37.6495 1.83955L37.8049 1.39951L37.942 1.0301L38.0632 0.732729L38.1708 0.508585L38.2672 0.358595L38.3549 0.283445L38.4364 0.283566L38.5143 0.359133L38.591 0.510069L38.6693 0.736037L38.7514 1.03645L38.8401 1.41047L38.9377 1.85699L39.0465 2.3747L39.1689 2.96202L39.3072 3.61713L39.4634 4.338L39.6394 5.1224L39.8372 5.96787L40.0585 6.87174L40.3049 7.83119L40.5778 8.8432L40.8784 9.90458L41.2078 11.012L41.5668 12.1621L41.9562 13.3511L42.3765 14.5755L42.828 15.8315L43.3106 17.1151L43.8244 18.4225L44.369 19.7498L44.9438 21.0929L45.5481 22.4478L46.181 23.8106L46.8412 25.1773L47.5274 26.544L48.2381 27.9067L48.9714 29.2617L49.7255 30.6052L50.4981 31.9336L51.2872 33.2434L52.0901 34.5312L52.9042 35.7938L53.7269 37.028L54.5553 38.2308L55.3864 39.3996L56.2171 40.5318L57.0442 41.6249L57.8645 42.6767L58.6747 43.6854L59.4715 44.649L60.2513 45.5661L61.0109 46.4353L61.7469 47.2555L62.4558 48.0259L63.1343 48.7458L63.7791 49.4148L64.3869 50.0326L64.9547 50.5995L65.4792 51.1155L65.9577 51.5812L66.3871 51.9973L66.7648 52.3647L67.0883 52.6845L67.3551 52.9579L67.5631 53.1866L67.7101 53.372L67.7943 53.5161L67.8142 53.6208L67.7682 53.6883L67.6552 53.7207L67.4742 53.7204L67.2244 53.6899L66.9054 53.6318L66.5169 53.5486L66.0589 53.443L64.9354 53.1756L64.2713 53.0193L63.54 52.8517L62.7429 52.6754L61.8815 52.4933L60.9574 52.3079L59.9726 52.122L58.9293 51.938L57.8297 51.7585L56.6767 51.5857L55.4728 51.4219L54.2212 51.2693L52.9249 51.1299L51.5874 51.0055L50.212 50.8977L48.8024 50.8082L47.3624 50.7382L45.8958 50.689L44.4066 50.6616L42.8988 50.6566L41.3765 50.6749L39.8439 50.7167L38.3051 50.7822L36.7644 50.8715L35.226 50.9844L33.694 51.1204L32.1727 51.279L30.6661 51.4593L29.1782 51.6604L27.7131 51.8811L26.2746 52.1199L24.8665 52.3755L23.4924 52.646L22.1557 52.9296L20.8599 53.2242L19.6081 53.5278L18.4034 53.8379L17.2485 54.1522L16.146 54.4682L15.0984 54.7832L14.1079 55.0945L13.1764 55.3995L12.3057 55.6952L11.4973 55.9788L10.7525 56.2474L10.0722 56.4982L9.45733 56.7283L8.90836 56.9348L8.4256 57.1148L8.0091 57.2657L7.65865 57.3847L7.37382 57.4691L7.15395 57.5165L6.99813 57.5244L6.90523 57.4906L6.87391 57.4128L6.90262 57.2891L6.98961 57.1176L7.13292 56.8966L7.33044 56.6246L7.57987 56.3003L7.87877 55.9226L8.61444 55.0034L9.04564 54.4608L9.51521 53.8625L10.0201 53.2083L10.5572 52.4987L11.1234 51.7338L11.7154 50.9146L12.33 50.0418L12.9639 49.1166L13.614 48.1404L14.277 47.1148L14.9496 46.0416L15.6289 44.9229L16.3115 43.7608L16.9947 42.558L17.6754 41.317L18.3509 40.0406L19.0184 38.7319L19.6755 37.3941L20.3196 36.0304L20.9485 34.6445L21.5602 33.2397L22.1526 31.82L22.7239 30.389L23.2728 28.9507L23.7976 27.5091L24.2973 26.0681L24.7708 24.6318L25.2174 23.2043L25.6365 21.7898L26.0277 20.3922L26.3909 19.0155L26.726 17.6639L27.0334 16.3413L27.3134 15.0514L27.5668 13.7982L27.7943 12.5852L27.997 11.416L28.1761 10.2941L28.3329 9.22265L28.469 8.20481L28.5861 7.24349L28.6859 6.34144L28.7706 5.5012L28.8421 4.72512L28.9027 4.0153L28.9546 3.37366L29.0003 2.80185L29.0422 2.3013L29.0827 1.87319L29.1244 1.51845L29.1699 1.23777L29.2218 1.03157L29.2827 0.900036L29.355 0.843072L29.4414 0.860352L29.5443 0.951285L29.6661 1.11504L29.8091 1.35054L29.9757 1.65646L30.168 2.03126L30.388 2.47315L30.9186 3.55008L31.2326 4.18051L31.581 4.86887L31.9651 5.6124L32.3861 6.40819L32.8449 7.25315L33.3421 8.14408L33.8782 9.07766L34.4537 10.0504L35.0685 11.0589L35.7227 12.0994L36.4157 13.1683L37.1472 14.2619L37.9163 15.3764L38.722 16.5081L39.5631 17.6533L40.4383 18.8081L41.3458 19.9689L42.284 21.132L43.2506 22.2938L44.2437 23.4508L45.2606 24.5996L46.2989 25.7369L47.3559 26.8595L48.4287 27.9643L49.5141 29.0484L50.6091 30.1091L51.7105 31.1437L52.8147 32.1499L53.9184 33.1253L55.018 34.068L56.1098 34.9762L57.1903 35.8481L58.2558 36.6824L59.3025 37.4779L60.3268 38.2336L61.325 38.9486L62.2934 39.6225L63.2284 40.2549L64.1266 40.8457L64.9844 41.3951L65.7985 41.9032L66.5657 42.3707L67.2828 42.7982L67.9468 43.1868L68.5549 43.5374L69.593 44.1304L70.0182 44.3758L70.3779 44.5895L70.6703 44.7733L70.8937 44.9294L71.0466 45.0599L71.1278 45.1671L71.1364 45.2533L71.0715 45.321L70.9329 45.3727L70.7201 45.4109L70.4332 45.4382L70.0725 45.4572L69.6386 45.4704L69.1322 45.4806L68.5543 45.4902L67.9063 45.5018L67.1897 45.5178L66.4061 45.5407L65.5577 45.5727L64.6466 45.6161L63.6753 45.673L62.6464 45.7454L61.5627 45.8352L60.4273 45.944L59.2433 46.0734L58.0141 46.2249L56.7432 46.3997L55.4341 46.5987L54.0907 46.823L52.7168 47.0731L51.3163 47.3496L49.8932 47.6527L48.4516 47.9825L46.9956 48.3389L45.5292 48.7216L44.0567 49.13L42.5821 49.5634L41.1095 50.0208L39.6431 50.5011L38.1867 51.0029L36.7443 51.5248L35.3197 52.065L33.9167 52.6217L32.5388 53.1928L31.1896 53.776L29.8724 54.3691L28.5903 54.9695L27.3463 55.5746L26.1434 56.1816L24.984 56.7879L23.8707 57.3903L22.8057 57.9859L21.791 58.5716L20.8284 59.1443L19.9195 59.7009L19.0656 60.2382L18.2678 60.753L17.5269 61.2422L16.8437 61.7027L16.2185 62.1314L15.6515 62.5252L14.6913 63.1966L14.2974 63.4686L13.96 63.6945L13.678 63.872L13.4505 63.9985L13.2758 64.0719L13.1526 64.0902L13.079 64.0516L13.0531 63.9542L13.0728 63.7968L13.1359 63.578L13.2401 63.2967L13.3827 62.9523L13.5613 62.544L13.7731 62.0715L14.0153 61.5348L14.2852 60.9339L14.5797 60.2692L14.8961 59.5413L15.2312 58.7511L15.5823 57.8997L15.9462 56.9883L16.3201 56.0186L16.7012 54.9924L17.0865 53.9118L17.4733 52.7788L17.859 51.5961L18.2409 50.3662L18.6166 49.0921L18.9836 47.7767L19.3399 46.4233L19.6832 45.0353L20.0117 43.6161L20.3236 42.1695L20.6173 40.6991L20.8913 39.2089L21.1444 37.7029L21.3756 36.185L21.584 34.6595L21.769 33.1304L21.9301 31.6019L22.067 30.0782L22.1797 28.5635L22.2684 27.062L22.3334 25.5778L22.3753 24.1149L22.3947 22.6774L22.3928 21.2691L22.3705 19.8939L22.3292 18.5556L22.2704 17.2575L22.1958 16.0033L22.107 14.7961L22.0061 13.639L21.8952 12.535L21.7765 11.4867L21.6522 10.4968L21.5248 9.56746L21.3967 8.70083L21.2707 7.89877L21.1492 7.16289L21.035 6.49459L20.9308 5.895L20.8393 5.36504L20.7633 4.90533L20.7053 4.5163L20.6682 4.19807L20.6545 3.95054L20.6668 3.77338L20.7077 3.66597L20.7794 3.62749L20.8844 3.65687L21.0249 3.75282L21.2028 3.9138L21.4202 4.13809L21.6788 4.42375L21.9803 4.76866L22.3259 5.17048L22.7171 5.62675L23.1549 6.13481L23.6401 6.69186L24.1735 7.29498L24.7554 7.94112L25.386 8.62712L26.0655 9.34974L26.7935 10.1057L27.5697 10.8915L28.3933 11.7038L29.2635 12.5391L30.1791 13.394L31.1388 14.265L32.141 15.1487L33.184 16.0415L34.2656 16.9402L35.3838 17.8415L36.5361 18.7421L37.72 19.6388L38.9326 20.5287L40.1711 21.4088L41.4323 22.2763L42.713 23.1286L44.0098 23.9633L45.3192 24.7778L46.6376 25.5702L47.9613 26.3384L49.2865 27.0807L50.6093 27.7953L51.9259 28.481L53.2324 29.1365L54.5247 29.7609L55.799 30.3533L57.0512 30.9132L58.2775 31.4402L59.4741 31.9343L60.6371 32.3953L61.7628 32.8237L62.8476 33.2199L63.8881 33.5846L64.8807 33.9185L65.8223 34.2229L66.7098 34.4989L67.5402 34.7478L68.3107 34.9713L69.019 35.1711L69.6624 35.349L70.239 35.507L70.7467 35.6471L71.1839 35.7717L71.5491 35.8829L71.841 35.9832L72.0587 36.075L72.2014 36.1607L72.2687 36.2429L72.2603 36.3241L72.1762 36.4069L72.0168 36.4937L71.7825 36.5872L71.4743 36.6897L71.093 36.8037L70.64 36.9315L69.5253 37.2377L68.8672 37.4203L68.1449 37.6252L67.3609 37.8542L66.5175 38.109L65.6178 38.3911L64.6646 38.702L63.6611 39.0427L62.6105 39.4143L61.5163 39.8175L60.3819 40.2532L59.2112 40.7215L58.0077 41.2229L56.7753 41.7573L55.5178 42.3244L54.2392 42.924L52.9434 43.5553L51.6344 44.2176L50.316 44.9099L48.9923 45.6308L47.6671 46.3789L46.3443 47.1527L45.0275 47.9501L43.7206 48.7694L42.4271 49.6081L41.1505 50.464L39.894 51.3346L38.661 52.2171L37.4546 53.1088L36.2775 54.0066L35.1325 54.9076L34.0222 55.8086L32.949 56.7063L31.9149 57.5974L30.922 58.4785L29.972 59.3462L29.0663 60.1971L28.2064 61.0276L27.3932 61.8344L26.6277 62.6138L25.9104 63.3627L25.2418 64.0774L24.622 64.7549L24.0509 65.3917L23.5283 65.9849L23.0536 66.5313L22.6263 67.0281L22.2453 67.4725L21.9096 67.8619L21.6178 68.1938L21.3685 68.466L21.16 68.6764L20.9905 68.8231L20.8581 68.9044L20.7607 68.9188L20.696 68.8651L20.6617 68.7423L20.6554 68.5495L20.6745 68.2863L20.7165 67.9524L20.7787 67.5476L20.8584 67.0723L21.0596 65.9119L21.1757 65.2285L21.2984 64.4778L21.4251 63.6612L21.5532 62.7805L21.6801 61.8375L21.8034 60.8344L21.9206 59.7736L22.0295 58.6575L22.1278 57.4891L22.2136 56.2711L22.2849 55.0069L22.34 53.6996L22.3771 52.3527L22.395 50.9699L22.3923 49.5548L22.3679 48.1113L22.321 46.6433L22.2508 45.1549L22.1568 43.6501L22.0387 42.1331L21.8964 40.608L21.73 39.079L21.5398 37.5503L21.3262 36.0261L21.0901 34.5105L20.8322 33.0076L20.5537 31.5215L20.2559 30.0561L19.9402 28.6152L19.6082 27.2026L19.2618 25.822L18.903 24.4768L18.5338 23.1703L18.1566 21.9057L17.7736 20.6861L17.3874 19.5142L17.0007 18.3926L16.6161 17.3239L16.2364 16.31L15.8644 15.3532L15.5031 14.455L15.1553 13.617L14.8241 12.8406L14.5124 12.1267L14.223 11.4761L13.9591 10.8894L13.7233 10.3669L13.5187 9.90876L13.3478 9.51469L13.2135 9.18433L13.1183 8.91703L13.0646 8.71194L13.0548 8.56796L13.0912 8.48379L13.1756 8.45791L13.3101 8.48863L13.4964 8.57403L13.7359 8.71207L14.0301 8.90048L14.38 9.13688L14.7865 9.41874L15.7724 10.1081L16.3523 10.5099L16.9904 10.9458L17.6865 11.413L18.44 11.9081L19.2504 12.4282L20.1166 12.9701L21.0376 13.5305L22.0119 14.1064L23.0379 14.6946L24.1138 15.292L25.2375 15.8955L26.4068 16.5021L27.6191 17.109L28.8718 17.7133L30.1619 18.3123L31.4866 18.9034L32.8424 19.4841L34.2262 20.0522L35.6343 20.6054L37.0631 21.1417L38.509 21.6592L39.968 22.1564L41.4361 22.6318L42.9095 23.0839L44.384 23.5118L45.8555 23.9145L47.3199 24.2914L48.7731 24.642L50.2109 24.9659L51.6294 25.263L53.0243 25.5336L54.3918 25.778L55.7279 25.9966L57.0288 26.1902L58.2908 26.3596L59.5102 26.5061L60.6837 26.6309L61.8079 26.7353L62.8797 26.821L63.8961 26.8898L64.8542 26.9435L65.7516 26.9842L66.5858 27.014L67.3546 27.0352L68.0562 27.05L69.2509 27.0705L69.7413 27.0811L70.159 27.0954L70.5033 27.116L70.7737 27.1455L70.9701 27.1865L71.0923 27.2415L71.1408 27.3131L71.116 27.4037L71.0188 27.5159L70.8501 27.6519L70.6113 27.814L70.3038 28.0043L69.9294 28.2248L69.4899 28.4775L68.9876 28.7641L68.4248 29.0862L67.8041 29.4451L67.128 29.8422L66.3995 30.2786L65.6217 30.755L64.7976 31.2723L63.9305 31.8308L63.0239 32.4308L62.0811 33.0725L61.1058 33.7556L60.1015 34.4797L59.0719 35.2443L58.0207 36.0484L56.9516 36.8912L55.8682 37.7713L54.7743 38.6873L53.6735 39.6375L52.5694 40.6199L51.4656 41.6326L50.3653 42.6732L49.2722 43.7393L48.1893 44.8282L47.1198 45.9372L46.0667 47.0634L45.0329 48.2035L44.021 49.3544L43.0336 50.5128L42.0731 51.6753L41.1416 52.8382L40.2411 53.9979L39.3734 55.1509L38.54 56.2934L37.7423 57.4216L36.9815 58.5318L36.2585 59.6202L35.5741 60.6832L34.9286 61.7169L34.3225 62.7177L33.7558 63.6821L33.2283 64.6065L32.7397 65.4875L32.2894 66.3218L31.8767 67.1063L31.5006 67.8378L31.1599 68.5135L30.8534 69.1307L30.3367 70.1796L30.123 70.6068L29.9366 70.9664L29.7754 71.2568L29.6373 71.4765L29.5199 71.6242L29.4209 71.6988L29.3378 71.6997L29.2683 71.6262L29.2096 71.478L29.1594 71.2553L29.1149 70.9581L29.0737 70.587L29.0331 70.1427L28.9906 69.6262L28.9437 69.0388L28.8901 68.3819L28.8273 67.6572L28.753 66.8666L28.6651 66.0125L28.5616 65.097L28.4405 64.1229L28.2999 63.0929L28.1383 62.01L27.9541 60.8773L27.746 59.6981L27.5128 58.4758L27.2536 57.2142L26.9675 55.9167L26.654 54.5873L26.3127 53.2298L25.9433 51.8481L25.5459 50.4464L25.1206 49.0286L24.668 47.5988L24.1886 46.1612L23.6832 44.7197L23.1529 43.2785L22.599 41.8414L22.0228 40.4126L21.426 38.9959L20.8103 37.595L20.1778 36.2137L19.5306 34.8555L18.871 33.5238L18.2015 32.222L17.5246 30.9533L16.8431 29.7205L16.1598 28.5265L15.4776 27.3739L14.7996 26.2651L14.1288 25.2023L13.4684 24.1875L12.8217 23.2225L12.1917 22.3088L11.5818 21.4478L10.9953 20.6406L10.4353 19.8879L9.9051 19.1906L9.40779 18.5488L8.94648 17.9628L8.52419 17.4326L8.14384 16.9578L7.80826 16.5378L7.52013 16.1721L7.28201 15.8595L7.09634 15.5989L6.96536 15.389L6.89115 15.2283L6.87562 15.1149L6.92049 15.0471L7.02725 15.0227L7.1972 15.0396L7.43143 15.0955L7.73077 15.1878L8.09586 15.3141L8.52707 15.4717L9.02454 15.6578L9.58818 15.8698L10.2176 16.1047L10.9123 16.3597L11.6714 16.6319L12.4937 16.9185L13.3781 17.2165L14.3228 17.5231L15.3262 17.8355L16.3862 18.151L17.5005 18.4668L18.6667 18.7804L19.8821 19.0892L21.1439 19.391L22.4491 19.6834L23.7943 19.9642L25.1763 20.2316L26.5915 20.4835L28.0363 20.7185L29.5068 20.9349L30.9991 21.1315L32.5093 21.3071L34.0334 21.4607L35.5672 21.5917L37.1065 21.6993L38.6471 21.7834L40.1849 21.8436L41.7155 21.8801L43.235 21.8932L44.739 21.8832L46.2236 21.8508L47.6846 21.7969L49.1182 21.7225L50.5205 21.6288L51.8878 21.5172L53.2164 21.3893L54.5031 21.2468L55.7444 21.0915L56.9372 20.9256L58.0786 20.7511L59.1659 20.5704L60.1964 20.3858L61.1679 20.1997L62.0783 20.0149L62.9255 19.8338L63.7081 19.6592L64.4246 19.4939L65.0737 19.3405L65.6546 19.2019L66.1666 19.0808L66.6092 18.9799L66.9823 18.902L67.2859 18.8498L67.5203 18.8258L67.6862 18.8326L67.7842 18.8725L67.8154 18.9481L67.7811 19.0614L67.6828 19.2145L67.5221 19.4094L67.3009 19.6478L67.0213 19.9315L66.6855 20.2617L65.8556 21.0668L65.3666 21.5437L64.8322 22.0709L64.2553 22.6491L63.639 23.2783L62.9864 23.9586L62.3009 24.6898L61.5857 25.4713L60.8442 26.3025L60.0798 27.1824L59.2959 28.11L58.4959 29.0837L57.6832 30.1021L56.861 31.1633L56.0329 32.2653L55.2018 33.4058L54.3711 34.5824L53.5437 35.7924L52.7226 37.0332L51.9107 38.3016L51.1107 39.5946L50.3251 40.9088L49.5563 42.2409L48.8067 43.5873L48.0782 44.9443L47.3729 46.3082L46.6923 47.6752L46.0381 49.0414L45.4115 50.4028L44.8136 51.7554L44.2454 53.0954L43.7077 54.4186L43.2008 55.721L42.725 56.9989L42.2805 58.2481L41.8671 59.465L41.4845 60.6457L41.1321 61.7866L40.8092 62.8841L40.5149 63.9348L40.248 64.9354L40.0073 65.8828L39.7913 66.774L39.5985 67.6061L39.427 68.3766L39.275 69.083L39.1405 69.7233L39.0213 70.2953L38.9151 70.7973L38.8197 71.2278L38.7327 71.5856L38.6516 71.8695L38.574 72.0789L38.4972 72.2131L38.4187 72.2719L38.3361 72.2553L38.2466 72.1635L38.148 71.997L38.0376 71.7565L37.913 71.443L37.772 71.0578L37.6123 70.6023L37.228 69.4875L36.9996 68.8322L36.7445 68.1148L36.4612 67.3379L36.148 66.504L35.8038 65.6162L35.4273 64.6774L35.0177 63.691L34.5741 62.6603L34.096 61.5888L33.5829 60.4799L33.0348 59.3375L32.4517 58.1652L31.8339 56.9668L31.1817 55.7462L30.496 54.5073L29.7776 53.254L29.0276 51.9901L28.2473 50.7195L27.4384 49.446L26.6024 48.1734L25.7413 46.9055L24.8572 45.6457L23.9525 44.3977L23.0295 43.1648L22.0908 41.9505L21.1393 40.7577L20.1778 39.5895L19.2094 38.4488L18.2373 37.3382L17.2645 36.2603L16.2946 35.2173L15.3309 34.2113L14.3768 33.2443L13.436 32.3179L12.5118 31.4336L11.608 30.5928L10.7279 29.7963L9.87524 29.045L9.05343 28.3396L8.26591 27.6803L7.51608 27.0674L6.80723 26.5007L6.14258 25.98L5.52522 25.5046L4.95811 25.074L4.44409 24.6872L3.98583 24.3431L3.58585 24.0404L3.24648 23.7775L2.96987 23.5529L2.75798 23.3648L2.61254 23.2112L2.53508 23.09L2.52689 22.999L2.58904 22.936L2.72237 22.8984L2.92745 22.8839L3.20463 22.8899L3.55398 22.9137L3.97536 22.9528L4.46834 23.0044L5.66618 23.1346L6.36896 23.2078L7.13919 23.2831L7.9752 23.3577L8.87511 23.4293L9.83681 23.4954L10.858 23.5536L11.936 23.6019L13.0683 23.6379L14.2518 23.6599L15.4833 23.6659L16.7598 23.6543L18.0776 23.6236L19.4332 23.5723L20.8229 23.4994L22.2428 23.4037L23.6891 23.2846L25.1578 23.1414L26.6447 22.9736L28.1458 22.7811L29.6569 22.5639L31.1737 22.322L32.6922 22.056L34.2082 21.7664L35.7175 21.4541L37.216 21.1199L38.6998 20.7651L40.1648 20.3911L41.6072 19.9994L43.0233 19.5918L44.4094 19.1701L45.7622 18.7364L47.0781 18.293L48.3541 17.8421L49.5871 17.3862L50.7744 16.9279L51.9133 16.47L53.0014 16.0151L54.0364 15.5661L55.0165 15.126L55.9398 14.6977L56.8049 14.2843L57.6104 13.8887L58.3552 13.5139L59.0386 13.163L59.66 12.8389L60.7157 12.283L61.15 12.0569L61.5224 11.8689L61.8335 11.7218L62.0842 11.618L62.2755 11.5599L62.4087 11.5498L62.4852 11.5897L62.5068 11.6815L62.4753 11.827L62.3927 12.0278L62.2612 12.2851L62.0832 12.6003L61.8612 12.9741L61.5977 13.4074L61.2956 13.9005L60.9575 14.4539L60.5865 15.0674L60.1855 15.741L59.7576 16.4742L59.3057 17.2662L58.8331 18.1162L58.3427 19.023L57.8377 19.9853L57.3212 21.0013L56.7962 22.0693L56.2656 23.1872L55.7324 24.3526L55.1994 25.5631L54.6694 26.8161L54.1449 28.1086L53.6286 29.4375L53.1227 30.7997L52.6295 32.1917L52.1511 33.6101L51.6894 35.0512L51.2462 36.5112L50.8231 37.9862L50.4214 39.4724L50.0424 40.9656L49.687 42.4617L49.3561 43.9568L49.0502 45.4466L48.7698 46.9269L48.5151 48.3937L48.286 49.8429L48.0824 51.2702L47.9038 52.6718L47.7496 54.0438L47.619 55.3821L47.511 56.6832L47.4245 57.9434L47.358 59.1591L47.3101 60.3272L47.2792 61.4443L47.2632 62.5075L47.2605 63.5139L47.2687 64.461L47.2857 65.3463L47.3093 66.1676L47.337 66.9229L47.3663 67.6106L47.4197 68.7769L47.4386 69.2533L47.4488 69.6575L47.4476 69.9888L47.4324 70.2471L47.4007 70.4323L47.3498 70.5447L47.2772 70.5847L47.1805 70.5531L47.0574 70.4508L46.9056 70.2792L46.7229 70.0396L46.5073 69.7336L46.257 69.3632L45.9701 68.9305L45.6451 68.4378L45.2807 67.8874L44.8754 67.282L44.4284 66.6246L43.9387 65.9179L43.4057 65.165L42.829 64.3693L42.2082 63.5339L41.5435 62.6624L40.8349 61.7581L40.083 60.8245L39.2883 59.8654L38.4518 58.8842L37.5744 57.8846L36.6577 56.8703L35.7029 55.8447L34.712 54.8115L33.6869 53.7743L32.6296 52.7363L31.5425 51.7011L30.4282 50.6718L29.2893 49.6517L28.1288 48.6438L26.9496 47.6511L25.7548 46.6762L24.5479 45.7218L23.3321 44.7904L22.1111 43.8843L20.8883 43.0055L19.6676 42.156L18.4526 41.3375L17.2471 40.5514L16.0549 39.7991L14.88 39.0816L13.726 38.3999L12.5969 37.7546L11.4963 37.1461L10.4281 36.5747L9.39584 36.0403L8.40315 35.5429L7.45352 35.0819L6.5503 34.6569L5.69675 34.2669L4.89597 33.911L4.1509 33.588L3.46434 33.2966L2.8389 33.0353L2.27697 32.8023L1.78079 32.5959L1.35234 32.4141L0.993422 32.2548L0.705581 32.116L0.490139 31.9952L0.348175 31.8901L0.280521 31.7984L0.287761 31.7174L0.370223 31.6448L0.527981 31.5779L0.760854 31.5143L1.06841 31.4513L1.44994 31.3864L1.90452 31.3171L2.43095 31.2409L3.0278 31.1556L3.69339 31.0587L4.42581 30.948L5.22295 30.8214L6.08245 30.677L7.00177 30.5127L7.97815 30.327L9.00868 30.1181L10.0902 29.8847L11.2196 29.6254L12.3933 29.3392L13.6078 29.0253L14.8595 28.6827L16.1447 28.3112L17.4593 27.9102L18.7996 27.4797L20.1616 27.0199L21.5412 26.5309L22.9343 26.0132L24.3371 25.4677L25.7453 24.8952L27.155 24.2968L28.5622 23.6739L29.963 23.0279L31.3535 22.3606L32.73 21.6739L34.0888 20.9698L35.4264 20.2505L36.7393 19.5185L38.0243 18.7763L39.2784 18.0265L40.4984 17.272L41.6817 16.5157L42.8256 15.7605L43.9278 15.0096L44.9861 14.2662L45.9985 13.5334L46.9632 12.8146L47.8788 12.1131L48.7439 11.4321L49.5574 10.7751L50.3184 10.1452L51.0265 9.54578L51.6811 8.98004L52.2821 8.45113L52.8296 7.96213L53.324 7.51601L53.7656 7.11565L54.1554 6.76379L54.4941 6.46306L54.783 6.21592L55.0234 6.02466L55.2169 5.89143L55.3651 5.81818L55.4699 5.80664L55.5334 5.85837L55.5577 5.97471L55.5451 6.15676L55.4981 6.40542L55.419 6.72133L55.3107 7.10491L55.1757 7.55633L54.8366 8.66216L54.6382 9.31567L54.4243 10.0353L54.1977 10.8199L53.9612 11.6681L53.7177 12.5786L53.4698 13.5495L53.2203 14.5787L52.9718 15.6641L52.7268 16.8032L52.4876 17.9933L52.2567 19.2317L52.0362 20.5153L51.8281 21.8409L51.6344 23.205L51.4568 24.6043L51.2969 26.0351L51.1562 27.4935L51.0357 28.9758L50.9367 30.4778L50.86 31.9956L50.8061 33.5251L50.7757 35.0621L50.7689 36.6024L50.7858 38.1418L50.8262 39.6761L50.8899 41.2011L50.9762 42.7127L51.0844 44.2068L51.2137 45.6794L51.3627 47.1266L51.5303 48.5444L51.715 49.9292L51.915 51.2773L52.1286 52.5854L52.3538 53.8501L52.5885 55.0684L52.8305 56.2371L53.0773 57.3537L53.3266 58.4154L53.5757 59.4201L53.822 60.3654L54.0629 61.2496L54.2955 62.071L54.517 62.828L54.7247 63.5196L54.9157 64.1447L55.0871 64.7027L55.2362 65.1931L55.3602 65.6156L55.4564 65.9704L55.5221 66.2576L55.5548 66.4778L55.552 66.6317L55.5113 66.7204L55.4305 66.7451L55.3074 66.707L55.1402 66.608L54.9269 66.4498L54.666 66.2345L54.3561 65.9643L53.9957 65.6415L53.12 64.8485L52.6031 64.3837L52.0328 63.8774L51.4089 63.3324L50.7316 62.7519L50.0009 62.1392L49.2174 61.4973L48.3818 60.8297L47.4951 60.1395L46.5585 59.4303L45.5732 58.7051L44.5411 57.9674L43.4638 57.2204L42.3436 56.4673L41.1826 55.7113L39.9833 54.9553L38.7485 54.2025L37.4809 53.4556L36.1836 52.7174L34.8598 51.9905L33.5127 51.2774L32.1459 50.5804L30.763 49.9017L29.3677 49.2433L27.9637 48.607L26.5549 47.9943L25.1454 47.4068L23.739 46.8456L22.3398 46.3119L20.952 45.8064L19.5794 45.3297L18.2262 44.8824L16.8963 44.4645L15.5937 44.076L14.3224 43.7169L13.086 43.3866L11.8884 43.0845L10.7332 42.8099L9.62378 42.5618L8.56355 42.339L7.5557 42.1401L6.60326 41.9637L5.70908 41.8082L4.87583 41.6715L4.10597 41.552L3.40175 41.4475L2.19815 41.2746L1.70214 41.2017L1.27853 41.1346L0.928387 41.0708L0.652558 41.0078L0.451623 40.9431L0.325912 40.8741L0.275497 40.7982L0.300195 40.713L0.399569 40.6159L0.57293 40.5044L0.819339 40.3762L1.13762 40.2289L1.52634 40.0603L1.98385 39.8683L3.09753 39.406L3.7493 39.132L4.46109 38.8274L5.23023 38.4905L6.05384 38.1203L6.92893 37.7155L7.85231 37.2752L8.82069 36.7988L9.83065 36.2857L10.8787 35.7356L11.9611 35.1484L13.0743 34.5242L14.2145 33.8633L15.3778 33.1662L16.5606 32.4338L17.7589 31.667L18.9689 30.8669L20.1868 30.035L21.4088 29.1728L22.6313 28.2821L23.8505 27.365L25.063 26.4235L26.2651 25.4601L27.4537 24.4773L28.6253 23.4777L29.777 22.4643L30.9057 21.4399L32.0088 20.4077L33.0835 19.3709L34.1273 18.3328L35.1382 17.2969L36.1139 16.2665L37.0527 15.2453L37.9528 14.2368L38.8129 13.2446L39.6318 12.2723L40.4084 11.3237L41.1419 10.4021L41.8318 9.51133L42.4779 8.65475L43.0799 7.83585L43.638 7.05799L44.1525 6.32442L44.6239 5.6383L45.053 5.00267L45.4407 4.4204L46.0968 3.42673L46.3679 3.02028L46.6032 2.67709L46.8046 2.39916L46.9739 2.18828L47.1132 2.04602L47.2248 1.97372L47.3109 1.97251L47.3739 2.04325L47.4164 2.18658L47.4408 2.40288L47.4497 2.69228L47.4457 3.05466L47.4315 3.48965L47.4097 3.99662L47.3829 4.57469L47.3538 5.22274L47.3248 5.9394L47.2986 6.72306L47.2775 7.57186L47.264 8.48374L47.2602 9.45639L47.2683 10.4873L47.2904 11.5738L47.3284 12.713L47.3839 13.9017L47.4588 15.1368L47.5543 16.4148L47.6717 17.7322L47.8123 19.0853L47.9768 20.4704L48.166 21.8834L48.3804 23.3206L48.6204 24.7777L48.8861 26.2508L49.1773 27.7357L49.4939 29.2282L49.8353 30.7243L50.2009 32.2197L50.5897 33.7104L51.0007 35.1923L51.4326 36.6614L51.8838 38.1138L52.3528 39.5456L52.8378 40.9533L53.3366 42.333L53.8472 43.6814L54.3674 44.9952L54.8945 46.2713L55.4261 47.5065L55.9595 48.6981L56.492 49.8436L57.0205 50.9405L57.5423 51.9866L58.0543 52.98L58.5534 53.9188L59.0366 54.8016L59.5008 55.6271L59.9429 56.3941L60.3597 57.102L60.7483 57.7501L61.1056 58.338L61.7148 59.3333L61.9609 59.7412L62.1645 60.0899L62.323 60.3804L62.434 60.6135L62.4951 60.7906L62.5042 60.913L62.4595 60.9825L62.359 61.0009L62.2013 60.97L61.9848 60.8922L61.7085 60.7697L61.3714 60.6049L60.9727 60.4003L60.5119 60.1588L59.9887 59.8829L59.4031 59.5756L58.7553 59.2397L58.0456 58.8783L57.2748 58.4942L56.4439 58.0906L55.5538 57.6705L54.6061 57.2368L53.6024 56.7926L52.5445 56.3408L51.4345 55.8842L50.2747 55.4258L49.0676 54.9683L47.8159 54.5142L46.5226 54.0661L45.1906 53.6266L43.8232 53.1977L42.4239 52.7818L40.9961 52.3807L39.5436 51.9964L38.0702 51.6304L36.5796 51.2842L35.076 50.9592L33.5634 50.6564L32.0459 50.3767L30.5275 50.121L29.0126 49.8896L27.5053 49.6828L26.0098 49.5009L24.5301 49.3436L23.0705 49.2107L21.6349 49.1017L20.2273 49.0158L18.8517 48.9522L17.5117 48.9098L16.2111 48.8874L14.9534 48.8835L13.7419 48.8965L12.5798 48.9248L11.4703 48.9662L10.4161 49.019L9.42 49.0809L8.48432 49.1496L7.61137 49.2228L6.80315 49.298L6.06145 49.3727L5.38782 49.4444L4.78357 49.5103L4.24975 49.5679L3.78719 49.6145L3.39644 49.6474L3.0778 49.6639L2.83135 49.6615L2.65687 49.6375L2.55393 49.5894L2.52183 49.5147L2.55966 49.4112L2.66623 49.2764L2.84016 49.1084L3.07983 48.905L3.3834 48.6643L3.74884 48.3847L4.17393 48.0645L4.65625 47.7023L5.19321 47.297L5.78206 46.8475L6.41993 46.3529L7.10378 45.8126L7.83047 45.2263L8.59675 44.5936L9.39929 43.9147L10.2347 43.1897L11.0994 42.4191L11.99 41.6036L12.903 40.7441L13.8347 39.8417L14.7816 38.8979L15.7402 37.914L16.707 36.8921L17.6785 35.8339L18.6514 34.7418L19.6224 33.6181L20.5882 32.4653L21.5458 31.2863L22.4922 30.084L23.4245 28.8613L24.34 27.6216L25.2363 26.3682L26.1108 25.1045L26.9614 23.8341L27.7862 22.5607L28.5831 21.288L29.3507 20.0197L30.0874 18.7599L30.792 17.5122L31.4635 16.2806L32.1011 15.0691L32.7042 13.8813L33.2724 12.7213L33.8056 11.5927L34.3037 10.4992L34.7671 9.44463L35.1962 8.43236L35.5916 7.46586L35.9542 6.54842L36.2851 5.6832L36.5853 4.8732L36.8565 4.12126L37.1 3.43003L37.3176 2.80199L37.5112 2.23938L37.6827 1.74427L37.8342 1.31849L37.9679 0.963648L38.0862 0.681106L38.1913 0.471996L38.2857 0.337202L38.3719 0.277357L38.4525 0.292837L38.5299 0.38377L38.6068 0.550024L38.6856 0.79121L38.7689 1.10669L38.8592 1.49557L38.9588 1.95671L39.1958 3.09001L39.3375 3.75869L39.4975 4.49269L39.6779 5.28973L39.8803 6.14731L40.1066 7.06274L40.3583 8.03315L40.6367 9.05547L40.9431 10.1265L41.2785 11.2429L41.6437 12.4012L42.0393 13.5978L42.4659 14.8289L42.9237 16.0908L43.4128 17.3796L43.9329 18.6914L44.4836 20.0222L45.0645 21.368L45.6747 22.7249L46.3133 24.0888L46.9789 25.4558L47.6702 26.822L48.3856 28.1834L49.1234 29.5364L49.8814 30.8771L50.6576 32.202L51.4496 33.5076L52.2551 34.7905L53.0712 36.0475L53.8953 37.2756L54.7245 38.4717L55.5557 39.6333L56.386 40.7576L57.212 41.8425L58.0305 42.8857L58.8382 43.8853L59.6318 44.8396L60.4078 45.747L61.1628 46.6064L61.8935 47.4165L62.5965 48.1766L63.2684 48.8862L63.906 49.5448L64.5059 50.1522L65.0651 50.7087L65.5805 51.2144L66.0492 51.6699L66.4683 52.076L66.8352 52.4336L67.1473 52.7439L67.4023 53.0081L67.598 53.2278L67.7324 53.4047L67.8037 53.5406L67.8102 53.6375L67.7507 53.6976L67.6239 53.7232L67.4289 53.7166L67.1651 53.6802L66.8319 53.6168L66.4292 53.5288L65.9571 53.419L64.8056 53.1448L64.1277 52.986L63.383 52.8164L62.5727 52.6387L61.6983 52.4557L60.7617 52.27L59.7648 52.0843L58.7098 51.901L57.5992 51.7226L56.4355 51.5515L55.2217 51.3899L53.9607 51.2398L52.6557 51.1033L51.3102 50.9821L49.9276 50.878L48.5115 50.7923L47.0657 50.7265L45.5942 50.6816L44.1009 50.6587L42.5898 50.6585L41.065 50.6815L39.5308 50.7281L37.9913 50.7985L36.4508 50.8926L34.9133 51.0102L33.3832 51.1509L31.8645 51.314L30.3614 51.4986L28.8778 51.7038L27.4178 51.9283L25.9852 52.1707L24.5837 52.4294L23.217 52.7028L21.8884 52.9888L20.6013 53.2854L19.3589 53.5905L18.164 53.9016L17.0196 54.2165L15.9281 54.5325L14.892 54.847L13.9134 55.1572L12.9941 55.4605L12.136 55.754L11.3404 56.0348L10.6086 56.3001L9.94165 56.5469L8.80466 56.9737L8.3354 57.148L7.93237 57.2926L7.59533 57.4047L7.3238 57.4818L7.11705 57.5214L6.97415 57.521L6.89391 57.4784L6.87495 57.3914L6.91568 57.2581L7.01429 57.0767L7.16883 56.8454L7.37711 56.5629L7.63682 56.2277L7.94548 55.839L8.699 54.8974L9.13827 54.3435L9.61528 53.7338L10.127 53.0683L10.6703 52.3473L11.2419 51.5714L11.8388 50.7411L12.4576 49.8575L13.0951 48.9218L13.7481 47.9354L14.4133 46.9L15.0875 45.8174L15.7677 44.6896L16.4507 43.5191L17.1336 42.3082L17.8135 41.0598L18.4876 39.7766L19.1532 38.4617L19.8078 37.1183L20.449 35.7499L21.0746 34.3598L21.6824 32.9517L22.2707 31.5293L22.8376 30.0965L23.3816 28.6572L23.9014 27.2154L24.3959 25.775L24.864 24.3402L25.305 22.9151L25.7185 21.5036L26.104 20.1099L26.4614 18.7381L26.7909 17.3921L27.0926 16.0758L27.3672 14.7931L27.6152 13.5477L27.8376 12.3434L28.0353 11.1836L28.2098 10.0717L28.3622 9.0109L28.4943 8.00434L28.6077 7.05487L28.7044 6.16521L28.7862 5.33786L28.8553 4.57511L28.9139 3.87903L29.0091 2.69408L29.0504 2.2082L29.091 1.79496L29.1333 1.45526L29.1799 1.18973L29.2334 0.998728L29.2964 0.882394L29.3714 0.840587L29.4609 0.872922L29.5675 0.978763L29.6934 1.15723L29.8411 1.40718L30.0128 1.72726L30.2105 2.11588L30.4364 2.5712L30.6922 3.09121L30.9798 3.67365L31.3007 4.3161L31.6563 5.01593L32.0479 5.77034L32.4765 6.5764L32.943 7.43099L33.4481 8.33088L33.9922 9.27272L34.5757 10.2531L35.1986 11.2683L35.8607 12.3149L36.5616 13.3892L37.3008 14.4873L38.0774 15.6057L38.8905 16.7404L39.7386 17.8878L40.6205 19.0441L41.5345 20.2057L42.4786 21.3688L43.4508 22.5299L44.4489 23.6856L45.4705 24.8323L46.5128 25.9669L47.5732 27.0861L48.6488 28.1869L49.7365 29.2665L50.833 30.322L51.9352 31.351L53.0396 32.3511L54.1428 33.32L55.2411 34.2559L56.3309 35.1568L57.4087 36.0211L58.4706 36.8476L59.5131 37.6351L60.5323 38.3825L61.5247 39.0892L62.4867 39.7547L63.4145 40.3786L64.3047 40.961L65.1539 41.5019L65.9587 42.0017L66.7159 42.461L67.4224 42.8805L68.0753 43.2612L68.6717 43.6043L69.6848 44.183L70.0968 44.4218L70.443 44.6292L70.7214 44.8073L70.9306 44.958L71.069 45.0836L71.1355 45.1863L71.1291 45.2685L71.0493 45.3328L70.8955 45.3815L70.6676 45.4172L70.3657 45.4426L69.9901 45.4602L69.5413 45.4727L69.0203 45.4825L68.428 45.4923L67.7659 45.5046L67.0354 45.5219L66.2385 45.5464L65.3772 45.5806L64.4536 45.6266L63.4703 45.6865L62.4301 45.7623L61.3356 45.8557L60.19 45.9686L58.9965 46.1025L57.7585 46.2586L56.4795 46.4382L55.1632 46.6423L53.8133 46.8718L52.4336 47.1273L51.0282 47.4092L49.601 47.7177L48.1561 48.053L46.6976 48.4148L45.2297 48.8027L43.7564 49.2163L42.2819 49.6546L40.8102 50.1168L39.3455 50.6016L37.8916 51.1076L36.4526 51.6334L35.0321 52.1771L33.6339 52.7369L32.2616 53.3106L30.9186 53.8961L29.6083 54.4908L28.3337 55.0924L27.0979 55.6982L25.9036 56.3053L24.7535 56.911L23.6498 57.5122L22.5949 58.1061L21.5907 58.6894L20.6389 59.2591L19.7411 59.812L18.8985 60.345L18.1122 60.8548L17.3831 61.3385L16.7117 61.7927L16.0983 62.2145L15.5431 62.6008L15.0459 62.9488L14.6065 63.2556L14.2241 63.5184L13.8981 63.7347L13.6273 63.9019L13.4106 64.0178L13.2466 64.0802L13.1336 64.087L13.0699 64.0366L13.0535 63.9271L13.0822 63.7572L13.1539 63.5258L13.2661 63.2317L13.4163 62.8743L13.6018 62.453L13.8201 61.9674L14.0682 61.4176L14.3433 60.8037L14.6425 60.1261L14.9629 59.3854L15.3015 58.5826L15.6554 57.7189L16.0216 56.7955L16.3973 55.8142L16.7794 54.7767L17.1652 53.6852L17.5521 52.5419L17.9372 51.3493L18.318 50.1102L18.6921 48.8274L19.0571 47.5041L19.4109 46.1433L19.7514 44.7486L20.0766 43.3236L20.3849 41.8718L20.6747 40.3971L20.9446 38.9033L21.1933 37.3946L21.4199 35.8748L21.6236 34.3482L21.8038 32.8189L21.9599 31.291L22.0919 29.7688L22.1997 28.2565L22.2836 26.7582L22.3438 25.278L22.381 23.8199L22.3961 22.388L22.3899 20.9862L22.3636 19.6183L22.3186 18.2878L22.2565 16.9984L22.1788 15.7535L22.0874 14.5562L21.9843 13.4097L21.8716 12.3169L21.7515 11.2803L21.6264 10.3025L21.4986 9.3858L21.3708 8.53218L21.2455 7.74347L21.1253 7.02125L21.0129 6.36686L20.9111 5.78139L20.8225 5.26569L20.7499 4.82036L20.696 4.44574L20.6634 4.14193L20.6548 3.90877L20.6727 3.74587L20.7197 3.65258L20.7981 3.62802L20.9101 3.67106L21.058 3.78038L21.2439 3.95441L21.4695 4.19136L21.7367 4.48927L22.047 4.84596L22.8025 5.72612L23.2499 6.24439L23.7449 6.81106L24.2881 7.4232L24.8799 8.07771L25.5205 8.77144L26.2099 9.50111L26.9477 10.2634L27.7336 11.0549L28.5668 11.8722L29.4464 12.7118L30.3711 13.5702L31.3395 14.4441L32.3502 15.3299L33.4012 16.2242L34.4905 17.1237L35.6158 18.0251L36.7748 18.9251L37.9647 19.8207L39.1829 20.7088L40.4262 21.5866L41.6917 22.4512L42.9759 23.3001L44.2756 24.1309L45.5871 24.9411L46.9069 25.7287L48.2312 26.4918L49.5562 27.2285L50.8781 27.9374L52.193 28.617L53.4969 29.2662L54.7858 29.8841L56.0559 30.47L57.3032 31.0232L58.5238 31.5435L59.7138 32.0308L60.8695 32.4852L61.9872 32.907L63.0633 33.2967L64.0942 33.655L65.0767 33.9829L66.0075 34.2814L66.8836 34.5517L67.7021 34.7953L68.4601 35.0139L69.1553 35.209L69.7853 35.3827L70.348 35.5369L70.8415 35.6737L71.2641 35.7954L71.6145 35.9042L71.8914 36.0025L72.0939 36.0929L72.2212 36.1777L72.2731 36.2594" stroke="url(#paint0_linear_113_3116)" stroke-width="0.5"/>
<defs>
<linearGradient id="paint0_linear_113_3116" x1="0.274414" y1="36.2744" x2="72.2744" y2="36.2744" gradientUnits="userSpaceOnUse">
<stop offset="0.0288462" stop-color="#2E99DB"/>
<stop offset="0.5" stop-color="#2C8BCA"/>
<stop offset="1"/>
</linearGradient>
</defs>
</svg>
