<svg width="73" height="73" viewBox="0 0 73 73" fill="none" xmlns="http://www.w3.org/2000/svg">
<path d="M72.25 36.2503L72.2389 36.0445L72.2057 35.8387L72.1504 35.6331L72.073 35.4278L71.9736 35.2228L71.8523 35.0182L71.709 34.8142L71.544 34.6107L71.3572 34.4079L71.1489 34.2058L70.9191 34.0046L70.668 33.8043L70.3957 33.605L70.1024 33.4068L69.7884 33.2098L69.4537 33.014L69.0986 32.8195L68.7233 32.6265L68.328 32.435L67.9131 32.245L67.4786 32.0566L67.025 31.87L66.5524 31.6853L66.0613 31.5024L65.5518 31.3214L65.0243 31.1425L64.4791 30.9657L63.9166 30.7912L63.3371 30.6188L62.7409 30.4488L62.1284 30.2813L61.5001 30.1162L60.8563 29.9537L60.1973 29.7938L59.5236 29.6366L58.8356 29.4821L58.1338 29.3305L57.4185 29.1819L56.6902 29.0361L55.9494 28.8934L55.1965 28.7539L54.432 28.6174L53.6563 28.4842L52.8699 28.3543L52.0733 28.2278L51.267 28.1046L50.4515 27.9849L49.6273 27.8687L48.7949 27.7561L47.9547 27.6472L47.1075 27.5419L46.2535 27.4403L45.3935 27.3426L44.5278 27.2486L43.6571 27.1586L42.7819 27.0725L41.9026 26.9903L41.0199 26.9122L40.1343 26.8382L39.2464 26.7682L38.3566 26.7024L37.4655 26.6408L36.5738 26.5833L35.6818 26.5302L34.7902 26.4813L33.8996 26.4367L33.0104 26.3965L32.1232 26.3607L31.2386 26.3292L30.3571 26.3022L29.4792 26.2797L28.6055 26.2616L27.7365 26.248L26.8728 26.2389L26.0148 26.2344L25.1632 26.2344L24.3184 26.2389L23.4809 26.248L22.6513 26.2617L21.8301 26.28L21.0177 26.3028L20.2147 26.3303L19.4216 26.3624L18.6388 26.399L17.8669 26.4403L17.1062 26.4861L16.3573 26.5365L15.6207 26.5915L14.8967 26.6511L14.1858 26.7152L13.4885 26.7839L12.8051 26.8571L12.1361 26.9348L11.482 27.017L10.843 27.1037L10.2196 27.1948L9.61225 27.2904L9.02119 27.3903L8.44684 27.4946L7.88953 27.6033L7.34962 27.7162L6.82742 27.8334L6.32326 27.9549L5.83744 28.0805L5.37026 28.2102L4.92199 28.3441L4.49292 28.482L4.0833 28.624L3.69337 28.7699L3.32338 28.9197L2.97355 29.0733L2.64409 29.2308L2.33519 29.392L2.04704 29.5569L1.77981 29.7254L1.53367 29.8975L1.30875 30.073L1.1052 30.252L0.923135 30.4344L0.762657 30.62L0.623862 30.8089L0.506831 31.0008L0.411631 31.1959L0.338315 31.3939L0.286922 31.5949L0.25748 31.7986L0.25 32.0052L0.264483 32.2143L0.300913 32.4261L0.359263 32.6403L0.439493 32.8569L0.541547 33.0758L0.665356 33.2969L0.810839 33.5201L0.977902 33.7454L1.16644 33.9725L1.37632 34.2015L1.60742 34.4322L1.85959 34.6645L2.13266 34.8983L2.42647 35.1335L2.74082 35.3701L3.07553 35.6078L3.43037 35.8466L3.80513 36.0864L4.19957 36.3271L4.61344 36.5686L5.04647 36.8106L5.49841 37.0532L5.96897 37.2963L6.45785 37.5396L6.96475 37.7831L7.48935 38.0267L8.03132 38.2703L8.59032 38.5137L9.16602 38.7568L9.75804 38.9995L10.366 39.2417L10.9896 39.4833L11.6283 39.7241L12.2819 39.964L12.9498 40.2029L13.6318 40.4408L14.3273 40.6773L15.0358 40.9125L15.7571 41.1463L16.4906 41.3784L17.236 41.6088L17.9926 41.8373L18.76 42.0639L19.5379 42.2884L20.3256 42.5107L21.1228 42.7307L21.9289 42.9482L22.7433 43.1632L23.5658 43.3755L24.3956 43.585L25.2323 43.7916L26.0754 43.9951L26.9243 44.1956L27.7786 44.3927L28.6377 44.5865L29.5011 44.7768L30.3682 44.9635L31.2385 45.1465L32.1115 45.3257L32.9867 45.501L33.8635 45.6722L34.7413 45.8393L35.6196 46.0022L36.498 46.1608L37.3758 46.3149L38.2525 46.4645L39.1276 46.6095L40.0005 46.7498L40.8707 46.8852L41.7376 47.0158L42.6009 47.1413L43.4598 47.2618L44.3139 47.3771L45.1626 47.4872L46.0055 47.5919L46.842 47.6913L47.6717 47.7851L48.4939 47.8735L49.3082 47.9562L50.1142 48.0332L50.9113 48.1045L51.699 48.1699L52.4768 48.2295L53.2443 48.2831L54.0011 48.3308L54.7465 48.3724L55.4803 48.408L56.202 48.4374L56.911 48.4606L57.607 48.4776L58.2896 48.4884L58.9584 48.4928L59.6129 48.491L60.2527 48.4828L60.8775 48.4682L61.4869 48.4472L62.0805 48.4199L62.6579 48.3861L63.2189 48.3458L63.763 48.2992L64.29 48.246L64.7996 48.1865L65.2913 48.1205L65.765 48.048L66.2203 47.9691L66.657 47.8838L67.0749 47.792L67.4736 47.6939L67.8529 47.5895L68.2127 47.4786L68.5527 47.3615L68.8726 47.2381L69.1724 47.1085L69.4518 46.9727L69.7107 46.8307L69.9489 46.6826L70.1663 46.5284L70.3628 46.3683L70.5382 46.2022L70.6925 46.0302L70.8256 45.8525L70.9374 45.6689L71.0278 45.4797L71.0968 45.2849L71.1444 45.0846L71.1705 44.8788L71.1752 44.6677L71.1584 44.4513L71.1202 44.2298L71.0607 44.0031L70.9797 43.7715L70.8775 43.535L70.7541 43.2938L70.6095 43.0479L70.4439 42.7974L70.2574 42.5425L70.0501 42.2833L69.8222 42.0199L69.5738 41.7524L69.305 41.4809L69.0161 41.2056L68.7072 40.9267L68.3785 40.6442L68.0302 40.3582L67.6626 40.069L67.276 39.7767L66.8704 39.4814L66.4463 39.1832L66.0038 38.8823L65.5433 38.5789L65.0651 38.2731L64.5694 37.9651L64.0565 37.6549L63.5269 37.3429L62.9807 37.0291L62.4185 36.7137L61.8404 36.3969L61.247 36.0789L60.6385 35.7597L60.0153 35.4396L59.3779 35.1188L58.7266 34.7974L58.0618 34.4755L57.384 34.1535L56.6935 33.8314L55.9909 33.5094L55.2765 33.1877L54.5508 32.8664L53.8142 32.5458L53.0672 32.2261L52.3103 31.9074L51.544 31.5898L50.7686 31.2736L49.9847 30.959L49.1928 30.6461L48.3934 30.3351L47.5869 30.0262L46.7739 29.7196L45.9548 29.4154L45.1302 29.1138L44.3006 28.8151L43.4664 28.5193L42.6283 28.2267L41.7867 27.9374L40.9421 27.6516L40.0951 27.3694L39.2462 27.0912L38.3959 26.8169L37.5446 26.5469L36.6931 26.2812L35.8417 26.02L34.9909 25.7635L34.1414 25.5118L33.2937 25.2651L32.4481 25.0237L31.6054 24.7875L30.7659 24.5568L29.9302 24.3317L29.0989 24.1124L28.2723 23.8991L27.451 23.6917L26.6356 23.4906L25.8265 23.2959L25.0242 23.1076L24.2291 22.9259L23.4419 22.7509L22.6629 22.5828L21.8926 22.4217L21.1315 22.2677L20.3801 22.1209L19.6387 21.9814L18.908 21.8494L18.1882 21.7249L17.4798 21.608L16.7833 21.4989L16.0991 21.3976L15.4275 21.3042L14.769 21.2188L14.1241 21.1415L13.493 21.0723L12.8761 21.0114L12.2738 20.9587L11.6866 20.9144L11.1146 20.8786L10.5583 20.8511L10.018 20.8322L9.49403 20.8219L8.98667 20.8202L8.49622 20.8271L8.02299 20.8426L7.56725 20.8668L7.12926 20.8998L6.70929 20.9415L6.30757 20.9919L5.92434 21.051L5.55982 21.1189L5.21422 21.1955L4.88774 21.2808L4.58056 21.3748L4.29287 21.4776L4.02482 21.5889L3.77655 21.709L3.54822 21.8376L3.33994 21.9748L3.15183 22.1205L2.98398 22.2746L2.83649 22.4372L2.70944 22.6081L2.60287 22.7872L2.51685 22.9746L2.45141 23.1701L2.40657 23.3737L2.38235 23.5852L2.37875 23.8047L2.39575 24.0318L2.43332 24.2667L2.49144 24.5092L2.57004 24.7591L2.66906 25.0163L2.78844 25.2808L2.92806 25.5524L3.08785 25.8309L3.26768 26.1163L3.46742 26.4084L3.68695 26.7071L3.9261 27.0122L4.18472 27.3235L4.46263 27.6409L4.75966 27.9643L5.07559 28.2935L5.41022 28.6282L5.76334 28.9685L6.13471 29.314L6.52409 29.6645L6.93123 30.02L7.35585 30.3802L7.7977 30.7449L8.25648 31.114L8.7319 31.4872L9.22365 31.8643L9.73143 32.2452L10.2549 32.6296L10.7937 33.0173L11.3476 33.4081L11.9161 33.8019L12.4989 34.1982L13.0957 34.5971L13.706 34.9982L14.3295 35.4013L14.9658 35.8062L15.6145 36.2126L16.2751 36.6204L16.9473 37.0293L17.6307 37.439L18.3248 37.8494L19.0291 38.2602L19.7433 38.6711L20.4668 39.082L21.1994 39.4925L21.9403 39.9025L22.6894 40.3117L23.4459 40.7199L24.2096 41.1268L24.9799 41.5322L25.7563 41.9358L26.5384 42.3375L27.3256 42.7369L28.1176 43.1339L28.9137 43.5281L29.7135 43.9194L30.5166 44.3075L31.3224 44.6921L32.1303 45.0732L32.9401 45.4503L33.751 45.8233L34.5627 46.192L35.3746 46.556L36.1863 46.9153L36.9972 47.2695L37.8068 47.6185L38.6147 47.962L39.4203 48.2998L40.2233 48.6317L41.0229 48.9574L41.8189 49.2768L42.6107 49.5897L43.3978 49.8958L44.1798 50.195L44.9561 50.487L45.7264 50.7717L46.4901 51.0489L47.2467 51.3184L47.9959 51.5799L48.7372 51.8334L49.4701 52.0786L50.1941 52.3154L50.909 52.5436L51.6141 52.7631L52.3091 52.9736L52.9936 53.1751L53.6672 53.3674L54.3295 53.5503L54.98 53.7238L55.6185 53.8876L56.2444 54.0417L56.8575 54.186L57.4574 54.3202L58.0437 54.4444L58.616 54.5584L59.1741 54.662L59.7177 54.7553L60.2463 54.8381L60.7597 54.9104L61.2576 54.972L61.7397 55.0229L62.2057 55.063L62.6554 55.0924L63.0884 55.1108L63.5046 55.1183L63.9037 55.1149L64.2855 55.1005L64.6497 55.075L64.9962 55.0386L65.3248 54.991L65.6353 54.9324L65.9274 54.8628L66.2011 54.7821L66.4562 54.6904L66.6926 54.5876L66.9101 54.4739L67.1086 54.3492L67.2881 54.2136L67.4484 54.0672L67.5894 53.9099L67.7111 53.7418L67.8135 53.5631L67.8964 53.3737L67.9599 53.1738L68.004 52.9635L68.0285 52.7428L68.0337 52.5118L68.0193 52.2707L67.9856 52.0195L67.9325 51.7584L67.8601 51.4876L67.7684 51.207L67.6575 50.9169L67.5275 50.6174L67.3786 50.3087L67.2108 49.9908L67.0242 49.6641L66.819 49.3286L66.5953 48.9845L66.3533 48.632L66.0931 48.2712L65.815 47.9025L65.5191 47.5258L65.2056 47.1416L64.8747 46.7499L64.5267 46.351L64.1617 45.945L63.7801 45.5323L63.382 45.113L62.9678 44.6873L62.5377 44.2556L62.0919 43.8179L61.6309 43.3747L61.1548 42.9261L60.6639 42.4723L60.1587 42.0136L59.6394 41.5504L59.1064 41.0828L58.5599 40.6111L58.0005 40.1355L57.4282 39.6564L56.8437 39.1741L56.2472 38.6887L55.6391 38.2006L55.0198 37.7101L54.3897 37.2174L53.7492 36.7228L53.0987 36.2267L52.4386 35.7292L51.7692 35.2308L51.0911 34.7316L50.4047 34.232L49.7104 33.7324L49.0086 33.2328L48.2997 32.7338L47.5842 32.2355L46.8626 31.7384L46.1352 31.2425L45.4026 30.7484L44.6652 30.2562L43.9235 29.7663L43.1778 29.2789L42.4287 28.7944L41.6767 28.313L40.9221 27.8351L40.1655 27.361L39.4073 26.8908L38.648 26.425L37.888 25.9639L37.1278 25.5076L36.368 25.0565L35.6088 24.6108L34.8509 24.1709L34.0946 23.7371L33.3405 23.3095L32.5889 22.8885L31.8404 22.4744L31.0954 22.0674L30.3543 21.6677L29.6176 21.2756L28.8857 20.8915L28.1591 20.5154L27.4382 20.1477L26.7234 19.7887L26.0152 19.4385L25.3141 19.0974L24.6203 18.7655L23.9343 18.4433L23.2566 18.1307L22.5876 17.8282L21.9275 17.5358L21.2769 17.2537L20.6361 16.9823L20.0055 16.7216L19.3855 16.4718L18.7764 16.2331L18.1786 16.0057L17.5924 15.7898L17.0182 15.5855L16.4563 15.3929L15.907 15.2123L15.3707 15.0437L14.8477 14.8872L14.3382 14.7431L13.8426 14.6114L13.3612 14.4922L12.8942 14.3856L12.4418 14.2918L12.0045 14.2108L11.5823 14.1426L11.1755 14.0875L10.7844 14.0454L10.4092 14.0163L10.0501 14.0004L9.7072 13.9977L9.38082 14.0082L9.07108 14.0319L8.77815 14.0689L8.5022 14.1192L8.24336 14.1828L8.00177 14.2596L7.77756 14.3497L7.57083 14.453L7.38169 14.5695L7.21024 14.6992L7.05655 14.842L6.92069 14.9979L6.80272 15.1668L6.70269 15.3486L6.62063 15.5433L6.55658 15.7508L6.51054 15.9709L6.48252 16.2036L6.47251 16.4488L6.48049 16.7064L6.50644 16.9761L6.5503 17.258L6.61204 17.5518L6.69159 17.8575L6.78887 18.1748L6.9038 18.5035L7.03629 18.8436L7.18623 19.1949L7.35351 19.5571L7.53799 19.93L7.73955 20.3136L7.95804 20.7075L8.1933 21.1115L8.44515 21.5255L8.71344 21.9492L8.99796 22.3824L9.29853 22.8248L9.61493 23.2762L9.94696 23.7363L10.2944 24.2049L10.657 24.6818L11.0345 25.1666L11.4267 25.6591L11.8332 26.159L12.254 26.666L12.6886 27.1798L13.1368 27.7002L13.5982 28.2269L14.0727 28.7594L14.5598 29.2976L15.0593 29.8412L15.5709 30.3897L16.0941 30.943L16.6288 31.5006L17.1744 32.0622L17.7308 32.6275L18.2975 33.1963L18.8742 33.7681L19.4605 34.3426L20.056 34.9194L20.6604 35.4983L21.2733 36.0789L21.8942 36.6608L22.5229 37.2437L23.1589 37.8272L23.8018 38.4111L24.4512 38.9949L25.1067 39.5782L25.7679 40.1608L26.4344 40.7423L27.1058 41.3224L27.7817 41.9006L28.4616 42.4766L29.1451 43.0501L29.8318 43.6207L30.5213 44.1882L31.2132 44.752L31.9069 45.3119L32.6022 45.8675L33.2986 46.4186L33.9957 46.9647L34.6929 47.5054L35.39 48.0406L36.0865 48.5698L36.7819 49.0927L37.4759 49.6089L38.168 50.1183L38.8578 50.6203L39.5449 51.1147L40.2288 51.6013L40.9093 52.0796L41.5858 52.5494L42.2579 53.0104L42.9253 53.4622L43.5876 53.9047L44.2443 54.3374L44.8951 54.7602L45.5395 55.1727L46.1773 55.5747L46.808 55.9659L47.4313 56.346L48.0467 56.7148L48.654 57.0721L49.2527 57.4176L49.8426 57.7511L50.4233 58.0723L50.9943 58.3811L51.5555 58.6772L52.1065 58.9604L52.647 59.2305L53.1766 59.4873L53.695 59.7307L54.202 59.9605L54.6973 60.1765L55.1806 60.3785L55.6516 60.5664L56.11 60.7401L56.5556 60.8994L56.9882 61.0442L57.4074 61.1744L57.8132 61.2898L58.2052 61.3904L58.5832 61.4761L58.947 61.5468L59.2964 61.6024L59.6313 61.6429L59.9515 61.6682L60.2567 61.6783L60.5469 61.6731L60.8219 61.6526L61.0815 61.6167L61.3256 61.5656L61.5541 61.4991L61.7668 61.4173L61.9638 61.3203L62.1448 61.2079L62.3098 61.0803L62.4588 60.9376L62.5916 60.7797L62.7082 60.6068L62.8086 60.4189L62.8927 60.216L62.9606 59.9984L63.0121 59.7661L63.0473 59.5192L63.0663 59.2579L63.069 58.9822L63.0554 58.6923L63.0256 58.3883L62.9796 58.0705L62.9175 57.7389L62.8394 57.3938L62.7453 57.0354L62.6353 56.6637L62.5095 56.2791L62.368 55.8818L62.211 55.4718L62.0385 55.0496L61.8507 54.6153L61.6478 54.1691L61.4297 53.7113L61.1969 53.2422L60.9493 52.762L60.6872 52.2709L60.4108 51.7694L60.1202 51.2576L59.8157 50.7358L59.4974 50.2044L59.1657 49.6636L58.8206 49.1138L58.4625 48.5552L58.0916 47.9883L57.7081 47.4132L57.3123 46.8304L56.9044 46.2403L56.4848 45.643L56.0536 45.0391L55.6112 44.4288L55.1579 43.8125L54.694 43.1905L54.2197 42.5633L53.7353 41.9312L53.2413 41.2946L52.7378 40.6538L52.2253 40.0093L51.704 39.3614L51.1743 38.7105L50.6364 38.057L50.0909 37.4013L49.5379 36.7438L48.9779 36.0848L48.4111 35.4249L47.838 34.7643L47.259 34.1035L46.6743 33.4429L46.0843 32.7828L45.4894 32.1237L44.89 31.4661L44.2865 30.8102L43.6791 30.1564L43.0684 29.5053L42.4546 28.8572L41.8381 28.2124L41.2194 27.5714L40.5988 26.9346L39.9766 26.3024L39.3533 25.6752L38.7292 25.0533L38.1047 24.4371L37.4802 23.827L36.8561 23.2235L36.2327 22.6269L35.6104 22.0375L34.9897 21.4557L34.3707 20.8819L33.7541 20.3165L33.14 19.7598L32.5288 19.2122L31.921 18.6739L31.3169 18.1455L30.7168 17.6271L30.1211 17.1192L29.5302 16.622L28.9444 16.1358L28.364 15.6611L27.7893 15.1981L27.2208 14.747L26.6587 14.3083L26.1034 13.8821L25.5552 13.4688L25.0144 13.0686L24.4813 12.6818L23.9562 12.3086L23.4395 11.9494L22.9313 11.6043L22.4321 11.2735L21.942 10.9574L21.4614 10.6561L20.9905 10.3697L20.5297 10.0987L20.0791 9.84297L19.639 9.60288L19.2096 9.37854L18.7912 9.17013L18.384 8.97778L17.9883 8.80166L17.6042 8.64188L17.232 8.49858L16.8718 8.37186L16.5238 8.26182L16.1883 8.16857L15.8654 8.09219L15.5553 8.03274L15.258 7.9903L14.9739 7.9649L14.703 7.9566L14.4455 7.96543L14.2014 7.99141L13.971 8.03454L13.7542 8.09484L13.5513 8.17228L13.3623 8.26686L13.1873 8.37853L13.0263 8.50725L12.8795 8.65298L12.7468 8.81565L12.6284 8.99519L12.5243 9.19151L12.4345 9.40452L12.359 9.63412L12.2979 9.88019L12.2511 10.1426L12.2186 10.4212L12.2005 10.7159L12.1968 11.0265L12.2073 11.3529L12.232 11.6948L12.271 12.0521L12.3241 12.4246L12.3912 12.8121L12.4724 13.2143L12.5676 13.6311L12.6765 14.0623L12.7993 14.5075L12.9356 14.9665L13.0855 15.4391L13.2488 15.925L13.4254 16.4239L13.6151 16.9355L13.8178 17.4596L14.0334 17.9958L14.2617 18.5439L14.5025 19.1035L14.7556 19.6743L15.0209 20.2559L15.2982 20.8481L15.5873 21.4504L15.888 22.0625L16.2001 22.6842L16.5233 23.3149L16.8575 23.9543L17.2024 24.6021L17.5579 25.2579L17.9235 25.9212L18.2992 26.5918L18.6847 27.2691L19.0797 27.9528L19.4839 28.6424L19.8971 29.3377L20.319 30.038L20.7494 30.7432L21.188 31.4526L21.6344 32.1659L22.0885 32.8826L22.5498 33.6023L23.0182 34.3247L23.4933 35.0491L23.9748 35.7753L24.4624 36.5028L24.9559 37.231L25.4548 37.9597L25.959 38.6883L26.468 39.4163L26.9816 40.1434L27.4994 40.8691L28.0212 41.593L28.5465 42.3146L29.0752 43.0334L29.6068 43.7491L30.141 44.4612L30.6775 45.1692L31.216 45.8727L31.7562 46.5713L32.2977 47.2645L32.8401 47.9519L33.3833 48.6331L33.9268 49.3077L34.4703 49.9752L35.0135 50.6353L35.5561 51.2874L36.0977 51.9312L36.6381 52.5664L37.1769 53.1924L37.7138 53.8089L38.2484 54.4156L38.7805 55.012L39.3098 55.5977L39.8359 56.1724L40.3585 56.7357L40.8774 57.2873L41.3922 57.8268L41.9027 58.3539L42.4085 58.8681L42.9093 59.3693L43.405 59.857L43.8951 60.331L44.3794 60.7909L44.8577 61.2365L45.3296 61.6675L45.7949 62.0835L46.2534 62.4843L46.7047 62.8697L47.1487 63.2393L47.5851 63.593L48.0136 63.9305L48.4341 64.2515L48.8462 64.556L49.2498 64.8435L49.6447 65.1141L50.0305 65.3674L50.4073 65.6032L50.7746 65.8216L51.1323 66.0221L51.4804 66.2049L51.8184 66.3696L52.1464 66.5162L52.4641 66.6445L52.7713 66.7545L53.068 66.8461L53.3539 66.9191L53.6289 66.9736L53.8929 67.0095L54.1458 67.0266L54.3874 67.0251L54.6176 67.0048L54.8363 66.9658L55.0434 66.9081L55.2389 66.8316L55.4226 66.7364L55.5945 66.6226L55.7544 66.4901L55.9024 66.3391L56.0384 66.1696L56.1623 65.9816L56.2741 65.7754L56.3737 65.5509L56.4611 65.3084L56.5364 65.0478L56.5995 64.7695L56.6503 64.4735L56.689 64.1599L56.7154 63.829L56.7297 63.4809L56.7319 63.1159L56.7219 62.7341L56.6998 62.3357L56.6657 61.921L56.6197 61.4902L56.5617 61.0435L56.4919 60.5813L56.4103 60.1037L56.317 59.611L56.2121 59.1036L56.0957 58.5817L55.9679 58.0456L55.8288 57.4957L55.6785 56.9322L55.5172 56.3555L55.3449 55.7659L55.1618 55.1638L54.968 54.5495L54.7637 53.9234L54.5491 53.2858L54.3242 52.6372L54.0893 51.9779L53.8445 51.3083L53.59 50.6288L53.3259 49.9398L53.0525 49.2417L52.77 48.535L52.4784 47.8201L52.1782 47.0973L51.8693 46.3671L51.5521 45.6301L51.2267 44.8865L50.8934 44.1369L50.5524 43.3816L50.2039 42.6213L49.8481 41.8562L49.4853 41.087L49.1157 40.314L48.7395 39.5377L48.357 38.7586L47.9685 37.9772L47.5741 37.1939L47.1741 36.4093L46.7688 35.6237L46.3585 34.8377L45.9433 34.0518L45.5236 33.2664L45.0995 32.482L44.6715 31.6991L44.2396 30.9182L43.8043 30.1398L43.3657 29.3643L42.9241 28.5923L42.4798 27.8241L42.0331 27.0603L41.5842 26.3013L41.1335 25.5476L40.6811 24.7998L40.2273 24.0581L39.7725 23.3232L39.3168 22.5954L38.8606 21.8752L38.4041 21.1631L37.9476 20.4595L37.4914 19.7648L37.0357 19.0795L36.5807 18.404L36.1269 17.7388L35.6743 17.0842L35.2233 16.4406L34.7742 15.8085L34.3271 15.1883L33.8824 14.5803L33.4403 13.9849L33.001 13.4026L32.5649 12.8337L32.132 12.2784L31.7028 11.7373L31.2774 11.2107L30.856 10.6988L30.439 10.202L30.0264 9.72064L29.6186 9.25502L29.2158 8.80543L28.8182 8.37216L28.4259 7.95551L28.0393 7.55573L27.6585 7.17309L27.2837 6.80784L26.9152 6.46022L26.5531 6.13045L26.1975 5.81877L25.8488 5.52537L25.5071 5.25045L25.1725 4.9942L24.8452 4.75679L24.5254 4.53839L24.2133 4.33915L23.909 4.1592L23.6126 3.99867L23.3243 3.85768L23.0443 3.73634L22.7726 3.63474L22.5095 3.55295L22.255 3.49105L22.0092 3.44909L21.7724 3.42712L21.5445 3.42516L21.3256 3.44324L21.1159 3.48136L20.9155 3.53952L20.7245 3.6177L20.5429 3.71586L20.3707 3.83398L20.2082 3.97199L20.0552 4.12982L19.912 4.3074L19.7785 4.50463L19.6547 4.72142L19.5408 4.95764L19.4368 5.21317L19.3426 5.48787L19.2583 5.78159L19.1839 6.09416L19.1194 6.4254L19.0649 6.77514L19.0202 7.14317L18.9855 7.52928L18.9607 7.93326L18.9458 8.35486L18.9407 8.79385L18.9454 9.24997L18.9599 9.72296L18.9842 10.2125L19.0181 10.7184L19.0617 11.2403L19.1149 11.7779L19.1775 12.3309L19.2497 12.8989L19.3311 13.4817L19.4219 14.0788L19.5219 14.69L19.631 15.3148L19.7491 15.9529L19.8762 16.604L20.012 17.2675L20.1566 17.9432L20.3098 18.6306L20.4714 19.3293L20.6414 20.0389L20.8196 20.7589L21.0059 21.489L21.2001 22.2287L21.4022 22.9775L21.6119 23.735L21.8292 24.5007L22.0538 25.2743L22.2856 26.0551L22.5245 26.8427L22.7703 27.6368L23.0229 28.4366L23.282 29.2419L23.5474 30.0521L23.8191 30.8666L24.0969 31.6851L24.3805 32.507L24.6697 33.3318L24.9645 34.159L25.2645 34.9881L25.5696 35.8185L25.8797 36.6499L26.1945 37.4817L26.5138 38.3133L26.8374 39.1442L27.1652 39.974L27.4969 40.8022L27.8323 41.6281L28.1712 42.4514L28.5134 43.2715L28.8588 44.0879L29.207 44.9001L29.5579 45.7076L29.9113 46.5099L30.267 47.3065L30.6247 48.097L30.9842 48.8807L31.3455 49.6573L31.7081 50.4262L32.0719 51.187L32.4368 51.9393L32.8025 52.6824L33.1687 53.4161L33.5353 54.1398L33.9021 54.853L34.2689 55.5554L34.6354 56.2464L35.0015 56.9257L35.3669 57.5928L35.7314 58.2474L36.0949 58.8889L36.4571 59.5171L36.8179 60.1314L37.177 60.7316L37.5343 61.3172L37.8895 61.8879L38.2425 62.4432L38.5931 62.983L38.941 63.5067L39.2862 64.0142L39.6283 64.505L39.9674 64.9789L40.303 65.4355L40.6352 65.8745L40.9637 66.2957L41.2883 66.6989L41.609 67.0837L41.9254 67.4499L42.2375 67.7972L42.5451 68.1255L42.848 68.4345L43.1462 68.724L43.4394 68.9938L43.7275 69.2438L44.0104 69.4738L44.2879 69.6836L44.5599 69.8731L44.8263 70.0421L45.0869 70.1906L45.3417 70.3184L45.5905 70.4255L45.8331 70.5117L46.0696 70.5771L46.2997 70.6215L46.5234 70.6449L46.7406 70.6472L46.9511 70.6286L47.155 70.5889L47.3521 70.5281L47.5423 70.4464L47.7255 70.3437L47.9018 70.2201L48.0709 70.0756L48.2329 69.9104L48.3877 69.7245L48.5353 69.518L48.6755 69.291L48.8083 69.0437L48.9338 68.7761L49.0518 68.4886L49.1623 68.1811L49.2653 67.8539L49.3608 67.5072L49.4488 67.1412L49.5291 66.7561L49.6019 66.3521L49.6672 65.9294L49.7248 65.4884L49.7748 65.0292L49.8173 64.5521L49.8521 64.0575L49.8794 63.5456L49.8992 63.0167L49.9114 62.4711L49.9162 61.9092L49.9134 61.3312L49.9033 60.7377L49.8857 60.1288L49.8608 59.5049L49.8285 58.8665L49.789 58.2139L49.7423 57.5475L49.6884 56.8678L49.6275 56.175L49.5595 55.4697L49.4845 54.7523L49.4027 54.0231L49.314 53.2827L49.2186 52.5315L49.1165 51.7699L49.0079 50.9985L48.8928 50.2176L48.7712 49.4277L48.6434 48.6294L48.5093 47.8231L48.3692 47.0093L48.223 46.1885L48.0709 45.3612L47.9131 44.5279L47.7495 43.6892L47.5804 42.8454L47.4058 41.9972L47.2259 41.1451L47.0407 40.2895L46.8505 39.4311L46.6552 38.5702L46.4552 37.7076L46.2503 36.8436L46.041 35.9788L45.8271 35.1138L45.6089 34.249L45.3866 33.3851L45.1601 32.5225L44.9298 31.6618L44.6957 30.8035L44.4579 29.9481L44.2166 29.0961L43.972 28.2482L43.7242 27.4047L43.4733 26.5663L43.2196 25.7334L42.963 24.9065L42.7038 24.0862L42.4421 23.273L42.1782 22.4674L41.912 21.6698L41.6438 20.8808L41.3737 20.1008L41.1019 19.3304L40.8285 18.57L40.5537 17.8201L40.2777 17.0811L40.0004 16.3536L39.7223 15.6379L39.4432 14.9345L39.1635 14.2438L38.8833 13.5663L38.6027 12.9024L38.3219 12.2526L38.0409 11.6171L37.76 10.9964L37.4794 10.391L37.199 9.8011L36.9192 9.22716L36.64 8.66953L36.3615 8.12854L36.084 7.60455L35.8075 7.09788L35.5322 6.60885L35.2583 6.13777L34.9858 5.68493L34.7149 5.25062L34.4457 4.83512L34.1784 4.43868L33.913 4.06155L33.6498 3.70399L33.3888 3.36621L33.1302 3.04843L32.874 2.75085L32.6204 2.47367L32.3696 2.21706L32.1216 1.98119L31.8765 1.7662L31.6345 1.57225L31.3956 1.39946L31.16 1.24793L30.9278 1.11779L30.6991 1.0091L30.4739 0.921949L30.2524 0.856396L30.0347 0.812489L29.8209 0.790264L29.611 0.789742L29.4051 0.810931L29.2033 0.853826L29.0058 0.918409L28.8125 1.00465L28.6236 1.1125L28.4392 1.2419L28.2592 1.39278L28.0838 1.56506L27.9131 1.75863L27.7471 1.97339L27.5858 2.20921L27.4294 2.46596L27.2779 2.74347L27.1313 3.0416L26.9897 3.36016L26.8531 3.69897L26.7216 4.05782L26.5952 4.43649L26.474 4.83477L26.358 5.25242L26.2472 5.68918L26.1417 6.1448L26.0415 6.619L25.9465 7.11149L25.857 7.62197L25.7728 8.15015L25.6939 8.6957L25.6205 9.25828L25.5524 9.83757L25.4898 10.4332L25.4326 11.0448L25.3808 11.6721L25.3345 12.3146L25.2935 12.9719L25.258 13.6437L25.2279 14.3295L25.2033 15.029L25.184 15.7416L25.17 16.467L25.1615 17.2047L25.1583 17.9543L25.1604 18.7154L25.1678 19.4873L25.1805 20.2698L25.1984 21.0622L25.2216 21.8642L25.2499 22.6752L25.2834 23.4947L25.322 24.3223L25.3656 25.1573L25.4143 25.9994L25.468 26.848L25.5266 27.7026L25.59 28.5626L25.6584 29.4276L25.7315 30.2969L25.8093 31.1702L25.8918 32.0467L25.979 32.9261L26.0707 33.8076L26.1669 34.691L26.2675 35.5754L26.3726 36.4605L26.4819 37.3457L26.5954 38.2304L26.7131 39.1142L26.835 39.9963L26.9608 40.8764L27.0906 41.7539L27.2243 42.6281L27.3617 43.4987L27.5029 44.365L27.6478 45.2266L27.7962 46.0828L27.948 46.9332L28.1033 47.7773L28.2619 48.6144L28.4237 49.4442L28.5887 50.2661L28.7567 51.0795L28.9277 51.8841L29.1016 52.6792L29.2783 53.4644L29.4576 54.2393L29.6396 55.0032L29.8241 55.7559L30.011 56.4967L30.2003 57.2253L30.3918 57.9412L30.5855 58.6439L30.7812 59.333L30.9789 60.0082L31.1784 60.6689L31.3798 61.3147L31.5828 61.9454L31.7873 62.5604L31.9934 63.1593L32.2008 63.742L32.4096 64.3079L32.6195 64.8566L32.8305 65.388L33.0426 65.9016L33.2555 66.3971L33.4693 66.8743L33.6837 67.3327L33.8988 67.7722L34.1144 68.1925L34.3304 68.5932L34.5468 68.9742L34.7634 69.3353L34.9801 69.6761L35.1969 69.9965L35.4136 70.2962L35.6302 70.5752L35.8466 70.8331L36.0626 71.07L36.2782 71.2855L36.4933 71.4796L36.7078 71.6521L36.9216 71.803L37.1346 71.9321L37.3467 72.0394L37.5579 72.1247L37.768 72.1882L37.977 72.2295L38.1848 72.2489L38.3912 72.2462L38.5963 72.2215L38.7999 72.1747L39.0019 72.1059L39.2023 72.0152L39.401 71.9025L39.5978 71.768L39.7928 71.6117L39.9859 71.4337L40.1768 71.2342L40.3657 71.0132L40.5524 70.7709L40.7368 70.5074L40.9189 70.223L41.0986 69.9176L41.2758 69.5917L41.4504 69.2452L41.6225 68.8786L41.7918 68.4919L41.9585 68.0854L42.1223 67.6594L42.2832 67.2142L42.4412 66.7499L42.5962 66.2669L42.7481 65.7655L42.8969 65.2459L43.0426 64.7086L43.185 64.1538L43.3241 63.5819L43.4599 62.9931L43.5923 62.388L43.7213 61.7668L43.8468 61.13L43.9687 60.4779L44.0871 59.8109L44.2018 59.1294L44.3129 58.4339L44.4203 57.7247L44.5239 57.0024L44.6238 56.2673L44.7198 55.52L44.812 54.7607L44.9002 53.9902L44.9846 53.2087L45.0649 52.4168L45.1413 51.615L45.2137 50.8037L45.282 49.9835L45.3463 49.1549L45.4065 48.3183L45.4625 47.4743L45.5145 46.6235L45.5622 45.7662L45.6058 44.9031L45.6452 44.0347L45.6805 43.1615L45.7115 42.2841L45.7382 41.4029L45.7608 40.5186L45.7791 39.6317L45.7931 38.7426L45.8029 37.8521L45.8084 36.9606L45.8097 36.0686L45.8067 35.1768L45.7994 34.2856L45.7879 33.3956L45.7721 32.5073L45.7521 31.6214L45.7278 30.7383L45.6993 29.8586L45.6666 28.9828L45.6297 28.1115L45.5886 27.2452L45.5433 26.3844L45.4938 25.5297L45.4402 24.6816L45.3825 23.8406L45.3206 23.0072L45.2547 22.1819L45.1847 21.3653L45.1107 20.5578L45.0327 19.76L44.9507 18.9723L44.8647 18.1952L44.7749 17.4292L44.6811 16.6747L44.5836 15.9323L44.4822 15.2024L44.377 14.4853L44.2681 13.7817L44.1555 13.0919L44.0393 12.4162L43.9195 11.7552L43.7961 11.1093L43.6692 10.4788L43.5388 9.86409L43.405 9.2656L43.2678 8.68368L43.1273 8.11869L42.9836 7.57096L42.8367 7.04084L42.6866 6.52865L42.5334 6.0347L42.3772 5.55929L42.218 5.10272L42.0559 4.66527L41.8909 4.24719L41.7232 3.84876L41.5527 3.4702L41.3796 3.11175L41.2039 2.77364L41.0257 2.45605L40.845 2.1592L40.662 1.88326L40.4766 1.62839L40.289 1.39475L40.0993 1.18248L39.9075 0.991717L39.7136 0.822567L39.5179 0.675133L39.3203 0.549505L39.1209 0.445756L38.9198 0.363949L38.7171 0.304131L38.5129 0.266335L38.3073 0.250584L38.1003 0.256883L37.892 0.285227L37.6826 0.335595L37.472 0.407952L37.2604 0.502253L37.0479 0.618436L36.8346 0.756428L36.6205 0.91614L36.4057 1.09747L36.1904 1.30031L35.9746 1.52452L35.7585 1.76997L35.542 2.0365L35.3253 2.32395L35.1086 2.63214L34.8918 2.96087L34.6751 3.30993L34.4586 3.67912L34.2424 4.0682L34.0265 4.47693L33.8111 4.90506L33.5963 5.35231L33.3821 5.81842L33.1687 6.30309L32.9561 6.80601L32.7444 7.32689L32.5338 7.86539L32.3244 8.42119L32.1162 8.99393L31.9093 9.58326L31.7038 10.1888L31.4999 10.8102L31.2975 11.4471L31.0969 12.0991L30.8981 12.7657L30.7012 13.4466L30.5064 14.1413L30.3136 14.8495L30.1229 15.5706L29.9346 16.3042L29.7487 17.0499L29.5652 17.8072L29.3842 18.5757L29.206 19.3548L29.0304 20.1441L28.8577 20.9431L28.6879 21.7514L28.5211 22.5683L28.3574 23.3934L28.1969 24.2263L28.0397 25.0663L27.8858 25.913L27.7353 26.7659L27.5883 27.6243L27.445 28.4879L27.3053 29.356L27.1694 30.2281L27.0373 31.1038L26.9091 31.9824L26.7848 32.8634L26.6647 33.7462L26.5487 34.6304L26.4368 35.5154L26.3292 36.4006L26.226 37.2855L26.1272 38.1696L26.0328 39.0523L25.9429 39.933L25.8577 40.8113L25.777 41.6865L25.7011 42.5583L25.63 43.4259L25.5636 44.2889L25.5021 45.1468L25.4455 45.999L25.3939 46.845L25.3472 47.6843L25.3056 48.5163L25.2691 49.3407L25.2377 50.1568L25.2115 50.9642L25.1905 51.7623L25.1747 52.5508L25.1642 53.329L25.1589 54.0966L25.1589 54.853L25.1643 55.5978L25.1751 56.3306L25.1912 57.0508L25.2127 57.7581L25.2396 58.4521L25.2719 59.1322L25.3096 59.7982L25.3527 60.4495L25.4013 61.0858L25.4553 61.7068L25.5147 62.3119L25.5795 62.901L25.6497 63.4735L25.7254 64.0292L25.8064 64.5677L25.8928 65.0887L25.9846 65.5919L26.0816 66.077L26.184 66.5436L26.2917 66.9916L26.4046 67.4206L26.5228 67.8304L26.6461 68.2207L26.7745 68.5913L26.9081 68.942L27.0468 69.2726L27.1904 69.5829L27.339 69.8726L27.4926 70.1417L27.6509 70.3899L27.8142 70.6172L27.9821 70.8234L28.1547 71.0083L28.332 71.1718L28.5138 71.314L28.7 71.4346L28.8907 71.5337L29.0857 71.6111L29.285 71.6668L29.4885 71.7009L29.696 71.7132L29.9075 71.7039L30.123 71.6728L30.3422 71.6201L30.5652 71.5457L30.7918 71.4498L31.022 71.3324L31.2556 71.1935L31.4925 71.0333L31.7327 70.8519L31.976 70.6493L32.2223 70.4258L32.4714 70.1815L32.7234 69.9165L32.978 69.6309L33.2352 69.3251L33.4948 68.9992L33.7568 68.6533L34.0209 68.2877L34.287 67.9027L34.5551 67.4985L34.825 67.0753L35.0966 66.6334L35.3697 66.1731L35.6442 65.6947L35.92 65.1984L36.1969 64.6846L36.4748 64.1537L36.7536 63.6059L37.0331 63.0416L37.3132 62.4611L37.5937 61.8648L37.8744 61.2531L38.1554 60.6264L38.4363 59.985L38.717 59.3294L38.9975 58.6599L39.2775 57.977L39.557 57.2811L39.8357 56.5726L40.1135 55.852L40.3903 55.1198L40.6658 54.3763L40.9401 53.622L41.2128 52.8575L41.484 52.0831L41.7533 51.2994L42.0207 50.5069L42.286 49.706L42.549 48.8972L42.8097 48.081L43.0678 47.258L43.3233 46.4286L43.5759 45.5934L43.8256 44.7529L44.0721 43.9075L44.3153 43.0579L44.5552 42.2044L44.7915 41.3478L45.0241 40.4884L45.2528 39.6269L45.4776 38.7637L45.6983 37.8994L45.9147 37.0344L46.1268 36.1694L46.3343 35.3049L46.5372 34.4414L46.7354 33.5794L46.9286 32.7195L47.1168 31.8622L47.2998 31.0079L47.4776 30.1573L47.6499 29.3109L47.8168 28.4691L47.9781 27.6325L48.1336 26.8016L48.2833 25.9769L48.427 25.1589L48.5647 24.3481L48.6962 23.545L48.8215 22.75L48.9404 21.9638L49.0529 21.1867L49.1589 20.4192L49.2583 19.6618L49.351 18.9149L49.4369 18.179L49.5159 17.4546L49.588 16.7421L49.6532 16.0418L49.7112 15.3543L49.7622 14.6799L49.806 14.0191L49.8425 13.3723L49.8718 12.7398L49.8937 12.122L49.9083 11.5193L49.9154 10.932L49.9151 10.3606L49.9073 9.80525L49.892 9.26643L49.8692 8.7444L49.8388 8.23949L49.8009 7.75198L49.7553 7.28218L49.7022 6.83035L49.6415 6.39676L49.5732 5.98168L49.4973 5.58533L49.4139 5.20796L49.3228 4.84979L49.2243 4.51102L49.1182 4.19185L49.0046 3.89246L48.8836 3.61303L48.7551 3.35372L48.6192 3.11466L48.476 2.89601L48.3255 2.69787L48.1678 2.52036L48.0029 2.36358L47.8308 2.2276L47.6517 2.11251L47.4656 2.01834L47.2726 1.94516L47.0728 1.893L46.8662 1.86186L46.6529 1.85177L46.433 1.8627L46.2067 1.89465L45.974 1.94757L45.735 2.02143L45.4899 2.11616L45.2386 2.2317L44.9815 2.36795L44.7185 2.52483L44.4498 2.70222L44.1755 2.9L43.8958 3.11803L43.6108 3.35618L43.3206 3.61428L43.0253 3.89216L42.7252 4.18963L42.4204 4.5065L42.1109 4.84257L41.797 5.19761L41.4789 5.5714L41.1566 5.96369L40.8303 6.37424L40.5003 6.80277L40.1667 7.24901L39.8297 7.71267L39.4893 8.19347L39.1459 8.69109L38.7996 9.20522L38.4506 9.73553L38.099 10.2817L37.7451 10.8433L37.389 11.4201L37.031 12.0117L36.6711 12.6177L36.3097 13.2377L35.947 13.8714L35.583 14.5183L35.2181 15.178L34.8524 15.8501L34.4861 16.5343L34.1195 17.23L33.7527 17.9368L33.386 18.6544L33.0195 19.3821L32.6534 20.1197L32.2881 20.8666L31.9236 21.6224L31.5602 22.3866L31.1981 23.1587L30.8376 23.9383L30.4787 24.7248L30.1218 25.5178L29.7671 26.3168L29.4146 27.1213L29.0648 27.9308L28.7177 28.7447L28.3736 29.5627L28.0327 30.3842L27.6952 31.2086L27.3613 32.0355L27.0312 32.8644L26.7051 33.6947L26.3832 34.526L26.0657 35.3577L25.7528 36.1894L25.4447 37.0205L25.1417 37.8504L24.8437 38.6788L24.5512 39.5051L24.2642 40.3288L23.983 41.1493L23.7077 41.9663L23.4385 42.7791L23.1756 43.5873L22.9192 44.3904L22.6694 45.188L22.4264 45.9795L22.1903 46.7644L21.9614 47.5423L21.7398 48.3127L21.5256 49.0752L21.3189 49.8292L21.12 50.5743L20.929 51.3102L20.746 52.0362L20.5711 52.752L20.4045 53.4572L20.2463 54.1514L20.0967 54.8341L19.9556 55.5048L19.8234 56.1633L19.6999 56.8091L19.5855 57.4419L19.4801 58.0612L19.3838 58.6667L19.2968 59.258L19.2191 59.8348L19.1509 60.3968L19.092 60.9435L19.0428 61.4748L19.0031 61.9902L18.9731 62.4894L18.9528 62.9723L18.9423 63.4384L18.9416 63.8876L18.9507 64.3196L18.9696 64.734L18.9985 65.1307L19.0372 65.5095L19.0859 65.8701L19.1445 66.2123L19.213 66.536L19.2914 66.8409L19.3797 67.1269L19.478 67.3938L19.586 67.6415L19.704 67.8698L19.8317 68.0786L19.9692 68.2679L20.1164 68.4374L20.2732 68.5872L20.4397 68.7171L20.6157 68.8271L20.8012 68.9171L20.9961 68.9872L21.2002 69.0372L21.4137 69.0671L21.6362 69.077L21.8678 69.0669L22.1083 69.0368L22.3576 68.9867L22.6157 68.9167L22.8823 68.8268L23.1573 68.7172L23.4407 68.5878L23.7323 68.4389L24.032 68.2704L24.3395 68.0826L24.6548 67.8755L24.9776 67.6494L25.3079 67.4042L25.6454 67.1404L25.99 66.8579L26.3416 66.557L26.6998 66.238L27.0645 65.9009L27.4356 65.5461L27.8129 65.1737L28.1961 64.784L28.585 64.3774L28.9795 63.9539L29.3793 63.514L29.7841 63.0578L30.1939 62.5857L30.6083 62.0981L31.0272 61.5951L31.4502 61.0771L31.8772 60.5445L32.3079 59.9976L32.7422 59.4368L33.1796 58.8623L33.6201 58.2747L34.0633 57.6741L34.509 57.0611L34.9569 56.436L35.4068 55.7992L35.8585 55.1511L36.3116 54.4921L36.7659 53.8226L37.2212 53.143L37.6772 52.4539L38.1336 51.7555L38.5901 51.0484L39.0465 50.3329L39.5025 49.6096L39.9579 48.8788L40.4123 48.1411L40.8655 47.3969L41.3173 46.6466L41.7673 45.8907L42.2154 45.1297L42.6611 44.3641L43.1043 43.5942L43.5447 42.8207L43.982 42.044L44.416 41.2645L44.8463 40.4827L45.2728 39.6992L45.6951 38.9143L46.113 38.1287L46.5262 37.3427L46.9346 36.5568L47.3377 35.7715L47.7354 34.9874L48.1275 34.2048L48.5136 33.4243L48.8935 32.6463L49.267 31.8713L49.6339 31.0997L49.9939 30.3321L50.3467 29.569L50.6922 28.8106L51.0301 28.0576L51.3602 27.3104L51.6823 26.5694L51.9961 25.8351L52.3015 25.1079L52.5983 24.3883L52.8862 23.6766L53.165 22.9734L53.4346 22.279L53.6948 21.5938L53.9454 20.9183L54.1862 20.2529L54.417 19.5978L54.6378 18.9537L54.8482 18.3208L55.0482 17.6994L55.2377 17.09L55.4164 16.493L55.5842 15.9086L55.7411 15.3372L55.8868 14.7792L56.0214 14.2349L56.1445 13.7045L56.2563 13.1885L56.3564 12.6871L56.445 12.2005L56.5218 11.7291L56.5868 11.2732L56.6399 10.833L56.6811 10.4087L56.7103 10.0006L56.7274 9.60897L56.7325 9.23395L56.7254 8.8758L56.7061 8.53469L56.6747 8.21084L56.6311 7.9044L56.5752 7.61555L56.5072 7.34444L56.427 7.09122L56.3346 6.85603L56.23 6.63897L56.1133 6.44018L55.9845 6.25974L55.8436 6.09774L55.6907 5.95426L55.5259 5.82937L55.3492 5.72312L55.1607 5.63556L54.9605 5.56671L54.7486 5.51659L54.5252 5.48522L54.2903 5.47258L54.0441 5.47867L53.7867 5.50346L53.5182 5.54691L53.2387 5.60896L52.9484 5.68957L52.6474 5.78866L52.3359 5.90614L52.014 6.04193L51.6819 6.19591L51.3398 6.36797L50.9878 6.55798L50.6261 6.76581L50.2549 6.9913L49.8745 7.2343L49.4849 7.49464L49.0865 7.77213L48.6794 8.06659L48.2638 8.37782L47.84 8.70559L47.4083 9.0497L46.9688 9.40991L46.5218 9.78599L46.0675 10.1777L45.6062 10.5847L45.1381 11.0069L44.6636 11.4438L44.1828 11.8953L43.6961 12.361L43.2037 12.8406L42.7059 13.3338L42.203 13.8404L41.6953 14.3599L41.183 14.892L40.6665 15.4365L40.1461 15.9929L39.622 16.5609L39.0946 17.1402L38.5641 17.7303L38.0309 18.3309L37.4953 18.9416L36.9576 19.5621L36.4182 20.1918L35.8772 20.8306L35.3352 21.4778L34.7923 22.1332L34.2489 22.7964L33.7054 23.4668L33.162 24.1441L32.6191 24.8279L32.0769 25.5178L31.536 26.2132L30.9964 26.9139L30.4587 27.6193L29.9231 28.329L29.3899 29.0426L28.8595 29.7596L28.3321 30.4796L27.8082 31.2022L27.288 31.9269L26.7719 32.6532L26.2601 33.3807L25.753 34.1091L25.251 34.8377L24.7542 35.5663L24.2631 36.2942L23.7779 37.0212L23.299 37.7468L22.8266 38.4704L22.361 39.1918L21.9026 39.9103L21.4516 40.6257L21.0084 41.3375L20.5731 42.0452L20.1461 42.7484L19.7277 43.4467L19.3181 44.1398L18.9176 44.8271L18.5265 45.5082L18.145 46.1828L17.7734 46.8504L17.4118 47.5107L17.0607 48.1633L16.7201 48.8077L16.3903 49.4437L16.0716 50.0707L15.7641 50.6886L15.4681 51.2967L15.1838 51.895L14.9114 52.4829L14.651 53.0601L14.4029 53.6264L14.1672 54.1813L13.944 54.7246L13.7337 55.2559L13.5362 55.775L13.3518 56.2815L13.1807 56.7751L13.0228 57.2556L12.8784 57.7227L12.7476 58.1761L12.6305 58.6156L12.5271 59.0409L12.4377 59.4519L12.3622 59.8481L12.3007 60.2295L12.2534 60.5958L12.2202 60.9469L12.2013 61.2825L12.1966 61.6025L12.2062 61.9066L12.2301 62.1948L12.2684 62.4668L12.321 62.7226L12.388 62.962L12.4693 63.1848L12.565 63.391L12.6749 63.5805L12.7991 63.7532L12.9376 63.909L13.0902 64.0478L13.2569 64.1696L13.4376 64.2743L13.6323 64.3619L13.8409 64.4324L14.0632 64.4857L14.2992 64.5218L14.5488 64.5408L14.8118 64.5426L15.0881 64.5274L15.3775 64.495L15.68 64.4457L15.9954 64.3793L16.3235 64.296L16.6641 64.1959L17.017 64.0791L17.3821 63.9456L17.7592 63.7956L18.1481 63.6291L18.5485 63.4464L18.9603 63.2475L19.3832 63.0326L19.8169 62.8018L20.2614 62.5553L20.7162 62.2933L21.1812 62.016L21.656 61.7236L22.1405 61.4162L22.6343 61.0941L23.1372 60.7574L23.6489 60.4065L24.1691 60.0416L24.6975 59.6629L25.2338 59.2706L25.7777 58.865L26.3288 58.4464L26.8869 58.0151L27.4516 57.5713L28.0227 57.1153L28.5997 56.6475L29.1824 56.1681L29.7703 55.6774L30.3632 55.1758L30.9608 54.6635L31.5625 54.141L32.1682 53.6085L32.7774 53.0664L33.3898 52.5151L34.005 51.9548L34.6226 51.3859L35.2423 50.8088L35.8638 50.2239L36.4865 49.6315L37.1103 49.032L37.7346 48.4258L38.3591 47.8132L38.9835 47.1947L39.6073 46.5705L40.2302 45.9412L40.8518 45.3071L41.4717 44.6685L42.0895 44.026L42.705 43.3798L43.3176 42.7304L43.927 42.0781L44.5328 41.4235L45.1347 40.7668L45.7323 40.1085L46.3252 39.449L46.9131 38.7887L47.4956 38.1279L48.0722 37.4671L48.6428 36.8068L49.2068 36.1472L49.764 35.4888L50.314 34.8319L50.8565 34.1771L51.391 33.5246L51.9174 32.8749L52.4351 32.2283L52.944 31.5853L53.4437 30.9461L53.9338 30.3113L54.4141 29.6812L54.8842 29.056L55.3439 28.4364L55.7928 27.8225L56.2306 27.2147L56.6571 26.6134L57.072 26.019L57.475 25.4318L57.8658 24.8522L58.2442 24.2804L58.6099 23.7168L58.9628 23.1618L59.3024 22.6156L59.6287 22.0786L59.9414 21.551L60.2403 21.0333L60.5251 20.5256L60.7957 20.0283L61.0519 19.5417L61.2935 19.066L61.5204 18.6014L61.7323 18.1483L61.9291 17.7069L62.1106 17.2775L62.2768 16.8603L62.4276 16.4554L62.5626 16.0632L62.682 15.6839L62.7855 15.3176L62.8731 14.9645L62.9447 14.6249L63.0003 14.2989L63.0396 13.9868L63.0629 13.6885L63.0698 13.4044L63.0605 13.1345L63.035 12.879L62.9931 12.6381L62.9349 12.4117L62.8604 12.2001L62.7697 12.0034L62.6627 11.8215L62.5394 11.6547L62.4 11.503L62.2445 11.3664L62.073 11.2451L61.8855 11.1389L61.6821 11.0481L61.4629 10.9725L61.228 10.9123L60.9776 10.8674L60.7117 10.8378L60.4305 10.8235L60.1342 10.8245L59.8229 10.8408L59.4967 10.8723L59.1558 10.919L58.8005 10.9807L58.4309 11.0576L58.0472 11.1493L57.6496 11.256L57.2383 11.3775L56.8136 11.5136L56.3757 11.6643L55.9248 11.8295L55.4612 12.009L54.9852 12.2027L54.497 12.4104L53.9969 12.632L53.4852 12.8673L52.9622 13.1162L52.4281 13.3785L51.8833 13.654L51.3282 13.9425L50.7629 14.2437L50.1879 14.5576L49.6034 14.8838L49.0099 15.2222L48.4076 15.5726L47.797 15.9346L47.1783 16.3081L46.552 16.6927L45.9184 17.0883L45.2778 17.4946L44.6307 17.9114L43.9775 18.3382L43.3185 18.775L42.6541 19.2213L41.9847 19.6769L41.3107 20.1415L40.6326 20.6148L39.9506 21.0965L39.2653 21.5863L38.5771 22.0839L37.8863 22.5889L37.1934 23.1011L36.4988 23.6201L35.8029 24.1456L35.1061 24.6773L34.4089 25.2148L33.7117 25.7577L33.0148 26.3059L32.3189 26.8588L31.6241 27.4163L30.9311 27.9778L30.2401 28.5431L29.5517 29.1119L28.8662 29.6838L28.1842 30.2583L27.5059 30.8353L26.8318 31.4143L26.1623 31.9949L25.4979 32.5769L24.839 33.1599L24.1859 33.7435L23.5391 34.3273L22.899 34.9111L22.2659 35.4944L21.6403 36.077L21.0226 36.6584L20.4131 37.2383L19.8123 37.8164L19.2205 38.3923L18.6381 38.9658L18.0654 39.5363L17.5029 40.1037L16.9508 40.6676L16.4096 41.2277L15.8796 41.7835L15.3611 42.3349L14.8544 42.8814L14.3599 43.4228L13.8779 43.9588L13.4087 44.489L12.9526 45.0131L12.5099 45.5309L12.0809 46.042L11.6659 46.5461L11.2651 47.043L10.8789 47.5324L10.5075 48.014L10.151 48.4875L9.80984 48.9527L9.48415 49.4094L9.17417 49.8571L8.88011 50.2958L8.60218 50.7251L8.34057 51.1449L8.09545 51.5548L7.86701 51.9548L7.6554 52.3445L7.46078 52.7237L7.28328 53.0923L7.12305 53.4501L6.98021 53.7968L6.85486 54.1323L6.7471 54.4565L6.65704 54.769L6.58474 55.0699L6.53027 55.3588L6.4937 55.6358L6.47507 55.9006L6.47441 56.1531L6.49176 56.3933L6.52712 56.6209L6.5805 56.8359L6.65189 57.0381L6.74127 57.2276L6.84861 57.4041L6.97387 57.5677L7.117 57.7183L7.27794 57.8558L7.45661 57.9801L7.65292 58.0913L7.86678 58.1892L8.09809 58.2739L8.34672 58.3453L8.61255 58.4034L8.89544 58.4483L9.19523 58.4799L9.51177 58.4982L9.84489 58.5034L10.1944 58.4953L10.5601 58.474L10.9418 58.4396L11.3393 58.3922L11.7524 58.3317L12.1808 58.2583L12.6243 58.1721L13.0827 58.0731L13.5556 57.9613L14.0428 57.837L14.5441 57.7002L15.0591 57.5511L15.5876 57.3897L16.1292 57.2161L16.6836 57.0306L17.2506 56.8333L17.8297 56.6242L18.4207 56.4036L19.0232 56.1716L19.6368 55.9284L20.2611 55.6741L20.8959 55.409L21.5408 55.1332L22.1953 54.8469L22.859 54.5504L23.5317 54.2437L24.2128 53.9272L24.902 53.601L25.5988 53.2654L26.3029 52.9205L27.0138 52.5667L27.7311 52.2041L28.4544 51.833L29.1832 51.4536L29.9171 51.0662L30.6556 50.671L31.3984 50.2683L32.1449 49.8583L32.8947 49.4413L33.6474 49.0176L34.4025 48.5875L35.1595 48.1511L35.9179 47.7089L36.6774 47.261L37.4375 46.8077L38.1976 46.3494L38.9574 45.8863L39.7163 45.4187L40.4739 44.9469L41.2297 44.4712L41.9833 43.9919L42.7342 43.5092L43.482 43.0235L44.2261 42.535L44.9661 42.0441L45.7017 41.5511L46.4322 41.0562L47.1572 40.5598L47.8764 40.0622L48.5893 39.5636L49.2953 39.0643L49.9941 38.5647L50.6853 38.065L51.3684 37.5656L52.043 37.0667L52.7086 36.5686L53.3649 36.0716L54.0114 35.5761L54.6477 35.0823L55.2734 34.5904L55.8882 34.1008L56.4916 33.6138L57.0833 33.1296L57.6628 32.6486L58.2299 32.1709L58.7841 31.6969L59.3252 31.2268L59.8527 30.7609L60.3662 30.2995L60.8656 29.8428L61.3505 29.3911L61.8205 28.9447L62.2754 28.5037L62.7148 28.0684L63.1385 27.6391L63.5461 27.216L63.9375 26.7994L64.3124 26.3894L64.6705 25.9862L65.0116 25.5902L65.3354 25.2015L65.6418 24.8204L65.9305 24.4469L66.2013 24.0814L66.4541 23.724L66.6886 23.3749L66.9048 23.0343L67.1024 22.7023L67.2814 22.3792L67.4416 22.065L67.5828 21.76L67.705 21.4644L67.808 21.1781L67.8919 20.9015L67.9565 20.6346L68.0017 20.3775L68.0275 20.1304L68.0339 19.8934L68.0209 19.6666L67.9884 19.4501L67.9364 19.244L67.865 19.0484L67.7741 18.8634L67.6639 18.689L67.5343 18.5253L67.3854 18.3724L67.2173 18.2304L67.0301 18.0992L66.8238 17.979L66.5986 17.8698L66.3546 17.7715L66.0919 17.6843L65.8106 17.6081L65.511 17.5429L65.1932 17.4888L64.8572 17.4458L64.5035 17.4138L64.1321 17.3929L63.7432 17.3829L63.3371 17.384L62.914 17.3959L62.4742 17.4188L62.0178 17.4526L61.5452 17.4971L61.0567 17.5524L60.5524 17.6183L60.0328 17.6949L59.498 17.782L58.9485 17.8795L58.3846 17.9874L57.8065 18.1055L57.2146 18.2338L56.6093 18.3721L55.991 18.5204L55.3599 18.6785L54.7165 18.8463L54.0611 19.0236L53.3942 19.2104L52.7161 19.4064L52.0273 19.6116L51.3281 19.8258L50.6189 20.0489L49.9003 20.2806L49.1726 20.5209L48.4362 20.7695L47.6917 21.0262L46.9394 21.291L46.1798 21.5636L45.4134 21.8439L44.6406 22.1316L43.8619 22.4266L43.0778 22.7286L42.2887 23.0375L41.4952 23.3531L40.6976 23.6751L39.8965 24.0034L39.0925 24.3377L38.2858 24.6778L37.4772 25.0236L36.667 25.3747L35.8557 25.731L35.0439 26.0923L34.232 26.4582L33.4206 26.8287L32.6101 27.2034L31.801 27.5821L30.9938 27.9647L30.1891 28.3508L29.3873 28.7402L28.5889 29.1327L27.7944 29.5281L27.0044 29.9261L26.2192 30.3264L25.4393 30.7289L24.6653 31.1333L23.8977 31.5393L23.1369 31.9468L22.3833 32.3554L21.6375 32.765L20.8999 33.1752L20.171 33.5859L19.4512 33.9968L18.741 34.4077L18.0408 34.8184L17.351 35.2285L16.6722 35.638L16.0046 36.0464L15.3488 36.4537L14.7051 36.8595L14.074 37.2637L13.4558 37.666L12.8509 38.0662L12.2598 38.4641L11.6828 38.8594L11.1202 39.252L10.5724 39.6416L10.0398 40.028L9.52267 40.411L9.02139 40.7903L8.53625 41.1659L8.06757 41.5374L7.61566 41.9047L7.18079 42.2676L6.76325 42.6259L6.36332 42.9794L5.98125 43.328L5.61728 43.6713L5.27167 44.0094L4.94463 44.3419L4.63637 44.6687L4.34711 44.9897L4.07703 45.3046L3.82632 45.6134L3.59515 45.9159L3.38366 46.2119L3.19201 46.5013L3.02034 46.7839L2.86875 47.0597L2.73736 47.3284L2.62627 47.5899L2.53555 47.8442L2.46529 48.0911L2.41554 48.3304L2.38634 48.5622L2.37773 48.7862L2.38973 49.0024L2.42235 49.2107L2.47558 49.411L2.54941 49.6033L2.6438 49.7873L2.75872 49.9631L2.89411 50.1306L3.0499 50.2898L3.22601 50.4405L3.42235 50.5827L3.63882 50.7164L3.87528 50.8415L4.13163 50.958L4.4077 51.0659L4.70335 51.1651L5.01841 51.2556L5.3527 51.3374L5.70603 51.4104L6.0782 51.4747L6.46899 51.5303L6.87817 51.5771L7.30552 51.6152L7.75077 51.6446L8.21367 51.6653L8.69394 51.6774L9.19131 51.6807L9.70548 51.6755L10.2362 51.6617L10.783 51.6393L11.3457 51.6084L11.924 51.5691L12.5174 51.5214L13.1256 51.4654L13.7483 51.4011L14.3851 51.3286L15.0357 51.248L15.6995 51.1593L16.3763 51.0627L17.0656 50.9582L17.7669 50.8459L18.48 50.7259L19.2043 50.5983L19.9395 50.4632L20.685 50.3208L21.4404 50.171L22.2053 50.0141L22.9792 49.8501L23.7616 49.6792L24.5521 49.5015L25.3501 49.3171L26.1553 49.1261L26.967 48.9288L27.7849 48.7251L28.6084 48.5153L29.437 48.2995L30.2702 48.0778L31.1074 47.8505L31.9483 47.6175L32.7923 47.3792L33.6388 47.1356L34.4873 46.8868L35.3374 46.6332L36.1884 46.3748L37.04 46.1117L37.8914 45.8442L38.7424 45.5724L39.5922 45.2965L40.4404 45.0167L41.2865 44.733L42.1299 44.4458L42.9702 44.1551L43.8067 43.8612L44.6391 43.5641L45.4667 43.2642L46.2891 42.9616L47.1058 42.6564L47.9162 42.3488L48.7199 42.039L49.5163 41.7272L50.305 41.4136L51.0855 41.0983L51.8572 40.7815L52.6198 40.4635L53.3727 40.1443L54.1155 39.8242L54.8477 39.5034L55.5689 39.1819L56.2785 38.8601L56.9763 38.538L57.6616 38.2159L58.3342 37.8939L58.9935 37.5722L59.6392 37.251L60.2709 36.9305L60.8881 36.6107L61.4905 36.292L62.0778 35.9744L62.6494 35.6582L63.2052 35.3434L63.7446 35.0303L64.2675 34.7191L64.7734 34.4098L65.262 34.1026L65.7331 33.7978L66.1862 33.4954L66.6213 33.1956L67.0379 32.8985L67.4358 32.6044L67.8147 32.3133L68.1744 32.0254L68.5147 31.7409L68.8354 31.4598L69.1362 31.1823L69.4169 30.9086L69.6774 30.6388L69.9175 30.3729L70.1371 30.1112L70.3359 29.8537L70.5139 29.6006L70.6709 29.352L70.8069 29.1079L70.9217 28.8686L71.0153 28.6341L71.0875 28.4045L71.1384 28.1799L71.1679 27.9605L71.1759 27.7462L71.1625 27.5373L71.1276 27.3337L71.0713 27.1356L70.9935 26.9431L70.8944 26.7562L70.774 26.575L70.6322 26.3996L70.4693 26.23L70.2853 26.0663L70.0803 25.9086L69.8544 25.7569L69.6077 25.6113L69.3405 25.4718L69.0527 25.3385L68.7447 25.2114L68.4166 25.0906L68.0685 24.976L67.7008 24.8678L67.3135 24.7659L66.907 24.6704L66.4814 24.5813L66.0371 24.4986L65.5742 24.4223L65.0932 24.3524L64.5941 24.289L64.0775 24.2321L63.5434 24.1816L62.9924 24.1376L62.4247 24.1L61.8406 24.0688L61.2405 24.044L60.6248 24.0257L59.9939 24.0137L59.348 24.0081L58.6877 24.0088L58.0132 24.0158L57.3251 24.0292L56.6237 24.0487L55.9095 24.0744L55.1829 24.1063L54.4443 24.1444L53.6941 24.1885L52.933 24.2386L52.1612 24.2946L51.3792 24.3566L50.5877 24.4244L49.7869 24.498L48.9775 24.5774L48.1599 24.6624L47.3346 24.753L46.5021 24.8491L45.6629 24.9507L44.8176 25.0576L43.9666 25.1698L43.1104 25.2872L42.2497 25.4098L41.3849 25.5374L40.5166 25.6699L39.6452 25.8074L38.7713 25.9496L37.8955 26.0964L37.0183 26.2479L36.1402 26.4038L35.2618 26.5642L34.3836 26.7288L33.5062 26.8976L32.63 27.0705L31.7556 27.2474L30.8836 27.4282L30.0145 27.6127L29.1489 27.8009L28.2872 27.9926L27.43 28.1878L26.5778 28.3863L25.7312 28.588L24.8906 28.7928L24.0567 29.0006L23.2298 29.2112L22.4106 29.4246L21.5995 29.6406L20.797 29.8592L20.0036 30.0801L19.2198 30.3033L18.4461 30.5287L17.683 30.7561L16.931 30.9854L16.1904 31.2165L15.4618 31.4493L14.7456 31.6837L14.0423 31.9195L13.3523 32.1565L12.6761 32.3948L12.0139 32.6342L11.3663 32.8745L10.7337 33.1156L10.1165 33.3574L9.51493 33.5999L8.92952 33.8427L8.36058 34.086L7.80847 34.3295L7.27354 34.5731L6.75611 34.8166L6.25652 35.0601L5.77506 35.3033L5.31205 35.5462L4.86778 35.7886L4.44252 36.0305L4.03653 36.2716L3.65008 36.5119L3.28341 36.7513L2.93674 36.9897L2.6103 37.227L2.30429 37.463L2.01891 37.6977L1.75433 37.9309L1.51073 38.1626L1.28826 38.3926L1.08705 38.6208L0.907251 38.8472L0.748966 39.0716L0.612301 39.294L0.497345 39.5142L0.404174 39.7322L0.332851 39.9478L0.283426 40.1611L0.255933 40.3718L0.250396 40.5799L0.266822 40.7853L0.305208 40.9879L0.365535 41.1877L0.447772 41.3845L0.551872 41.5783L0.677777 41.769L0.825414 41.9566L0.994699 42.1409L1.18553 42.3219L1.3978 42.4995L1.63138 42.6736L1.88613 42.8442L2.1619 43.0113L2.45852 43.1747L2.77582 43.3344L3.11361 43.4903L3.47168 43.6424L3.84982 43.7906L4.24779 43.9349L4.66537 44.0752L5.10229 44.2115L5.55829 44.3437L6.0331 44.4718L6.52643 44.5957L7.03798 44.7154L7.56743 44.8309L8.11447 44.9421L8.67876 45.0489L9.25996 45.1515L9.85772 45.2496L10.4717 45.3434L11.1014 45.4327L11.7466 45.5175L12.4069 45.5979L13.0817 45.6738L13.7708 45.7452L14.4737 45.812L15.19 45.8743L15.9192 45.932L16.6609 45.9851L17.4147 46.0337L18.18 46.0777L18.9564 46.117L19.7435 46.1518L20.5407 46.182L21.3476 46.2076L22.1636 46.2286L22.9883 46.245L23.8212 46.2568L24.6617 46.2641L25.5093 46.2668L26.3636 46.2649L27.224 46.2585L28.0899 46.2476L28.9609 46.2321L29.8363 46.2122L30.7157 46.1879L31.5986 46.159L32.4843 46.1258L33.3724 46.0882L34.2622 46.0462L35.1533 45.9999L36.0451 45.9492L36.9371 45.8943L37.8286 45.8352L38.7192 45.7719L39.6083 45.7044L40.4954 45.6327L41.3799 45.557L42.2612 45.4772L43.1389 45.3935L44.0124 45.3058L44.8811 45.2141L45.7445 45.1186L46.6021 45.0193L47.4534 44.9163L48.2979 44.8095L49.1349 44.699L49.964 44.585L50.7848 44.4673L51.5966 44.3462L52.399 44.2217L53.1915 44.0937L53.9736 43.9625L54.7448 43.8279L55.5046 43.6902L56.2527 43.5494L56.9885 43.4054L57.7115 43.2585L58.4213 43.1086L59.1176 42.9559L59.7998 42.8003L60.4675 42.642L61.1204 42.481L61.758 42.3174L62.3799 42.1513L62.9857 41.9828L63.5752 41.8118L64.1478 41.6386L64.7033 41.4631L65.2413 41.2854L65.7615 41.1057L66.2636 40.9239L66.7472 40.7403L67.2121 40.5547L67.6579 40.3674L68.0844 40.1784L68.4914 39.9878L68.8786 39.7956L69.2457 39.602L69.5925 39.407L69.9188 39.2107L70.2244 39.0131L70.5091 38.8145L70.7728 38.6148L71.0153 38.4141L71.2363 38.2125L71.4359 38.0102L71.6138 37.8071L71.77 37.6034L71.9044 37.3991L72.0168 37.1943L72.1072 36.9892L72.1756 36.7837L72.2219 36.5781L72.2461 36.3723L72.2482 36.1664L72.2281 35.9606L72.1859 35.7549L72.1216 35.5494L72.0352 35.3442L71.9269 35.1394L71.7966 34.935L71.6444 34.7312L71.4705 34.528L71.275 34.3255L71.0579 34.1237L70.8194 33.9229L70.5596 33.723L70.2788 33.5241L69.977 33.3264L69.6545 33.1299L69.3115 32.9346L68.9481 32.7407L68.5647 32.5483L68.1613 32.3574L67.7384 32.1681L67.2961 31.9804L66.8348 31.7946L66.3546 31.6105L65.8559 31.4284L65.3391 31.2483L64.8043 31.0703L64.252 30.8944L63.6826 30.7207L63.0962 30.5493L62.4934 30.3803L61.8744 30.2137L61.2397 30.0497L60.5896 29.8882L59.9246 29.7294L59.2451 29.5733L58.5514 29.42L57.844 29.2696L57.1234 29.1221L56.39 28.9776L55.6442 28.8362L54.8865 28.6979L54.1173 28.5628L53.3372 28.4309L52.5466 28.3024L51.746 28.1772L50.9359 28.0554L50.1168 27.9371L49.2891 27.8224L48.4535 27.7113L47.6104 27.6038L46.7604 27.5001L45.9039 27.4L45.0415 27.3038L44.1737 27.2115L43.3011 27.123L42.4242 27.0385L41.5434 26.958L40.6595 26.8816L39.7729 26.8092L38.8841 26.7409L37.9937 26.6768L37.1023 26.6169L36.2104 26.5612L35.3185 26.5098L34.4273 26.4626L33.5372 26.4198L32.6487 26.3814L31.7625 26.3474L30.8791 26.3177L29.999 26.2925L29.1228 26.2718L28.2509 26.2555L27.384 26.2438L26.5226 26.2365L25.6671 26.2338L24.8182 26.2357L23.9763 26.2421L23.142 26.253L22.3158 26.2686L21.4981 26.2887L20.6895 26.3135L19.8905 26.3428L19.1015 26.3767L18.3231 26.4153L17.5556 26.4584L16.7997 26.5061L16.0558 26.5584L15.3242 26.6153L14.6055 26.6767L13.9001 26.7427L13.2084 26.8132L12.5308 26.8882L11.8679 26.9678L11.2198 27.0518L10.5872 27.1403L9.97028 27.2332L9.36949 27.3306L8.7852 27.4323L8.21774 27.5384L7.66748 27.6488L7.13475 27.7635L6.61986 27.8824L6.12313 28.0055L5.64487 28.1328L5.18536 28.2643L4.74488 28.3998L4.3237 28.5394L3.92207 28.6829L3.54024 28.8304L3.17844 28.9818L2.83688 29.137L2.51576 29.296L2.21529 29.4587L1.93565 29.6251L1.67699 29.7951L1.43948 29.9686L1.22325 30.1455L1.02844 30.3259L0.855153 30.5096L0.703497 30.6966L0.573559 30.8867L0.465413 31.0799L0.379122 31.2762L0.314732 31.4754L0.272278 31.6776L0.251781 31.8824L0.253249 32.09L0.276674 32.3003L0.322038 32.513L0.389307 32.7282L0.478433 32.9458L0.589358 33.1656L0.722007 33.3876L0.876292 33.6116L1.05212 33.8377L1.24936 34.0656L1.4679 34.2953L1.7076 34.5266L1.96831 34.7596L2.24985 34.994L2.55205 35.2297L2.87472 35.4668L3.21765 35.705L3.58064 35.9442L3.96344 36.1844L4.36582 36.4254L4.78753 36.6671L5.2283 36.9094L5.68786 37.1522L6.16592 37.3954L6.66218 37.6388L7.17632 37.8824L7.70804 38.126L8.25699 38.3695L8.82284 38.6128L9.40523 38.8557L10.0038 39.0983L10.6182 39.3402L11.248 39.5815L11.8928 39.8219L12.5523 40.0615L13.226 40.3L13.9135 40.5373L14.6143 40.7733L15.3282 41.0079L16.0545 41.241L16.7928 41.4724L17.5428 41.7021L18.3039 41.9299L19.0757 42.1556L19.8576 42.3793L20.6492 42.6006L21.4501 42.8196L22.2596 43.0361L23.0774 43.25L23.9029 43.4612L24.7356 43.6695L25.575 43.8749L26.4205 44.0772L27.2717 44.2763L28.128 44.4721L28.9889 44.6644L29.8539 44.8533L30.7223 45.0385L31.5938 45.22L32.4678 45.3976L33.3437 45.5712L34.2209 45.7408L35.0991 45.9062L35.9775 46.0674L36.8557 46.2241L37.7331 46.3764L38.6092 46.5241L39.4834 46.6672L40.3553 46.8055L41.2243 46.939L42.0898 47.0675L42.9513 47.191L43.8083 47.3094L44.6603 47.4226L45.5067 47.5305L46.3471 47.6331L47.1808 47.7302L48.0075 47.8218L48.8266 47.9079L49.6376 47.9882L50.44 48.0629L51.2333 48.1318L52.017 48.1949L52.7907 48.2521L53.5539 48.3033L54.3061 48.3485L55.0469 48.3876L55.7758 48.4207L56.4923 48.4476L57.1961 48.4683L57.8867 48.4827L58.5637 48.4909L59.2267 48.4928L59.8753 48.4884L60.509 48.4776L61.1276 48.4604L61.7306 48.4369L62.3177 48.4069L62.8884 48.3705L63.4426 48.3276L63.9798 48.2783L64.4997 48.2226L65.002 48.1604L65.4865 48.0917L65.9527 48.0166L66.4005 47.9351L66.8295 47.8472L67.2396 47.7528L67.6305 47.6521L68.0019 47.5451L68.3536 47.4317L68.6854 47.312L68.9972 47.1861L69.2887 47.0539L69.5598 46.9156L69.8102 46.7711L70.04 46.6205L70.2489 46.4639L70.4368 46.3013L70.6036 46.1329L70.7493 45.9585L70.8737 45.7784L70.9768 45.5925L71.0585 45.401L71.1188 45.204L71.1576 45.0014L71.175 44.7935L71.171 44.5802L71.1455 44.3617L71.0985 44.1381L71.0303 43.9094L70.9407 43.6758L70.8298 43.4373L70.6977 43.1942L70.5446 42.9464L70.3705 42.6941L70.1755 42.4374L69.9598 42.1765L69.7235 41.9114L69.4667 41.6423L69.1897 41.3692L68.8926 41.0924L68.5756 40.812L68.239 40.5281L67.8828 40.2408L67.5074 39.9503L67.113 39.6567L66.6999 39.3602L66.2682 39.0609L65.8184 38.759L65.3506 38.4546L64.8652 38.1479L64.3625 37.839L63.8428 37.528L63.3064 37.2153L62.7536 36.9008L62.1849 36.5848L61.6005 36.2675L61.0009 35.949L60.3864 35.6294L59.7573 35.309L59.1142 34.9879L58.4574 34.6663L57.7872 34.3444L57.1042 34.0222L56.4088 33.7002L55.7013 33.3783L54.9822 33.0567L54.252 32.7358L53.5112 32.4155L52.7601 32.0961L51.9993 31.7779L51.2292 31.4609L50.4503 31.1453L49.6631 30.8313L48.868 30.5192L48.0657 30.209L47.2565 29.901L46.4409 29.5954L45.6195 29.2922L44.7928 28.9918L43.9613 28.6942L43.1255 28.3997L42.2859 28.1084L41.443 27.8205L40.5974 27.5362L39.7495 27.2556L38.8999 26.979L38.0492 26.7064L37.1978 26.4381L36.3462 26.1742L35.495 25.9149L34.6447 25.6604L33.7959 25.4107L32.9489 25.1661L32.1045 24.9268L31.263 24.6929L30.425 24.4644L29.591 24.2417L28.7615 24.0248L27.9371 23.8139L27.1181 23.6091L26.3052 23.4105L25.4988 23.2184L24.6994 23.0327L23.9075 22.8538L23.1235 22.6816L22.348 22.5163L21.5814 22.3581L20.8242 22.207L20.0768 22.0632L19.3398 21.9267L18.6134 21.7977L17.8982 21.6763L17.1946 21.5626L16.5031 21.4566L15.824 21.3586L15.1577 21.2684L14.5047 21.1863L13.8653 21.1123L13.2399 21.0465L12.629 20.9889L12.0328 20.9397L11.4517 20.8988L10.8861 20.8664L10.3363 20.8424L9.80259 20.827L9.28533 20.8202L8.78483 20.8219L8.30136 20.8323L7.83522 20.8514L7.38668 20.8792L6.956 20.9157L6.54343 20.9609L6.14922 21.0149L5.77358 21.0776L5.41674 21.149L5.07891 21.2292L4.76027 21.3181L4.46101 21.4156L4.1813 21.5219L3.92129 21.6368L3.68113 21.7603L3.46095 21.8924L3.26087 22.0331L3.08101 22.1822L2.92144 22.3398L2.78227 22.5058L2.66355 22.68L2.56535 22.8626L2.4877 23.0533L2.43065 23.2521L2.39422 23.4589L2.3784 23.6737L2.38319 23.8963L2.40857 24.1266L2.45452 24.3646L2.52099 24.6101L2.60792 24.863L2.71524 25.1232L2.84287 25.3906L2.99073 25.665L3.15869 25.9464L3.34665 26.2345L3.55446 26.5293L3.782 26.8306L4.02911 27.1382L4.29561 27.4521L4.58133 27.7719L4.88608 28.0977L5.20966 28.4292L5.55185 28.7662L5.91243 29.1086L6.29116 29.4562L6.68781 29.8088L7.1021 30.1662L7.53378 30.5282L7.98256 30.8948L8.44815 31.2655L8.93026 31.6404L9.42858 32.019L9.94279 32.4014L10.4726 32.7871L11.0175 33.1761L11.5774 33.5682L12.1518 33.963L12.7404 34.3604L13.3427 34.7602L13.9584 35.1622L14.5872 35.566L15.2286 35.9716L15.8822 36.3786L16.5476 36.7868L17.2244 37.1961L17.9122 37.6061L18.6105 38.0167L19.3189 38.4276L20.0369 38.8385L20.7642 39.2493L21.5002 39.6596L22.2445 40.0693L22.9967 40.4781L23.7562 40.8858L24.5226 41.2922L25.2954 41.6968L26.0742 42.0997L26.8585 42.5005L27.6477 42.8989L28.4414 43.2948L29.2391 43.6878L30.0403 44.0779L30.8445 44.4646L31.6512 44.8478L32.46 45.2273L33.2703 45.6028L34.0816 45.974L34.8934 46.3408L35.7053 46.703L36.5167 47.0602L37.3271 47.4123L38.1361 47.7591L38.9432 48.1003L39.7478 48.4357L40.5494 48.7651L41.3477 49.0883L42.142 49.4051L42.9319 49.7152L43.717 50.0186L44.4967 50.3148L45.2707 50.6039L46.0383 50.8856L46.7992 51.1596L47.5529 51.4259L48.2989 51.6841L49.0368 51.9343L49.7661 52.1761L50.4865 52.4094L51.1974 52.6341L51.8985 52.8499L52.5893 53.0568L53.2694 53.2546L53.9384 53.4431L54.5959 53.6222L55.2416 53.7917L55.875 53.9516L56.4957 54.1017L57.1035 54.2419L57.6978 54.372L58.2785 54.4921L58.8451 54.6018L59.3973 54.7013L59.9348 54.7903L60.4573 54.8688L60.9644 54.9368L61.4559 54.994L61.9314 55.0406L62.3908 55.0763L62.8338 55.1012L63.26 55.1152L63.6692 55.1183L64.0613 55.1104L64.436 55.0914L64.793 55.0615L65.1323 55.0205L65.4535 54.9685L65.7565 54.9054L66.0411 54.8313L66.3073 54.7461L66.5548 54.6499L66.7835 54.5426L66.9933 54.4244L67.184 54.2953L67.3557 54.1553L67.5081 54.0044L67.6413 53.8427L67.7552 53.6703L67.8496 53.4872L67.9246 53.2936L67.9802 53.0894L68.0163 52.8748L68.033 52.6499L68.0302 52.4148L68.0079 52.1696L67.9663 51.9144L67.9053 51.6493L67.825 51.3744L67.7255 51.09L67.6069 50.796L67.4692 50.4928L67.3125 50.1803L67.137 49.8588L66.9428 49.5285L66.7301 49.1894L66.4989 48.8419L66.2495 48.486L65.982 48.122L65.6966 47.75L65.3935 47.3702L65.0729 46.9829L64.735 46.5882L64.38 46.1864L64.0083 45.7777L63.6199 45.3622L63.2152 44.9403L62.7945 44.5122L62.358 44.078L61.9059 43.638L61.4387 43.1926L60.9566 42.7418L60.4599 42.286L59.9489 41.8255L59.4239 41.3604L58.8854 40.8911L58.3336 40.4178L57.7689 39.9408L57.1916 39.4603L56.6021 38.9767L56.0009 38.4902L55.3882 38.0011L54.7644 37.5096L54.13 37.0161L53.4854 36.5209L52.8309 36.0242L52.167 35.5263L51.4941 35.0275L50.8125 34.5281L50.1228 34.0285L49.4254 33.5288L48.7206 33.0295L48.009 32.5307L47.291 32.0329L46.567 31.5362L45.8374 31.041L45.1028 30.5476L44.3636 30.0563L43.6202 29.5674L42.8731 29.0812L42.1227 28.5979L41.3696 28.1179L40.6141 27.6415L39.8568 27.169L39.0981 26.7006L38.3384 26.2366L37.5783 25.7774L36.8182 25.3232L36.0586 24.8743L35.2999 24.4309L34.5426 23.9935L33.7871 23.5621L33.034 23.1372L32.2836 22.719L31.5365 22.3077L30.793 21.9036L30.0536 21.507L29.3188 21.1182L28.589 20.7373L27.8647 20.3646L27.1463 20.0004L26.4341 19.6449L25.7288 19.2984L25.0305 18.9611L24.3399 18.6331L23.6573 18.3148L22.983 18.0063L22.3176 17.7078L21.6613 17.4196L21.0147 17.1419L20.378 16.8748L19.7517 16.6185L19.136 16.3732L18.5315 16.1391L17.9384 15.9164L17.357 15.7052L16.7878 15.5056L16.231 15.3179L15.687 15.1421L15.156 14.9785L14.6385 14.827L14.1347 14.6879L13.6448 14.5613L13.1692 14.4473L12.7081 14.3459L12.2619 14.2572L11.8306 14.1815L11.4147 14.1186L11.0143 14.0687L10.6296 14.0319L10.261 14.0082L9.90842 13.9977L9.57225 14.0004L9.25263 14.0163L8.94972 14.0454L8.66369 14.0878L8.39469 14.1435L8.14286 14.2125L7.90833 14.2947L7.69123 14.3902L7.49166 14.4989L7.30971 14.6208L7.14548 14.7558L6.99905 14.9039L6.87047 15.0651L6.7598 15.2393L6.66709 15.4264L6.59237 15.6263L6.53565 15.8389L6.49695 16.0642L6.47627 16.302L6.47359 16.5522L6.48889 16.8148L6.52214 17.0895L6.5733 17.3763L6.6423 17.6749L6.72908 17.9853L6.83356 18.3073L6.95566 18.6407L7.09527 18.9854L7.25228 19.3411L7.42659 19.7077L7.61805 20.085L7.82652 20.4728L8.05185 20.8709L8.2939 21.279L8.55247 21.6969L8.82739 22.1245L9.11847 22.5615L9.42551 23.0076L9.74831 23.4626L10.0866 23.9262L10.4403 24.3982L10.809 24.8783L11.1925 25.3663L11.5906 25.8618L12.0029 26.3646L12.4293 26.8745L12.8695 27.391L13.3231 27.914L13.7899 28.4431L14.2696 28.978L14.7618 29.5184L15.2663 30.064L15.7826 30.6145L16.3106 31.1696L16.8497 31.7289L17.3998 32.2921L17.9604 32.8588L18.5312 33.4288L19.1119 34.0018L19.702 34.5773L20.3011 35.155L20.909 35.7346L21.5252 36.3158L22.1494 36.8981L22.7811 37.4813L23.4199 38.0651L24.0655 38.6489L24.7175 39.2326L25.3754 39.8157L26.0388 40.3979L26.7074 40.9788L27.3806 41.5581L28.0582 42.1355L28.7396 42.7105L29.4245 43.2829L30.1124 43.8523L30.8029 44.4183L31.4956 44.9806L32.19 45.5388L32.8858 46.0926L33.5825 46.6416L34.2797 47.1856L34.9769 47.7241L35.6738 48.2569L36.3699 48.7836L37.0648 49.3038L37.7581 49.8173L38.4493 50.3236L39.138 50.8226L39.8239 51.3139L40.5065 51.7971L41.1853 52.272L41.8601 52.7383L42.5304 53.1956L43.1957 53.6436L43.8558 54.0821L44.5101 54.5109L45.1584 54.9295L45.8002 55.3377L46.4351 55.7353L47.0628 56.1221L47.6829 56.4976L48.2951 56.8618L48.8989 57.2143L49.4941 57.5549L50.0803 57.8834L50.6571 58.1996L51.2242 58.5032L51.7812 58.7941L52.328 59.072L52.864 59.3367L53.3891 59.5881L53.903 59.826L54.4052 60.0502L54.8957 60.2605L55.3739 60.4568L55.8399 60.6389L56.2931 60.8067L56.7334 60.9601L57.1606 61.099L57.5744 61.2232L57.9745 61.3326L58.3608 61.4271L58.7331 61.5067L59.0911 61.5713L59.4346 61.6208L59.7635 61.6551L60.0776 61.6742L60.3768 61.678L60.6608 61.6666L60.9295 61.6398L61.1828 61.5978L61.4205 61.5404L61.6426 61.4677L61.849 61.3796L62.0394 61.2763L62.214 61.1578L62.3725 61.024L62.5148 60.8751L62.6411 60.7111L62.7511 60.532L62.8448 60.338L62.9223 60.1292L62.9835 59.9056L63.0284 59.6673L63.057 59.4145L63.0693 59.1473L63.0654 58.8658L63.0452 58.5701L63.0088 58.2605L62.9562 57.9371L62.8876 57.6L62.803 57.2494L62.7024 56.8856L62.5859 56.5086L62.4538 56.1188L62.3059 55.7163L62.1426 55.3013L61.9639 54.8741L61.7699 54.4349L61.5608 53.984L61.3367 53.5215L61.0978 53.0479L60.8443 52.5632L60.5763 52.0679L60.2941 51.5621L59.9978 51.0462L59.6877 50.5205L59.3639 49.9852L59.0267 49.4407L58.6763 48.8873L58.3129 48.3253L57.9369 47.755L57.5483 47.1768L57.1476 46.5909L56.7349 45.9978L56.3105 45.3978L55.8747 44.7912L55.4279 44.1784L54.9702 43.5598L54.502 42.9356L54.0236 42.3064L53.5352 41.6724L53.0373 41.034L52.5301 40.3917L52.014 39.7458L51.4892 39.0966L50.9561 38.4446L50.4151 37.7901L49.8665 37.1336L49.3106 36.4755L48.7478 35.8161L48.1784 35.1558L47.6029 34.4951L47.0215 33.8343L46.4346 33.1739L45.8426 32.5142L45.2458 31.8556L44.6447 31.1986L44.0395 30.5436L43.4307 29.8909L42.8187 29.2409L42.2038 28.5941L41.5863 27.9508L40.9668 27.3115L40.3455 26.6765L39.7228 26.0463L39.0991 25.4212L38.4748 24.8015L37.8503 24.1878L37.2259 23.5804L36.6021 22.9796L35.9791 22.3859L35.3574 21.7995L34.7373 21.221L34.1192 20.6506L33.5036 20.0887L32.8906 19.5356L32.2808 18.9918L31.6745 18.4575L31.072 17.9331L30.4736 17.4189L29.8798 16.9153L29.2909 16.4226L28.7073 15.9411L28.1292 15.4711L27.557 15.0129L26.9911 14.5668L26.4317 14.1331L25.8792 13.7122L25.334 13.3042L24.7963 12.9094L24.2664 12.5281L23.7447 12.1606L23.2314 11.8071L22.7268 11.4678L22.2313 11.143L21.7451 10.8328L21.2684 10.5376L20.8016 10.2575L20.3449 9.99263L19.8985 9.74328L19.4627 9.50958L19.0378 9.29171L18.624 9.08983L18.2214 8.90407L17.8304 8.73459L17.4511 8.58151L17.0838 8.44495L16.7285 8.32501L16.3856 8.22181L16.0552 8.13542L15.7375 8.06593L15.4326 8.0134L15.1407 7.97789L14.862 7.95946L14.5965 7.95813L14.3444 7.97394L14.1059 8.00691L13.881 8.05703L13.6699 8.12432L13.4726 8.20874L13.2893 8.31028L13.12 8.42891L12.9648 8.56457L12.8237 8.7172L12.6969 8.88675L12.5843 9.07314L12.486 9.27627L12.402 9.49606L12.3324 9.73238L12.2771 9.98512L12.2361 10.2542L12.2095 10.5393L12.1973 10.8405L12.1993 11.1576L12.2156 11.4903L12.2462 11.8385L12.2909 12.202L12.3497 12.5806L12.4226 12.9742L12.5095 13.3824L12.6103 13.805L12.7249 14.2419L12.8532 14.6928L12.995 15.1574L13.1504 15.6354L13.3191 16.1266L13.5011 16.6308L13.6961 17.1475L13.9041 17.6766L14.1249 18.2177L14.3582 18.7705L14.6041 19.3347L14.8622 19.9099L15.1324 20.4959L15.4146 21.0922L15.7084 21.6986L16.0138 22.3146L16.3304 22.94L16.6582 23.5743L16.9967 24.2172L17.346 24.8683L17.7056 25.5272L18.0754 26.1935L18.4551 26.8669L18.8444 27.5468L19.2432 28.233L19.6511 28.925L20.0679 29.6224L20.4933 30.3247L20.9271 31.0316L21.3689 31.7427L21.8185 32.4574L22.2755 33.1754L22.7398 33.8963L23.2109 34.6195L23.6887 35.3448L24.1727 36.0715L24.6628 36.7993L25.1585 37.5278L25.6596 38.2565L26.1658 38.9849L26.6767 39.7126L27.192 40.4392L27.7115 41.1643L28.2348 41.8872L28.7615 42.6078L29.2914 43.3254L29.8241 44.0396L30.3593 44.7501L30.8966 45.4563L31.4359 46.1579L31.9766 46.8543L32.5185 47.5452L33.0613 48.2302L33.6047 48.9087L34.1482 49.5805L34.6916 50.245L35.2346 50.9019L35.7769 51.5507L36.318 52.191L36.8578 52.8225L37.3958 53.4447L37.9318 54.0573L38.4655 54.6598L38.9965 55.2519L39.5245 55.8332L40.0492 56.4033L40.5704 56.9619L41.0876 57.5085L41.6007 58.043L42.1093 58.5649L42.6131 59.0739L43.1119 59.5696L43.6053 60.0518L44.0931 60.5201L44.575 60.9742L45.0507 61.4139L45.5199 61.8388L45.9825 62.2486L46.4381 62.6432L46.8865 63.0222L47.3274 63.3853L47.7606 63.7324L48.1859 64.0633L48.603 64.3776L49.0117 64.6751L49.4117 64.9558L49.803 65.2193L50.1851 65.4656L50.558 65.6943L50.9215 65.9054L51.2753 66.0987L51.6193 66.2741L51.9533 66.4315L52.2771 66.5706L52.5905 66.6915L52.8935 66.794L53.1857 66.8781L53.4672 66.9436L53.7378 66.9905L53.9973 67.0187L54.2455 67.0283L54.4825 67.0191L54.7081 66.9912L54.9221 66.9446L55.1245 66.8792L55.3152 66.7951L55.4941 66.6923L55.6611 66.5709L55.8162 66.4308L55.9593 66.2722L56.0903 66.0952L56.2093 65.8998L56.3161 65.6861L56.4108 65.4543L56.4933 65.2044L56.5636 64.9366L56.6217 64.651L56.6675 64.3478L56.7012 64.0272L56.7227 63.6893L56.7321 63.3343L56.7293 62.9624L56.7144 62.5738L56.6874 62.1687L56.6484 61.7474L56.5975 61.3101L56.5347 60.8571L56.4601 60.3885L56.3737 59.9048L56.2757 59.4061L56.1661 58.8927L56.045 58.365L55.9126 57.8233L55.7689 57.2678L55.6141 56.6988L55.4483 56.1168L55.2716 55.5221L55.0841 54.915L54.8861 54.2958L54.6775 53.665L54.4587 53.0229L54.2297 52.3699L53.9908 51.7063L53.742 51.0327L53.4836 50.3493L53.2157 49.6565L52.9385 48.9549L52.6523 48.2448L52.3572 47.5266L52.0534 46.8007L51.7411 46.0677L51.4205 45.3279L51.0919 44.5818L50.7554 43.8299L50.4113 43.0725L50.0598 42.3102L49.7011 41.5434L49.3355 40.7725L48.9632 39.9982L48.5845 39.2207L48.1995 38.4406L47.8085 37.6583L47.4118 36.8744L47.0097 36.0894L46.6023 35.3036L46.1899 34.5175L45.7729 33.7318L45.3513 32.9467L44.9256 32.1629L44.496 31.3808L44.0627 30.6008L43.626 29.8235L43.1861 29.0494L42.7434 28.2788L42.2981 27.5124L41.8505 26.7505L41.4008 25.9936L40.9494 25.2423L40.4964 24.4969L40.0421 23.7579L39.5869 23.0258L39.131 22.3011L38.6747 21.5841L38.2182 20.8754L37.7617 20.1754L37.3057 19.4845L36.8502 18.8032L36.3957 18.1318L35.9423 17.4708L35.4904 16.8207L35.0401 16.1817L34.5918 15.5544L34.1457 14.9391L33.702 14.3362L33.261 13.7461L32.823 13.1692L32.3881 12.6058L31.9568 12.0563L31.529 11.521L31.1052 11.0004L30.6856 10.4946L30.2703 10.004L29.8597 9.52905L29.4539 9.06992L29.0532 8.62695L28.6577 8.20042L28.2677 7.79061L27.8835 7.39778L27.5051 7.02219L27.1328 6.6641L26.7669 6.32372L26.4074 6.0013L26.0547 5.69704L25.7088 5.41114L25.3699 5.14381L25.0383 4.89521L24.714 4.66553L24.3973 4.45491L24.0884 4.26351L23.7873 4.09145L23.4942 3.93888L23.2092 3.80588L22.9326 3.69257L22.6644 3.59903L22.4048 3.52533L22.1538 3.47155L21.9117 3.43773L21.6784 3.4239L21.4542 3.43011L21.2391 3.45635L21.0332 3.50263L20.8366 3.56895L20.6494 3.65527L20.4716 3.76157L20.3034 3.8878L20.1447 4.03389L19.9957 4.19978L19.8564 4.38538L19.7269 4.59059L19.6071 4.81531L19.4972 5.05941L19.3972 5.32277L19.307 5.60523L19.2268 5.90665L19.1564 6.22684L19.096 6.56565L19.0455 6.92286L19.0049 7.29828L18.9742 7.6917L18.9534 8.10288L18.9425 8.5316L18.9414 8.97759L18.9501 9.44062L18.9686 9.9204L18.9968 10.4167L19.0347 10.9291L19.0822 11.4574L19.1392 12.0013L19.2058 12.5605L19.2817 13.1345L19.367 13.7232L19.4615 14.3261L19.5653 14.9429L19.678 15.5732L19.7998 16.2166L19.9305 16.8728L20.0699 17.5413L20.218 18.2218L20.3746 18.9138L20.5396 19.617L20.713 20.3309L20.8945 21.0551L21.084 21.7892L21.2815 22.5326L21.4867 23.285L21.6995 24.046L21.9198 24.8149L22.1474 25.5915L22.3821 26.3751L22.6239 27.1654L22.8724 27.9619L23.1276 28.764L23.3894 29.5713L23.6574 30.3834L23.9316 31.1996L24.2117 32.0195L24.4976 32.8426L24.7891 33.6685L25.086 34.4965L25.3882 35.3262L25.6954 36.1571L26.0074 36.9887L26.324 37.8205L26.6451 38.6519L26.9705 39.4824L27.2998 40.3116L27.6331 41.1389L27.9699 41.9639L28.3102 42.7859L28.6537 43.6045L29.0003 44.4193L29.3496 45.2296L29.7016 46.0351L30.0559 46.8351L30.4124 47.6293L30.7709 48.417L31.1312 49.1979L31.493 49.9715L31.8562 50.7372L32.2205 51.4945L32.5857 52.2431L32.9516 52.9825L33.318 53.7121L33.6847 54.4316L34.0515 55.1404L34.4182 55.8382L34.7846 56.5246L35.1504 57.199L35.5155 57.861L35.8796 58.5103L36.2426 59.1464L36.6043 59.769L36.9644 60.3776L37.3228 60.9719L37.6792 61.5515L38.0336 62.116L38.3856 62.665L38.7351 63.1983L39.082 63.7154L39.4259 64.2161L39.7668 64.7001L40.1045 65.1669L40.4388 65.6164L40.7695 66.0483L41.0964 66.4622L41.4194 66.8579L41.7384 67.2351L42.0531 67.5936L42.3633 67.9332L42.6691 68.2537L42.9701 68.5548L43.2662 68.8363L43.5574 69.0981L43.8434 69.3399L44.1241 69.5617L44.3994 69.7632L44.6691 69.9444L44.9332 70.1051L45.1914 70.2452L45.4438 70.3646L45.69 70.4632L45.9302 70.5409L46.1641 70.5977L46.3916 70.6335L46.6126 70.6484L46.8271 70.6422L47.035 70.6149L47.2361 70.5667L47.4304 70.4974L47.6178 70.4071L47.7982 70.2959L47.9715 70.1638L48.1378 70.0108L48.2969 69.8372L48.4487 69.6428L48.5933 69.428L48.7305 69.1927L48.8603 68.9371L48.9827 68.6614L49.0977 68.3657L49.2052 68.0502L49.3051 67.715L49.3976 67.3604L49.4824 66.9866L49.5597 66.5938L49.6294 66.1821L49.6915 65.752L49.7461 65.3035L49.793 64.837L49.8324 64.3527L49.8642 63.851L49.8884 63.3322L49.9051 62.7964L49.9143 62.2441L49.9159 61.6757L49.9102 61.0913L49.897 60.4915L49.8764 59.8764L49.8485 59.2466L49.8133 58.6024L49.7709 57.9441L49.7212 57.2722L49.6645 56.5871L49.6006 55.8892L49.5298 55.1789L49.452 54.4566L49.3674 53.7229L49.276 52.978L49.1778 52.2225L49.0731 51.4568L48.9618 50.6815L48.844 49.8969L48.7199 49.1035L48.5895 48.3019L48.453 47.4925L48.3104 46.6758L48.1618 45.8523L48.0073 45.0225L47.8471 44.1869L47.6813 43.346L47.5099 42.5004L47.3331 41.6505L47.1511 40.7969L46.9638 39.9401L46.7715 39.0807L46.5743 38.219L46.3723 37.3557L46.1656 36.4914L45.9544 35.6264L45.7387 34.7615L45.5188 33.897L45.2948 33.0335L45.0668 32.1716L44.8349 31.3118L44.5992 30.4546L44.36 29.6006L44.1174 28.7502L43.8715 27.904L43.6224 27.0625L43.3703 26.2263L43.1154 25.3958L42.8577 24.5715L42.5975 23.7541L42.3349 22.9439L42.07 22.1415L41.803 21.3473L41.534 20.562L41.2632 19.7858L40.9907 19.0194L40.7168 18.2632L40.4414 17.5177L40.1649 16.7833L39.8872 16.0606L39.6087 15.3498L39.3294 14.6516L39.0495 13.9662L38.769 13.2942L38.4883 12.636L38.2074 11.9919L37.9265 11.3625L37.6457 10.748L37.3651 10.1488L37.085 9.56536L36.8054 8.99802L36.5264 8.44713L36.2484 7.91303L35.9712 7.39605L35.6952 6.89653L35.4205 6.41478L35.1471 5.95109L34.8752 5.50576L34.605 5.07908L34.3366 4.67131L34.07 4.28271L33.8055 3.91353L33.5432 3.564L33.2832 3.23434L33.0255 2.92476L32.7704 2.63547L32.5179 2.36665L32.2682 2.11846L32.0214 1.89108L31.7775 1.68465L31.5368 1.4993L31.2993 1.33516L31.065 1.19233L30.8342 1.07092L30.6069 0.970995L30.3833 0.892636L30.1633 0.835896L29.9471 0.800818L29.7349 0.787431L29.5266 0.795753L29.3224 0.825785L29.1224 0.877517L28.9265 0.950926L28.7351 1.04597L28.548 1.16261L28.3653 1.30077L28.1872 1.46038L28.0137 1.64134L27.8449 1.84356L27.6808 2.06692L27.5215 2.31128L27.3671 2.5765L27.2176 2.86244L27.073 3.16891L26.9334 3.49574L26.7989 3.84273L26.6695 4.20969L26.5452 4.59638L26.4261 5.00258L26.3122 5.42804L26.2036 5.87252L26.1002 6.33574L26.0021 6.81742L25.9094 7.31727L25.822 7.83501L25.74 8.3703L25.6634 8.92283L25.5921 9.49226L25.5263 10.0783L25.4659 10.6804L25.4109 11.2985L25.3613 11.932L25.3172 12.5806L25.2784 13.2438L25.2451 13.9214L25.2172 14.6128L25.1947 15.3177L25.1776 16.0356L25.1659 16.7661L25.1595 17.5087L25.1585 18.263L25.1628 19.0285L25.1723 19.8048L25.1872 20.5914L25.2072 21.3878L25.2325 22.1935L25.2629 23.008L25.2985 23.8309L25.3391 24.6615L25.3848 25.4996L25.4356 26.3444L25.4912 27.1954L25.5518 28.0523L25.6173 28.9144L25.6876 29.7812L25.7626 30.6522L25.8424 31.5269L25.9268 32.4046L26.0158 33.2849L26.1093 34.1673L26.2074 35.0511L26.3098 35.9359L26.4166 36.8211L26.5276 37.7062L26.6429 38.5906L26.7623 39.4737L26.8857 40.3551L27.0132 41.2342L27.1446 42.1104L27.2798 42.9832L27.4188 43.8521L27.5615 44.7166L27.7078 45.576L27.8576 46.43L28.0109 47.2778L28.1675 48.1191L28.3274 48.9534L28.4906 49.78L28.6568 50.5985L28.826 51.4084L28.9982 52.2091L29.1732 53.0003L29.351 53.7813L29.5314 54.5518L29.7145 55.3112L29.9 56.0591L30.0879 56.795L30.2781 57.5184L30.4705 58.229L30.665 58.9263L30.8615 59.6097L31.06 60.279L31.2602 60.9338L31.4622 61.5735L31.6659 62.1978L31.8711 62.8063L32.0777 63.3987L32.2857 63.9745L32.4949 64.5335L32.7053 65.0752L32.9168 65.5994L33.1292 66.1057L33.3425 66.5937L33.5565 67.0633L33.7713 67.5141L33.9866 67.9458L34.2024 68.3581L34.4185 68.7508L34.635 69.1237L34.8517 69.4765L35.0684 69.8091L35.2852 70.1211L35.5019 70.4124L35.7184 70.6828L35.9346 70.9322L36.1505 71.1603L36.3659 71.3671L36.5807 71.5525L36.795 71.7162L37.0084 71.8582L37.2211 71.9784L37.4329 72.0768L37.6436 72.1532L37.8533 72.2077L38.0618 72.2401L38.269 72.2505L38.4749 72.2388L38.6794 72.2051L38.8824 72.1494L39.0838 72.0716L39.2835 71.9719L39.4814 71.8504L39.6775 71.707L39.8717 71.5418L40.0639 71.3551L40.254 71.1468L40.442 70.9171L40.6278 70.6661L40.8113 70.3941L40.9924 70.1011L41.1711 69.7873L41.3472 69.453L41.5208 69.0983L41.6918 68.7235L41.8601 68.3287L42.0255 67.9142L42.1882 67.4804L42.3479 67.0273L42.5047 66.5554L42.6584 66.0648L42.8091 65.556L42.9566 65.0292L43.101 64.4847L43.242 63.9229L43.3798 63.3441L43.5142 62.7486L43.6453 62.1369L43.7728 61.5093L43.8969 60.8662L44.0174 60.2079L44.1343 59.535L44.2475 58.8478L44.3571 58.1466L44.463 57.4321L44.5651 56.7045L44.6634 55.9643L44.7578 55.2121L44.8484 54.4482L44.935 53.6731L45.0178 52.8874L45.0965 52.0914L45.1713 51.2856L45.242 50.4707L45.3087 49.647L45.3713 48.815L45.4298 47.9754L45.4842 47.1285L45.5344 46.275L45.5805 45.4153L45.6224 44.55L45.6601 43.6796L45.6936 42.8046L45.7229 41.9255L45.7479 41.043L45.7687 40.1576L45.7853 39.2697L45.7976 38.38L45.8056 37.489L45.8094 36.5973L45.809 35.7053L45.8042 34.8136L45.7952 33.9228L45.782 33.0335L45.7645 32.1461L45.7427 31.2613L45.7167 30.3795L45.6865 29.5014L45.6521 28.6273L45.6135 27.758L45.5706 26.8939L45.5236 26.0355L45.4725 25.1834L45.4172 24.3381L45.3578 23.5001L45.2942 22.67L45.2267 21.8482L45.155 21.0352L45.0794 20.2316L44.9998 19.4378L44.9161 18.6544L44.8286 17.8818L44.7372 17.1204L44.6419 16.3708L44.5427 15.6334L44.4398 14.9087L44.3331 14.1971L44.2227 13.499L44.1086 12.8149L43.9909 12.1452L43.8696 11.4903L43.7448 10.8506L43.6165 10.2265L43.4847 9.61832L43.3495 9.02654L43.211 8.45147L43.0692 7.89347L42.9241 7.35287L42.7759 6.83002L42.6245 6.32522L42.4701 5.83879L42.3127 5.37102L42.1523 4.9222L41.989 4.49261L41.8229 4.08251L41.6541 3.69214L41.4825 3.32175L41.3083 2.97156L41.1316 2.64178L40.9524 2.33262L40.7707 2.04426L40.5867 1.77688L40.4005 1.53064L40.212 1.3057L40.0214 1.10217L39.8287 0.920199L39.6341 0.759883L39.4376 0.621322L39.2393 0.504598L39.0392 0.409781L38.8375 0.336926L38.6341 0.286075L38.4293 0.257258L38.2231 0.250488L38.0156 0.265769L37.8068 0.303087L37.5969 0.362417L37.3859 0.44372L37.174 0.546943L36.9611 0.672019L36.7474 0.81887L36.5331 0.987401L36.3181 1.17751L36.1026 1.38907L35.8866 1.62195L35.6703 1.87601L35.4538 2.15108L35.2371 2.447L35.0203 2.76358L34.8035 3.10062L34.5869 3.45791L34.3705 3.83523L34.1544 4.23234L33.9387 4.649L33.7235 5.08495L33.5089 5.53992L33.2951 6.01362L33.082 6.50576L32.8697 7.01604L32.6585 7.54414L32.4484 8.08973L32.2394 8.65247L32.0317 9.23201L31.8254 9.828L31.6205 10.4401L31.4172 11.0678L31.2156 11.7109L31.0157 12.3689L30.8177 13.0414L30.6216 13.7279L30.4276 14.4282L30.2356 15.1417L30.0459 15.8679L29.8586 16.6065L29.6736 17.357L29.4912 18.1189L29.3113 18.8918L29.1341 19.6751L28.9597 20.4684L28.7882 21.2713L28.6196 22.0831L28.4541 22.9034L28.2917 23.7318L28.1325 24.5676L27.9766 25.4104L27.824 26.2597L27.675 27.1149L27.5295 27.9755L27.3876 28.841L27.2495 29.7108L27.1151 30.5844L26.9846 31.4613L26.858 32.341L26.7354 33.2228L26.6169 34.1063L26.5026 34.9909L26.3925 35.876L26.2867 36.7612L26.1852 37.6458L26.0882 38.5293L25.9956 39.4113L25.9077 40.2911L25.8243 41.1682L25.7455 42.0421L25.6716 42.9122L25.6023 43.778L25.5379 44.639L25.4784 45.4946L25.4239 46.3444L25.3743 47.1877L25.3297 48.0241L25.2901 48.8531L25.2557 49.6742L25.2264 50.4868L25.2023 51.2904L25.1834 52.0847L25.1698 52.869L25.1614 53.643L25.1583 54.406L25.1605 55.1578L25.1681 55.8978L25.181 56.6255L25.1993 57.3405L25.223 58.0425L25.2521 58.7308L25.2866 59.4053L25.3265 60.0653L25.3718 60.7106L25.4226 61.3407L25.4788 61.9552L25.5404 62.5538L25.6075 63.1362L25.6799 63.7019L25.7577 64.2506L25.841 64.782L25.9295 65.2958L26.0235 65.7917L26.1227 66.2693L26.2273 66.7284L26.3371 67.1686L26.4521 67.5899L26.5724 67.9917L26.6978 68.3741L26.8283 68.7366L26.964 69.0791L27.1047 69.4015L27.2503 69.7034L27.401 69.9847L27.5565 70.2454L27.7169 70.4851L27.882 70.7037L28.0519 70.9012L28.2264 71.0775L28.4055 71.2323L28.5891 71.3657L28.7772 71.4776L28.9697 71.5678L29.1664 71.6364L29.3674 71.6833L29.5725 71.7085L29.7817 71.712L29.9948 71.6938L30.2118 71.6539L30.4326 71.5924L30.6571 71.5092L30.8852 71.4045L31.1168 71.2784L31.3517 71.1308L31.59 70.9619L31.8314 70.7719L32.0759 70.5608L32.3234 70.3288L32.5737 70.076L32.8268 69.8026L33.0825 69.5088L33.3407 69.1948L33.6013 68.8607L33.8641 68.5068L34.129 68.1332L34.396 67.7404L34.6649 67.3284L34.9355 66.8975L35.2077 66.4481L35.4814 65.9804L35.7564 65.4946L36.0327 64.9912L36.31 64.4704L36.5883 63.9326L36.8674 63.378L37.1471 62.807L37.4274 62.2201L37.708 61.6175L37.9889 60.9996L38.2698 60.3669L38.5507 59.7196L38.8313 59.0583L39.1117 58.3833L39.3915 57.6951L39.6706 56.994L39.949 56.2805L40.2264 55.5551L40.5027 54.8183L40.7777 54.0703L41.0514 53.3118L41.3235 52.5432L41.5939 51.765L41.8624 50.9776L42.129 50.1816L42.3934 49.3774L42.6555 48.5656L42.9152 47.7466L43.1722 46.9209L43.4265 46.0891L43.678 45.2516L43.9264 44.4091L44.1716 43.5619L44.4135 42.7106L44.6519 41.8559L44.8867 40.998L45.1177 40.1377L45.3449 39.2754L45.568 38.4117L45.787 37.5471L46.0017 36.6821L46.2119 35.8172L46.4176 34.953L46.6185 34.0901L46.8147 33.2289L47.0058 32.3699L47.1919 31.5138L47.3729 30.661L47.5484 29.812L47.7186 28.9674L47.8832 28.1277L48.0421 27.2933L48.1953 26.4649L48.3425 25.6428L48.4838 24.8277L48.619 24.02L48.748 23.2201L48.8707 22.4287L48.987 21.6461L49.0969 20.8729L49.2002 20.1094L49.2968 19.3562L49.3868 18.6138L49.4699 17.8825L49.5461 17.1629L49.6154 16.4553L49.6777 15.7602L49.7329 15.078L49.7809 14.4091L49.8217 13.7539L49.8553 13.1129L49.8816 12.4863L49.9006 11.8746L49.9121 11.2781L49.9162 10.6973L49.9129 10.1324L49.902 9.58376L49.8837 9.05174L49.8578 8.53665L49.8243 8.03879L49.7832 7.55846L49.7346 7.09594L49.6784 6.65151L49.6146 6.22543L49.5432 5.81795L49.4642 5.42931L49.3777 5.05973L49.2836 4.70944L49.182 4.37863L49.0728 4.06749L48.9562 3.77622L48.8321 3.50496L48.7006 3.25388L48.5618 3.02313L48.4156 2.81281L48.2621 2.62307L48.1015 2.45399L47.9336 2.30567L47.7587 2.17819L47.5767 2.07162L47.3878 1.986L47.192 1.92138L46.9894 1.87777L46.7801 1.85521L46.5641 1.85368L46.3416 1.87318L46.1127 1.91368L45.8774 1.97513L45.6359 2.0575L45.3882 2.16072L45.1346 2.2847L44.875 2.42937L44.6097 2.59462L44.3387 2.78033L44.0622 2.98638L43.7803 3.21262L43.4932 3.45892L43.2009 3.72509L42.9037 4.01098L42.6016 4.31638L42.2948 4.6411L41.9836 4.98492L41.6679 5.34763L41.3481 5.72898L41.0242 6.12874L40.6964 6.54664L40.3649 6.98242L40.0298 7.43579L39.6914 7.90647L39.3498 8.39416L39.0052 8.89855L38.6577 9.41931L38.3076 9.95611L37.9551 10.5086L37.6003 11.0765L37.2434 11.6594L36.8846 12.2569L36.5241 12.8686L36.1621 13.4942L35.7989 14.1333L35.4345 14.7855L35.0692 15.4503L34.7033 16.1274L34.3368 16.8163L33.9701 17.5166L33.6033 18.2278L33.2366 18.9496L32.8703 19.6814L32.5045 20.4229L32.1395 21.1735L31.7754 21.9327L31.4126 22.7002L31.0511 23.4754L30.6912 24.2579L30.3331 25.0471L29.977 25.8426L29.6232 26.6439L29.2718 27.4504L28.9231 28.2618L28.5772 29.0775L28.2344 29.8969L27.8948 30.7197L27.5588 31.5452L27.2264 32.3729L26.8979 33.2025L26.5735 34.0333L26.2533 34.8648L25.9377 35.6965L25.6267 36.528L25.3207 37.3587L25.0197 38.1881L24.7239 39.0157L24.4336 39.841L24.149 40.6634L23.8702 41.4825L23.5973 42.2979L23.3307 43.1089L23.0704 43.9151L22.8166 44.716L22.5696 45.5112L22.3294 46.3L22.0962 47.0821L21.8702 47.8571L21.6516 48.6243L21.4405 49.3833L21.237 50.1338L21.0413 50.8752L20.8535 51.6071L20.6738 52.329L20.5023 53.0406L20.3391 53.7414L20.1843 54.4309L20.0382 55.1088L19.9007 55.7746L19.772 56.428L19.6522 57.0685L19.5414 57.6958L19.4398 58.3095L19.3473 58.9093L19.264 59.4948L19.1902 60.0656L19.1258 60.6213L19.0708 61.1618L19.0255 61.6866L18.9897 62.1955L18.9637 62.6881L18.9474 63.1642L18.9408 63.6235L18.9441 64.0657L18.9572 64.4905L18.9802 64.8978L19.0131 65.2872L19.0558 65.6586L19.1086 66.0117L19.1712 66.3464L19.2437 66.6625L19.3262 66.9597L19.4186 67.2379L19.5208 67.497L19.6329 67.7368L19.7548 67.9572L19.8865 68.1581L20.028 68.3393L20.1791 68.5008L20.3399 68.6425L20.5102 68.7643L20.6901 68.8662L20.8794 68.9481L21.0781 69.0099L21.2861 69.0518L21.5032 69.0736L21.7294 69.0753L21.9647 69.0571L22.2088 69.0188L22.4617 68.9606L22.7232 68.8825L22.9933 68.7845L23.2718 68.6669L23.5585 68.5295L23.8534 68.3726L24.1563 68.1962L24.467 68.0006L24.7854 67.7857L25.1113 67.5518L25.4445 67.299L25.785 67.0275L26.1324 66.7376L26.4867 66.4292L26.8476 66.1028L27.215 65.7585L27.5886 65.3965L27.9683 65.017L28.3538 64.6204L28.7451 64.2069L29.1417 63.7767L29.5436 63.3301L29.9505 62.8674L30.3622 62.3889L30.7784 61.895L31.199 61.3859L31.6237 60.8619L32.0522 60.3235L32.4844 59.7708L32.92 59.2044L33.3587 58.6245L33.8003 58.0316L34.2445 57.4259L34.6912 56.8079L35.14 56.178L35.5906 55.5365L36.0429 54.8839L36.4965 54.2206L36.9513 53.547L37.4069 52.8635L37.863 52.1705L38.3195 51.4685L38.776 50.7579L39.2323 50.0392L39.6881 49.3128L40.1431 48.5792L40.5971 47.8387L41.0498 47.092L41.5008 46.3393L41.9501 45.5813L42.3972 44.8184L42.842 44.051L43.2841 43.2796L43.7232 42.5047L44.1592 41.7268L44.5917 40.9463L45.0205 40.1638L45.4453 39.3796L45.8659 38.5944L46.2819 37.8085L46.6932 37.0225L47.0994 36.2368L47.5004 35.4519L47.8958 34.6684L48.2855 33.8866L48.6691 33.107L49.0465 32.3302L49.4173 31.5565L49.7814 30.7866L50.1385 30.0207L50.4883 29.2595L50.8308 28.5032L51.1655 27.7526L51.4924 27.0078L51.8111 26.2695L52.1216 25.538L52.4235 24.8139L52.7166 24.0974L53.0009 23.3891L53.276 22.6894L53.5418 21.9987L53.7981 21.3175L54.0447 20.646L54.2814 19.9848L54.5082 19.3341L54.7247 18.6945L54.931 18.0662L55.1267 17.4497L55.3118 16.8453L55.4861 16.2534L55.6495 15.6743L55.8018 15.1083L55.943 14.5558L56.0729 14.0171L56.1914 13.4926L56.2985 12.9825L56.3939 12.4871L56.4777 12.0067L56.5497 11.5415L56.6098 11.092L56.6581 10.6582L56.6944 10.2405L56.7187 9.83909L56.7309 9.45418L56.731 9.08601L56.719 8.73478L56.6948 8.40068L56.6584 8.0839L56.6098 7.7846L56.549 7.50296L56.476 7.23913L56.3908 6.99323L56.2934 6.76541L56.1839 6.55579L56.0623 6.36445L55.9285 6.19152L55.7828 6.03705L55.625 5.90114L55.4553 5.78384L55.2738 5.6852L55.0805 5.60525L54.8756 5.54403L54.659 5.50155L54.4309 5.47781L54.1914 5.4728L53.9406 5.48651L53.6787 5.51891L53.4057 5.56994L53.1218 5.63956L52.8271 5.72771L52.5218 5.8343L52.206 5.95925L51.88 6.10246L51.5438 6.26382L51.1976 6.44321L50.8416 6.6405L50.476 6.85554L50.101 7.08819L49.7169 7.33827L49.3237 7.60562L48.9217 7.89004L48.5111 8.19136L48.0922 8.50935L47.6651 8.84381L47.2302 9.1945L46.7876 9.56121L46.3376 9.94367L45.8804 10.3416L45.4163 10.7549L44.9456 11.1831L44.4685 11.626L43.9853 12.0833L43.4962 12.5547L43.0016 13.0399L42.5017 13.5386L41.9968 14.0504L41.4872 14.5751L40.9731 15.1124L40.455 15.6617L39.933 16.2229L39.4075 16.7955L38.8788 17.3793L38.3472 17.9737L37.813 18.5785L37.2765 19.1932L36.7381 19.8175L36.198 20.451L35.6566 21.0932L35.1141 21.7439L34.571 22.4025L34.0275 23.0686L33.484 23.7419L32.9407 24.4219L32.3981 25.1082L31.8564 25.8004L31.316 26.498L30.7772 27.2007L30.2402 27.9079L29.7056 28.6192L29.1735 29.3343L28.6443 30.0526L28.1183 30.7737L27.5958 31.4971L27.0773 32.2225L26.5629 32.9494L26.053 33.6774L25.5479 34.4059L25.0479 35.1345L24.5535 35.8629L24.0647 36.5905L23.582 37.317L23.1057 38.0418L22.6361 38.7646L22.1734 39.4848L21.718 40.2021L21.2701 40.9161L20.8301 41.6263L20.3982 42.3322L19.9746 43.0335L19.5598 43.7297L19.1539 44.4204L18.7572 45.1053L18.3699 45.7838L17.9924 46.4556L17.6249 47.1203L17.2675 47.7775L16.9206 48.4268L16.5844 49.0678L16.2591 49.7002L15.945 50.3235L15.6422 50.9375L15.3509 51.5416L15.0714 52.1357L14.8038 52.7193L14.5484 53.2921L14.3053 53.8538L14.0747 54.404L13.8568 54.9425L13.6517 55.4689L13.4595 55.9828L13.2805 56.4841L13.1147 56.9724L12.9624 57.4475L12.8235 57.9091L12.6982 58.3569L12.5867 58.7906L12.489 59.2101L12.4052 59.615L12.3355 60.0053L12.2797 60.3806L12.2382 60.7407L12.2108 61.0855L12.1976 61.4147L12.1988 61.7283L12.2142 62.0259L12.244 62.3076L12.2881 62.573L12.3466 62.8221L12.4194 63.0547L12.5066 63.2708L12.6081 63.4703L12.7238 63.6529L12.8538 63.8187L12.998 63.9676L13.1564 64.0995L13.3288 64.2143L13.5152 64.3121L13.7156 64.3927L13.9298 64.4561L14.1577 64.5025L14.3992 64.5316L14.6543 64.5436L14.9227 64.5385L15.2044 64.5163L15.4992 64.477L15.807 64.4207L16.1275 64.3474L16.4607 64.2573L16.8064 64.1504L17.1643 64.0267L17.5343 63.8865L17.9162 63.7298L18.3098 63.5567L18.7149 63.3673L19.1312 63.1619L19.5586 62.9405L19.9967 62.7033L20.4454 62.4505L20.9044 62.1822L21.3734 61.8987L21.8522 61.6001L22.3405 61.2867L22.8381 60.9587L23.3446 60.6162L23.8598 60.2596L24.3834 59.889L24.915 59.5047L25.4544 59.1069L26.0013 58.696L26.5553 58.2722L27.1162 57.8358L27.6835 57.387L28.257 56.9261L28.8364 56.4536L29.4212 55.9695L30.0113 55.4744L30.6061 54.9684L31.2054 54.4519L31.8088 53.9253L32.4159 53.3889L33.0265 52.8429L33.64 52.2879L34.2563 51.7241L34.8748 51.1518L35.4953 50.5715L36.1173 49.9835L36.7405 49.3882L37.3645 48.7859L37.989 48.177L38.6135 47.5619L39.2377 46.9411L39.8612 46.3148L40.4836 45.6834L41.1045 45.0475L41.7236 44.4072L42.3405 43.7631L42.9549 43.1156L43.5662 42.465L44.1742 41.8117L44.7785 41.1562L45.3787 40.4988L45.9744 39.84L46.5653 39.1801L47.151 38.5195L47.7312 37.8587L48.3054 37.1981L48.8733 36.538L49.4346 35.8788L49.9889 35.221L50.5359 34.5649L51.0752 33.911L51.6064 33.2596L52.1293 32.6111L52.6435 31.9659L53.1487 31.3244L53.6445 30.687L54.1307 30.054L54.6068 29.4259L55.0727 28.8029L55.528 28.1856L55.9725 27.5741L56.4057 26.969L56.8275 26.3705L57.2376 25.7789L57.6357 25.1948L58.0215 24.6183L58.3947 24.0498L58.7552 23.4896L59.1027 22.9382L59.437 22.3957L59.7578 21.8625L60.0648 21.3389L60.358 20.8253L60.6371 20.3218L60.9018 19.8288L61.1521 19.3466L61.3877 18.8754L61.6085 18.4155L61.8143 17.9671L62.0049 17.5306L62.1802 17.1061L62.3401 16.6938L62.4845 16.2941L62.6132 15.9071L62.7261 15.5331L62.8231 15.1721L62.9042 14.8246L62.9693 14.4905L63.0183 14.1701L63.0511 13.8636L63.0677 13.5711L63.068 13.2927L63.0521 13.0287L63.0199 12.7791L62.9714 12.5441L62.9065 12.3237L62.8254 12.1182L62.728 11.9275L62.6144 11.7518L62.4846 11.5911L62.3386 11.4455L62.1766 11.3151L61.9985 11.2L61.8045 11.1001L61.5947 11.0154L61.3691 10.9461L61.1279 10.8921L60.8711 10.8535L60.599 10.8301L60.3116 10.8221L60.0092 10.8293L59.6918 10.8518L59.3596 10.8895L59.0128 10.9423L58.6516 11.0102L58.2763 11.0931L57.8869 11.191L57.4837 11.3037L57.0669 11.4312L56.6368 11.5732L56.1936 11.7299L55.7375 11.9009L55.2688 12.0862L54.7878 12.2856L54.2947 12.499L53.7899 12.7262L53.2735 12.9671L52.7459 13.2215L52.2075 13.4891L51.6584 13.7699L51.0991 14.0636L50.5298 14.3701L49.9509 14.689L49.3627 15.0202L48.7656 15.3635L48.1599 15.7186L47.5459 16.0854L46.9241 16.4634L46.2947 16.8526L45.6583 17.2526L45.015 17.6632L44.3653 18.084L43.7097 18.515L43.0484 18.9556L42.382 19.4058L41.7107 19.8651L41.0349 20.3333L40.3552 20.81L39.6719 21.2951L38.9853 21.7881L38.296 22.2887L37.6043 22.7967L36.9106 23.3117L36.2154 23.8334L35.5191 24.3614L34.8221 24.8955L34.1249 25.4353L33.4277 25.9804L32.7312 26.5306L32.0357 27.0854L31.3416 27.6445L30.6493 28.2077L29.9594 28.7744L29.2721 29.3445L28.588 29.9175L27.9074 30.4931L27.2307 31.0709L26.5585 31.6506L25.891 32.2319L25.2288 32.8143L24.5722 33.3976L23.9216 33.9813L23.2775 34.5651L22.6402 35.1488L22.0101 35.7318L21.3877 36.3139L20.7733 36.8948L20.1673 37.474L19.5701 38.0513L18.9821 38.6262L18.4036 39.1985L17.8351 39.7679L17.2767 40.3339L16.7291 40.8962L16.1923 41.4546L15.6669 42.0087L15.1532 42.5581L14.6514 43.1026L14.162 43.6418L13.6852 44.1755L13.2213 44.7032L12.7706 45.2248L12.3335 45.7399L11.9101 46.2482L11.5009 46.7494L11.106 47.2433L10.7258 47.7296L10.3604 48.2079L10.0102 48.6781L9.67529 49.1398L9.35597 49.5928L9.05245 50.0369L8.76494 50.4718L8.49363 50.8973L8.23872 51.3131L8.00037 51.719L7.77877 52.1148L7.57406 52.5002L7.3864 52.8752L7.21592 53.2394L7.06276 53.5927L6.92703 53.9349L6.80884 54.2658L6.70828 54.5852L6.62544 54.893L6.5604 55.189L6.51321 55.4731L6.48394 55.7451L6.47263 56.0049L6.4793 56.2524L6.50399 56.4875L6.54669 56.71L6.6074 56.9198L6.68612 57.1168L6.78283 57.3011L6.89747 57.4723L7.03002 57.6307L7.18041 57.7759L7.34858 57.908L7.53445 58.027L7.73792 58.1327L7.95891 58.2253L8.19729 58.3046L8.45294 58.3706L8.72573 58.4233L9.01553 58.4628L9.32216 58.489L9.64547 58.5019L9.98529 58.5017L10.3414 58.4882L10.7137 58.4616L11.1019 58.4219L11.5057 58.3691L11.9251 58.3034L12.3597 58.2248L12.8092 58.1333L13.2736 58.0291L13.7523 57.9122L14.2453 57.7828L14.7522 57.641L15.2728 57.4868L15.8066 57.3204L16.3535 57.142L16.9131 56.9516L17.4851 56.7495L18.069 56.5357L18.6647 56.3104L19.2718 56.0739L19.8898 55.8261L20.5185 55.5674L21.1574 55.2979L21.8062 55.0179L22.4646 54.7274L23.132 54.4267L23.8081 54.116L24.4926 53.7955L25.1849 53.4654L25.8848 53.126L26.5917 52.7775L27.3053 52.42L28.025 52.0539L28.7506 51.6794L29.4816 51.2967L30.2174 50.9061L30.9577 50.5078L31.7021 50.1021L32.45 49.6893L33.201 49.2696L33.9547 48.8432L34.7106 48.4105L35.4683 47.9717L36.2272 47.5271L36.987 47.077L37.7471 46.6217L38.5072 46.1613L39.2666 45.6964L40.0251 45.227L40.782 44.7536L41.537 44.2764L42.2896 43.7956L43.0392 43.3117L43.7856 42.8248L44.5281 42.3353L45.2663 41.8436L45.9999 41.3497L46.7282 40.8542L47.4509 40.3572L48.1676 39.8592L48.8777 39.3602L49.5809 38.8608L50.2766 38.3611L50.9646 37.8615L51.6442 37.3623L52.3152 36.8637L52.9771 36.366L53.6294 35.8696L54.2718 35.3747L54.9039 34.8816L55.5252 34.3907L56.1354 33.9021L56.7341 33.4162L57.3208 32.9333L57.8954 32.4536L58.4572 31.9773L59.0061 31.5049L59.5417 31.0365L60.0636 30.5724L60.5714 30.1129L61.0649 29.6582L61.5438 29.2086L62.0076 28.7644L62.4562 28.3257L62.8893 27.8928L63.3065 27.466L63.7076 27.0455L64.0922 26.6315L64.4603 26.2243L64.8115 25.8241L65.1456 25.431L65.4623 25.0454L65.7615 24.6673L66.0429 24.2971L66.3064 23.9348L66.5518 23.5808L66.7789 23.2351L66.9876 22.898L67.1776 22.5696L67.3489 22.2501L67.5014 21.9397L67.6349 21.6385L67.7493 21.3466L67.8445 21.0643L67.9205 20.7916L67.9772 20.5287L68.0145 20.2757L68.0325 20.0327L68.031 19.7998L68.01 19.5772L67.9695 19.3649L67.9097 19.1631L67.8303 18.9718L67.7316 18.7911L67.6134 18.621L67.476 18.4618L67.3192 18.3133L67.1433 18.1757L66.9483 18.0489L66.7343 17.9332L66.5014 17.8284L66.2498 17.7346L65.9795 17.6519L65.6908 17.5802L65.3837 17.5196L65.0585 17.47L64.7153 17.4315L64.3543 17.404L63.9758 17.3875L63.5799 17.382L63.1668 17.3875L62.7369 17.404L62.2903 17.4313L61.8272 17.4694L61.3481 17.5183L60.8531 17.578L60.3426 17.6482L59.8167 17.7291L59.276 17.8205L58.7205 17.9222L58.1508 18.0343L57.567 18.1566L56.9697 18.289L56.359 18.4313L55.7354 18.5836L55.0993 18.7457L54.4509 18.9174L53.7908 19.0986L53.1193 19.2891L52.4368 19.4889L51.7437 19.6978L51.0404 19.9156L50.3273 20.1422L49.6049 20.3775L48.8736 20.6211L48.1339 20.8731L47.3862 21.1331L46.6308 21.4011L45.8684 21.6769L45.0993 21.9602L44.3241 22.2509L43.5431 22.5488L42.7569 22.8536L41.966 23.1653L41.1707 23.4835L40.3717 23.8081L39.5693 24.1388L38.7642 24.4755L37.9567 24.818L37.1473 25.166L36.3366 25.5192L35.525 25.8776L34.7131 26.2408L33.9014 26.6086L33.0903 26.9808L32.2803 27.3572L31.4719 27.7375L30.6657 28.1215L29.8621 28.509L29.0616 28.8997L28.2648 29.2935L27.472 29.6899L26.6839 30.0889L25.9008 30.4901L25.1233 30.8934L24.3519 31.2985L23.5869 31.7051L22.829 32.1131L22.0786 32.5221L21.336 32.932L20.6019 33.3425L19.8767 33.7533L19.1607 34.1642L18.4545 34.5751L17.7585 34.9855L17.0731 35.3954L16.3988 35.8045L15.736 36.2125L15.0851 36.6192L14.4465 37.0244L13.8206 37.4278L13.2078 37.8293L12.6085 38.2286L12.023 38.6255L11.4518 39.0197L10.8952 39.4111L10.3536 39.7994L9.82726 40.1844L9.31655 40.5659L8.8218 40.9438L8.34333 41.3177L7.88145 41.6876L7.43644 42.0531L7.0086 42.4142L6.5982 42.7705L6.20551 43.122L5.83079 43.4685L5.47427 43.8097L5.13619 44.1455L4.81678 44.4757L4.51624 44.8002L4.23477 45.1187L3.97256 45.4312L3.72979 45.7374L3.50661 46.0373L3.30319 46.3306L3.11966 46.6173L2.95616 46.8971L2.81278 47.17L2.68965 47.4358L2.58685 47.6944L2.50446 47.9457L2.44254 48.1895L2.40116 48.4258L2.38034 48.6544L2.38013 48.8753L2.40053 49.0883L2.44154 49.2933L2.50317 49.4903L2.58538 49.6792L2.68814 49.8599L2.8114 50.0324L2.95511 50.1965L3.11919 50.3522L3.30356 50.4995L3.50811 50.6382L3.73273 50.7684L3.97731 50.89L4.24171 51.003L4.52578 51.1074L4.82936 51.203L5.15227 51.2899L5.49434 51.3682L5.85537 51.4377L6.23515 51.4984L6.63346 51.5504L7.05007 51.5937L7.48474 51.6283L7.93721 51.6541L8.40722 51.6713L8.8945 51.6798L9.39875 51.6796L9.91968 51.6709L10.457 51.6536L11.0103 51.6277L11.5794 51.5934L12.1639 51.5507L12.7634 51.4996L13.3776 51.4402L14.0061 51.3725L14.6485 51.2967L15.3045 51.2128L15.9736 51.1209L16.6556 51.0211L17.3498 50.9134L18.056 50.7979L18.7737 50.6749L19.5025 50.5442L20.2419 50.4061L20.9915 50.2606L21.7509 50.108L22.5195 49.9481L23.2969 49.7813L24.0826 49.6076L24.8763 49.4272L25.6773 49.2401L26.4852 49.0465L27.2995 48.8466L28.1197 48.6404L28.9453 48.4281L29.7758 48.2099L30.6108 47.9859L31.4496 47.7562L32.2918 47.5211L33.1368 47.2806L33.9842 47.0349L34.8334 46.7841L35.6839 46.5285L36.5353 46.2682L37.3868 46.0033L38.2382 45.734L39.0887 45.4605L39.9379 45.183L40.7853 44.9016L41.6304 44.6164L42.4726 44.3278L43.3114 44.0357L44.1463 43.7405L44.9768 43.4423L45.8024 43.1413L46.6225 42.8375L47.4367 42.5313L48.2444 42.2228L49.0452 41.9122L49.8385 41.5997L50.624 41.2853L51.4009 40.9694L52.169 40.6521L52.9277 40.3336L53.6766 40.014L54.4151 39.6936L55.1428 39.3725L55.8594 39.0509L56.5642 38.7289L57.257 38.4068L57.9372 38.0847L58.6044 37.7628L59.2582 37.4413L59.8982 37.1204L60.5241 36.8001L61.1353 36.4808L61.7316 36.1625L62.3125 35.8454L62.8777 35.5298L63.4269 35.2157L63.9596 34.9033L64.4756 34.5928L64.9745 34.2844L65.456 33.9782L65.9198 33.6743L66.3657 33.3729L66.7932 33.0742L67.2022 32.7784L67.5924 32.4855L67.9636 32.1957L68.3154 31.9091L68.6477 31.626L68.9603 31.3463L69.253 31.0704L69.5255 30.7982L69.7777 30.53L70.0095 30.2658L70.2206 30.0058L70.4109 29.7501L70.5804 29.4988L70.7289 29.252L70.8562 29.0099L70.9624 28.7725L71.0473 28.54L71.1108 28.3124L71.153 28.0899L71.1737 27.8726L71.173 27.6605L71.1509 27.4537L71.1072 27.2524L71.0422 27.0565L70.9557 26.8663L70.8479 26.6817L70.7188 26.5028L70.5684 26.3298L70.3969 26.1626L70.2043 26.0014L69.9908 25.8461L69.7564 25.6969L69.5013 25.5538L69.2257 25.4168L68.9297 25.286L68.6135 25.1614L68.2772 25.0432L67.9211 24.9312L67.5454 24.8255L67.1502 24.7262L66.7359 24.6333L66.3027 24.5468L65.8508 24.4667L65.3805 24.3931L64.892 24.3258L64.3858 24.2651L63.862 24.2108L63.321 24.1629L62.7631 24.1215L62.1887 24.0865L61.5981 24.0579L60.9916 24.0358L60.3696 24.02L59.7325 24.0106L59.0807 24.0076L58.4146 24.0109L57.7346 24.0205L57.041 24.0364L56.3343 24.0584L55.615 24.0867L54.8834 24.1211L54.1401 24.1616L53.3854 24.2081L52.6198 24.2607L51.8439 24.3192L51.0579 24.3835L50.2626 24.4537L49.4582 24.5297L48.6454 24.6113L47.8246 24.6986L46.9963 24.7915L46.161 24.8898L45.3193 24.9936L44.4716 25.1027L43.6184 25.217L42.7604 25.3365L41.8979 25.4612L41.0316 25.5908L40.1619 25.7253L39.2895 25.8647L38.4148 26.0088L37.5383 26.1576L36.6607 26.3109L35.7824 26.4686L34.904 26.6307L34.0261 26.7971L33.1491 26.9676L32.2736 27.1421L31.4001 27.3206L30.5292 27.5029L29.6615 27.6889L28.7974 27.8786L27.9374 28.0717L27.0822 28.2682L26.2322 28.468L25.388 28.671L24.5501 28.8771L23.719 29.086L22.8952 29.2978L22.0792 29.5123L21.2715 29.7294L20.4727 29.9489L19.6831 30.1708L18.9034 30.3949L18.134 30.6211L17.3753 30.8493L16.6279 31.0794L15.8921 31.3112L15.1686 31.5446L14.4576 31.7796L13.7596 32.0159L13.0752 32.2535L12.4046 32.4922L11.7483 32.7319L11.1068 32.9726L10.4804 33.214L9.86951 33.4561L9.2745 33.6987L8.69575 33.9418L8.13363 34.1851L7.58848 34.4287L7.06063 34.6723L6.55043 34.9158L6.05819 35.1592L5.58421 35.4023L5.1288 35.645L4.69224 35.8872L4.2748 36.1288L3.87674 36.3696L3.49832 36.6096L3.13977 36.8486L2.80132 37.0865L2.48317 37.3233L2.18555 37.5588L1.90862 37.7929L1.65256 38.0255L1.41755 38.2565L1.20372 38.4858L1.01122 38.7133L0.840171 38.9389L0.690681 39.1625L0.562849 39.384L0.456759 39.6033L0.372481 39.8203L0.310072 40.035L0.269577 40.2472L0.251026 40.4568L0.254436 40.6638L0.279809 40.8681L0.327135 41.0696L0.396392 41.2682L0.48754 41.4638L0.600531 41.6564L0.735298 41.8458L0.891765 42.032L1.06984 42.215L1.26942 42.3946L1.49038 42.5708L1.7326 42.7435L1.99593 42.9127L2.28022 43.0783L2.58529 43.2402L2.91096 43.3983L3.25703 43.5527L3.6233 43.7032L4.00955 43.8499L4.41554 43.9925L4.84103 44.1312L5.28575 44.2658L5.74945 44.3964L6.23184 44.5227L6.73263 44.645L7.25151 44.7629L7.78816 44.8767L8.34227 44.9861L8.91349 45.0912L9.50148 45.192L10.1059 45.2883L10.7263 45.3803L11.3624 45.4678L12.0138 45.5508L12.68 45.6294L13.3608 45.7034L14.0555 45.7729L14.7639 45.8379L15.4855 45.8983L16.2199 45.9542L16.9665 46.0055L17.7251 46.0521L18.495 46.0943L19.2758 46.1318L20.067 46.1647L20.8682 46.193L21.6789 46.2167L22.4985 46.2358L23.3266 46.2504L24.1626 46.2603L25.0061 46.2657L25.8565 46.2665L26.7134 46.2628L27.5761 46.2546L28.4441 46.2418L29.317 46.2246L30.1941 46.2028L31.075 46.1767L31.9591 46.146L32.8458 46.111L33.7347 46.0716L34.6251 46.0278L35.5165 45.9798L36.4085 45.9274L37.3003 45.8708L38.1915 45.8099L39.0816 45.7449L39.9699 45.6757L40.856 45.6024L41.7393 45.525L42.6192 45.4436L43.4952 45.3582L44.3668 45.2689L45.2335 45.1757L46.0946 45.0786L46.9497 44.9778L47.7983 44.8732L48.6397 44.7649L49.4736 44.653L50.2994 44.5375L51.1165 44.4184L51.9246 44.2959L52.723 44.17L53.5113 44.0407L54.289 43.9081L55.0557 43.7722L55.8108 43.6332L56.5539 43.4911L57.2845 43.3459L58.0023 43.1978L58.7066 43.0467L59.3972 42.8928L60.0735 42.7361L60.7353 42.5767L61.382 42.4147L62.0132 42.2501L62.6286 42.083L63.2278 41.9134L63.8105 41.7415L64.3762 41.5674L64.9246 41.391L65.4554 41.2125L65.9682 41.0319L66.4628 40.8493L66.9388 40.6649L67.396 40.4786L67.834 40.2906L68.2526 40.1009L68.6515 39.9097L69.0305 39.7169L69.3894 39.5227L69.7279 39.3272L70.0458 39.1303L70.3429 38.9324L70.6191 38.7333L70.8742 38.5332L71.1079 38.3321L71.3202 38.1302L71.511 37.9275L71.6801 37.7242L71.8274 37.5202L71.9528 37.3157L72.0563 37.1108L72.1378 36.9055L72.1972 36.7L72.2344 36.4943L72.2496 36.2884" stroke="url(#paint0_linear_113_3101)" stroke-width="0.5"/>
<defs>
<linearGradient id="paint0_linear_113_3101" x1="0.25" y1="36.2505" x2="72.25" y2="36.2505" gradientUnits="userSpaceOnUse">
<stop offset="0.0288462" stop-color="#2E99DB"/>
<stop offset="0.5" stop-color="#2C8BCA"/>
<stop offset="1"/>
</linearGradient>
</defs>
</svg>
