<svg width="98" height="98" viewBox="0 0 98 98" fill="none" xmlns="http://www.w3.org/2000/svg">
<g opacity="0.66">
<path fill-rule="evenodd" clip-rule="evenodd" d="M26.5133 75.0396C39.1553 87.6817 60.0941 87.2584 73.676 73.6766C87.2578 60.0947 87.6811 39.1559 75.0391 26.5139C73.0681 24.5429 60.6074 33.8079 47.2074 47.208C33.8073 60.608 24.5423 73.0687 26.5133 75.0396ZM40.4899 82.1872C51.4314 85.231 63.9623 82.2007 73.0812 73.0818C82.2001 63.9629 85.2304 51.432 82.1866 40.4904C83.95 50.6727 80.2324 62.3617 71.2968 71.2974C62.3611 80.233 50.6721 83.9507 40.4899 82.1872ZM70.702 70.7026C61.3553 80.0493 48.9909 83.513 38.663 80.8908C48.2913 82.2142 59.8115 78.0243 68.9176 68.9182C78.0237 59.8121 82.2136 48.2918 80.8902 38.6636C83.5124 48.9915 80.0487 61.3559 70.702 70.7026ZM36.8631 79.66C46.5231 81.857 58.7164 77.9297 68.3228 68.3234C77.9291 58.717 81.8564 46.5237 79.6594 36.8637C79.9016 39.3581 79.7196 42.0276 79.1348 44.7767C77.6012 51.9861 73.2945 59.7828 66.5384 66.539C59.7822 73.2951 51.9855 77.6018 44.7761 79.1354C42.027 79.7202 39.3575 79.9022 36.8631 79.66ZM44.6531 78.2823C41.2656 79.0029 38.0338 79.0893 35.1303 78.5182C37.5989 78.6373 40.3047 78.2656 43.1263 77.4448C49.8948 75.4759 57.4131 70.9058 64.1592 64.1598C70.9052 57.4137 75.4753 49.8953 77.4442 43.1269C78.265 40.3053 78.6367 37.5994 78.5176 35.1309C79.0887 38.0344 79.0023 41.2662 78.2817 44.6537C76.7907 51.6633 72.5874 59.3003 65.9436 65.9442C59.2997 72.588 51.6627 76.7913 44.6531 78.2823ZM33.5171 77.4732C36.2875 77.9094 39.4932 77.6103 42.9382 76.6082C49.5276 74.6913 56.9104 70.2189 63.5644 63.565C70.2183 56.911 74.6907 49.5282 76.6076 42.9388C77.6097 39.4937 77.9088 36.2881 77.4726 33.5176C77.4367 35.912 76.8372 38.6177 75.7501 41.4796C73.3478 47.8042 68.5165 55.044 61.78 61.7806C55.0434 68.5171 47.8036 73.3484 41.479 75.7507C38.6171 76.8378 35.9115 77.4373 33.5171 77.4732ZM41.2208 74.9376C37.7249 76.2655 34.5835 76.8088 32.0099 76.5327C34.2622 76.3133 36.9265 75.4537 39.8338 74.0524C45.712 71.2194 52.6732 66.1289 59.4008 59.4014C66.1283 52.6738 71.2188 45.7126 74.0518 39.8344C75.4531 36.9271 76.3127 34.2628 76.5322 32.0105C76.8082 34.5841 76.2649 37.7255 74.937 41.2214C72.5925 47.3936 67.8487 54.5223 61.1852 61.1858C54.5217 67.8493 47.393 72.5931 41.2208 74.9376ZM30.6196 75.7096C31.0294 75.7255 31.4636 75.7125 31.9214 75.6704C34.0426 75.4756 36.621 74.6594 39.5013 73.2712C45.2588 70.4963 52.1335 65.479 58.806 58.8066C65.4784 52.1341 70.4957 45.2594 73.2706 39.5019C74.6588 36.6216 75.475 34.0432 75.6698 31.922C75.7119 31.4642 75.7249 31.03 75.709 30.6202C75.6767 30.7728 75.6405 30.9275 75.6006 31.0843C75.0986 33.0559 73.9771 35.4783 72.3488 38.1904C69.0886 43.6205 63.7408 50.303 57.0216 57.0222C50.3024 63.7414 43.6199 69.0891 38.1898 72.3494C35.4777 73.9777 33.0553 75.0992 31.0837 75.6012C30.9269 75.6411 30.7722 75.6773 30.6196 75.7096ZM30.9255 74.7564C30.0258 74.9855 29.2719 75.0653 28.6579 75.0127C33.1788 73.3998 43.4515 65.2391 54.345 54.3456C65.2385 43.4521 73.3992 33.1794 75.0122 28.6585C75.0647 29.2725 74.9849 30.0264 74.7558 30.9261C74.2854 32.7733 73.2151 35.1061 71.609 37.7812C68.4001 43.1257 63.1076 49.7465 56.4268 56.4274C49.7459 63.1082 43.1251 68.4007 37.7806 71.6096C35.1055 73.2157 32.7727 74.286 30.9255 74.7564ZM73.9077 27.1485C74.2501 27.0925 74.3724 27.1394 74.3995 27.1534C74.4135 27.1806 74.4604 27.3028 74.4044 27.6452C74.334 28.0752 74.1244 28.6834 73.741 29.4758C72.9786 31.051 71.6279 33.1559 69.769 35.6559C66.06 40.6442 60.4275 47.0734 53.7502 53.7508C47.0729 60.4281 40.6437 66.0606 35.6553 69.7696C33.1553 71.6285 31.0504 72.9792 29.4752 73.7415C28.6828 74.125 28.0746 74.3346 27.6446 74.405C27.3022 74.461 27.18 74.4141 27.1528 74.4001C27.1388 74.373 27.0919 74.2507 27.1479 73.9083C27.2183 73.4783 27.4279 72.8702 27.8114 72.0777C28.5737 70.5025 29.9245 68.3976 31.7833 65.8976C35.4924 60.9093 41.1248 54.4801 47.8022 47.8028C54.4795 41.1254 60.9087 35.4929 65.897 31.7839C68.397 29.9251 70.5019 28.5743 72.0772 27.812C72.8696 27.4285 73.4777 27.2189 73.9077 27.1485Z" fill="url(#paint0_linear_113_3092)"/>
<path fill-rule="evenodd" clip-rule="evenodd" d="M22.8998 71.4257C10.2578 58.7836 10.6811 37.8448 24.2629 24.263C37.8447 10.6812 58.7835 10.2579 71.4256 22.8999C73.3966 24.8709 64.1315 37.3316 50.7315 50.7316C37.3315 64.1316 24.8708 73.3967 22.8998 71.4257ZM15.7523 57.4491C12.7085 46.5076 15.7388 33.9767 24.8577 24.8578C33.9766 15.7389 46.5075 12.7086 57.449 15.7524C47.2668 13.9889 35.5777 17.7066 26.6421 26.6422C17.7065 35.5778 13.9888 47.2669 15.7523 57.4491ZM27.2369 27.237C17.8902 36.5837 14.4265 48.948 17.0486 59.2759C15.7253 49.6477 19.9152 38.1275 29.0213 29.0214C38.1274 19.9153 49.6476 15.7254 59.2758 17.0487C48.9479 14.4266 36.5836 17.8903 27.2369 27.237ZM18.2795 61.0759C16.0825 51.4158 20.0098 39.2225 29.6161 29.6162C39.2224 20.0099 51.4158 16.0826 61.0758 18.2796C58.5813 18.0373 55.9119 18.2194 53.1628 18.8042C45.9534 20.3378 38.1566 24.6444 31.4005 31.4006C24.6443 38.1567 20.3377 45.9535 18.8041 53.1629C18.2193 55.912 18.0372 58.5814 18.2795 61.0759ZM19.6571 53.2858C18.9365 56.6734 18.8502 59.9051 19.4213 62.8086C19.3021 60.3401 19.6738 57.6343 20.4946 54.8127C22.4635 48.0442 27.0336 40.5259 33.7797 33.7798C40.5258 27.0337 48.0441 22.4636 54.8126 20.4947C57.6342 19.6739 60.34 19.3023 62.8085 19.4214C59.905 18.8503 56.6733 18.9366 53.2857 19.6572C46.2761 21.1483 38.6392 25.3515 31.9953 31.9954C25.3514 38.6393 21.1482 46.2763 19.6571 53.2858ZM20.4663 64.4219C20.03 61.6514 20.3291 58.4458 21.3313 55.0007C23.2481 48.4113 27.7205 41.0285 34.3745 34.3746C41.0284 27.7206 48.4112 23.2482 55.0006 21.3314C58.4457 20.3292 61.6513 20.0301 64.4218 20.4664C62.0274 20.5022 59.3218 21.1017 56.4598 22.1888C50.1352 24.5912 42.8954 29.4225 36.1589 36.159C29.4224 42.8955 24.5911 50.1353 22.1887 56.4599C21.1016 59.3219 20.5021 62.0275 20.4663 64.4219ZM23.0019 56.7182C21.674 60.214 21.1307 63.3555 21.4067 65.9291C21.6262 63.6768 22.4858 61.0125 23.887 58.1051C26.7201 52.227 31.8105 45.2658 38.5381 38.5382C45.2657 31.8106 52.2269 26.7202 58.105 23.8871C61.0124 22.4859 63.6767 21.6263 65.929 21.4068C63.3554 21.1308 60.2139 21.6741 56.7181 23.002C50.5459 25.3465 43.4172 30.0903 36.7537 36.7538C30.0902 43.4173 25.3464 50.546 23.0019 56.7182ZM22.2298 67.3194C22.2139 66.9096 22.2269 66.4754 22.269 66.0175C22.4639 63.8964 23.28 61.318 24.6682 58.4377C27.4431 52.6802 32.4604 45.8054 39.1329 39.133C45.8053 32.4606 52.6801 27.4433 58.4376 24.6683C61.3179 23.2802 63.8963 22.464 66.0174 22.2691C66.4753 22.2271 66.9094 22.214 67.3193 22.2299C67.1667 22.2622 67.0119 22.2984 66.8552 22.3383C64.8835 22.8404 62.4612 23.9618 59.749 25.5902C54.319 28.8504 47.6365 34.1982 40.9173 40.9174C34.1981 47.6366 28.8503 54.3191 25.5901 59.7491C23.9617 62.4613 22.8403 64.8836 22.3382 66.8553C22.2983 67.012 22.2621 67.1668 22.2298 67.3194ZM23.183 67.0135C22.9539 67.9132 22.8741 68.6671 22.9267 69.2811C24.5396 64.7602 32.7004 54.4875 43.5939 43.594C54.4874 32.7005 64.7601 24.5397 69.281 22.9268C68.667 22.8742 67.9131 22.9541 67.0134 23.1832C65.1661 23.6535 62.8334 24.7238 60.1583 26.33C54.8138 29.5388 48.1929 34.8314 41.5121 41.5122C34.8313 48.193 29.5387 54.8139 26.3299 60.1584C24.7237 62.8335 23.6534 65.1662 23.183 67.0135ZM70.7909 24.0312C70.8469 23.6889 70.8 23.5666 70.786 23.5395C70.7589 23.5255 70.6366 23.4786 70.2943 23.5346C69.8642 23.6049 69.2561 23.8145 68.4637 24.198C66.8885 24.9603 64.7835 26.3111 62.2836 28.1699C57.2952 31.879 50.866 37.5115 44.1887 44.1888C37.5114 50.8661 31.8789 57.2953 28.1698 62.2837C26.311 64.7836 24.9602 66.8886 24.1979 68.4638C23.8144 69.2562 23.6048 69.8643 23.5345 70.2944C23.4785 70.6367 23.5254 70.759 23.5393 70.7861C23.5665 70.8001 23.6888 70.847 24.0311 70.791C24.4612 70.7207 25.0693 70.5111 25.8617 70.1276C27.4369 69.3653 29.5419 68.0145 32.0418 66.1557C37.0302 62.4466 43.4594 56.8141 50.1367 50.1368C56.814 43.4595 62.4465 37.0303 66.1556 32.0419C68.0144 29.542 69.3652 27.437 70.1275 25.8618C70.511 25.0694 70.7206 24.4613 70.7909 24.0312Z" fill="url(#paint1_linear_113_3092)"/>
</g>
<defs>
<linearGradient id="paint0_linear_113_3092" x1="36.1788" y1="84.7052" x2="84.7046" y2="36.1794" gradientUnits="userSpaceOnUse">
<stop offset="0.0288462" stop-color="#2E99DB"/>
<stop offset="0.5" stop-color="#2C8BCA"/>
<stop offset="1"/>
</linearGradient>
<linearGradient id="paint1_linear_113_3092" x1="13.2343" y1="61.7602" x2="61.7601" y2="13.2344" gradientUnits="userSpaceOnUse">
<stop offset="0.0288462" stop-color="#2E99DB"/>
<stop offset="0.5" stop-color="#2C8BCA"/>
<stop offset="1"/>
</linearGradient>
</defs>
</svg>
