<svg width="73" height="73" viewBox="0 0 73 73" fill="none" xmlns="http://www.w3.org/2000/svg">
<path d="M54.7961 36.2501L54.7927 36.989L54.7826 37.7276L54.7658 38.4656L54.7422 39.2026L54.7118 39.9384L54.6748 40.6727L54.631 41.4051L54.5806 42.1353L54.5235 42.863L54.4597 43.5879L54.3893 44.3098L54.3123 45.0282L54.2288 45.743L54.1386 46.4537L54.042 47.1601L53.9388 47.862L53.8293 48.5589L53.7133 49.2506L53.5909 49.9369L53.4622 50.6174L53.3272 51.2918L53.186 51.9599L53.0386 52.6214L52.8851 53.276L52.7255 53.9233L52.5598 54.5633L52.3882 55.1955L52.2107 55.8197L52.0273 56.4357L51.8382 57.0432L51.6433 57.6419L51.4428 58.2315L51.2367 58.812L51.0251 59.3829L50.808 59.944L50.5856 60.4952L50.3579 61.0362L50.125 61.5667L49.887 62.0865L49.644 62.5954L49.396 63.0933L49.1431 63.5798L48.8855 64.0549L48.6232 64.5182L48.3562 64.9696L48.0848 65.4089L47.809 65.8359L47.5288 66.2504L47.2445 66.6523L46.956 67.0415L46.6635 67.4176L46.3672 67.7806L46.067 68.1304L45.7631 68.4667L45.4556 68.7894L45.1446 69.0985L44.8303 69.3937L44.5127 69.675L44.1919 69.9422L43.8681 70.1952L43.5413 70.4339L43.2118 70.6583L42.8796 70.8682L42.5447 71.0635L42.2075 71.2441L41.8678 71.4101L41.526 71.5612L41.182 71.6975L40.8361 71.8189L40.4883 71.9253L40.1388 72.0167L39.7877 72.0931L39.435 72.1545L39.0811 72.2007L38.7258 72.2318L38.3695 72.2478L38.0122 72.2487L37.654 72.2344L37.2951 72.2051L36.9357 72.1606L36.5757 72.101L36.2154 72.0264L35.8548 71.9368L35.4942 71.8322L35.1336 71.7127L34.7732 71.5782L34.4131 71.429L34.0534 71.265L33.6942 71.0862L33.3358 70.8929L32.9781 70.6851L32.6214 70.4628L32.2658 70.2262L31.9114 69.9753L31.5583 69.7103L31.2066 69.4313L30.8565 69.1384L30.5081 68.8317L30.1616 68.5114L29.817 68.1775L29.4745 67.8303L29.1342 67.4699L28.7962 67.0965L28.4606 66.7101L28.1277 66.311L27.7974 65.8993L27.4699 65.4753L27.1454 65.039L26.8239 64.5907L26.5056 64.1306L26.1906 63.6588L25.879 63.1756L25.5709 62.6812L25.2664 62.1758L24.9657 61.6596L24.6688 61.1327L24.3759 60.5956L24.087 60.0482L23.8024 59.491L23.522 58.9242L23.246 58.3479L22.9745 57.7624L22.7075 57.168L22.4453 56.5649L22.1878 55.9534L21.9353 55.3338L21.6877 54.7062L21.4452 54.0711L21.2079 53.4285L20.9758 52.7789L20.749 52.1224L20.5277 51.4595L20.3119 50.7902L20.1017 50.115L19.8972 49.4341L19.6984 48.7478L19.5055 48.0564L19.3184 47.3602L19.1374 46.6594L18.9624 45.9545L18.7935 45.2456L18.6309 44.5331L18.4744 43.8172L18.3243 43.0984L18.1806 42.3768L18.0433 41.6528L17.9124 40.9266L17.7882 40.1987L17.6705 39.4693L17.5595 38.7387L17.4551 38.0072L17.3575 37.2752L17.2667 36.5429L17.1826 35.8106L17.1055 35.0787L17.0352 34.3474L16.9718 33.6171L16.9154 32.8881L16.866 32.1607L16.8236 31.4352L16.7882 30.7119L16.7599 29.991L16.7386 29.273L16.7244 28.5581L16.7173 27.8466V27.1387L16.7244 26.4349L16.7386 25.7354L16.76 25.0405L16.7884 24.3504L16.824 23.6656L16.8667 22.9862L16.9165 22.3125L16.9734 21.6449L17.0373 20.9835L17.1084 20.3288L17.1865 19.6809L17.2716 19.0401L17.3637 18.4067L17.4628 17.781L17.5689 17.1632L17.6818 16.5536L17.8017 15.9524L17.9284 15.3599L18.0619 14.7764L18.2022 14.202L18.3493 13.637L18.503 13.0817L18.6634 12.5362L18.8303 12.0009L19.0038 11.4759L19.1837 10.9614L19.3701 10.4577L19.5628 9.96499L19.7619 9.48344L19.9671 9.01326L20.1786 8.55464L20.3961 8.10778L20.6196 7.67287L20.8491 7.25008L21.0845 6.83958L21.3257 6.44154L21.5725 6.05614L21.8251 5.68352L22.0831 5.32384L22.3466 4.97725L22.6155 4.64388L22.8897 4.32388L23.169 4.01738L23.4534 3.72449L23.7428 3.44534L24.0371 3.18005L24.3362 2.92871L24.64 2.69143L24.9483 2.46831L25.2612 2.25942L25.5784 2.06487L25.8998 1.88472L26.2254 1.71904L26.555 1.56791L26.8885 1.43137L27.2258 1.30948L27.5668 1.20229L27.9113 1.10983L28.2593 1.03214L28.6105 0.969255L28.965 0.921187L29.3225 0.887953L29.6829 0.86956L30.0461 0.866012L30.412 0.877301L30.7805 0.903428L31.1513 0.944364L31.5244 1.00009L31.8997 1.07058L32.2769 1.1558L32.6561 1.25571L33.0369 1.37025L33.4193 1.49938L33.8032 1.64304L34.1884 1.80115L34.5748 1.97365L34.9622 2.16046L35.3505 2.36149L35.7395 2.57666L36.1292 2.80587L36.5192 3.04901L36.9097 3.30599L37.3002 3.57668L37.6908 3.86096L38.0813 4.15872L38.4715 4.46982L38.8613 4.79412L39.2506 5.13148L39.6392 5.48176L40.0269 5.8448L40.4136 6.22045L40.7992 6.60854L41.1835 7.00891L41.5664 7.42137L41.9477 7.84576L42.3273 8.28188L42.7051 8.72955L43.0808 9.18858L43.4544 9.65877L43.8257 10.1399L44.1946 10.6318L44.561 11.1342L44.9246 11.647L45.2853 12.1699L45.6431 12.7026L45.9978 13.245L46.3492 13.7968L46.6972 14.3578L47.0417 14.9277L47.3825 15.5063L47.7195 16.0934L48.0526 16.6886L48.3816 17.2919L48.7064 17.9028L49.027 18.5211L49.343 19.1466L49.6545 19.779L49.9614 20.418L50.2634 21.0634L50.5604 21.7149L50.8524 22.3722L51.1393 23.035L51.4208 23.703L51.697 24.3761L51.9676 25.0538L52.2327 25.7359L52.492 26.4221L52.7454 27.1121L52.993 27.8056L53.2344 28.5023L53.4698 29.202L53.6989 29.9043L53.9216 30.609L54.138 31.3157L54.3478 32.0242L54.551 32.7341L54.7475 33.4451L54.9372 34.157L55.1201 34.8695L55.296 35.5822L55.4649 36.2948L55.6268 37.0071L55.7814 37.7188L55.9288 38.4295L56.0689 39.1389L56.2016 39.8468L56.3269 40.5529L56.4448 41.2568L56.555 41.9583L56.6577 42.6571L56.7527 43.3529L56.8401 44.0454L56.9197 44.7342L56.9915 45.4192L57.0554 46.1L57.1115 46.7764L57.1597 47.448L57.2 48.1146L57.2324 48.7759L57.2567 49.4316L57.2731 50.0815L57.2814 50.7253L57.2817 51.3628L57.2739 51.9935L57.2581 52.6174L57.2342 53.2341L57.2023 53.8434L57.1622 54.445L57.1141 55.0387L57.058 55.6243L56.9937 56.2014L56.9214 56.7699L56.8411 57.3295L56.7528 57.88L56.6565 58.4212L56.5522 58.9528L56.44 59.4747L56.3198 59.9866L56.1918 60.4882L56.0559 60.9795L55.9122 61.4602L55.7608 61.93L55.6016 62.3889L55.4347 62.8366L55.2602 63.273L55.0782 63.6978L54.8886 64.1109L54.6916 64.5121L54.4872 64.9014L54.2755 65.2784L54.0565 65.643L53.8304 65.9952L53.5971 66.3348L53.3568 66.6616L53.1095 66.9755L52.8554 67.2763L52.5945 67.5641L52.3269 67.8386L52.0527 68.0997L51.7719 68.3474L51.4848 68.5815L51.1913 68.802L50.8917 69.0087L50.5859 69.2016L50.2741 69.3807L49.9564 69.5458L49.633 69.6969L49.3038 69.8339L48.9692 69.9568L48.629 70.0656L48.2836 70.1601L47.933 70.2404L47.5774 70.3065L47.2167 70.3583L46.8513 70.3959L46.4813 70.4191L46.1066 70.4281L45.7276 70.4227L45.3443 70.4031L44.9569 70.3693L44.5656 70.3212L44.1703 70.2589L43.7714 70.1824L43.369 70.0918L42.9631 69.9871L42.554 69.8683L42.1418 69.7357L41.7267 69.5891L41.3088 69.4286L40.8882 69.2544L40.4652 69.0665L40.0398 68.8651L39.6124 68.6501L39.1829 68.4217L38.7516 68.1801L38.3186 67.9252L37.8841 67.6573L37.4483 67.3764L37.0113 67.0827L36.5733 66.7763L36.1345 66.4574L35.695 66.126L35.255 65.7824L34.8147 65.4266L34.3742 65.0589L33.9337 64.6794L33.4934 64.2883L33.0535 63.8857L32.614 63.4718L32.1753 63.0469L31.7374 62.611L31.3006 62.1644L30.8649 61.7072L30.4306 61.2398L29.9979 60.7621L29.5669 60.2746L29.1378 59.7774L28.7107 59.2707L28.2859 58.7546L27.8634 58.2296L27.4435 57.6957L27.0264 57.1532L26.6121 56.6023L26.2009 56.0433L25.7929 55.4764L25.3883 54.9019L24.9873 54.3199L24.5899 53.7308L24.1965 53.1348L23.8071 52.5322L23.4218 51.9231L23.041 51.308L22.6646 50.6869L22.2929 50.0603L21.926 49.4283L21.564 48.7912L21.2072 48.1494L20.8556 47.503L20.5095 46.8524L20.1689 46.1977L19.8339 45.5394L19.5049 44.8777L19.1817 44.2128L18.8647 43.545L18.5539 42.8747L18.2495 42.2021L17.9516 41.5274L17.6604 40.851L17.3758 40.1732L17.0982 39.4942L16.8276 38.8143L16.564 38.1338L16.3077 37.453L16.0588 36.7722L15.8173 36.0916L15.5833 35.4116L15.357 34.7324L15.1385 34.0544L14.9278 33.3777L14.7251 32.7027L14.5305 32.0296L14.344 31.3588L14.1657 30.6905L13.9957 30.025L13.8341 29.3626L13.681 28.7035L13.5365 28.0481L13.4005 27.3965L13.2733 26.7491L13.1547 26.1061L13.045 25.4678L12.9442 24.8344L12.8523 24.2063L12.7693 23.5836L12.6954 22.9667L12.6306 22.3558L12.5748 21.751L12.5282 21.1528L12.4908 20.5613L12.4626 19.9768L12.4436 19.3994L12.4338 18.8295L12.4334 18.2673L12.4422 17.713L12.4603 17.1668L12.4878 16.629L12.5246 16.0997L12.5706 15.5793L12.626 15.0678L12.6908 14.5655L12.7648 14.0726L12.8481 13.5893L12.9406 13.1159L13.0425 12.6524L13.1535 12.199L13.2737 11.756L13.4031 11.3236L13.5417 10.9018L13.6893 10.491L13.8459 10.0911L14.0116 9.70243L14.1862 9.3251L14.3697 8.95927L14.5621 8.60506L14.7632 8.26263L14.973 7.9321L15.1915 7.61361L15.4185 7.30726L15.6541 7.01319L15.898 6.73151L16.1503 6.46231L16.4109 6.20572L16.6796 5.96181L16.9563 5.73069L17.2411 5.51243L17.5337 5.30713L17.8341 5.11484L18.1421 4.93565L18.4577 4.76961L18.7807 4.61678L19.1111 4.47722L19.4486 4.35098L19.7933 4.23808L20.1449 4.13858L20.5033 4.0525L20.8685 3.97987L21.2402 3.92069L21.6183 3.875L22.0028 3.84278L22.3933 3.82405L22.7899 3.81881L23.1924 3.82703L23.6005 3.84871L24.0142 3.88383L24.4333 3.93236L24.8577 3.99426L25.2871 4.06951L25.7214 4.15805L26.1605 4.25984L26.6042 4.37483L27.0523 4.50294L27.5047 4.64413L27.9611 4.79832L28.4215 4.96543L28.8855 5.14539L29.3531 5.3381L29.8241 5.54347L30.2982 5.76141L30.7754 5.99182L31.2553 6.23458L31.7379 6.4896L32.223 6.75674L32.7103 7.03588L33.1996 7.32691L33.6908 7.62968L34.1837 7.94406L34.6781 8.26991L35.1738 8.60709L35.6705 8.95543L36.1682 9.3148L36.6665 9.68502L37.1654 10.0659L37.6645 10.4574L38.1638 10.8592L38.6629 11.2711L39.1618 11.6931L39.6602 12.1249L40.1579 12.5663L40.6547 13.0171L41.1504 13.4771L41.6448 13.9462L42.1377 14.4241L42.6289 14.9107L43.1182 15.4056L43.6055 15.9087L44.0904 16.4199L44.5729 16.9387L45.0527 17.4651L45.5296 17.9989L46.0034 18.5397L46.474 19.0873L46.941 19.6416L47.4045 20.2023L47.8641 20.7691L48.3197 21.3417L48.771 21.9201L49.2179 22.5038L49.6602 23.0928L50.0978 23.6866L50.5304 24.2851L50.9578 24.8879L51.3799 25.495L51.7965 26.1059L52.2074 26.7205L52.6125 27.3385L53.0115 27.9595L53.4043 28.5835L53.7908 29.21L54.1708 29.8388L54.544 30.4698L54.9104 31.1025L55.2699 31.7368L55.6221 32.3723L55.967 33.0089L56.3045 33.6462L56.6343 34.284L56.9564 34.922L57.2706 35.5599L57.5767 36.1975L57.8747 36.8346L58.1643 37.4708L58.4456 38.1059L58.7182 38.7396L58.9822 39.3718L59.2374 40.002L59.4836 40.63L59.7209 41.2557L59.9489 41.8787L60.1678 42.4987L60.3772 43.1156L60.5773 43.7291L60.7677 44.3388L60.9486 44.9447L61.1197 45.5463L61.281 46.1436L61.4324 46.7362L61.5739 47.3238L61.7053 47.9064L61.8266 48.4835L61.9377 49.0551L62.0386 49.6208L62.1293 50.1804L62.2095 50.7337L62.2794 51.2805L62.3389 51.8205L62.3879 52.3536L62.4264 52.8795L62.4543 53.3981L62.4717 53.909L62.4785 54.4122L62.4747 54.9073L62.4602 55.3943L62.4352 55.8729L62.3994 56.3429L62.3531 56.8042L62.2961 57.2565L62.2285 57.6997L62.1503 58.1336L62.0614 58.558L61.962 58.9728L61.852 59.3779L61.7315 59.7729L61.6005 60.1579L61.459 60.5327L61.3071 60.897L61.1448 61.2508L60.9722 61.594L60.7894 61.9263L60.5963 62.2477L60.3931 62.5581L60.1798 62.8573L59.9565 63.1453L59.7233 63.4219L59.4802 63.687L59.2273 63.9405L58.9648 64.1823L58.6927 64.4124L58.411 64.6307L58.12 64.837L57.8197 65.0314L57.5102 65.2137L57.1917 65.3839L56.8642 65.5419L56.5278 65.6876L56.1828 65.8212L55.8292 65.9424L55.4671 66.0512L55.0967 66.1477L54.7181 66.2317L54.3315 66.3033L53.9369 66.3625L53.5347 66.4093L53.1248 66.4435L52.7076 66.4654L52.283 66.4747L51.8513 66.4716L51.4127 66.4561L50.9673 66.4282L50.5152 66.3879L50.0568 66.3352L49.5921 66.2703L49.1212 66.193L48.6445 66.1036L48.1621 66.0019L47.6742 65.8881L47.1809 65.7623L46.6825 65.6244L46.1791 65.4747L45.671 65.3131L45.1583 65.1397L44.6413 64.9547L44.1202 64.758L43.5951 64.5499L43.0663 64.3303L42.5339 64.0995L41.9983 63.8574L41.4596 63.6043L40.9179 63.3403L40.3737 63.0654L39.8269 62.7798L39.278 62.4836L38.7271 62.1769L38.1743 61.86L37.62 61.5329L37.0644 61.1958L36.5077 60.8488L35.95 60.4921L35.3917 60.1258L34.833 59.7502L34.2741 59.3653L33.7152 58.9714L33.1565 58.5686L32.5983 58.1571L32.0409 57.7371L31.4843 57.3087L30.9289 56.8722L30.3749 56.4277L29.8226 55.9754L29.272 55.5156L28.7236 55.0483L28.1774 54.5739L27.6338 54.0925L27.0929 53.6044L26.555 53.1097L26.0203 52.6086L25.489 52.1014L24.9614 51.5883L24.4376 51.0695L23.9179 50.5452L23.4025 50.0157L22.8917 49.4811L22.3855 48.9417L21.8843 48.3978L21.3883 47.8494L20.8976 47.297L20.4126 46.7407L19.9332 46.1807L19.4599 45.6173L18.9928 45.0508L18.532 44.4812L18.0779 43.909L17.6305 43.3343L17.1901 42.7574L16.7568 42.1785L16.3309 41.5978L15.9125 41.0156L15.5019 40.4322L15.0991 39.8477L14.7044 39.2624L14.3179 38.6766L13.9398 38.0905L13.5703 37.5043L13.2096 36.9183L12.8577 36.3327L12.5149 35.7478L12.1813 35.1638L11.857 34.5809L11.5423 33.9993L11.2371 33.4194L10.9418 32.8413L10.6564 32.2654L10.381 31.6917L10.1158 31.1205L9.86081 30.5522L9.61628 29.9868L9.38228 29.4247L9.15889 28.866L8.94625 28.311L8.74444 27.76L8.55357 27.213L8.37372 26.6704L8.20498 26.1324L8.04745 25.5991L7.90119 25.0709L7.76628 24.5478L7.64279 24.0301L7.53079 23.5181L7.43033 23.0118L7.34148 22.5116L7.26429 22.0176L7.19879 21.53L7.14504 21.049L7.10307 20.5748L7.07291 20.1075L7.0546 19.6474L7.04814 19.1946L7.05357 18.7493L7.07088 18.3117L7.1001 17.882L7.14123 17.4602L7.19425 17.0467L7.25917 16.6414L7.33598 16.2447L7.42465 15.8566L7.52516 15.4772L7.6375 15.1068L7.76162 14.7455L7.8975 14.3934L8.04508 14.0506L8.20433 13.7172L8.37519 13.3935L8.55761 13.0794L8.75152 12.7752L8.95687 12.4809L9.17358 12.1966L9.40157 11.9225L9.64077 11.6586L9.89109 11.4051L10.1524 11.1619L10.4247 10.9293L10.7079 10.7073L11.0017 10.4959L11.3062 10.2952L11.6212 10.1054L11.9466 9.92643L12.2823 9.75837L12.6281 9.60129L12.984 9.45524L13.3497 9.32025L13.7252 9.19637L14.1103 9.08364L14.5049 8.98208L14.9087 8.89172L15.3217 8.81259L15.7437 8.74469L16.1746 8.68805L16.6141 8.64266L17.0621 8.60854L17.5184 8.58567L17.9828 8.57406L18.4552 8.57369L18.9354 8.58454L19.4231 8.6066L19.9183 8.63985L20.4206 8.68425L20.93 8.73976L21.4461 8.80636L21.9688 8.88399L22.4979 8.97262L23.0332 9.07218L23.5744 9.18263L24.1214 9.3039L24.6739 9.43594L25.2317 9.57866L25.7946 9.732L26.3623 9.89587L26.9347 10.0702L27.5114 10.2549L28.0923 10.4499L28.6771 10.6551L29.2656 10.8704L29.8576 11.0956L30.4527 11.3307L31.0508 11.5757L31.6517 11.8302L32.255 12.0944L32.8605 12.3679L33.468 12.6507L34.0773 12.9427L34.688 13.2438L35.3 13.5537L35.9129 13.8724L36.5266 14.1998L37.1408 14.5356L37.7551 14.8797L38.3695 15.232L38.9835 15.5923L39.597 15.9605L40.2097 16.3364L40.8214 16.7199L41.4318 17.1107L42.0406 17.5087L42.6476 17.9138L43.2525 18.3257L43.8551 18.7443L44.4552 19.1694L45.0524 19.6008L45.6465 20.0383L46.2374 20.4818L46.8246 20.9311L47.4081 21.3859L47.9875 21.8461L48.5626 22.3115L49.1331 22.7819L49.6989 23.2571L50.2596 23.7369L50.815 24.2211L51.365 24.7094L51.9092 25.2018L52.4475 25.6979L52.9795 26.1976L53.5051 26.7006L54.0241 27.2069L54.5362 27.716L55.0413 28.228L55.539 28.7424L56.0292 29.2592L56.5116 29.778L56.9861 30.2988L57.4525 30.8212L57.9105 31.3451L58.36 31.8703L58.8007 32.3965L59.2325 32.9235L59.6552 33.4511L60.0686 33.9792L60.4725 34.5074L60.8667 35.0356L61.251 35.5635L61.6254 36.091L61.9896 36.6178L62.3434 37.1437L62.6868 37.6686L63.0195 38.1922L63.3414 38.7142L63.6523 39.2345L63.9522 39.7529L64.2409 40.2692L64.5182 40.7832L64.784 41.2946L65.0382 41.8032L65.2807 42.309L65.5114 42.8116L65.7301 43.3108L65.9368 43.8065L66.1314 44.2985L66.3137 44.7866L66.4837 45.2706L66.6413 45.7503L66.7864 46.2255L66.919 46.696L67.0389 47.1617L67.1462 47.6224L67.2407 48.0778L67.3224 48.5279L67.3912 48.9724L67.4472 49.4112L67.4903 49.8441L67.5204 50.271L67.5375 50.6916L67.5417 51.1059L67.5328 51.5136L67.5109 51.9146L67.476 52.3089L67.428 52.6961L67.367 53.0762L67.2931 53.449L67.2061 53.8144L67.1062 54.1723L66.9933 54.5225L66.8676 54.8649L66.729 55.1994L66.5775 55.5259L66.4133 55.8441L66.2364 56.1541L66.0468 56.4557L65.8447 56.7488L65.6301 57.0333L65.403 57.3091L65.1635 57.5761L64.9118 57.8342L64.648 58.0833L64.372 58.3233L64.0841 58.5542L63.7843 58.7759L63.4728 58.9883L63.1497 59.1913L62.815 59.3849L62.469 59.5689L62.1117 59.7434L61.7433 59.9083L61.364 60.0635L60.9738 60.2091L60.573 60.3448L60.1616 60.4708L59.74 60.5869L59.3081 60.6932L58.8662 60.7897L58.4145 60.8762L57.9531 60.9527L57.4823 61.0194L57.0022 61.0761L56.5129 61.1228L56.0148 61.1596L55.508 61.1864L54.9927 61.2033L54.4691 61.2102L53.9374 61.2072L53.3978 61.1943L52.8506 61.1715L52.296 61.1388L51.7342 61.0963L51.1653 61.044L50.5898 60.9819L50.0077 60.9101L49.4194 60.8287L48.825 60.7375L48.2248 60.6368L47.6191 60.5266L47.0081 60.4069L46.392 60.2778L45.7711 60.1394L45.1457 59.9917L44.516 59.8348L43.8823 59.6688L43.2448 59.4937L42.6038 59.3097L41.9595 59.1169L41.3123 58.9152L40.6624 58.7049L40.01 58.486L39.3555 58.2587L38.699 58.0229L38.041 57.7789L37.3815 57.5267L36.721 57.2665L36.0597 56.9984L35.3979 56.7224L34.7358 56.4388L34.0738 56.1476L33.412 55.8489L32.7508 55.543L32.0905 55.2299L31.4312 54.9097L30.7734 54.5827L30.1173 54.2489L29.4631 53.9085L28.8112 53.5616L28.1617 53.2084L27.5151 52.8491L26.8715 52.4837L26.2312 52.1125L25.5945 51.7355L24.9616 51.353L24.3329 50.9652L23.7086 50.5721L23.0889 50.1739L22.4741 49.7709L21.8646 49.3631L21.2604 48.9508L20.662 48.534L20.0695 48.1131L19.4832 47.6881L18.9034 47.2593L18.3303 46.8267L17.7641 46.3906L17.2051 45.9512L16.6535 45.5087L16.1096 45.0631L15.5736 44.6148L15.0457 44.1638L14.5262 43.7104L14.0153 43.2548L13.5131 42.7971L13.02 42.3375L12.5361 41.8761L12.0617 41.4133L11.5968 40.9491L11.1419 40.4838L10.697 40.0175L10.2623 39.5505L9.83802 39.0828L9.42439 38.6148L9.02155 38.1465L8.62968 37.6781L8.24896 37.2099L7.87955 36.7421L7.52163 36.2747L7.17533 35.808L6.84083 35.3423L6.51826 34.8775L6.20778 34.414L5.90952 33.9519L5.62362 33.4914L5.3502 33.0327L5.0894 32.576L4.84132 32.1213L4.60608 31.669L4.3838 31.2191L4.17456 30.7719L3.97848 30.3274L3.79564 29.886L3.62613 29.4477L3.47004 29.0128L3.32743 28.5813L3.19837 28.1535L3.08294 27.7294L2.98118 27.3094L2.89316 26.8934L2.81891 26.4818L2.75849 26.0745L2.71192 25.6719L2.67923 25.274L2.66046 24.8809L2.65562 24.4929L2.66471 24.1101L2.68775 23.7326L2.72474 23.3605L2.77568 22.994L2.84054 22.6332L2.91931 22.2783L3.01199 21.9293L3.11852 21.5865L3.23887 21.2499L3.37302 20.9196L3.52091 20.5958L3.68249 20.2785L3.8577 19.968L4.04648 19.6642L4.24876 19.3674L4.46446 19.0776L4.69351 18.7948L4.93581 18.5193L5.19128 18.2511L5.45981 17.9903L5.74131 17.737L6.03566 17.4912L6.34276 17.2532L6.66247 17.0228L6.99468 16.8002L7.33926 16.5856L7.69607 16.3788L8.06496 16.1801L8.4458 15.9895L8.83843 15.807L9.2427 15.6328L9.65843 15.4667L10.0855 15.309L10.5237 15.1597L10.9728 15.0187L11.4327 14.8861L11.9032 14.7621L12.3842 14.6465L12.8753 14.5395L13.3764 14.441L13.8874 14.3511L14.4079 14.2698L14.9379 14.1972L15.477 14.1332L16.025 14.0778L16.5818 14.0311L17.1471 13.993L17.7206 13.9636L18.3022 13.9429L18.8916 13.9308L19.4886 13.9273L20.0928 13.9324L20.7041 13.9462L21.3222 13.9685L21.9469 13.9994L22.5779 14.0389L23.2148 14.0868L23.8576 14.1433L24.5059 14.2081L25.1594 14.2814L25.8179 14.363L26.4811 14.453L27.1487 14.5512L27.8204 14.6576L28.496 14.7721L29.1752 14.8948L29.8576 15.0255L30.5431 15.1642L31.2313 15.3107L31.922 15.4652L32.6148 15.6273L33.3095 15.7972L34.0058 15.9747L34.7033 16.1597L35.4018 16.3522L36.101 16.552L36.8007 16.7591L37.5004 16.9733L38.2 17.1947L38.899 17.423L39.5974 17.6582L40.2946 17.9003L40.9905 18.149L41.6848 18.4042L42.3771 18.666L43.0671 18.9341L43.7547 19.2084L44.4394 19.4889L45.1211 19.7754L45.7993 20.0678L46.4739 20.3659L47.1445 20.6697L47.8108 20.979L48.4726 21.2937L49.1296 21.6137L49.7816 21.9388L50.4281 22.2689L51.0691 22.6039L51.7041 22.9436L52.3329 23.2879L52.9553 23.6367L53.5709 23.9897L54.1796 24.347L54.7811 24.7083L55.375 25.0734L55.9612 25.4423L56.5394 25.8148L57.1094 26.1907L57.6709 26.57L58.2236 26.9524L58.7674 27.3377L59.302 27.726L59.8271 28.1169L60.3426 28.5103L60.8482 28.9062L61.3437 29.3042L61.8289 29.7044L62.3036 30.1065L62.7676 30.5103L63.2206 30.9158L63.6626 31.3227L64.0932 31.7309L64.5123 32.1402L64.9197 32.5505L65.3153 32.9617L65.6988 33.3735L66.0702 33.7858L66.4291 34.1985L66.7756 34.6114L67.1094 35.0243L67.4304 35.4372L67.7384 35.8497L68.0333 36.2618L68.315 36.6734L68.5833 37.0842L68.8382 37.4941L69.0795 37.903L69.307 38.3106L69.5208 38.717L69.7207 39.1218L69.9066 39.525L70.0785 39.9264L70.2361 40.3258L70.3796 40.7232L70.5088 41.1183L70.6236 41.511L70.724 41.9012L70.81 42.2887L70.8814 42.6734L70.9383 43.0552L70.9807 43.4338L71.0085 43.8092L71.0216 44.1813L71.0201 44.5499L71.004 44.9148L70.9733 45.2759L70.9279 45.6332L70.8679 45.9865L70.7933 46.3356L70.7042 46.6804L70.6005 47.0208L70.4823 47.3567L70.3497 47.688L70.2026 48.0145L70.0412 48.3361L69.8655 48.6528L69.6755 48.9643L69.4714 49.2707L69.2532 49.5718L69.0211 49.8674L68.775 50.1576L68.5151 50.4421L68.2415 50.7209L67.9544 50.9939L67.6537 51.261L67.3397 51.5221L67.0125 51.7772L66.6722 52.026L66.3189 52.2686L65.9528 52.5049L65.574 52.7348L65.1827 52.9582L64.7791 53.175L64.3633 53.3852L63.9354 53.5888L63.4957 53.7855L63.0443 53.9754L62.5814 54.1585L62.1073 54.3345L61.622 54.5036L61.1259 54.6657L60.619 54.8206L60.1017 54.9684L59.5741 55.109L59.0364 55.2424L58.4889 55.3684L57.9318 55.4872L57.3653 55.5987L56.7897 55.7027L56.2052 55.7994L55.612 55.8886L55.0104 55.9704L54.4006 56.0447L53.7829 56.1115L53.1576 56.1709L52.5248 56.2227L51.885 56.267L51.2382 56.3038L50.5849 56.333L49.9253 56.3548L49.2595 56.369L48.5881 56.3757L47.9111 56.3749L47.2289 56.3665L46.5418 56.3507L45.8501 56.3275L45.154 56.2968L44.4539 56.2586L43.75 56.2131L43.0426 56.1601L42.3321 56.0999L41.6187 56.0323L40.9027 55.9574L40.1845 55.8753L39.4642 55.786L38.7423 55.6896L38.0191 55.586L37.2948 55.4754L36.5697 55.3578L35.8442 55.2331L35.1185 55.1016L34.393 54.9633L33.6679 54.8182L32.9437 54.6663L32.2205 54.5078L31.4986 54.3427L30.7785 54.171L30.0604 53.993L29.3445 53.8085L28.6312 53.6177L27.9209 53.4208L27.2137 53.2177L26.51 53.0085L25.8101 52.7933L25.1144 52.5723L24.4229 52.3455L23.7362 52.1129L23.0544 51.8748L22.3779 51.6311L21.7069 51.382L21.0418 51.1276L20.3827 50.8679L19.7301 50.6032L19.0841 50.3334L18.4451 50.0587L17.8132 49.7792L17.1889 49.495L16.5722 49.2062L15.9636 48.9129L15.3633 48.6153L14.7715 48.3134L14.1884 48.0074L13.6144 47.6973L13.0496 47.3834L12.4944 47.0657L11.9489 46.7443L11.4133 46.4194L10.888 46.091L10.3731 45.7594L9.86882 45.4246L9.37544 45.0868L8.89313 44.746L8.4221 44.4025L7.96255 44.0563L7.51469 43.7075L7.0787 43.3564L6.65477 43.003L6.24309 42.6475L5.84382 42.29L5.45714 41.9305L5.08323 41.5694L4.72223 41.2066L4.37431 40.8424L4.03961 40.4768L3.71828 40.1101L3.41047 39.7422L3.11629 39.3734L2.83589 39.0038L2.56938 38.6336L2.31687 38.2628L2.07849 37.8916L1.85432 37.5202L1.64448 37.1486L1.44905 36.7771L1.26812 36.4057L1.10177 36.0345L0.950067 35.6638L0.813092 35.2937L0.690895 34.9242L0.583539 34.5555L0.491067 34.1877L0.413525 33.8211L0.350948 33.4556L0.303369 33.0915L0.27081 32.7289L0.253284 32.3678L0.250807 32.0085L0.263387 31.6511L0.291012 31.2956L0.333682 30.9422L0.391381 30.5911L0.464089 30.2423L0.551775 29.8961L0.654409 29.5524L0.771952 29.2114L0.904353 28.8733L1.05157 28.5382L1.21353 28.2061L1.39018 27.8773L1.58143 27.5517L1.78723 27.2296L2.00748 26.9111L2.24209 26.5961L2.49097 26.285L2.75402 25.9777L3.03112 25.6745L3.32217 25.3753L3.62704 25.0802L3.94561 24.7895L4.27775 24.5032L4.62332 24.2214L4.98217 23.9441L5.35416 23.6716L5.73914 23.4038L6.13694 23.1409L6.5474 22.8829L6.97034 22.63L7.40561 22.3823L7.853 22.1397L8.31234 21.9025L8.78343 21.6706L9.26607 21.4443L9.76008 21.2234L10.2652 21.0082L10.7813 20.7986L11.3081 20.5948L11.8455 20.3969L12.3931 20.2048L12.9507 20.0187L13.5182 19.8386L14.0952 19.6646L14.6816 19.4967L15.2771 19.335L15.8814 19.1795L16.4943 19.0304L17.1155 18.8876L17.7448 18.7512L18.382 18.6212L19.0266 18.4977L19.6785 18.3807L20.3374 18.2703L21.0031 18.1665L21.6751 18.0692L22.3534 17.9787L23.0375 17.8948L23.7272 17.8176L24.4221 17.7472L25.1221 17.6835L25.8268 17.6265L26.5359 17.5764L27.2491 17.533L27.9661 17.4965L28.6867 17.4667L29.4104 17.4438L30.137 17.4278L30.8663 17.4185L31.5978 17.4161L32.3313 17.4205L33.0665 17.4317L33.803 17.4497L34.5406 17.4746L35.279 17.5062L36.0177 17.5446L36.7566 17.5897L37.4953 17.6416L38.2335 17.7002L38.9708 17.7655L39.7071 17.8375L40.4419 17.9161L41.1749 18.0012L41.9059 18.093L42.6345 18.1913L43.3605 18.2961L44.0834 18.4073L44.8031 18.5249L45.5192 18.649L46.2314 18.7793L46.9394 18.9159L47.643 19.0587L48.3417 19.2077L49.0353 19.3628L49.7236 19.5239L50.4062 19.6911L51.0829 19.8641L51.7533 20.0431L52.4172 20.2278L53.0742 20.4182L53.7242 20.6144L54.3669 20.8161L55.0019 21.0233L55.629 21.236L56.2479 21.454L56.8585 21.6773L57.4603 21.9058L58.0532 22.1395L58.6369 22.3781L59.2112 22.6218L59.7758 22.8702L60.3305 23.1235L60.875 23.3814L61.4092 23.6439L61.9327 23.9109L62.4454 24.1823L62.9471 24.458L63.4375 24.7379L63.9165 25.0219L64.3838 25.3099L64.8392 25.6018L65.2825 25.8974L65.7137 26.1968L66.1323 26.4997L66.5384 26.8061L66.9317 27.1159L67.3121 27.4288L67.6793 27.745L68.0333 28.0641L68.3739 28.3862L68.701 28.7111L69.0143 29.0386L69.3138 29.3687L69.5994 29.7012L69.8709 30.0361L70.1282 30.3732L70.3712 30.7123L70.5998 31.0534L70.8139 31.3964L71.0134 31.7411L71.1983 32.0874L71.3684 32.4352L71.5237 32.7843L71.6641 33.1347L71.7895 33.4861L71.9 33.8386L71.9954 34.1918L72.0757 34.5459L72.1409 34.9005L72.1909 35.2556L72.2258 35.6111L72.2455 35.9668L72.25 36.3225L72.2393 36.6783L72.2134 37.0339L72.1724 37.3893L72.1161 37.7442L72.0448 38.0986L71.9583 38.4523L71.8568 38.8053L71.7402 39.1573L71.6087 39.5084L71.4622 39.8582L71.3009 40.2068L71.1248 40.554L70.9339 40.8997L70.7284 41.2437L70.5084 41.5859L70.2739 41.9262L70.0251 42.2646L69.762 42.6007L69.4847 42.9347L69.1935 43.2662L68.8883 43.5953L68.5694 43.9218L68.2368 44.2455L67.8907 44.5664L67.5313 44.8843L67.1587 45.1992L66.7731 45.5109L66.3745 45.8193L65.9633 46.1243L65.5395 46.4258L65.1034 46.7236L64.6551 47.0178L64.1948 47.3081L63.7228 47.5944L63.2391 47.8768L62.7441 48.155L62.2379 48.4289L61.7208 48.6985L61.1929 48.9637L60.6545 49.2244L60.1058 49.4804L59.547 49.7317L58.9784 49.9782L58.4003 50.2198L57.8128 50.4565L57.2162 50.688L56.6108 50.9144L55.9968 51.1356L55.3745 51.3515L54.7442 51.5619L54.106 51.7669L53.4603 51.9664L52.8074 52.1602L52.1475 52.3483L51.481 52.5307L50.808 52.7072L50.1289 52.8779L49.4439 53.0426L48.7534 53.2013L48.0577 53.3539L47.3569 53.5004L46.6516 53.6407L45.9418 53.7747L45.228 53.9025L44.5104 54.0239L43.7893 54.1389L43.0651 54.2476L42.338 54.3497L41.6084 54.4453L40.8765 54.5344L40.1427 54.6169L39.4073 54.6928L38.6706 54.762L37.9328 54.8246L37.1944 54.8805L36.4556 54.9296L35.7167 54.972L34.9781 55.0077L34.2401 55.0365L33.5029 55.0586L32.7668 55.0738L32.0323 55.0823L31.2996 55.0839L30.5689 55.0787L29.8407 55.0667L29.1152 55.0478L28.3928 55.0221L27.6736 54.9896L26.9581 54.9503L26.2465 54.9042L25.5392 54.8513L24.8364 54.7916L24.1384 54.7251L23.4456 54.6519L22.7581 54.572L22.0764 54.4854L21.4006 54.3921L20.7311 54.2922L20.0682 54.1857L19.4121 54.0726L18.7631 53.9529L18.1215 53.8268L17.4875 53.6942L16.8615 53.5552L16.2436 53.4098L15.6342 53.2581L15.0334 53.1001L14.4416 52.9358L13.859 52.7655L13.2859 52.589L12.7224 52.4064L12.1688 52.2178L11.6253 52.0234L11.0923 51.823L10.5698 51.6169L10.0581 51.405L9.55749 51.1875L9.06809 50.9644L8.59012 50.7357L8.1238 50.5017L7.6693 50.2623L7.22683 50.0176L6.79656 49.7677L6.37868 49.5128L5.97336 49.2528L5.58076 48.9879L5.20106 48.7181L4.8344 48.4437L4.48094 48.1645L4.14083 47.8809L3.8142 47.5927L3.50119 47.3003L3.20194 47.0035L2.91656 46.7027L2.64517 46.3977L2.38788 46.0889L2.1448 45.7762L1.91602 45.4598L1.70165 45.1398L1.50177 44.8162L1.31645 44.4893L1.14578 44.1592L0.989817 43.8258L0.848631 43.4895L0.722275 43.1502L0.6108 42.8081L0.51425 42.4634L0.432661 42.1161L0.366065 41.7663L0.314487 41.4142L0.277941 41.06L0.256444 40.7037L0.25 40.3455L0.258605 39.9854L0.282259 39.6237L0.320938 39.2605L0.37463 38.8958L0.443308 38.5299L0.526934 38.1627L0.625478 37.7946L0.738882 37.4256L0.867108 37.0558L1.01009 36.6854L1.16776 36.3145L1.34006 35.9432L1.52691 35.5717L1.72822 35.2002L1.94391 34.8286L2.17388 34.4573L2.41803 34.0863L2.67625 33.7157L2.94844 33.3457L3.23447 32.9764L3.53422 32.608L3.84755 32.2406L4.17434 31.8743L4.51445 31.5092L4.86771 31.1456L5.23399 30.7835L5.61312 30.423L6.00495 30.0643L6.4093 29.7076L6.82599 29.3529L7.25485 29.0004L7.6957 28.6503L8.14835 28.3026L8.6126 27.9574L9.08824 27.615L9.57509 27.2754L10.0729 26.9388L10.5815 26.6053L11.1007 26.275L11.6302 25.948L12.1699 25.6245L12.7194 25.3046L13.2785 24.9884L13.8471 24.6761L14.4248 24.3676L15.0115 24.0633L15.6068 23.7631L16.2106 23.4672L16.8225 23.1758L17.4423 22.8888L18.0697 22.6065L18.7045 22.329L19.3464 22.0563L19.9952 21.7885L20.6504 21.5258L21.312 21.2683L21.9796 21.016L22.6528 20.7691L23.3315 20.5277L24.0154 20.2918L24.704 20.0616L25.3973 19.8371L26.0948 19.6185L26.7962 19.4058L27.5014 19.199L28.2099 18.9984L28.9215 18.804L29.6358 18.6158L30.3526 18.4339L31.0716 18.2584L31.7925 18.0894L32.5149 17.927L33.2386 17.7712L33.9632 17.6221L34.6885 17.4797L35.4141 17.3441L36.1397 17.2154L36.8651 17.0936L37.5899 16.9789L38.3138 16.8711L39.0366 16.7704L39.7578 16.6769L40.4773 16.5905L41.1946 16.5114L41.9096 16.4395L42.6219 16.3749L43.3312 16.3176L44.0371 16.2677L44.7395 16.2251L45.4381 16.19L46.1324 16.1623L46.8223 16.1421L47.5074 16.1293L48.1875 16.1241L48.8623 16.1263L49.5314 16.136L50.1947 16.1533L50.8518 16.1781L51.5025 16.2104L52.1465 16.2503L52.7835 16.2977L53.4132 16.3526L54.0355 16.4149L54.65 16.4848L55.2564 16.5622L55.8547 16.647L56.4444 16.7393L57.0253 16.8389L57.5972 16.946L58.1599 17.0604L58.7131 17.1822L59.2566 17.3113L59.7902 17.4476L60.3137 17.5911L60.8268 17.7418L61.3293 17.8996L61.821 18.0646L62.3018 18.2365L62.7714 18.4154L63.2296 18.6013L63.6762 18.794L64.1111 18.9935L64.5341 19.1997L64.945 19.4127L65.3436 19.6322L65.7298 19.8582L66.1035 20.0907L66.4644 20.3296L66.8124 20.5748L67.1474 20.8262L67.4692 21.0837L67.7778 21.3472L68.073 21.6168L68.3546 21.8921L68.6226 22.1733L68.8769 22.4601L69.1173 22.7525L69.3438 23.0504L69.5563 23.3536L69.7546 23.6621L69.9388 23.9758L70.1087 24.2945L70.2642 24.6181L70.4055 24.9466L70.5322 25.2798L70.6445 25.6175L70.7423 25.9597L70.8255 26.3063L70.8941 26.6571L70.9482 27.012L70.9876 27.3709L71.0124 27.7336L71.0225 28.1L71.018 28.47L70.9989 28.8434L70.9652 29.2202L70.9169 29.6001L70.8541 29.9831L70.7767 30.369L70.6848 30.7576L70.5786 31.1489L70.4579 31.5426L70.3229 31.9386L70.1736 32.3368L70.0102 32.7371L69.8326 33.1392L69.641 33.5431L69.4354 33.9485L69.216 34.3554L68.9828 34.7636L68.736 35.1729L68.4756 35.5832L68.2018 35.9944L67.9147 36.4062L67.6145 36.8185L67.3012 37.2311L66.975 37.644L66.636 38.057L66.2844 38.4698L65.9204 38.8823L65.5441 39.2945L65.1556 39.7061L64.7552 40.1169L64.343 40.5268L63.9192 40.9357L63.4839 41.3434L63.0374 41.7498L62.5799 42.1546L62.1116 42.5577L61.6326 42.959L61.1431 43.3583L60.6435 43.7555L60.1338 44.1504L59.6143 44.5428L59.0853 44.9327L58.547 45.3198L57.9995 45.7039L57.4432 46.0851L56.8782 46.463L56.3049 46.8375L55.7234 47.2086L55.134 47.576L54.5369 47.9395L53.9325 48.2992L53.321 48.6547L52.7025 49.0061L52.0775 49.353L51.4461 49.6955L50.8087 50.0333L50.1654 50.3663L49.5166 50.6944L48.8626 51.0174L48.2036 51.3353L47.5399 51.6478L46.8718 51.9549L46.1995 52.2564L45.5234 52.5522L44.8438 52.8422L44.1609 53.1262L43.4749 53.4042L42.7863 53.676L42.0953 53.9416L41.4022 54.2007L40.7072 54.4533L40.0107 54.6993L39.313 54.9386L38.6144 55.171L37.915 55.3965L37.2154 55.615L36.5156 55.8263L35.8161 56.0305L35.1172 56.2273L34.419 56.4167L33.722 56.5987L33.0263 56.7731L32.3324 56.9398L31.6404 57.0988L30.9507 57.2501L30.2636 57.3934L29.5793 57.5289L28.8981 57.6563L28.2203 57.7757L27.5463 57.8869L26.8762 57.99L26.2104 58.0848L25.5491 58.1714L24.8926 58.2496L24.2412 58.3195L23.5951 58.3809L22.9547 58.4339L22.3201 58.4784L21.6917 58.5143L21.0696 58.5418L20.4543 58.5606L19.8458 58.5709L19.2445 58.5725L18.6506 58.5655L18.0644 58.5499L17.486 58.5256L16.9158 58.4927L16.354 58.4511L15.8007 58.4009L15.2563 58.342L14.7209 58.2744L14.1947 58.1983L13.6781 58.1135L13.1711 58.0201L12.674 57.9181L12.187 57.8076L11.7103 57.6886L11.2441 57.5611L10.7885 57.4251L10.3438 57.2807L9.91017 57.1279L9.48771 56.9668L9.07663 56.7974L8.67708 56.6198L8.28924 56.434L7.91325 56.2401L7.54926 56.0381L7.19742 55.8281L6.85786 55.6102L6.53072 55.3845L6.21614 55.1509L5.91422 54.9097L5.62509 54.6609L5.34886 54.4045L5.08563 54.1407L4.83552 53.8695L4.5986 53.591L4.37498 53.3054L4.16474 53.0127L3.96795 52.713L3.78469 52.4065L3.61502 52.0932L3.45902 51.7733L3.31672 51.4468L3.18818 51.1139L3.07345 50.7748L2.97256 50.4294L2.88555 50.078L2.81243 49.7207L2.75324 49.3576L2.70799 48.9888L2.67669 48.6145L2.65932 48.2347L2.65591 47.8498L2.66643 47.4597L2.69087 47.0647L2.72921 46.6648L2.78143 46.2603L2.84749 45.8512L2.92735 45.4378L3.02097 45.0202L3.12831 44.5985L3.2493 44.1729L3.38389 43.7435L3.532 43.3106L3.69357 42.8743L3.86852 42.4347L4.05676 41.992L4.25821 41.5465L4.47277 41.0981L4.70035 40.6472L4.94083 40.1939L5.1941 39.7384L5.46006 39.2808L5.73858 38.8213L6.02953 38.3602L6.33279 37.8975L6.64821 37.4335L6.97565 36.9683L7.31498 36.5021L7.66603 36.0352L8.02865 35.5676L8.40269 35.0995L8.78797 34.6313L9.18433 34.1629L9.59159 33.6947L10.0096 33.2268L10.4381 32.7593L10.877 32.2926L11.326 31.8267L11.785 31.3618L12.2538 30.8981L12.7321 30.4359L13.2198 29.9753L13.7166 29.5164L14.2224 29.0595L14.7368 28.6047L15.2598 28.1523L15.791 27.7024L16.3302 27.2552L16.8773 26.8108L17.4319 26.3695L17.9939 25.9315L18.5629 25.4968L19.1388 25.0658L19.7213 24.6385L20.3101 24.2151L20.9051 23.7959L21.5058 23.3809L22.1122 22.9704L22.7239 22.5645L23.3407 22.1634L23.9623 21.7673L24.5885 21.3763L25.2189 20.9906L25.8534 20.6104L26.4916 20.2358L27.1333 19.8669L27.7781 19.504L28.426 19.1471L29.0765 18.7965L29.7294 18.4522L30.3844 18.1145L31.0412 17.7834L31.6996 17.4592L32.3593 17.1419L33.02 16.8317L33.6815 16.5287L34.3434 16.2331L35.0055 15.9449L35.6675 15.6644L36.3292 15.3916L36.9902 15.1267L37.6503 14.8697L38.3092 14.6209L38.9666 14.3802L39.6223 14.1479L40.276 13.9239L40.9274 13.7085L41.5763 13.5017L42.2223 13.3037L42.8653 13.1144L43.5049 12.934L44.1409 12.7627L44.773 12.6004L45.401 12.4472L46.0246 12.3033L46.6435 12.1686L47.2576 12.0433L47.8665 11.9275L48.47 11.8211L49.0678 11.7243L49.6598 11.6371L50.2456 11.5596L50.825 11.4918L51.3979 11.4337L51.9639 11.3853L52.5228 11.3468L53.0744 11.3182L53.6185 11.2994L54.1549 11.2905L54.6834 11.2916L55.2036 11.3025L55.7155 11.3235L56.2188 11.3543L56.7133 11.3952L57.1989 11.446L57.6752 11.5067L58.1422 11.5774L58.5997 11.658L59.0474 11.7486L59.4852 11.849L59.913 11.9593L60.3304 12.0795L60.7375 12.2095L61.134 12.3492L61.5198 12.4987L61.8947 12.6579L62.2586 12.8267L62.6113 13.0051L62.9527 13.193L63.2827 13.3904L63.6011 13.5973L63.9079 13.8134L64.2028 14.0389L64.4859 14.2735L64.7569 14.5172L65.0158 14.77L65.2626 15.0318L65.497 15.3023L65.719 15.5817L65.9286 15.8697L66.1256 16.1663L66.31 16.4713L66.4817 16.7847L66.6407 17.1063L66.787 17.436L66.9203 17.7737L67.0409 18.1193L67.1484 18.4727L67.2431 18.8337L67.3248 19.2021L67.3934 19.5779L67.4491 19.961L67.4917 20.3511L67.5214 20.7481L67.538 21.1519L67.5415 21.5623L67.5321 21.9791L67.5097 22.4023L67.4743 22.8317L67.426 23.267L67.3647 23.7081L67.2906 24.1549L67.2037 24.6072L67.104 25.0648L66.9916 25.5276L66.8665 25.9952L66.7288 26.4677L66.5786 26.9447L66.416 27.4262L66.2409 27.9119L66.0536 28.4016L65.8541 28.8951L65.6425 29.3923L65.4189 29.8929L65.1834 30.3968L64.9361 30.9038L64.6771 31.4136L64.4066 31.9261L64.1246 32.441L63.8314 32.9582L63.527 33.4774L63.2116 33.9984L62.8852 34.5211L62.5482 35.0452L62.2005 35.5705L61.8425 36.0969L61.4741 36.624L61.0957 37.1517L60.7073 37.6797L60.3091 38.208L59.9013 38.7361L59.4841 39.264L59.0577 39.7914L58.6223 40.3181L58.1779 40.8439L57.725 41.3686L57.2635 41.8919L56.7938 42.4137L56.316 42.9337L55.8304 43.4518L55.3371 43.9676L54.8364 44.4811L54.3285 44.9919L53.8135 45.4999L53.2918 46.0048L52.7635 46.5065L52.2289 47.0048L51.6882 47.4994L51.1416 47.9902L50.5894 48.4768L50.0318 48.9592L49.469 49.4372L48.9013 49.9104L48.3288 50.3788L47.752 50.8421L47.1709 51.3002L46.5859 51.7528L45.9971 52.1997L45.4049 52.6408L44.8095 53.0759L44.2111 53.5047L43.6099 53.9272L43.0064 54.3431L42.4006 54.7522L41.7928 55.1544L41.1833 55.5495L40.5724 55.9374L39.9603 56.3178L39.3472 56.6905L38.7334 57.0556L38.1192 57.4126L37.5049 57.7616L36.8905 58.1024L36.2766 58.4348L35.6632 58.7586L35.0506 59.0738L34.4391 59.3801L33.8289 59.6775L33.2203 59.9658L32.6136 60.2448L32.0089 60.5145L31.4066 60.7748L30.8068 61.0254L30.2099 61.2664L29.616 61.4975L29.0255 61.7187L28.4384 61.9299L27.8552 62.1309L27.276 62.3217L26.701 62.5022L26.1305 62.6723L25.5647 62.8319L25.0039 62.9809L24.4482 63.1193L23.8979 63.247L23.3533 63.3638L22.8144 63.4699L22.2816 63.565L21.7551 63.6491L21.2351 63.7223L20.7217 63.7844L20.2151 63.8353L19.7157 63.8752L19.2236 63.9039L18.7389 63.9214L18.2618 63.9277L17.7927 63.9227L17.3315 63.9065L16.8786 63.8791L16.434 63.8404L15.998 63.7904L15.5708 63.7292L15.1524 63.6567L14.7431 63.573L14.343 63.4781L13.9523 63.3719L13.5711 63.2547L13.1996 63.1263L12.8378 62.9868L12.486 62.8362L12.1443 62.6747L11.8128 62.5021L11.4916 62.3187L11.1809 62.1245L10.8807 61.9195L10.5912 61.7037L10.3125 61.4774L10.0447 61.2404L9.78779 60.9931L9.54199 60.7353L9.30734 60.4672L9.08394 60.189L8.87185 59.9006L8.67115 59.6022L8.48191 59.294L8.30419 58.976L8.13806 58.6483L7.98355 58.3111L7.84073 57.9645L7.70964 57.6086L7.59032 57.2435L7.48279 56.8695L7.3871 56.4866L7.30325 56.0949L7.23129 55.6947L7.17121 55.286L7.12304 54.8691L7.08676 54.4441L7.06239 54.0111L7.04992 53.5704L7.04934 53.122L7.06063 52.6662L7.08377 52.2032L7.11874 51.7331L7.16552 51.256L7.22406 50.7723L7.29432 50.2821L7.37627 49.7855L7.46986 49.2828L7.57502 48.7742L7.69171 48.2598L7.81986 47.7399L7.9594 47.2147L8.11026 46.6844L8.27237 46.1492L8.44564 45.6092L8.62999 45.0649L8.82533 44.5162L9.03157 43.9635L9.2486 43.407L9.47632 42.8469L9.71463 42.2834L9.96341 41.7168L10.2226 41.1473L10.4919 40.5751L10.7714 40.0005L11.0609 39.4236L11.3603 38.8447L11.6693 38.2641L11.988 37.682L12.3161 37.0986L12.6534 36.5142L13 35.929L13.3555 35.3432L13.7198 34.7571L14.0928 34.1709L14.4743 33.5849L14.8642 32.9993L15.2622 32.4143L15.6682 31.8302L16.082 31.2472L16.5035 30.6656L16.9324 30.0856L17.3686 29.5075L17.8119 28.9315L18.2621 28.3577L18.7189 27.7866L19.1823 27.2182L19.652 26.6529L20.1278 26.0909L20.6095 25.5324L21.0969 24.9776L21.5897 24.4269L22.0879 23.8803L22.5911 23.3382L23.0992 22.8007L23.6119 22.2682L24.1291 21.7407L24.6505 21.2186L25.1759 20.7021L25.705 20.1914L26.2377 19.6867L26.7737 19.1882L27.3129 18.6961L27.8549 18.2107L28.3996 17.7321L28.9467 17.2606L29.4961 16.7964L30.0474 16.3396L30.6004 15.8905L31.155 15.4492L31.7109 15.016L32.2678 14.591L32.8256 14.1744L33.384 13.7664L33.9428 13.3672L34.5018 12.977L35.0606 12.5958L35.6192 12.224L36.1773 11.8616L36.7346 11.5089L37.2909 11.1659L37.846 10.8328L38.3997 10.5098L38.9517 10.1971L39.5019 9.89468L40.0499 9.60278L40.5957 9.32152L41.1389 9.05102L41.6794 8.7914L42.2169 8.54279L42.7512 8.3053L43.2821 8.07904L43.8095 7.86413L44.333 7.66065L44.8524 7.46871L45.3677 7.2884L45.8785 7.11981L46.3848 6.96302L46.8861 6.81812L47.3825 6.68517L47.8736 6.56423L48.3593 6.45539L48.8394 6.35869L49.3137 6.27419L49.7821 6.20194L50.2443 6.14198L50.7002 6.09436L51.1495 6.0591L51.5922 6.03623L52.028 6.02577L52.4568 6.02776L52.8784 6.04219L53.2927 6.06908L53.6995 6.10843L54.0986 6.16023L54.4899 6.22449L54.8733 6.30119L55.2485 6.3903L55.6156 6.49181L55.9742 6.60569L56.3244 6.73191L56.6659 6.87042L56.9987 7.02119L57.3225 7.18416L57.6374 7.35928L57.9432 7.5465L58.2397 7.74574L58.5269 7.95695L58.8047 8.18004L59.0729 8.41493L59.3315 8.66154L59.5804 8.91979L59.8195 9.18957L60.0487 9.4708L60.2679 9.76335L60.4771 10.0671L60.6762 10.382L60.8651 10.7079L61.0438 11.0447L61.2122 11.3922L61.3702 11.7503L61.5179 12.1189L61.6551 12.4978L61.7818 12.8869L61.8981 13.2861L62.0038 13.6951L62.0989 14.1139L62.1834 14.5422L62.2573 14.9799L62.3206 15.4268L62.3733 15.8828L62.4153 16.3477L62.4467 16.8212L62.4674 17.3032L62.4775 17.7935L62.477 18.292L62.4659 18.7983L62.4442 19.3124L62.412 19.834L62.3692 20.3628L62.3159 20.8988L62.2522 21.4416L62.1781 21.9911L62.0936 22.547L61.9988 23.1091L61.8937 23.6772L61.7784 24.2511L61.653 24.8304L61.5175 25.4151L61.3719 26.0048L61.2165 26.5993L61.0512 27.1984L60.8761 27.8018L60.6913 28.4093L60.4969 29.0206L60.293 29.6354L60.0797 30.2537L59.8571 30.8749L59.6253 31.499L59.3844 32.1257L59.1345 32.7547L58.8757 33.3857L58.6082 34.0185L58.332 34.6528L58.0474 35.2884L57.7543 35.925L57.453 36.5623L57.1435 37.2001L56.8261 37.8381L56.5009 38.476L56.1679 39.1137L55.8274 39.7507L55.4795 40.3869L55.1243 41.0219L54.762 41.6556L54.3928 42.2876L54.0168 42.9177L53.6342 43.5457L53.2451 44.1712L52.8497 44.794L52.4482 45.4138L52.0407 46.0304L51.6275 46.6435L51.2086 47.2529L50.7843 47.8583L50.3548 48.4594L49.9201 49.0561L49.4806 49.6479L49.0364 50.2348L48.5877 50.8163L48.1346 51.3924L47.6773 51.9627L47.2162 52.527L46.7512 53.0851L46.2827 53.6367L45.8108 54.1816L45.3357 54.7196L44.8576 55.2503L44.3767 55.7737L43.8932 56.2895L43.4073 56.7974L42.9191 57.2972L42.429 57.7887L41.9371 58.2718L41.4435 58.7461L40.9486 59.2115L40.4524 59.6679L39.9552 60.1149L39.4573 60.5524L38.9587 60.9801L38.4596 61.3981L37.9604 61.8059L37.4612 62.2035L36.9621 62.5907L36.4634 62.9672L35.9654 63.3331L35.468 63.688L34.9717 64.0318L34.4765 64.3644L33.9828 64.6856L33.4905 64.9952L33 65.2932L32.5115 65.5794L32.0251 65.8537L31.5411 66.1159L31.0595 66.3659L30.5807 66.6037L30.1047 66.829L29.6318 67.0419L29.1622 67.2421L28.696 67.4296L28.2335 67.6044L27.7747 67.7662L27.3199 67.9151L26.8693 68.051L26.4229 68.1738L25.9811 68.2834L25.5439 68.3798L25.1116 68.4629L24.6842 68.5327L24.262 68.5892L23.845 68.6323L23.4336 68.6619L23.0277 68.6781L22.6277 68.6808L22.2335 68.6701L21.8454 68.6459L21.4635 68.6082L21.088 68.557L20.7189 68.4923L20.3565 68.4142L20.0008 68.3227L19.6521 68.2177L19.3103 68.0994L18.9756 67.9677L18.6482 67.8227L18.3282 67.6645L18.0157 67.4931L17.7108 67.3086L17.4135 67.111L17.1241 66.9004L16.8426 66.6769L16.5691 66.4405L16.3038 66.1914L16.0466 65.9297L15.7977 65.6554L15.5571 65.3687L15.325 65.0696L15.1015 64.7583L14.8865 64.4349L14.6802 64.0995L14.4827 63.7522L14.2939 63.3933L14.114 63.0227L13.943 62.6408L13.781 62.2475L13.6281 61.8432L13.4841 61.4278L13.3493 61.0017L13.2236 60.5649L13.1072 60.1177L12.9999 59.6602L12.9018 59.1926L12.813 58.7151L12.7335 58.2279L12.6633 57.7312L12.6023 57.2251L12.5507 56.71L12.5085 56.1859L12.4755 55.6531L12.4518 55.1118L12.4375 54.5623L12.4324 54.0048L12.4367 53.4394L12.4502 52.8665L12.4729 52.2862L12.5049 51.6987L12.5461 51.1045L12.5964 50.5036L12.6559 49.8963L12.7244 49.2829L12.802 48.6636L12.8886 48.0387L12.9842 47.4084L13.0887 46.773L13.202 46.1327L13.324 45.4879L13.4549 44.8387L13.5943 44.1855L13.7424 43.5286L13.8989 42.8681L14.0639 42.2044L14.2373 41.5377L14.419 40.8684L14.6088 40.1966L14.8067 39.5227L15.0127 38.847L15.2266 38.1697L15.4483 37.4912L15.6777 36.8116L15.9147 36.1313L16.1593 35.4507L16.4112 34.7698L16.6705 34.0891L16.9369 33.4088L17.2105 32.7293L17.4909 32.0507L17.7782 31.3734L18.0722 30.6977L18.3728 30.0238L18.6798 29.3521L18.9931 28.6828L19.3126 28.0162L19.6382 27.3525L19.9697 26.6921L20.3069 26.0353L20.6498 25.3823L20.9982 24.7333L21.3519 24.0888L21.7109 23.4488L22.0748 22.8138L22.4437 22.184L22.8174 21.5596L23.1956 20.9409L23.5783 20.3282L23.9652 19.7217L24.3563 19.1218L24.7513 18.5285L25.1502 17.9423L25.5527 17.3634L25.9587 16.7919L26.368 16.2282L26.7805 15.6725L27.196 15.125L27.6143 14.586L28.0352 14.0556L28.4587 13.5342L28.8844 13.022L29.3123 12.5191L29.7423 12.0258L30.174 11.5423L30.6074 11.0687L31.0422 10.6055L31.4784 10.1526L31.9157 9.71032L32.3539 9.27885L32.793 8.85839L33.2326 8.44909L33.6727 8.05115L34.1131 7.66474L34.5536 7.29002L34.9941 6.92717L35.4343 6.57635L35.8741 6.23769L36.3133 5.91137L36.7519 5.59752L37.1895 5.29628L37.626 5.00779L38.0613 4.73218L38.4952 4.46956L38.9275 4.22007L39.3581 3.9838L39.7867 3.76088L40.2134 3.55139L40.6378 3.35545L41.0598 3.17313L41.4793 3.00453L41.8961 2.84972L42.3101 2.70877L42.721 2.58176L43.1288 2.46875L43.5333 2.36979L43.9343 2.28493L44.3318 2.21422L44.7255 2.1577L45.1152 2.11539L45.501 2.08733L45.8825 2.07353L46.2598 2.07401L46.6326 2.08879L47.0008 2.11785L47.3642 2.1612L47.7228 2.21883L48.0765 2.29072L48.425 2.37685L48.7682 2.4772L49.1062 2.59173L49.4386 2.72039L49.7654 2.86315L50.0865 3.01996L50.4018 3.19075L50.7112 3.37546L51.0145 3.57403L51.3116 3.78637L51.6025 4.01241L51.8871 4.25206L52.1652 4.50522L52.4367 4.77181L52.7016 5.05171L52.9597 5.34481L53.2111 5.65101L53.4555 5.97017L53.693 6.30217L53.9234 6.64689L54.1466 7.00417L54.3626 7.37389L54.5714 7.75588L54.7728 8.15001L54.9668 8.5561L55.1533 8.974L55.3322 9.40354L55.5036 9.84454L55.6673 10.2968L55.8234 10.7602L55.9717 11.2345L56.1122 11.7195L56.2449 12.215L56.3697 12.7209L56.4866 13.2368L56.5956 13.7627L56.6967 14.2983L56.7898 14.8433L56.8748 15.3975L56.9519 15.9608L57.0209 16.5328L57.0818 17.1134L57.1347 17.7023L57.1795 18.2993L57.2163 18.904L57.2449 19.5164L57.2655 20.136L57.2781 20.7628L57.2825 21.3963L57.279 22.0363L57.2674 22.6826L57.2478 23.335L57.2202 23.993L57.1846 24.6565L57.1411 25.3252L57.0896 25.9988L57.0303 26.677L56.9631 27.3595L56.8882 28.0461L56.8054 28.7365L56.715 29.4303L56.6168 30.1273L56.511 30.8273L56.3977 31.5298L56.2768 32.2346L56.1485 32.9415L56.0127 33.6501L55.8696 34.3601L55.7193 35.0712L55.5617 35.7831L55.397 36.4956L55.2252 37.2083L55.0465 37.9209L54.8608 38.6332L54.6683 39.3448L54.469 40.0554L54.2631 40.7648L54.0506 41.4725L53.8317 42.1785L53.6063 42.8822L53.3747 43.5835L53.1368 44.282L52.8929 44.9775L52.6429 45.6696L52.387 46.3581L52.1254 47.0427L51.8581 47.723L51.5852 48.3988L51.3068 49.0699L51.0231 49.7358L50.7341 50.3964L50.44 51.0514L50.1409 51.7004L49.837 52.3432L49.5282 52.9796L49.2148 53.6092L48.8969 54.2318L48.5746 54.8471L48.2481 55.455L47.9174 56.055L47.5827 56.6469L47.2441 57.2306L46.9018 57.8057L46.5559 58.372L46.2065 58.9293L45.8537 59.4773L45.4978 60.0158L45.1387 60.5445L44.7768 61.0633L44.412 61.5718L44.0447 62.07L43.6748 62.5576L43.3025 63.0343L42.928 63.4999L42.5514 63.9543L42.1729 64.3973L41.7926 64.8287L41.4106 65.2483L41.0271 65.6558L40.6423 66.0512L40.2562 66.4342L39.8691 66.8048L39.481 67.1626L39.0921 67.5077L38.7026 67.8397L38.3126 68.1587L37.9223 68.4644L37.5317 68.7566L37.1411 69.0354L36.7506 69.3005L36.3603 69.5519L35.9704 69.7894L35.581 70.0129L35.1922 70.2223L34.8043 70.4175L34.4173 70.5985L34.0314 70.7652L33.6467 70.9174L33.2634 71.0551L32.8816 71.1783L32.5014 71.2869L32.123 71.3808L31.7466 71.4601L31.3722 71.5246L31 71.5743L30.6301 71.6092L30.2627 71.6293L29.8978 71.6345L29.5357 71.6249L29.1765 71.6005L28.8202 71.5612L28.467 71.5071L28.1171 71.4382L27.7705 71.3545L27.4274 71.256L27.0879 71.1428L26.7522 71.0149L26.4202 70.8725L26.0923 70.7154L25.7684 70.5438L25.4486 70.3578L25.1332 70.1574L24.8222 69.9427L24.5157 69.7138L24.2138 69.4708L23.9167 69.2137L23.6243 68.9428L23.3369 68.658L23.0546 68.3596L22.7774 68.0476L22.5053 67.7221L22.2386 67.3833L21.9773 67.0314L21.7215 66.6664L21.4713 66.2886L21.2267 65.898L20.9879 65.4949L20.7549 65.0793L20.5278 64.6516L20.3067 64.2118L20.0917 63.7601L19.8828 63.2968L19.68 62.8219L19.4836 62.3358L19.2934 61.8386L19.1096 61.3305L18.9323 60.8117L18.7615 60.2824L18.5972 59.743L18.4396 59.1935L18.2886 58.6342L18.1443 58.0653L18.0067 57.4872L17.876 56.8999L17.752 56.3039L17.635 55.6992L17.5248 55.0863L17.4216 54.4652L17.3253 53.8363L17.2361 53.1999L17.1538 52.5562L17.0786 51.9055L17.0104 51.248L16.9493 50.5841L16.8953 49.914L16.8484 49.2379L16.8086 48.5562L16.776 47.8692L16.7504 47.1772L16.732 46.4803L16.7206 45.779L16.7164 45.0736L16.7193 44.3642L16.7293 43.6513L16.7464 42.935L16.7706 42.2158L16.8018 41.4939L16.84 40.7697L16.8853 40.0433L16.9376 39.3152L16.9968 38.5857L17.063 37.855L17.1361 37.1234L17.216 36.3913L17.3028 35.659L17.3964 34.9267L17.4968 34.1949L17.6039 33.4637L17.7176 32.7336L17.838 32.0047L17.9649 31.2775L18.0984 30.5522L18.2383 29.8292L18.3847 29.1086L18.5374 28.391L18.6964 27.6764L18.8616 26.9654L19.033 26.258L19.2104 25.5548L19.3939 24.8558L19.5834 24.1615L19.7787 23.4722L19.9798 22.788L20.1866 22.1094L20.3991 21.4366L20.6172 20.7699L20.8407 20.1095L21.0697 19.4558L21.3039 18.809L21.5434 18.1695L21.788 17.5374L22.0376 16.913L22.2921 16.2966L22.5515 15.6885L22.8157 15.089L23.0845 14.4982L23.3579 13.9164L23.6357 13.3439L23.9178 12.781L24.2042 12.2278L24.4947 11.6846L24.7893 11.1516L25.0878 10.629L25.39 10.1172L25.696 9.61619L26.0055 9.12632L26.3185 8.64777L26.6349 8.18073L26.9545 7.72541L27.2773 7.282L27.603 6.85068L27.9316 6.43165L28.263 6.02508L28.597 5.63114L28.9336 5.25001L29.2725 4.88184L29.6137 4.52679L29.9571 4.18502L30.3025 3.85667L30.6498 3.54188L30.9989 3.24079L31.3497 2.95352L31.7019 2.6802L32.0556 2.42095L32.4105 2.17587L32.7666 1.94508L33.1237 1.72866L33.4817 1.52673L33.8405 1.33935L34.1998 1.16662L34.5597 1.00861L34.92 0.86539L35.2805 0.737012L35.6411 0.623544L36.0017 0.525029L36.3622 0.441514L36.7224 0.373036L37.0822 0.319622L37.4414 0.281301L37.8 0.258092L38.1579 0.25L38.5148 0.257036L38.8707 0.279196L39.2254 0.316473L39.5789 0.368854L39.9309 0.43632L40.2814 0.518842L40.6302 0.616388L40.9772 0.728916L41.3224 0.856381L41.6655 0.998734L42.0064 1.15591L42.3451 1.32786L42.6814 1.51449L43.0152 1.71574L43.3464 1.93152L43.6748 2.16174L44.0003 2.40631L44.3229 2.66512L44.6424 2.93807L44.9587 3.22504L45.2717 3.52591L45.5813 3.84056L45.8873 4.16885L46.1897 4.51065L46.4884 4.86582L46.7832 5.23421L47.074 5.61565L47.3608 6.01L47.6435 6.41709L47.9219 6.83674L48.1959 7.26878L48.4655 7.71303L48.7306 8.1693L48.991 8.6374L49.2467 9.11714L49.4976 9.60831L49.7436 10.1107L49.9846 10.6241L50.2205 11.1483L50.4513 11.6831L50.6768 12.2283L50.8971 12.7835L51.1119 13.3487L51.3213 13.9235L51.5251 14.5077L51.7234 15.1011L51.9159 15.7034L52.1027 16.3144L52.2837 16.9337L52.4588 17.5613L52.628 18.1966L52.7912 18.8396L52.9484 19.49L53.0994 20.1474L53.2443 20.8116L53.383 21.4823L53.5154 22.1592L53.6415 22.8421L53.7613 23.5307L53.8747 24.2246L53.9816 24.9235L54.0821 25.6273L54.1761 26.3355L54.2636 27.0479L54.3445 27.7642L54.4188 28.484L54.4865 29.2072L54.5476 29.9333L54.602 30.6621L54.6497 31.3932L54.6907 32.1264L54.725 32.8613L54.7526 33.5976L54.7734 34.3351L54.7875 35.0734L54.7949 35.8121L54.7955 36.5511L54.7894 37.2899L54.7766 38.0283L54.757 38.766L54.7306 39.5025L54.6975 40.2377L54.6578 40.9713L54.6113 41.7028L54.5581 42.432L54.4983 43.1587L54.4318 43.8824L54.3588 44.6029L54.2791 45.3198L54.1928 46.033L54.1 46.742L54.0007 47.4466L53.895 48.1465L53.7828 48.8413L53.6642 49.5309L53.5392 50.2148L53.408 50.8929L53.2705 51.5648L53.1267 52.2302L52.9768 52.8889L52.8208 53.5405L52.6587 54.1849L52.4906 54.8218L52.3166 55.4507L52.1367 56.0716L51.951 56.6842L51.7595 57.2881L51.5623 57.8832L51.3595 58.4691L51.1511 59.0457L50.9373 59.6126L50.7181 60.1698L50.4935 60.7168L50.2637 61.2535L50.0287 61.7797L49.7886 62.2951L49.5436 62.7996L49.2936 63.2929L49.0387 63.7747L48.7792 64.245L48.515 64.7035L48.2462 65.15L47.973 65.5843L47.6954 66.0063L47.4135 66.4157L47.1275 66.8124L46.8374 67.1963L46.5433 67.5671L46.2453 67.9247L45.9436 68.269L45.6382 68.5998L45.3293 68.917L45.017 69.2204L44.7013 69.51L44.3824 69.7855L44.0603 70.047L43.7353 70.2942L43.4074 70.5271L43.0768 70.7455L42.7435 70.9495L42.4076 71.1388L42.0694 71.3135L41.7288 71.4734L41.3861 71.6185L41.0413 71.7488L40.6947 71.8641L40.3461 71.9644L39.996 72.0497L39.6442 72.1199L39.291 72.1751L38.9365 72.2152L38.5808 72.2402L38.2241 72.25L37.8664 72.2447L37.5079 72.2243L37.1488 72.1888L36.7891 72.1382L36.4289 72.0725L36.0685 71.9917L35.7079 71.896L35.3473 71.7853L34.9868 71.6597L34.6265 71.5192L34.2665 71.3639L33.907 71.1939L33.5481 71.0093L33.19 70.81L32.8327 70.5963L32.4764 70.3681L32.1213 70.1257L31.7674 69.8691L31.4148 69.5983L31.0638 69.3137L30.7144 69.0151L30.3667 68.7029L30.021 68.377L29.6772 68.0377L29.3356 67.6851L28.9962 67.3194L28.6592 66.9406L28.3247 66.549L27.9928 66.1448L27.6637 65.7281L27.3374 65.299L27.0141 64.8578L26.6939 64.4047L26.3769 63.9398L26.0633 63.4634L25.7531 62.9756L25.4464 62.4767L25.1435 61.9668L24.8443 61.4462L24.549 60.9152L24.2577 60.3738L23.9706 59.8224L23.6876 59.2613L23.409 58.6905L23.1348 58.1105L22.8652 57.5213L22.6001 56.9234L22.3398 56.3168L22.0844 55.702L21.8338 55.0791L21.5883 54.4484L21.3479 53.8102L21.1127 53.1647L20.8828 52.5123L20.6582 51.8532L20.4391 51.1876L20.2256 50.5159L20.0177 49.8383L19.8155 49.1552L19.6191 48.4668L19.4286 47.7734L19.244 47.0753L19.0654 46.3728L18.8929 45.6662L18.7265 44.9558L18.5664 44.2419L18.4125 43.5247L18.265 42.8047L18.1239 42.0821L17.9892 41.3572L17.861 40.6303L17.7394 39.9018L17.6245 39.1718L17.5161 38.4408L17.4145 37.7091L17.3197 36.9769L17.2316 36.2446L17.1504 35.5124L17.076 34.7807L17.0086 34.0498L16.948 33.32L16.8945 32.5916L16.8479 31.8649L16.8083 31.1403L16.7758 30.4179L16.7503 29.6982L16.7319 28.9814L16.7206 28.2678L16.7164 27.5578L16.7193 26.8515L16.7293 26.1494L16.7464 25.4518L16.7707 24.7588L16.8021 24.0708L16.8405 23.3882L16.8861 22.711L16.9388 22.0398L16.9986 21.3747L17.0654 20.716L17.1393 20.064L17.2203 19.419L17.3083 18.7812L17.4032 18.1509L17.5052 17.5284L17.614 16.9139L17.7298 16.3077L17.8525 15.71L17.982 15.1211L18.1183 14.5413L18.2613 13.9707L18.4111 13.4096L18.5675 12.8583L18.7306 12.3169L18.9002 11.7858L19.0763 11.265L19.2589 10.7549L19.4478 10.2557L19.6431 9.76747L19.8447 9.29053L20.0525 8.82503L20.2664 8.37119L20.4864 7.92917L20.7124 7.49917L20.9443 7.08136L21.182 6.67593L21.4255 6.28302L21.6747 5.9028L21.9295 5.53544L22.1898 5.18107L22.4555 4.83985L22.7265 4.51191L23.0028 4.19739L23.2842 3.89642L23.5707 3.60912L23.8621 3.3356L24.1584 3.07597L24.4594 2.83035L24.7651 2.59883L25.0752 2.38149L25.3899 2.17844L25.7088 1.98975L26.0319 1.81548L26.3592 1.65572L26.6904 1.51052L27.0254 1.37994L27.3643 1.26404L27.7067 1.16284L28.0526 1.0764L28.4019 1.00474L28.7545 0.947884L29.1102 0.90586L29.4689 0.878668L29.8305 0.866323L30.1949 0.868818L30.5618 0.886155L30.9312 0.918313L31.303 0.965281L31.677 1.02703L32.0531 1.10352L32.4312 1.19473L32.811 1.3006L33.1925 1.4211L33.5756 1.55615L33.96 1.7057L34.3457 1.86968L34.7325 2.04802L35.1203 2.24064L35.5089 2.44744L35.8982 2.66834L36.288 2.90324L36.6782 3.15203L37.0687 3.4146L37.4593 3.69085L37.8499 3.98063L38.2403 4.28384L38.6304 4.60033L39.02 4.92997L39.409 5.27261L39.7972 5.62811L40.1845 5.99631L40.5708 6.37705L40.9559 6.77016L41.3396 7.17547L41.7219 7.59281L42.1025 8.022L42.4814 8.46285L42.8584 8.91518L43.2333 9.37878L43.606 9.85345L43.9763 10.339L44.3442 10.8352L44.7094 11.3419L45.0719 11.8588L45.4315 12.3857L45.788 12.9224L46.1413 13.4686L46.4914 14.0242L46.838 14.5889L47.181 15.1623L47.5202 15.7444L47.8557 16.3349L48.1871 16.9334L48.5145 17.5398L48.8375 18.1538L49.1563 18.7751L49.4705 19.4034L49.7801 20.0385L50.085 20.6802L50.385 21.3281L50.68 21.982L50.9699 22.6415L51.2546 23.3065L51.534 23.9766L51.8079 24.6516L52.0763 25.3311L52.339 26.0149L52.5959 26.7027L52.847 27.3941L53.0921 28.089L53.3311 28.787L53.5639 29.4878L53.7904 30.1911L54.0106 30.8967L54.2242 31.6041L54.4314 32.3132L54.6319 33.0236L54.8256 33.735L55.0126 34.4472L55.1926 35.1598L55.3657 35.8725L55.5317 36.585L55.6906 37.2971L55.8423 38.0084L55.9868 38.7186L56.1239 39.4275L56.2536 40.1347L56.3759 40.8399L56.4906 41.5429L56.5978 42.2433L56.6974 42.9409L56.7892 43.6354L56.8734 44.3264L56.9498 45.0137L57.0185 45.697L57.0792 46.3761L57.1321 47.0505L57.1771 47.7201L57.2142 48.3846L57.2433 49.0437L57.2644 49.6971L57.2774 50.3445L57.2825 50.9858L57.2795 51.6205L57.2685 52.2485L57.2494 52.8695L57.2222 53.4832L57.1869 54.0894L57.1436 54.6878L57.0922 55.2782L57.0328 55.8604L56.9653 56.434L56.8897 56.9989L56.8061 57.5549L56.7145 58.1016L56.615 58.6389L56.5074 59.1666L56.392 59.6844L56.2686 60.1922L56.1374 60.6896L55.9983 61.1766L55.8515 61.6529L55.6968 62.1183L55.5345 62.5727L55.3646 63.0158L55.187 63.4474L55.0019 63.8675L54.8093 64.2758L54.6093 64.6722L54.4019 65.0564L54.1872 65.4284L53.9653 65.788L53.7362 66.1351L53.5 66.4694L53.2569 66.791L53.0068 67.0996L52.7499 67.3951L52.4863 67.6775L52.216 67.9466L51.9391 68.2022L51.6557 68.4444L51.366 68.6729L51.07 68.8878L50.7678 69.089L50.4596 69.2762L50.1454 69.4496L49.8254 69.609L49.4996 69.7544L49.1682 69.8857L48.8313 70.0028L48.489 70.1058L48.1414 70.1946L47.7887 70.2691L47.431 70.3294L47.0685 70.3754L46.7011 70.4071L46.3292 70.4245L45.9528 70.4276L45.572 70.4165L45.187 70.391L44.798 70.3514L44.405 70.2975L44.0083 70.2294L43.6079 70.1472L43.204 70.0508L42.7968 69.9404L42.3865 69.816L41.9731 69.6776L41.5568 69.5254L41.1378 69.3593L40.7162 69.1795L40.2922 68.9861L39.866 68.7791L39.4376 68.5587L39.0074 68.3249L38.5754 68.0778L38.1418 67.8176L37.7067 67.5444L37.2704 67.2583L36.833 66.9594L36.3947 66.6479L35.9555 66.3239L35.5158 65.9875L35.0757 65.6389L34.6353 65.2783L34.1948 64.9057L33.7543 64.5215L33.3141 64.1257L32.8744 63.7185L32.4352 63.3001L31.9968 62.8706L31.5593 62.4303L31.1229 61.9794L30.6878 61.518L30.2542 61.0464L29.8221 60.5647L29.3919 60.0732L28.9636 59.5721L28.5374 59.0616L28.1135 58.5418L27.6921 58.0131L27.2733 57.4757L26.8573 56.9298L26.4442 56.3756L26.0343 55.8133L25.6277 55.2433L25.2245 54.6657L24.825 54.0808L24.4292 53.4889L24.0374 52.8901L23.6496 52.2848L23.2662 51.6733L22.8871 51.0557L22.5126 50.4323L22.1428 49.8035L21.7779 49.1694L21.4181 48.5304L21.0634 47.8866L20.714 47.2385L20.3701 46.5862L20.0317 45.93L19.6992 45.2703L19.3725 44.6072L19.0518 43.9411L18.7374 43.2723L18.4292 42.601L18.1274 41.9275L17.8322 41.2521L17.5436 40.5751L17.2619 39.8967L16.9871 39.2173L16.7193 38.5371L16.4587 37.8565L16.2054 37.1757L15.9595 36.4949L15.721 35.8146L15.4902 35.1348L15.2671 34.4561L15.0517 33.7785L14.8443 33.1025L14.6449 32.4283L14.4535 31.7561L14.2703 31.0863L14.0954 30.4191L13.9289 29.7548L13.7707 29.0937L13.6211 28.4361L13.48 27.7822L13.3476 27.1323L13.2239 26.4866L13.109 25.8455L13.0029 25.2092L12.9057 24.5779L12.8174 23.952L12.7381 23.3316L12.6679 22.7171L12.6068 22.1087L12.5547 21.5066L12.5118 20.911L12.4782 20.3223L12.4537 19.7407L12.4385 19.1664L12.4325 18.5996L12.4358 18.0406L12.4485 17.4895L12.4704 16.9467L12.5016 16.4124L12.5422 15.8867L12.5921 15.3698L12.6513 14.8621L12.7198 14.3636L12.7976 13.8746L12.8847 13.3953L12.981 12.9258L13.0866 12.4664L13.2014 12.0173L13.3253 11.5786L13.4585 11.1505L13.6007 10.7331L13.752 10.3267L13.9123 9.93142L14.0817 9.54735L14.2599 9.17469L14.447 8.81357L14.6429 8.46415L14.8476 8.12655L15.061 7.8009L15.283 7.48734L15.5135 7.18599L15.7524 6.89695L15.9998 6.62034L16.2555 6.35627L16.5194 6.10483L16.7913 5.86612L17.0714 5.64022L17.3593 5.42723L17.6551 5.22722L17.9586 5.04026L18.2698 4.86642L18.5884 4.70576L18.9144 4.55833L19.2477 4.42419L19.5882 4.30338L19.9357 4.19594L20.2901 4.1019L20.6513 4.02129L21.0191 3.95413L21.3935 3.90045L21.7742 3.86024L22.1611 3.83353L22.5542 3.82029L22.9532 3.82053L23.3579 3.83424L23.7684 3.8614L24.1843 3.90198L24.6056 3.95596L25.032 4.02331L25.4634 4.10397L25.8997 4.19792L26.3407 4.30509L26.7862 4.42543L27.2361 4.55888L27.6901 4.70538L28.1482 4.86484L28.61 5.03719L29.0756 5.22235L29.5446 5.42023L30.0169 5.63074L30.4923 5.85377L30.9706 6.08923L31.4516 6.33699L31.9352 6.59696L32.4212 6.869L32.9094 7.153L33.3995 7.44883L33.8914 7.75635L34.3849 8.07542L34.8799 8.4059L35.376 8.74764L35.8731 9.1005L36.3711 9.4643L36.8697 9.8389L37.3687 10.2241L37.8679 10.6198L38.3671 11.0258L38.8662 11.4418L39.3649 11.8678L39.863 12.3035L40.3604 12.7488L40.8567 13.2034L41.3519 13.6671L41.8457 14.1398L42.338 14.6213L42.8285 15.1113L43.317 15.6096L43.8033 16.116L44.2873 16.6303L44.7686 17.1523L45.2473 17.6817L45.723 18.2183L46.1955 18.762L46.6647 19.3123L47.1303 19.8692L47.5922 20.4324L48.0502 21.0016L48.504 21.5767L48.9536 22.1572L49.3987 22.7431L49.8391 23.3341L50.2746 23.9298L50.7051 24.5301L51.1304 25.1347L51.5503 25.7434L51.9646 26.3559L52.3731 26.9718L52.7757 27.5911L53.1723 28.2134L53.5626 28.8384L53.9464 29.4659L54.3236 30.0956L54.6941 30.7273L55.0577 31.3607L55.4142 31.9955L55.7635 32.6315L56.1054 33.2684L56.4397 33.9059L56.7664 34.5438L57.0853 35.1819L57.3963 35.8197L57.6991 36.4571L57.9937 37.0939L58.2799 37.7297L58.5577 38.3642L58.8268 38.9973L59.0872 39.6287L59.3388 40.2581L59.5814 40.8852L59.8149 41.5098L60.0392 42.1316L60.2542 42.7504L60.4599 43.3659L60.656 43.9779L60.8426 44.5861L61.0195 45.1903L61.1866 45.7902L61.3439 46.3856L61.4912 46.9762L61.6286 47.5618L61.7559 48.1421L61.8731 48.717L61.9801 49.2862L62.0768 49.8495L62.1632 50.4065L62.2393 50.9572L62.3049 51.5013L62.3601 52.0385L62.4048 52.5687L62.439 53.0917L62.4627 53.6071L62.4757 54.1149L62.4782 54.6149L62.4701 55.1067L62.4513 55.5903L62.4219 56.0654L62.3819 56.5319L62.3312 56.9895L62.2699 57.4381L62.1979 57.8776L62.1153 58.3076L62.0222 58.7282L61.9185 59.139L61.8042 59.54L61.6794 59.931L61.5441 60.3118L61.3984 60.6823L61.2423 61.0424L61.0758 61.3919L60.899 61.7306L60.712 62.0586L60.5148 62.3755L60.3074 62.6814L60.0901 62.976L59.8627 63.2593L59.6254 63.5313L59.3784 63.7916L59.1215 64.0404L58.8551 64.2775L58.5791 64.5028L58.2936 64.7162L57.9988 64.9177L57.6948 65.1071L57.3816 65.2845L57.0593 65.4497L56.7282 65.6027L56.3883 65.7435L56.0398 65.872L55.6827 65.9882L55.3172 66.092L54.9434 66.1834L54.5616 66.2624L54.1717 66.329L53.774 66.3831L53.3686 66.4247L52.9557 66.4539L52.5355 66.4707L52.108 66.475L51.6735 66.4668L51.232 66.4462L50.7839 66.4133L50.3293 66.3679L49.8682 66.3103L49.401 66.2403L48.9278 66.1581L48.4487 66.0636L47.964 65.957L47.4739 65.8383L46.9785 65.7076L46.478 65.5649L45.9727 65.4103L45.4627 65.2439L44.9483 65.0657L44.4295 64.876L43.9068 64.6746L43.3801 64.4618L42.8499 64.2376L42.3161 64.0022L41.7792 63.7557L41.2393 63.4981L40.6965 63.2296L40.1513 62.9503L39.6036 62.6604L39.0538 62.3599L38.5021 62.0491L37.9487 61.728L37.3938 61.3968L36.8377 61.0556L36.2806 60.7046L35.7227 60.344L35.1642 59.9739L34.6053 59.5945L34.0464 59.206L33.4876 58.8084L32.9291 58.402L32.3711 57.987L31.814 57.5636L31.2579 57.1319L30.7031 56.6921L30.1497 56.2444L29.5981 55.789L29.0484 55.3261L28.5008 54.8559L27.9557 54.3787L27.4131 53.8945L26.8734 53.4036L26.3368 52.9063L25.8035 52.4027L25.2736 51.8931L24.7476 51.3777L24.2254 50.8566L23.7074 50.3301L23.1939 49.7985L22.6849 49.262L22.1808 48.7207L21.6816 48.1749L21.1878 47.6249L20.6994 47.0709L20.2166 46.513L19.7397 45.9516L19.2689 45.3869L18.8043 44.8191L18.3462 44.2485L17.8948 43.6752L17.4502 43.0996L17.0127 42.5218L16.5824 41.9421L16.1596 41.3608L15.7443 40.7781L15.3368 40.1942L14.9373 39.6094L14.5459 39.0238L14.1629 38.4379L13.7883 37.8517L13.4223 37.2656L13.0652 36.6797L12.717 36.0944L12.3779 35.5098L12.0481 34.9262L11.7277 34.3438L11.4168 33.7629L11.1157 33.1837L10.8243 32.6064L10.543 32.0314L10.2717 31.4587L10.0107 30.8887L9.75995 30.3215L9.51969 29.7574L9.28999 29.1967L9.07097 28.6395L8.86273 28.0861L8.66537 27.5367L8.47897 26.9915L8.30364 26.4507L8.13945 25.9146L7.9865 25.3833L7.84486 24.8572L7.71459 24.3363L7.59578 23.8209L7.48847 23.3112L7.39274 22.8073L7.30863 22.3096L7.2362 21.8182L7.17548 21.3332L7.12652 20.855L7.08936 20.3836L7.06402 19.9192L7.05053 19.462L7.04892 19.0123L7.05918 18.5701L7.08135 18.1357L7.11542 17.7092L7.16139 17.2908L7.21926 16.8806L7.28902 16.4788L7.37067 16.0855L7.46416 15.701L7.5695 15.3253L7.68664 14.9585L7.81556 14.6009L7.95621 14.2526L8.10854 13.9136L8.27253 13.5842L8.44811 13.2644L8.63522 12.9543L8.8338 12.6541L9.04378 12.3639L9.26509 12.0837L9.49766 11.8138L9.7414 11.5541L9.99622 11.3048L10.262 11.0659L10.5388 10.8376L10.8263 10.6199L11.1245 10.4129L11.4333 10.2166L11.7525 10.0312L12.0821 9.85665L12.422 9.69306L12.7719 9.54046L13.1318 9.39891L13.5015 9.26845L13.8809 9.14911L14.2699 9.04092L14.6683 8.94392L15.0759 8.85813L15.4926 8.78357L15.9182 8.72026L16.3526 8.6682L16.7955 8.6274L17.2469 8.59786L17.7066 8.57958L18.1743 8.57255L18.6499 8.57675L19.1332 8.59218L19.624 8.6188L20.1221 8.65659L20.6273 8.70552L21.1394 8.76556L21.6583 8.83665L22.1836 8.91877L22.7152 9.01186L23.253 9.11587L23.7966 9.23073L24.3458 9.35639L24.9005 9.49279L25.4604 9.63984L26.0253 9.79748L26.5949 9.96563L27.1691 10.1442L27.7475 10.3331L28.3301 10.5323L28.9164 10.7416L29.5063 10.9609L30.0996 11.1902L30.696 11.4293L31.2953 11.6782L31.8971 11.9367L32.5014 12.2046L33.1078 12.482L33.716 12.7686L34.3259 13.0643L34.9372 13.369L35.5496 13.6825L36.1628 14.0047L36.7767 14.3355L37.391 14.6748L38.0054 15.0222L38.6197 15.3778L39.2335 15.7414L39.8467 16.1127L40.459 16.4917L41.0702 16.8782L41.68 17.272L42.2881 17.6729L42.8943 18.0807L43.4983 18.4954L44.0999 18.9167L44.6988 19.3443L45.2948 19.7783L45.8876 20.2183L46.477 20.6642L47.0628 21.1157L47.6446 21.5728L48.2223 22.0351L48.7955 22.5026L49.3642 22.9749L49.9279 23.452L50.4865 23.9336L51.0397 24.4195L51.5874 24.9095L52.1292 25.4034L52.6649 25.901L53.1944 26.4021L53.7174 26.9065L54.2336 27.4139L54.7428 27.9242L55.2449 28.4372L55.7396 28.9526L56.2266 29.4703L56.7059 29.9899L57.1771 30.5114L57.6401 31.0345L58.0947 31.5589L58.5406 32.0845L58.9777 32.6111L59.4058 33.1384L59.8247 33.6662L60.2342 34.1943L60.6342 34.7225L61.0244 35.2507L61.4047 35.7784L61.775 36.3057L62.135 36.8322L62.4846 37.3577L62.8236 37.882L63.1519 38.405L63.4694 38.9264L63.7758 39.4459L64.0712 39.9635L64.3552 40.4789L64.6278 40.9918L64.889 41.5021L65.1384 42.0096L65.3761 42.5141L65.602 43.0153L65.8158 43.5132L66.0176 44.0074L66.2071 44.4978L66.3845 44.9843L66.5494 45.4665L66.7019 45.9444L66.8419 46.4177L66.9694 46.8863L67.0841 47.35L67.1862 47.8085L67.2755 48.2618L67.352 48.7096L67.4156 49.1518L67.4663 49.5883L67.5041 50.0187L67.5289 50.4431L67.5408 50.8611L67.5396 51.2728L67.5254 51.6778L67.4982 52.0761L67.458 52.4674L67.4047 52.8518L67.3385 53.2289L67.2592 53.5988L67.167 53.9611L67.0618 54.3159L66.9437 54.663L66.8127 55.0022L66.6688 55.3334L66.5122 55.6565L66.3428 55.9714L66.1607 56.278L65.966 56.5761L65.7588 56.8657L65.5391 57.1467L65.3069 57.4189L65.0625 57.6823L64.8058 57.9368L64.537 58.1822L64.2562 58.4185L63.9634 58.6457L63.6589 58.8636L63.3426 59.0721L63.0147 59.2713L62.6754 59.461L62.3248 59.6412L61.963 59.8117L61.5901 59.9727L61.2063 60.124L60.8118 60.2655L60.4067 60.3973L59.9911 60.5193L59.5653 60.6314L59.1293 60.7337L58.6834 60.8261L58.2277 60.9086L57.7625 60.9811L57.2878 61.0437L56.804 61.0963L56.3111 61.139L55.8094 61.1717L55.2991 61.1945L54.7804 61.2073L54.2535 61.2102L53.7185 61.2032L53.1758 61.1862L52.6256 61.1594L52.068 61.1227L51.5033 61.0762L50.9317 61.0199L50.3534 60.9539L49.7688 60.8781L49.178 60.7927L48.5812 60.6977L47.9787 60.5931L47.3708 60.479L46.7577 60.3555L46.1397 60.2226L45.5169 60.0803L44.8897 59.9289L44.2583 59.7683L43.623 59.5986L42.9841 59.4199L42.3417 59.2322L41.6962 59.0358L41.0479 58.8306L40.3969 58.6168L39.7436 58.3944L39.0883 58.1636L38.4311 57.9245L37.7725 57.6772L37.1126 57.4217L36.4517 57.1582L35.7902 56.8869L35.1282 56.6078L34.4661 56.321L33.8041 56.0268L33.1426 55.7252L32.4817 55.4163L31.8218 55.1003L31.1631 54.7773L30.506 54.4475L29.8506 54.111L29.1973 53.768L28.5463 53.4185L27.898 53.0628L27.2525 52.701L26.6102 52.3332L25.9714 51.9596L25.3362 51.5804L24.705 51.1957L24.078 50.8057L23.4556 50.4105L22.8379 50.0103L22.2252 49.6053L21.6178 49.1957L21.016 48.7815L20.4199 48.3631L19.8299 47.9405L19.2462 47.5139L18.6691 47.0835L18.0988 46.6495L17.5355 46.2121L16.9795 45.7713L16.431 45.3275L15.8903 44.8808L15.3576 44.4314L14.8331 43.9794L14.317 43.5251L13.8097 43.0686L13.3112 42.6101L12.8218 42.1497L12.3417 41.6878L11.8711 41.2244L11.4103 40.7597L10.9594 40.294L10.5186 39.8274L10.0882 39.36L9.66824 38.8922L9.25898 38.424L8.86059 37.9557L8.47324 37.4874L8.09711 37.0193L7.73236 36.5516L7.37915 36.0845L7.03764 35.6182L6.70798 35.1528L6.39032 34.6886L6.0848 34.2256L5.79156 33.7642L5.51073 33.3044L5.24243 32.8464L4.9868 32.3905L4.74394 31.9368L4.51396 31.4854L4.29699 31.0366L4.0931 30.5905L3.9024 30.1473L3.72498 29.7071L3.56093 29.2701L3.41031 28.8366L3.27322 28.4066L3.1497 27.9803L3.03983 27.5578L2.94366 27.1394L2.86125 26.7252L2.79263 26.3153L2.73784 25.91L2.69693 25.5092L2.66991 25.1133L2.65681 24.7223L2.65764 24.3364L2.67241 23.9557L2.70114 23.5803L2.74381 23.2105L2.80042 22.8463L2.87095 22.4879L2.95539 22.1354L3.05371 21.7889L3.16588 21.4486L3.29186 21.1145L3.43161 20.7869L3.58508 20.4657L3.75222 20.1512L3.93297 19.8434L4.12726 19.5425L4.33501 19.2485L4.55616 18.9615L4.79061 18.6817L5.03829 18.4092L5.2991 18.144L5.57292 17.8862L5.85967 17.636L6.15923 17.3933L6.47148 17.1584L6.7963 16.9312L7.13356 16.7118L7.48314 16.5004L7.84489 16.2969L8.21867 16.1015L8.60432 15.9142L9.00171 15.7351L9.41067 15.5641L9.83104 15.4015L10.2626 15.2472L10.7053 15.1012L11.1589 14.9637L11.6231 14.8346L12.0979 14.714L12.583 14.6019L13.0782 14.4983L13.5834 14.4033L14.0983 14.317L14.6227 14.2392L15.1564 14.1701L15.6991 14.1096L16.2508 14.0577L16.8111 14.0145L17.3797 13.98L17.9566 13.9541L18.5414 13.9369L19.1339 13.9283L19.7338 13.9283L20.341 13.937L20.9551 13.9543L21.5759 13.9801L22.2032 14.0145L22.8366 14.0574L23.476 14.1088L24.121 14.1687L24.7715 14.237L25.4271 14.3137L26.0875 14.3987L26.7525 14.492L27.4218 14.5935L28.0951 14.7033L28.7722 14.8211L29.4528 14.9471L30.1365 15.081L30.8232 15.2229L31.5124 15.3727L32.204 15.5303L32.8976 15.6956L33.5929 15.8686L34.2898 16.0491L34.9877 16.2372L35.6866 16.4327L36.386 16.6355L37.0857 16.8455L37.7854 17.0626L38.4848 17.2868L39.1836 17.518L39.8815 17.756L40.5783 18.0008L41.2735 18.2522L41.967 18.5101L42.6584 18.7744L43.3475 19.0451L44.034 19.322L44.7175 19.6049L45.3978 19.8938L46.0745 20.1885L46.7475 20.489L47.4164 20.7951L48.081 21.1066L48.7409 21.4235L49.3958 21.7455L50.0456 22.0727L50.6899 22.4048L51.3284 22.7417L51.961 23.0833L52.5872 23.4295L53.2069 23.78L53.8197 24.1348L54.4255 24.4937L55.0239 24.8565L55.6147 25.2232L56.1977 25.5936L56.7726 25.9675L57.3391 26.3448L57.8971 26.7254L58.4462 27.109L58.9863 27.4955L59.517 27.8849L60.0383 28.2768L60.5498 28.6713L61.0513 29.0681L61.5426 29.467L62.0236 29.8679L62.4939 30.2708L62.9535 30.6753L63.402 31.0813L63.8394 31.4888L64.2653 31.8975L64.6797 32.3072L65.0823 32.7179L65.473 33.1294L65.8516 33.5414L66.2179 33.9539L66.5718 34.3667L66.9131 34.7796L67.2417 35.1925L67.5574 35.6053L67.8601 36.0176L68.1496 36.4295L68.4259 36.8408L68.6888 37.2513L68.9381 37.6608L69.1738 38.0692L69.3958 38.4763L69.6039 38.8821L69.7981 39.2862L69.9783 39.6887L70.1444 40.0893L70.2963 40.4879L70.4339 40.8844L70.5573 41.2785L70.6662 41.6702L70.7608 42.0594L70.8408 42.4458L70.9064 42.8293L70.9574 43.2098L70.9938 43.5871L71.0156 43.9612L71.0228 44.3319L71.0153 44.699L70.9933 45.0624L70.9566 45.422L70.9052 45.7776L70.8393 46.1292L70.7588 46.4765L70.6637 46.8196L70.5541 47.1582L70.43 47.4922L70.2915 47.8215L70.1386 48.1461L69.9713 48.4657L69.7898 48.7803L69.5941 49.0898L69.3842 49.394L69.1603 49.6929L68.9225 49.9863L68.6708 50.2742L68.4053 50.5564L68.1262 50.8328L67.8335 51.1034L67.5274 51.3681L67.208 51.6267L66.8755 51.8793L66.5298 52.1256L66.1713 52.3657L65.8 52.5993L65.4161 52.8266L65.0198 53.0473L64.6112 53.2615L64.1904 53.469L63.7577 53.6697L63.3132 53.8637L62.8571 54.0508L62.3897 54.231L61.911 54.4043L61.4212 54.5705L60.9207 54.7296L60.4096 54.8817L59.888 55.0265L59.3563 55.1642L58.8146 55.2946L58.2631 55.4177L57.7022 55.5335L57.1319 55.6419L56.5527 55.743L55.9646 55.8366L55.3679 55.9228L54.763 56.0016L54.1499 56.0728L53.5291 56.1366L52.9007 56.1929L52.265 56.2417L51.6223 56.2829L50.9729 56.3166L50.3169 56.3428L49.6548 56.3615L48.9867 56.3726L48.313 56.3763L47.6338 56.3724L46.9496 56.361L46.2606 56.3422L45.5671 56.3159L44.8693 56.2821L44.1676 56.241L43.4622 56.1924L42.7535 56.1365L42.0418 56.0732L41.3273 56.0027L40.6104 55.9249L39.8913 55.8398L39.1703 55.7476L38.4479 55.6483L37.7241 55.5418L36.9995 55.4283L36.2742 55.3078L35.5486 55.1804L34.8229 55.0461L34.0976 54.905L33.3728 54.7571L32.6489 54.6025L31.9262 54.4413L31.2051 54.2735L30.4857 54.0993L29.7685 53.9186L29.0536 53.7316L28.3415 53.5383L27.6324 53.3388L26.9266 53.1332L26.2245 52.9216L25.5262 52.704L24.8322 52.4806L24.1426 52.2514L23.4579 52.0166L22.7782 51.7762L22.1039 51.5303L21.4353 51.279L20.7726 51.0224L20.1161 50.7607L19.4661 50.4939L18.8229 50.2221L18.1868 49.9454L17.558 49.664L16.9367 49.3779L16.3233 49.0873L15.7181 48.7922L15.1212 48.4928L14.5329 48.1892L13.9535 47.8816L13.3832 47.5699L12.8223 47.2544L12.271 46.9352L11.7295 46.6123L11.1981 46.286L10.677 45.9563L10.1664 45.6234L9.66652 45.2873L9.17762 44.9483L8.69988 44.6064L8.23351 44.2618L7.7787 43.9145L7.33565 43.5648L6.90455 43.2127L6.48558 42.8584L6.07894 42.5021L5.68478 42.1438L5.30328 41.7836L4.93461 41.4218L4.57892 41.0584L4.23637 40.6936L3.9071 40.3276L3.59126 39.9603L3.28898 39.5921L3.0004 39.223L2.72564 38.8531L2.46482 38.4826L2.21805 38.1117L1.98545 37.7404L1.76711 37.3689L1.56312 36.9973L1.37359 36.6258L1.19859 36.2545L1.0382 35.8835L0.892492 35.513L0.76153 35.1431L0.645368 34.7739L0.544072 34.4056L0.457678 34.0383L0.386228 33.6721L0.329755 33.3072L0.288292 32.9436L0.261853 32.5816L0.250459 32.2213L0.254115 31.8627L0.272823 31.506L0.30658 31.1514L0.355375 30.7989L0.41919 30.4487L0.498003 30.101L0.59178 29.7557L0.700495 29.4131L0.824094 29.0733L0.962536 28.7364L1.11576 28.4025L1.28371 28.0718L1.46632 27.7442L1.66351 27.4201L1.87521 27.0994L2.10132 26.7823L2.34176 26.4689L2.59642 26.1594L2.86521 25.8537L3.14801 25.5521L3.4447 25.2546L3.75516 24.9613L4.07928 24.6723L4.4169 24.3878L4.7679 24.1079L5.13212 23.8325L5.50942 23.5619L5.89964 23.2961L6.30262 23.0352L6.71819 22.7793L7.14617 22.5285L7.5864 22.2828L8.03868 22.0424L8.50283 21.8074L8.97865 21.5778L9.46595 21.3536L9.96452 21.135L10.4742 20.9221L10.9946 20.7149L11.5258 20.5135L12.0673 20.3179L12.619 20.1283L13.1807 19.9446L13.7521 19.767L14.333 19.5954L14.9231 19.4301L15.5222 19.2709L16.13 19.118L16.7464 18.9715L17.3709 18.8313L18.0034 18.6975L18.6437 18.5701L19.2913 18.4493L19.9461 18.335L20.6078 18.2272L21.2761 18.1261L21.9507 18.0316L22.6313 17.9437L23.3178 17.8625L24.0096 17.7881L24.7067 17.7204L25.4086 17.6595L26.1151 17.6053L26.8259 17.5579L27.5407 17.5173L28.2592 17.4835L28.9811 17.4566L29.7061 17.4365L30.4338 17.4232L31.164 17.4167L31.8964 17.4171L32.6306 17.4242L33.3664 17.4382L34.1034 17.459L34.8413 17.4866L35.5798 17.521L36.3187 17.5622L37.0575 17.6101L37.7961 17.6647L38.5339 17.726L39.2709 17.794L40.0066 17.8687L40.7407 17.95L41.4729 18.0378L42.203 18.1322L42.9306 18.2332L43.6553 18.3406L44.377 18.4545L45.0953 18.5747L45.8098 18.7013L46.5204 18.8342L47.2266 18.9733L47.9282 19.1187L48.6249 19.2701L49.3164 19.4277L50.0024 19.5913L50.6826 19.7608L51.3567 19.9363L52.0245 20.1176L52.6857 20.3047L53.3399 20.4975L53.9869 20.6959L54.6265 20.8998L55.2583 21.1093L55.8821 21.3242L56.4977 21.5443L57.1047 21.7698L57.7029 22.0004L58.2921 22.2361L58.872 22.4768L59.4424 22.7224L60.003 22.9728L60.5536 23.228L61.0939 23.4878L61.6237 23.7521L62.1429 24.021L62.6511 24.2941L63.1483 24.5715L63.634 24.8531L64.1083 25.1387L64.5707 25.4283L65.0213 25.7218L65.4596 26.0189L65.8857 26.3198L66.2993 26.6241L66.7002 26.9319L67.0882 27.243L67.4633 27.5572L67.8251 27.8746L68.1737 28.195L68.5088 28.5182L68.8302 28.8442L69.138 29.1728L69.4318 29.5039L69.7117 29.8374L69.9774 30.1731L70.2289 30.5111L70.466 30.8511L70.6887 31.1929L70.8969 31.5366L71.0905 31.882L71.2693 32.2289L71.4334 32.5772L71.5827 32.9269L71.717 33.2777L71.8363 33.6296L71.9406 33.9824L72.0299 34.336L72.1041 34.6903L72.1631 35.0451L72.207 35.4004L72.2357 35.7559L72.2492 36.1117L72.2475 36.4675L72.2306 36.8232L72.1985 37.1787L72.1513 37.5339L72.0889 37.8886L72.0114 38.2428L71.9188 38.5962L71.8111 38.9488L71.6884 39.3005L71.5508 39.651L71.3983 40.0004L71.2309 40.3484L71.0488 40.695L70.852 41.04L70.6405 41.3833L70.4146 41.7248L70.1743 42.0643L69.9196 42.4018L69.6507 42.7371L69.3678 43.07L69.0708 43.4006L68.7601 43.7286L68.4355 44.054L68.0975 44.3766L67.746 44.6963L67.3811 45.013L67.0032 45.3266L66.6123 45.6369L66.2086 45.9439L65.7922 46.2475L65.3634 46.5475L64.9223 46.8439L64.4691 47.1365L64.004 47.4252L63.5272 47.7099L63.0389 47.9906L62.5393 48.2671L62.0286 48.5393L61.507 48.8071L60.9748 49.0705L60.4322 49.3292L59.8794 49.5833L59.3166 49.8327L58.7441 50.0772L58.1621 50.3168L57.5709 50.5514L56.9707 50.7809L56.3617 51.0052L55.7443 51.2242L55.1187 51.4378L54.4851 51.6461L53.8439 51.8488L53.1952 52.046L52.5395 52.2375L51.8768 52.4233L51.2076 52.6033L50.5321 52.7775L49.8505 52.9457L49.1633 53.108L48.4706 53.2642L47.7728 53.4143L47.0702 53.5583L46.363 53.696L45.6515 53.8275L44.9361 53.9527L44.2171 54.0715L43.4947 54.184L42.7693 54.29L42.0411 54.3894L41.3105 54.4824L40.5778 54.5688L39.8433 54.6486L39.1073 54.7218L38.3702 54.7883L37.6321 54.8482L36.8935 54.9013L36.1546 54.9477L35.4158 54.9874L34.6774 55.0202L33.9396 55.0463L33.2029 55.0656L32.4674 55.0781L31.7336 55.0838L31.0017 55.0826L30.272 55.0746L29.5448 55.0598L28.8205 55.0382L28.0994 55.0097L27.3817 54.9744L26.6678 54.9323L25.9579 54.8834L25.2524 54.8278L24.5515 54.7653L23.8555 54.6961L23.1649 54.6202L22.4797 54.5375L21.8004 54.4482L21.1271 54.3522L20.4603 54.2496L19.8001 54.1404L19.1469 54.0246L18.5008 53.9023L17.8623 53.7735L17.2315 53.6383L16.6088 53.4967L15.9943 53.3487L15.3884 53.1944L14.7913 53.0339L14.2032 52.8672L13.6244 52.6943L13.0551 52.5153L12.4957 52.3303L11.9462 52.1393L11.4069 51.9425L10.8781 51.7397L10.3601 51.5313L9.85286 51.3171L9.35677 51.0973L8.872 50.8719L8.39875 50.641L7.93722 50.4048L7.4876 50.1632L7.05008 49.9164L6.62484 49.6645L6.21205 49.4075L5.81189 49.1455L5.42452 48.8786L5.05011 48.6069L4.68881 48.3305L4.34077 48.0495L4.00614 47.764L3.68505 47.4741L3.37763 47.1799L3.08401 46.8815L2.80431 46.5789L2.53865 46.2724L2.28714 45.962L2.04987 45.6477L1.82696 45.3298L1.61847 45.0084L1.42452 44.6835L1.24515 44.3552L1.08047 44.0238L0.93052 43.6892L0.795367 43.3516L0.675067 43.0112L0.569668 42.668L0.479206 42.3222L0.403722 41.9739L0.343242 41.6232L0.297784 41.2702L0.26737 40.9151L0.252001 40.558L0.25169 40.199L0.266427 39.8383L0.296202 39.4759L0.341001 39.1121L0.400797 38.7469L0.475571 38.3804L0.565278 38.0129L0.669881 37.6444L0.78933 37.275L0.923573 36.905L1.07255 36.5343L1.23619 36.1633L1.41442 35.7919L1.60717 35.4204L1.81435 35.0488L2.03587 34.6773L2.27163 34.3061L2.52153 33.9352L2.78545 33.5649L3.06329 33.1952L3.35492 32.8262L3.66022 32.4582L3.97906 32.0912L4.31128 31.7254L4.65677 31.3609L5.01535 30.9979L5.38689 30.6364L5.77121 30.2767L6.16816 29.9188L6.57755 29.5629L6.99923 29.2091L7.43299 28.8575L7.87867 28.5083L8.33607 28.1617L8.80498 27.8176L9.28522 27.4763L9.77657 27.138L10.2788 26.8026L10.7918 26.4704L11.3152 26.1414L11.8488 25.8158L12.3925 25.4938L12.946 25.1754L13.509 24.8607L14.0814 24.5499L14.6627 24.2432L15.253 23.9405L15.8518 23.6421L16.4588 23.348L17.074 23.0584L17.6969 22.7733L18.3274 22.4929L18.9652 22.2173L19.6099 21.9466L20.2613 21.6809L20.9192 21.4203L21.5832 21.1649L22.2532 20.9148L22.9287 20.6701L23.6095 20.4309L24.2953 20.1974L24.9859 19.9695L25.6809 19.7474L26.38 19.5311L27.083 19.3208L27.7896 19.1166L28.4994 18.9184L29.2121 18.7265L29.9275 18.5409L30.6453 18.3616L31.3651 18.1888L32.0866 18.0225L32.8096 17.8627L33.5337 17.7096L34.2586 17.5633L34.984 17.4236L35.7097 17.2909L36.4353 17.165L37.1604 17.046L37.8849 16.9341L38.6084 16.8292L39.3306 16.7315L40.0511 16.6408L40.7698 16.5574L41.4862 16.4812L42.2001 16.4123L42.9112 16.3506L43.6192 16.2963L44.3237 16.2494L45.0246 16.2099L45.7214 16.1778L46.414 16.1532L47.102 16.136L47.7851 16.1263L48.463 16.1241L49.1355 16.1294L49.8023 16.1422L50.4631 16.1625L51.1177 16.1904L51.7656 16.2258L52.4068 16.2687L53.0409 16.3191L53.6676 16.3771L54.2867 16.4425L54.898 16.5154L55.5011 16.5958L56.0959 16.6837L56.6821 16.779L57.2593 16.8817L57.8275 16.9917L58.3864 17.1092L58.9357 17.2339L59.4752 17.3659L60.0047 17.5052L60.524 17.6516L61.0328 17.8052L61.5309 17.966L62.0182 18.1338L62.4944 18.3085L62.9594 18.4903L63.4129 18.679L63.8548 18.8744L64.2849 19.0767L64.703 19.2857L65.1089 19.5013L65.5025 19.7235L65.8836 19.9522L66.252 20.1873L66.6077 20.4287L66.9504 20.6764L67.2801 20.9303L67.5966 21.1903L67.8997 21.4563L68.1893 21.7282L68.4654 22.006L68.7279 22.2894L68.9765 22.5785L69.2113 22.8732L69.432 23.1733L69.6388 23.4786L69.8313 23.7893L70.0097 24.105L70.1738 24.4257L70.3235 24.7513L70.4588 25.0817L70.5797 25.4168L70.6861 25.7564L70.7779 26.1004L70.8552 26.4487L70.9179 26.8012L70.966 27.1577L70.9994 27.5182L71.0182 27.8824L71.0224 28.2503L71.012 28.6217L70.9869 28.9965L70.9473 29.3746L70.8931 29.7558L70.8243 30.14L70.741 30.527L70.6433 30.9167L70.5311 31.3089L70.4046 31.7036L70.2638 32.1006L70.1087 32.4996L69.9395 32.9007L69.7562 33.3035L69.5589 33.7081L69.3477 34.1141L69.1227 34.5216L68.8839 34.9302L68.6316 35.34L68.3657 35.7506L68.0865 36.162L67.794 36.5741L67.4884 36.9865L67.1698 37.3993L66.8384 37.8122L66.4943 38.2251L66.1376 38.6379L65.7686 39.0503L65.3873 39.4622L64.9939 39.8735L64.5887 40.284L64.1717 40.6935L63.7432 41.102L63.3034 41.5091L62.8524 41.9148L62.3904 42.319L61.9177 42.7214L61.4344 43.1219L60.9408 43.5204L60.437 43.9167L59.9234 44.3106L59.4 44.702L58.8671 45.0907L58.3251 45.4766L57.7739 45.8596L57.2141 46.2394L56.6457 46.616L56.069 46.9891L55.4842 47.3587L54.8917 47.7245L54.2916 48.0865L53.6843 48.4445L53.0699 48.7984L52.4487 49.1479L51.8211 49.4931L51.1872 49.8336L50.5473 50.1695L49.9018 50.5005L49.2509 50.8266L48.5948 51.1475L47.9338 51.4632L47.2683 51.7735L46.5984 52.0784L45.9246 52.3776L45.247 52.671L44.566 52.9586L43.8818 53.2402L43.1948 53.5157L42.5051 53.785L41.8132 54.0479L41.1193 54.3044L40.4237 54.5543L39.7267 54.7976L39.0285 55.0341L38.3296 55.2637L37.6301 55.4864L36.9303 55.7019L36.2307 55.9104L35.5313 56.1115L34.8327 56.3054L34.1349 56.4918L33.4384 56.6706L32.7434 56.8419L32.0502 57.0055L31.3592 57.1614L30.6705 57.3094L29.9845 57.4496L29.3014 57.5818L28.6216 57.7059L27.9453 57.822L27.2728 57.9299L26.6045 58.0296L25.9404 58.1211L25.2811 58.2043L24.6266 58.2791L23.9773 58.3455L23.3335 58.4035L22.6954 58.453L22.0633 58.494L21.4375 58.5265L20.8181 58.5505L20.2055 58.5658L19.6 58.5726L19.0017 58.5707L18.4109 58.5602L17.8278 58.541L17.2527 58.5132L16.6859 58.4768L16.1275 58.4317L15.5778 58.3779L15.0371 58.3155L14.5054 58.2444L13.9831 58.1648L13.4704 58.0765L12.9674 57.9796L12.4744 57.8741L11.9916 57.7602L11.5191 57.6377L11.0572 57.5067L10.6061 57.3673L10.1658 57.2195L9.73672 57.0633L9.31888 56.8988L8.91247 56.726L8.51767 56.5451L8.13464 56.356L7.76352 56.1587L7.40446 55.9535L7.05761 55.7403L6.7231 55.5192L6.40105 55.2903L6.09161 55.0536L5.79489 54.8093L5.511 54.5574L5.24006 54.2979L4.98216 54.0311L4.73741 53.7569L4.5059 53.4755L4.28772 53.187L4.08295 52.8915L3.89166 52.589L3.71393 52.2797L3.54982 51.9637L3.39939 51.6411L3.26269 51.312L3.13978 50.9765L3.03068 50.6348L2.93544 50.287L2.85409 49.9332L2.78664 49.5734L2.73313 49.208L2.69356 48.8369L2.66793 48.4604L2.65625 48.0786L2.65851 47.6915L2.6747 47.2994L2.70481 46.9024L2.74881 46.5006L2.80667 46.0942L2.87835 45.6834L2.96383 45.2682L3.06305 44.8489L3.17595 44.4256L3.30249 43.9984L3.44259 43.5676L3.5962 43.1333L3.76322 42.6956L3.9436 42.2548L4.13723 41.8109L4.34403 41.3642L4.56391 40.9148L4.79675 40.4629L5.04246 40.0086L5.30092 39.5522L5.57201 39.0939L5.8556 38.6337L6.15159 38.1719L6.45981 37.7086L6.78015 37.2441L7.11245 36.7785L7.45657 36.312L7.81236 35.8447L8.17965 35.377L8.55828 34.9088L8.9481 34.4405L9.34892 33.9722L9.76057 33.5041L10.1829 33.0363L10.6156 32.5691L11.0587 32.1027L11.5118 31.6372L11.9748 31.1728L12.4475 30.7097L12.9296 30.2481L13.4211 29.7881L13.9216 29.33L14.4309 28.874L14.9488 28.4202L15.4752 27.9687L16.0097 27.5199L16.5522 27.0738L17.1023 26.6307L17.66 26.1907L18.2248 25.754L18.7967 25.3208L19.3753 24.8912L19.9604 24.4655L20.5517 24.0438L21.1491 23.6263L21.7522 23.2131L22.3608 22.8045L22.9746 22.4006L23.5934 22.0015L24.2169 21.6074L24.8448 21.2186L25.4769 20.8351L26.1129 20.4571L26.7526 20.0848L27.3956 19.7183L28.0417 19.3579L28.6906 19.0035L29.3422 18.6555L29.9959 18.3138L30.6517 17.9788L31.3092 17.6505L31.9682 17.3291L32.6284 17.0147L33.2894 16.7074L33.9511 16.4074L34.6131 16.1148L35.2752 15.8297L35.9371 15.5524L36.5985 15.2828L37.2592 15.0211L37.9189 14.7674L38.5772 14.5219L39.234 14.2846L39.8889 14.0556L40.5417 13.8352L41.1921 13.6233L41.8398 13.42L42.4846 13.2255L43.1262 13.0399L43.7644 12.8631L44.3989 12.6955L45.0293 12.5369L45.6556 12.3875L46.2773 12.2473L46.8943 12.1165L47.5063 11.995L48.113 11.883L48.7142 11.7806L49.3097 11.6877L49.8992 11.6044L50.4824 11.5308L51.0592 11.4669L51.6293 11.4128L52.1924 11.3685L52.7484 11.334L53.297 11.3093L53.838 11.2946L54.3712 11.2898L54.8963 11.2948L55.4131 11.3099L55.9216 11.3348L56.4213 11.3698L56.9122 11.4147L57.394 11.4695L57.8666 11.5343L58.3297 11.6091L58.7832 11.6937L59.227 11.7883L59.6607 11.8928L60.0843 12.0071L60.4975 12.1313L60.9003 12.2652L61.2925 12.4089L61.6738 12.5624L62.0443 12.7255L62.4036 12.8982L62.7517 13.0805L63.0885 13.2723L63.4138 13.4735L63.7275 13.6842L64.0295 13.9041L64.3196 14.1333L64.5977 14.3717L64.8639 14.6191L65.1178 14.8756L65.3595 15.1409L65.5889 15.4151L65.8059 15.698L66.0103 15.9895L66.2022 16.2895L66.3815 16.598L66.5481 16.9147L66.7019 17.2396L66.8429 17.5726L66.971 17.9136L67.0862 18.2624L67.1886 18.6188L67.2779 18.9829L67.3543 19.3543L67.4177 19.7331L67.468 20.119L67.5054 20.5119L67.5297 20.9117L67.541 21.3182L67.5393 21.7313L67.5246 22.1508L67.4968 22.5765L67.4562 23.0083L67.4026 23.446L67.3361 23.8895L67.2568 24.3385L67.1646 24.793L67.0597 25.2527L66.9422 25.7175L66.8119 26.1871L66.6691 26.6615L66.5139 27.1403L66.3462 27.6235L66.1661 28.1109L65.9738 28.6022L65.7693 29.0972L65.5528 29.5958L65.3244 30.0978L65.084 30.603L64.832 31.1111L64.5683 31.622L64.2931 32.1355L64.0065 32.6514L63.7087 33.1694L63.3998 33.6894L63.0799 34.2112L62.7492 34.7344L62.4078 35.2591L62.0559 35.7848L61.6937 36.3115L61.3212 36.8389L60.9386 37.3667L60.5462 37.8949L60.1441 38.4231L59.7325 38.9512L59.3115 39.4789L58.8814 40.0061L58.4423 40.5324L57.9945 41.0578L57.538 41.582L57.0732 42.1047L56.6002 42.6258L56.1192 43.145L55.6304 43.6622L55.134 44.1771L54.6304 44.6895L54.1195 45.1992L53.6018 45.7059L53.0774 46.2096L52.5465 46.71L52.0094 47.2067L51.4663 47.6998L50.9174 48.1889L50.3629 48.6739L49.8032 49.1545L49.2383 49.6305L48.6686 50.1018L48.0944 50.5682L47.5158 51.0293L46.933 51.4852L46.3465 51.9355L45.7563 52.3801L45.1627 52.8188L44.566 53.2513L43.9665 53.6776L43.3643 54.0974L42.7598 54.5106L42.1532 54.9169L41.5447 55.3162L40.9346 55.7084L40.3232 56.0932L39.7106 56.4705L39.0973 56.8402L38.4833 57.202L37.869 57.5558L37.2546 57.9014L36.6404 58.2388L36.0266 58.5677L35.4135 58.888L34.8013 59.1996L34.1904 59.5023L33.5808 59.796L32.973 60.0806L32.367 60.3558L31.7633 60.6217L31.162 60.878L30.5633 61.1248L29.9676 61.3617L29.3751 61.5888L28.7859 61.8059L28.2004 62.013L27.6187 62.2099L27.0412 62.3965L26.468 62.5728L25.8994 62.7386L25.3356 62.8939L24.7769 63.0386L24.2234 63.1726L23.6754 63.2959L23.1331 63.4083L22.5967 63.5099L22.0664 63.6006L21.5425 63.6803L21.0251 63.7489L20.5145 63.8065L20.0108 63.8529L19.5143 63.8882L19.0252 63.9124L18.5436 63.9253L18.0698 63.927L17.6038 63.9175L17.146 63.8967L16.6965 63.8647L16.2554 63.8214L15.8229 63.7668L15.3993 63.701L14.9846 63.6239L14.579 63.5357L14.1827 63.4362L13.7959 63.3255L13.4186 63.2037L13.051 63.0708L12.6933 62.9268L12.3456 62.7717L12.008 62.6057L11.6807 62.4287L11.3638 62.2409L11.0573 62.0423L10.7615 61.8329L10.4764 61.6128L10.2021 61.3821L9.93869 61.1409L9.68632 60.8893L9.44505 60.6273L9.21498 60.3551L8.99618 60.0727L8.78872 59.7803L8.59268 59.4779L8.40813 59.1656L8.23512 58.8437L8.07371 58.5121L7.92396 58.171L7.78592 57.8206L7.65961 57.461L7.54509 57.0922L7.44238 56.7146L7.35151 56.3281L7.27251 55.9329L7.20538 55.5292L7.15015 55.1172L7.10683 54.697L7.0754 54.2687L7.05588 53.8325L7.04825 53.3886L7.0525 52.9372L7.06863 52.4785L7.09659 52.0125L7.13638 51.5396L7.18795 51.0598L7.25127 50.5734L7.3263 50.0806L7.41299 49.5815L7.5113 49.0763L7.62116 48.5653L7.74253 48.0487L7.87533 47.5266L8.01949 46.9993L8.17494 46.4669L8.34161 45.9298L8.51941 45.388L8.70824 44.8419L8.90803 44.2915L9.11868 43.7373L9.34008 43.1793L9.57212 42.6178L9.81471 42.053L10.0677 41.4852L10.3311 40.9145L10.6046 40.3413L10.8882 39.7657L11.1817 39.188L11.485 38.6084L11.798 38.0272L12.1205 37.4445L12.4524 36.8607L12.7935 36.2759L13.1437 35.6904L13.5028 35.1045L13.8707 34.5183L14.2472 33.9321L14.6321 33.3463L15.0253 32.7609L15.4266 32.1762L15.8358 31.5926L16.2528 31.0101L16.6773 30.4292L17.1092 29.8499L17.5483 29.2726L17.9945 28.6975L18.4474 28.1248L18.9069 27.5547L19.3729 26.9876L19.8451 26.4236L20.3233 25.863L20.8073 25.306L21.297 24.7528L21.792 24.2037L22.2923 23.6589L22.7975 23.1187L23.3075 22.5832L23.8221 22.0527L24.341 21.5274L24.864 21.0076L25.391 20.4934L25.9216 19.9851L26.4557 19.4829L26.993 18.987L27.5333 18.4976L28.0765 18.0149L28.6222 17.5392L29.1702 17.0706L29.7204 16.6094L30.2724 16.1557L30.8262 15.7098L31.3813 15.2718L31.9376 14.8419L32.495 14.4203L33.053 14.0072L33.6116 13.6027L34.1705 13.2072L34.7295 12.8206L35.2882 12.4432L35.8466 12.0752L36.4044 11.7168L36.9613 11.368L37.5172 11.029L38.0717 10.7L38.6248 10.3812L39.1761 10.0726L39.7254 9.7745L40.2725 9.48692L40.8173 9.21002L41.3594 8.94394L41.8987 8.68879L42.4349 8.4447L42.9679 8.21178L43.4974 7.99012L44.0232 7.77985L44.5451 7.58107L45.0629 7.39385L45.5763 7.21831L46.0853 7.05452L46.5896 6.90256L47.0889 6.76251L47.5832 6.63445L48.0721 6.51844L48.5556 6.41453L49.0333 6.3228L49.5053 6.24328L49.9711 6.17603L50.4308 6.12109L50.884 6.0785L51.3306 6.04828L51.7705 6.03047L52.2035 6.02508L52.6294 6.03213L53.0481 6.05164L53.4593 6.0836L53.863 6.12803L54.2589 6.18491L54.647 6.25423L55.0271 6.33599L55.3991 6.43015L55.7627 6.53671L56.1179 6.65562L56.4645 6.78685L56.8025 6.93036L57.1317 7.0861L57.4519 7.25403L57.7631 7.43409L58.0651 7.62621L58.3578 7.83034L58.6412 8.04639L58.9151 8.2743L59.1794 8.51397L59.4341 8.76534L59.679 9.0283L59.914 9.30275L60.1392 9.58861L60.3543 9.88575L60.5594 10.1941L60.7544 10.5135L60.9391 10.8438L61.1136 11.185L61.2778 11.5368L61.4316 11.8992L61.575 12.272L61.708 12.6551L61.8305 13.0483L61.9424 13.4515L62.0438 13.8645L62.1346 14.2872L62.2148 14.7194L62.2844 15.1609L62.3433 15.6115L62.3917 16.0711L62.4293 16.5395L62.4564 17.0165L62.4728 17.502L62.4786 17.9956L62.4738 18.4973L62.4583 19.0068L62.4323 19.524L62.3958 20.0485L62.3488 20.5803L62.2912 21.1191L62.2233 21.6646L62.1449 22.2168L62.0562 22.7752L61.9572 23.3398L61.848 23.9103L61.7285 24.4864L61.599 25.068L61.4594 25.6547L61.3098 26.2464L61.1503 26.8428L60.981 27.4437L60.802 28.0488L60.6133 28.6578L60.415 29.2706L60.2073 29.8869L59.9902 30.5064L59.7638 31.1288L59.5283 31.754L59.2837 32.3816L59.0302 33.0115L58.7678 33.6432L58.4967 34.2767L58.2171 34.9116L57.929 35.5476L57.6325 36.1845L57.3279 36.8221L57.0152 37.46L56.6946 38.098L56.3662 38.7358L56.0301 39.3732L55.6866 40.0099L55.3357 40.6457L54.9776 41.2802L54.6125 41.9133L54.2404 42.5445L53.8617 43.1738L53.4764 43.8008L53.0848 44.4252L52.6869 45.0468L52.2829 45.6654L51.8731 46.2806L51.4575 46.8922L51.0364 47.5L50.61 48.1037L50.1783 48.703L49.7417 49.2977L49.3002 49.8876L48.8541 50.4723L48.4036 51.0517L47.9488 51.6254L47.49 52.1933L47.0272 52.7551L46.5608 53.3106L46.0908 53.8595L45.6176 54.4016L45.1413 54.9367L44.662 55.4644L44.18 55.9847L43.6955 56.4973L43.2087 57.0019L42.7197 57.4984L42.2288 57.9865L41.7362 58.4661L41.2421 58.9368L40.7466 59.3985L40.25 59.8511L39.7525 60.2942L39.2542 60.7278L38.7554 61.1516L38.2563 61.5654L37.757 61.9691L37.2579 62.3625L36.7589 62.7454L36.2605 63.1176L35.7627 63.479L35.2657 63.8294L34.7699 64.1686L34.2752 64.4966L33.782 64.8131L33.2905 65.118L32.8008 65.4112L32.3131 65.6926L31.8277 65.962L31.3446 66.2192L30.8641 66.4643L30.3864 66.697L29.9117 66.9172L29.4401 67.125L28.9719 67.32L28.5072 67.5023L28.0461 67.6718L27.589 67.8284L27.1358 67.972L26.6869 68.1026L26.2424 68.22L25.8024 68.3243L25.3672 68.4152L24.9369 68.493L24.5116 68.5573L24.0915 68.6084L23.6768 68.646L23.2676 68.6701L22.8641 68.6808L22.4664 68.6781L22.0747 68.6619L21.6891 68.6322L21.3098 68.589L20.9369 68.5323L20.5705 68.4621L20.2108 68.3785L19.8579 68.2815L19.512 68.1711L19.1731 68.0473L18.8414 67.9102L18.517 67.7599L18.2 67.5963L17.8906 67.4195L17.5888 67.2297L17.2947 67.0268L17.0085 66.8109L16.7303 66.5821L16.4601 66.3406L16.198 66.0863L15.9442 65.8195L15.6987 65.5401L15.4616 65.2483L15.2329 64.9442L15.0129 64.628L14.8014 64.2997L14.5987 63.9594L14.4047 63.6074L14.2196 63.2437L14.0433 62.8685L13.876 62.4819L13.7176 62.0841L13.5683 61.6753L13.4281 61.2555L13.297 60.8251L13.1751 60.384L13.0623 59.9326L12.9588 59.471L12.8645 58.9993L12.7795 58.5178L12.7038 58.0267L12.6373 57.5262L12.5802 57.0164L12.5324 56.4975L12.4939 55.9699L12.4647 55.4336L12.4449 54.889L12.4343 54.3362L12.433 53.7754L12.4411 53.2069L12.4583 52.6309L12.4848 52.0477L12.5206 51.4575L12.5655 50.8605L12.6195 50.2569L12.6827 49.6471L12.755 49.0313L12.8362 48.4097L12.9265 47.7825L13.0257 47.1501L13.1338 46.5127L13.2506 45.8706L13.3763 45.224L13.5106 44.5731L13.6536 43.9184L13.8051 43.2599L13.9651 42.5981L14.1336 41.9332L14.3103 41.2654L14.4953 40.595L14.6884 39.9224L14.8897 39.2477L15.0989 38.5713L15.3159 37.8935L15.5408 37.2145L15.7733 36.5346L16.0134 35.8541L16.261 35.1733L16.516 34.4925L16.7782 33.8119L17.0475 33.1319L17.3239 32.4527L17.6071 31.7747L17.8972 31.098L18.1938 30.423L18.497 29.7499L18.8066 29.0792L19.1225 28.4109L19.4445 27.7455L19.7725 27.0831L20.1064 26.4241L20.4459 25.7688L20.7911 25.1174L21.1417 24.4702L21.4975 23.8275L21.8585 23.1895L22.2245 22.5566L22.5954 21.9289L22.9709 21.3068L23.3509 20.6906L23.7354 20.0804L24.124 19.4765L24.5167 18.8793L24.9134 18.2889L25.3137 17.7056L25.7177 17.1297L26.125 16.5613L26.5357 16.0009L26.9494 15.4485L27.366 14.9044L27.7854 14.3689L28.2074 13.8421L28.6318 13.3244L29.0585 12.816L29.4872 12.317L29.9179 11.8276L30.3503 11.3481L30.7843 10.8788L31.2197 10.4197L31.6564 9.97113L32.0941 9.53325L32.5327 9.10624L32.972 8.6903L33.4118 8.28561L33.8521 7.89235L34.2926 7.51068L34.7331 7.14078L35.1734 6.7828L35.6135 6.43692L36.0531 6.10327L36.4921 5.78201L36.9302 5.47328L37.3674 5.17722L37.8035 4.89396L38.2382 4.62363L38.6715 4.36634L39.1031 4.12222L39.5329 3.89138L39.9608 3.67392L40.3865 3.46994L40.81 3.27953L41.231 3.10279L41.6494 2.9398L42.0651 2.79063L42.4779 2.65535L42.8875 2.53403L43.294 2.42674L43.6971 2.33351L44.0967 2.25442L44.4926 2.18948L44.8847 2.13874L45.2729 2.10224L45.6569 2.07998L46.0367 2.072L46.4122 2.07831L46.7831 2.0989L47.1494 2.13379L47.5109 2.18295L47.8675 2.2464L48.219 2.32409L48.5654 2.41602L48.9065 2.52214L49.2422 2.64244L49.5724 2.77685L49.8969 2.92534L50.2157 3.08785L50.5286 3.26431L50.8355 3.45468L51.1363 3.65886L51.4309 3.87679L51.7192 4.10839L52.0011 4.35355L52.2766 4.6122L52.5454 4.88422L52.8076 5.16952L53.063 5.46797L53.3115 5.77946L53.5531 6.10387L53.7877 6.44106L54.0152 6.79092L54.2355 7.15328L54.4486 7.52802L54.6543 7.91498L54.8527 8.31399L55.0436 8.72492L55.2271 9.14758L55.403 9.5818L55.5712 10.0274L55.7318 10.4842L55.8847 10.9521L56.0299 11.4308L56.1672 11.9201L56.2967 12.4199L56.4183 12.9299L56.532 13.4499L56.6378 13.9797L56.7356 14.5191L56.8254 15.0679L56.9072 15.6259L56.9809 16.1927L57.0467 16.7683L57.1043 17.3523L57.1539 17.9445L57.1955 18.5447L57.2289 19.1526L57.2543 19.7679L57.2716 20.3905L57.2809 21.02L57.2821 21.6562L57.2752 22.2988L57.2604 22.9476L57.2375 23.6023L57.2066 24.2626L57.1678 24.9283L57.1211 25.599L57.0664 26.2745L57.0039 26.9545L56.9335 27.6387L56.8554 28.3269L56.7695 29.0187L56.6759 29.7139L56.5746 30.4121L56.4658 31.1131L56.3493 31.8166L56.2254 32.5223L56.0941 33.2299L55.9553 33.9391L55.8093 34.6496L55.656 35.3611L55.4955 36.0733L55.3279 36.7859L55.1532 37.4986L54.9717 38.2111L54.7832 38.9232L54.5879 39.6344L54.386 40.3445L54.1774 41.0533L53.9622 41.7603L53.7406 42.4654L53.5127 43.1682L53.2785 43.8684L53.0382 44.5657L52.7918 45.2598L52.5394 45.9505L52.2812 46.6374L52.0172 47.3203L51.7476 47.9989L51.4724 48.6728L51.1919 49.3418L50.906 50.0056L50.6149 50.6639L50.3188 51.3165L50.0177 51.963L49.7118 52.6032L49.4011 53.2369L49.0859 53.8637L48.7662 54.4834L48.4421 55.0957L48.1139 55.7003L47.7815 56.2971L47.4452 56.8857L47.1051 57.4659L46.7613 58.0375L46.414 58.6001L46.0632 59.1536L45.7091 59.6978L45.3519 60.2323L44.9916 60.757L44.6285 61.2717L44.2627 61.776L43.8943 62.2699L43.5234 62.753L43.1502 63.2253L42.7748 63.6864L42.3975 64.1362L42.0182 64.5745L41.6372 65.001L41.2546 65.4157L40.8705 65.8183L40.4851 66.2087L40.0986 66.5867L39.7111 66.9521L39.3227 67.3047L38.9335 67.6445L38.5438 67.9712L38.1536 68.2848L37.7632 68.585L37.3726 68.8718L36.982 69.1451L36.5916 69.4046L36.2014 69.6503L35.8117 69.8821L35.4225 70.0999L35.0341 70.3035L34.6465 70.493L34.26 70.6681L33.8745 70.8289L33.4904 70.9753L33.1077 71.1071L32.7265 71.2243L32.3471 71.327L31.9694 71.4149L31.5938 71.4881L31.2203 71.5466L30.849 71.5903L30.4801 71.6191L30.1137 71.6332L29.75 71.6324L29.389 71.6167L29.031 71.5863L28.676 71.5409L28.3241 71.4808L27.9755 71.4058L27.6303 71.3161L27.2887 71.2117L26.9507 71.0925L26.6165 70.9587L26.2862 70.8102L25.9598 70.6472L25.6376 70.4698L25.3196 70.2779L25.006 70.0716L24.6968 69.8511L24.3922 69.6165L24.0922 69.3677L23.797 69.105L23.5067 68.8284L23.2213 68.5381L22.941 68.2341L22.6659 67.9166L22.396 67.5857L22.1315 67.2415L21.8725 66.8843L21.6189 66.514L21.371 66.131L21.1288 65.7353L20.8923 65.3271L20.6617 64.9066L20.4371 64.4739L20.2184 64.0292L20.0058 63.5728L19.7994 63.1047L19.5992 62.6253L19.4053 62.1346L19.2178 61.6329L19.0366 61.1204L18.8619 60.5973L18.6938 60.0639L18.5322 59.5203L18.3773 58.9668L18.229 58.4036L18.0874 57.8309L17.9526 57.2491L17.8247 56.6582L17.7035 56.0586L17.5893 55.4505L17.4819 54.8342L17.3816 54.21L17.2881 53.578L17.2017 52.9386L17.1223 52.292L17.05 51.6385L16.9847 50.9783L16.9265 50.3118L16.8754 49.6393L16.8314 48.9609L16.7945 48.277L16.7647 47.5879L16.742 46.8939L16.7265 46.1952L16.7181 45.4921L16.7167 44.7851L16.7225 44.0742L16.7354 43.3599L16.7554 42.6424L16.7824 41.9221L16.8165 41.1992L16.8576 40.474L16.9058 39.7469L16.9609 39.0182L17.0229 38.2881L17.0919 37.557L17.1678 36.8252L17.2506 36.093L17.3401 35.3607L17.4365 34.6285L17.5396 33.8969L17.6494 33.1662L17.7659 32.4365L17.8889 31.7083L18.0185 30.9818L18.1546 30.2574L18.2972 29.5353L18.4461 28.8159L18.6014 28.0995L18.7629 27.3864L18.9307 26.6768L19.1045 25.971L19.2844 25.2695L19.4704 24.5724L19.6622 23.8801L19.8599 23.1928L20.0634 22.5109L20.2725 21.8346L20.4873 21.1643L20.7076 20.5001L20.9333 19.8424L21.1645 19.1915L21.4008 18.5476L21.6424 17.9111L21.889 17.2821L22.1407 16.6609L22.3972 16.0479L22.6586 15.4433L22.9246 14.8472L23.1953 14.2601L23.4705 13.6821L23.7501 13.1134L24.034 12.5544L24.3221 12.0053L24.6142 11.4662L24.9104 10.9374L25.2104 10.4192L25.5142 9.91177L25.8216 9.4153L26.1326 8.93001L26.447 8.45612L26.7647 7.99383L27.0856 7.54334L27.4096 7.10483L27.7365 6.6785L28.0663 6.26452L28.3987 5.86307L28.7338 5.47433L29.0713 5.09846L29.4112 4.73562L29.7534 4.38596L30.0976 4.04964L30.4438 3.7268L30.7918 3.41757L31.1416 3.12209L31.493 2.84049L31.8458 2.57289L32.2 2.3194L32.5555 2.08013L32.912 1.85518L33.2695 1.64466L33.6278 1.44864L33.9868 1.26722L34.3464 1.10048L34.7064 0.948482L35.0668 0.811299L35.4274 0.688988L35.788 0.581607L36.1486 0.489199L36.5089 0.411803L36.869 0.349456L37.2286 0.30219L37.5876 0.270024L37.9459 0.25297L38.3034 0.25104L38.6599 0.264235L39.0153 0.292559L39.3696 0.33599L39.7224 0.394518L40.0738 0.468119L40.4237 0.556764L40.7718 0.660418L41.1181 0.779037L41.4624 0.912577L41.8046 1.06097L42.1447 1.22418L42.4824 1.40211L42.8177 1.59471L43.1504 1.80189L43.4805 2.02356L43.8078 2.25964L44.1321 2.51002L44.4534 2.7746L44.7717 3.05328L45.0866 3.34592L45.3982 3.65243L45.7064 3.97265L46.0109 4.30646L46.3118 4.65373L46.6089 5.0143L46.9021 5.38802L47.1913 5.77474L47.4765 6.1743L47.7574 6.58652L48.034 7.01124L48.3063 7.44828L48.574 7.89745L48.8372 8.35857L49.0957 8.83143L49.3495 9.31585L49.5984 9.81162L49.8424 10.3185L50.0813 10.8364L50.3152 11.3649L50.5438 11.9039L50.7672 12.4532L50.9853 13.0126L51.1979 13.5817L51.405 14.1604L51.6066 14.7483L51.8025 15.3454L51.9927 15.9513L52.1772 16.5657L52.3558 17.1884L52.5285 17.8191L52.6952 18.4577L52.856 19.1037L53.0106 19.7569L53.1592 20.4172L53.3015 21.084L53.4377 21.7573L53.5675 22.4367L53.6911 23.1219L53.8082 23.8127L53.919 24.5087L54.0233 25.2096L54.1212 25.9152L54.2125 26.6252L54.2973 27.3392L54.3756 28.057L54.4472 28.7782L54.5122 29.5026L54.5705 30.2298L54.6222 30.9596L54.6672 31.6916L54.7055 32.4255L54.737 33.1611L54.7619 33.8979L54.78 34.6357L54.7914 35.3743L54.796 36.1131" stroke="url(#paint0_linear_113_3109)" stroke-width="0.5"/>
<defs>
<linearGradient id="paint0_linear_113_3109" x1="0.25" y1="36.25" x2="72.25" y2="36.25" gradientUnits="userSpaceOnUse">
<stop offset="0.0288462" stop-color="#2E99DB"/>
<stop offset="0.5" stop-color="#2C8BCA"/>
<stop offset="1"/>
</linearGradient>
</defs>
</svg>
