<svg width="27" height="27" viewBox="0 0 27 27" fill="none" xmlns="http://www.w3.org/2000/svg">
<g clip-path="url(#clip0_113_2908)">
<path fill-rule="evenodd" clip-rule="evenodd" d="M6.63608 20.6927C10.2981 24.3548 16.3635 24.2322 20.2978 20.2979C24.2321 16.3636 24.3547 10.2982 20.6927 6.63613C20.1217 6.06519 16.5122 8.74902 12.6306 12.6306C8.74897 16.5123 6.06514 20.1218 6.63608 20.6927ZM10.6847 22.7632C13.8542 23.6449 17.484 22.7671 20.1255 20.1256C22.767 17.4841 23.6448 13.8542 22.7631 10.6848C23.2739 13.6343 22.197 17.0203 19.6086 19.6087C17.0202 22.1971 13.6342 23.274 10.6847 22.7632ZM19.4363 19.4364C16.7289 22.1439 13.1472 23.1472 10.1555 22.3876C12.9446 22.771 16.2817 21.5573 18.9194 18.9195C21.5572 16.2817 22.7709 12.9446 22.3876 10.1556C23.1472 13.1473 22.1438 16.7289 19.4363 19.4364ZM9.63415 22.0311C12.4324 22.6675 15.9645 21.5299 18.7472 18.7472C21.5298 15.9645 22.6675 12.4324 22.0311 9.63419C22.1012 10.3568 22.0485 11.13 21.8791 11.9264C21.4349 14.0147 20.1873 16.2732 18.2303 18.2303C16.2732 20.1874 14.0147 21.4349 11.9263 21.8791C11.13 22.0485 10.3567 22.1013 9.63415 22.0311ZM11.8907 21.632C10.9094 21.8408 9.97327 21.8658 9.13221 21.7004C9.84727 21.7349 10.6311 21.6272 11.4484 21.3894C13.4091 20.8191 15.5869 19.4953 17.5411 17.5411C19.4952 15.587 20.8191 13.4091 21.3894 11.4485C21.6272 10.6311 21.7348 9.84731 21.7003 9.13225C21.8657 9.97332 21.8407 10.9095 21.632 11.8908C21.2001 13.9212 19.9825 16.1335 18.058 18.058C16.1334 19.9826 13.9212 21.2001 11.8907 21.632ZM8.66489 21.3977C9.46742 21.524 10.396 21.4374 11.3939 21.1471C13.3027 20.5918 15.4413 19.2963 17.3688 17.3688C19.2962 15.4414 20.5918 13.3028 21.147 11.394C21.4373 10.396 21.524 9.46746 21.3976 8.66493C21.3872 9.35852 21.2136 10.1423 20.8987 10.9713C20.2028 12.8034 18.8033 14.9005 16.8519 16.8519C14.9005 18.8033 12.8033 20.2028 10.9713 20.8987C10.1422 21.2136 9.35848 21.3873 8.66489 21.3977ZM10.8964 20.6632C9.88379 21.0478 8.97379 21.2052 8.2283 21.1252C8.88073 21.0617 9.6525 20.8126 10.4947 20.4067C12.1974 19.5861 14.2139 18.1115 16.1627 16.1627C18.1115 14.2139 19.586 12.1975 20.4067 10.4947C20.8126 9.65255 21.0616 8.88078 21.1252 8.22835C21.2051 8.97384 21.0478 9.88384 20.6631 10.8965C19.984 12.6844 18.6098 14.7494 16.6796 16.6796C14.7494 18.6099 12.6844 19.984 10.8964 20.6632ZM7.82557 20.8868C7.94428 20.8914 8.07005 20.8876 8.20268 20.8754C8.81712 20.819 9.56401 20.5826 10.3984 20.1805C12.0661 19.3766 14.0576 17.9233 15.9904 15.9904C17.9232 14.0576 19.3766 12.0662 20.1804 10.3984C20.5825 9.56405 20.8189 8.81717 20.8754 8.20272C20.8876 8.0701 20.8914 7.94433 20.8868 7.82562C20.8774 7.86982 20.8669 7.91465 20.8553 7.96005C20.7099 8.53118 20.3851 9.23287 19.9134 10.0185C18.969 11.5915 17.4199 13.5272 15.4735 15.4735C13.5271 17.4199 11.5914 18.969 10.0185 19.9134C9.23283 20.3851 8.53113 20.71 7.96 20.8554C7.9146 20.867 7.86977 20.8774 7.82557 20.8868ZM7.91418 20.6107C7.65356 20.677 7.43517 20.7002 7.25732 20.6849C8.5669 20.2177 11.5426 17.8538 14.6982 14.6982C17.8537 11.5427 20.2177 8.56694 20.6849 7.25737C20.7001 7.43522 20.677 7.65361 20.6106 7.91422C20.4744 8.44932 20.1643 9.12505 19.6991 9.89996C18.7696 11.4481 17.2365 13.366 15.3012 15.3013C13.366 17.2365 11.4481 18.7696 9.89992 19.6991C9.125 20.1644 8.44927 20.4744 7.91418 20.6107ZM20.365 6.81997C20.4641 6.80375 20.4996 6.81734 20.5074 6.82139C20.5115 6.82925 20.5251 6.86467 20.5088 6.96384C20.4885 7.08841 20.4277 7.26457 20.3167 7.49411C20.0958 7.95041 19.7045 8.56015 19.1661 9.28432C18.0917 10.7293 16.4601 12.5917 14.5259 14.5259C12.5916 16.4601 10.7293 18.0917 9.28428 19.1661C8.56011 19.7046 7.95037 20.0959 7.49406 20.3167C7.26452 20.4278 7.08836 20.4885 6.96379 20.5089C6.86462 20.5251 6.8292 20.5115 6.82134 20.5075C6.81729 20.4996 6.8037 20.4642 6.81993 20.365C6.84031 20.2404 6.90102 20.0643 7.01211 19.8347C7.23293 19.3784 7.62421 18.7687 8.16266 18.0445C9.23708 16.5995 10.8687 14.7372 12.8029 12.8029C14.7371 10.8687 16.5995 9.23712 18.0445 8.16271C18.7687 7.62426 19.3784 7.23298 19.8347 7.01215C20.0642 6.90107 20.2404 6.84035 20.365 6.81997Z" fill="url(#paint0_linear_113_2908)"/>
<path fill-rule="evenodd" clip-rule="evenodd" d="M5.58853 19.6457C1.92647 15.9836 2.04909 9.9182 5.98338 5.98391C9.91766 2.04962 15.9831 1.92701 19.6451 5.58906C20.2161 6.16001 17.5322 9.76952 13.6506 13.6511C9.76899 17.5328 6.15947 20.2166 5.58853 19.6457ZM3.51808 15.597C2.63638 12.4276 3.51418 8.7977 6.15567 6.15621C8.79717 3.51471 12.427 2.63691 15.5965 3.51862C12.647 3.00779 9.26097 4.08469 6.67256 6.6731C4.08415 9.26151 3.00725 12.6475 3.51808 15.597ZM6.84486 6.8454C4.13738 9.55288 3.13403 13.1345 3.8936 16.1262C3.51026 13.3372 4.72397 10.0001 7.36175 7.36229C9.99954 4.72451 13.3366 3.5108 16.1257 3.89414C13.134 3.13456 9.55235 4.13791 6.84486 6.8454ZM4.25014 16.6476C3.61374 13.8494 4.75136 10.3173 7.53405 7.53459C10.3167 4.7519 13.8488 3.61427 16.6471 4.25067C15.9245 4.1805 15.1512 4.23324 14.3549 4.40264C12.2665 4.84688 10.008 6.0944 8.05094 8.05148C6.09387 10.0086 4.84634 12.2671 4.40211 14.3554C4.23271 15.1518 4.17997 15.925 4.25014 16.6476ZM4.64921 14.391C4.44047 15.3723 4.41546 16.3085 4.5809 17.1495C4.54638 16.4345 4.65404 15.6507 4.89181 14.8333C5.46215 12.8727 6.78598 10.6948 8.74013 8.74067C10.6943 6.78652 12.8721 5.46269 14.8328 4.89234C15.6501 4.65458 16.4339 4.54692 17.149 4.58143C16.3079 4.416 15.3718 4.44101 14.3905 4.64975C12.36 5.08167 10.1478 6.29923 8.22324 8.22378C6.29869 10.1483 5.08113 12.3606 4.64921 14.391ZM4.8836 17.6169C4.75724 16.8143 4.84387 15.8857 5.13417 14.8878C5.68942 12.979 6.98496 10.8404 8.91243 8.91297C10.8399 6.9855 12.9785 5.68996 14.8873 5.1347C15.8852 4.8444 16.8138 4.75777 17.6163 4.88413C16.9227 4.89451 16.139 5.06817 15.3099 5.38308C13.4779 6.07898 11.3807 7.47847 9.42932 9.42986C7.47793 11.3812 6.07845 13.4784 5.38254 15.3105C5.06764 16.1395 4.89398 16.9233 4.8836 17.6169ZM5.61809 15.3853C5.23344 16.3979 5.07606 17.3079 5.15602 18.0534C5.21959 17.401 5.4686 16.6292 5.8745 15.7871C6.69516 14.0843 8.16972 12.0678 10.1185 10.119C12.0673 8.17025 14.0838 6.6957 15.7865 5.87504C16.6287 5.46914 17.4005 5.22012 18.0529 5.15655C17.3074 5.07659 16.3974 5.23398 15.3848 5.61863C13.5968 6.29776 11.5319 7.67192 9.60162 9.60215C7.67139 11.5324 6.29723 13.5974 5.61809 15.3853ZM5.39445 18.4562C5.38985 18.3375 5.39362 18.2117 5.4058 18.0791C5.46226 17.4646 5.69867 16.7177 6.1008 15.8834C6.90461 14.2156 8.35798 12.2242 10.2908 10.2913C12.2236 8.35852 14.2151 6.90514 15.8829 6.10133C16.7172 5.69921 17.4641 5.46279 18.0785 5.40634C18.2112 5.39415 18.3369 5.39039 18.4556 5.39498C18.4114 5.40434 18.3666 5.41483 18.3212 5.42639C17.7501 5.57182 17.0484 5.89667 16.2627 6.36836C14.6898 7.31276 12.7541 8.86187 10.8077 10.8082C8.86133 12.7546 7.31223 14.6903 6.36783 16.2633C5.89613 17.0489 5.57129 17.7506 5.42585 18.3217C5.41429 18.3671 5.40381 18.412 5.39445 18.4562ZM5.67057 18.3676C5.60421 18.6282 5.58109 18.8466 5.59632 19.0244C6.06354 17.7148 8.42749 14.7391 11.583 11.5836C14.7386 8.42803 17.7143 6.06407 19.0239 5.59685C18.846 5.58162 18.6276 5.60475 18.367 5.67111C17.8319 5.80737 17.1562 6.11741 16.3813 6.58267C14.8331 7.51218 12.9153 9.04528 10.98 10.9805C9.04475 12.9158 7.51165 14.8337 6.58213 16.3818C6.11687 17.1567 5.80683 17.8325 5.67057 18.3676ZM19.4613 5.91677C19.4775 5.8176 19.4639 5.78218 19.4599 5.77432C19.452 5.77027 19.4166 5.75668 19.3174 5.77291C19.1928 5.79328 19.0167 5.854 18.7871 5.96509C18.3308 6.18591 17.7211 6.57719 16.9969 7.11564C15.5519 8.19006 13.6896 9.82164 11.7553 11.7559C9.8211 13.6901 8.18952 15.5525 7.11511 16.9975C6.57666 17.7216 6.18538 18.3314 5.96455 18.7877C5.85346 19.0172 5.79275 19.1934 5.77237 19.3179C5.75615 19.4171 5.76973 19.4525 5.77378 19.4604C5.78165 19.4644 5.81707 19.478 5.91624 19.4618C6.04081 19.4414 6.21696 19.3807 6.44651 19.2696C6.90281 19.0488 7.51255 18.6575 8.23672 18.1191C9.68171 17.0447 11.5441 15.4131 13.4783 13.4788C15.4125 11.5446 17.0441 9.68225 18.1185 8.23726C18.657 7.51309 19.0483 6.90335 19.2691 6.44704C19.3802 6.2175 19.4409 6.04134 19.4613 5.91677Z" fill="url(#paint1_linear_113_2908)"/>
</g>
<defs>
<linearGradient id="paint0_linear_113_2908" x1="9.43591" y1="23.4926" x2="23.4925" y2="9.43596" gradientUnits="userSpaceOnUse">
<stop offset="0.0288462" stop-color="#2E99DB"/>
<stop offset="0.5" stop-color="#2C8BCA"/>
<stop offset="1"/>
</linearGradient>
<linearGradient id="paint1_linear_113_2908" x1="2.78869" y1="16.8458" x2="16.8453" y2="2.78923" gradientUnits="userSpaceOnUse">
<stop offset="0.0288462" stop-color="#2E99DB"/>
<stop offset="0.5" stop-color="#2C8BCA"/>
<stop offset="1"/>
</linearGradient>
<clipPath id="clip0_113_2908">
<rect width="26.1103" height="26.1103" fill="white"/>
</clipPath>
</defs>
</svg>
